<svg width="600" height="320" viewBox="0 0 600 320" fill="none" xmlns="http://www.w3.org/2000/svg">
<rect width="600" height="320" fill="white"/>
<path d="M529 64H71C35.6538 64 7 92.6538 7 128V256C7 291.346 35.6538 320 71 320H529C564.346 320 593 291.346 593 256V128C593 92.6538 564.346 64 529 64Z" fill="white"/>
<path d="M529 64.5H71C35.9299 64.5 7.5 92.9299 7.5 128V256C7.5 291.07 35.9299 319.5 71 319.5H529C564.07 319.5 592.5 291.07 592.5 256V128C592.5 92.9299 564.07 64.5 529 64.5Z" stroke="black"/>
<path d="M350.285 131.027H343.676L342.293 135H339.211L345.656 117.938H348.316L354.773 135H351.68L350.285 131.027ZM344.508 128.637H349.453L346.98 121.559L344.508 128.637ZM355.91 128.566C355.91 126.613 356.363 125.047 357.27 123.867C358.176 122.68 359.391 122.086 360.914 122.086C362.258 122.086 363.344 122.555 364.172 123.492V117H367.02V135H364.441L364.301 133.688C363.449 134.719 362.312 135.234 360.891 135.234C359.406 135.234 358.203 134.637 357.281 133.441C356.367 132.246 355.91 130.621 355.91 128.566ZM358.758 128.812C358.758 130.102 359.004 131.109 359.496 131.836C359.996 132.555 360.703 132.914 361.617 132.914C362.781 132.914 363.633 132.395 364.172 131.355V125.941C363.648 124.926 362.805 124.418 361.641 124.418C360.719 124.418 360.008 124.785 359.508 125.52C359.008 126.246 358.758 127.344 358.758 128.812ZM377.566 135C377.441 134.758 377.332 134.363 377.238 133.816C376.332 134.762 375.223 135.234 373.91 135.234C372.637 135.234 371.598 134.871 370.793 134.145C369.988 133.418 369.586 132.52 369.586 131.449C369.586 130.098 370.086 129.062 371.086 128.344C372.094 127.617 373.531 127.254 375.398 127.254H377.145V126.422C377.145 125.766 376.961 125.242 376.594 124.852C376.227 124.453 375.668 124.254 374.918 124.254C374.27 124.254 373.738 124.418 373.324 124.746C372.91 125.066 372.703 125.477 372.703 125.977H369.855C369.855 125.281 370.086 124.633 370.547 124.031C371.008 123.422 371.633 122.945 372.422 122.602C373.219 122.258 374.105 122.086 375.082 122.086C376.566 122.086 377.75 122.461 378.633 123.211C379.516 123.953 379.969 125 379.992 126.352V132.07C379.992 133.211 380.152 134.121 380.473 134.801V135H377.566ZM374.438 132.949C375 132.949 375.527 132.812 376.02 132.539C376.52 132.266 376.895 131.898 377.145 131.438V129.047H375.609C374.555 129.047 373.762 129.23 373.23 129.598C372.699 129.965 372.434 130.484 372.434 131.156C372.434 131.703 372.613 132.141 372.973 132.469C373.34 132.789 373.828 132.949 374.438 132.949ZM394.078 128.789C394.078 130.75 393.633 132.316 392.742 133.488C391.852 134.652 390.656 135.234 389.156 135.234C387.766 135.234 386.652 134.777 385.816 133.863V139.875H382.969V122.32H385.594L385.711 123.609C386.547 122.594 387.684 122.086 389.121 122.086C390.668 122.086 391.879 122.664 392.754 123.82C393.637 124.969 394.078 126.566 394.078 128.613V128.789ZM391.242 128.543C391.242 127.277 390.988 126.273 390.48 125.531C389.98 124.789 389.262 124.418 388.324 124.418C387.16 124.418 386.324 124.898 385.816 125.859V131.484C386.332 132.469 387.176 132.961 388.348 132.961C389.254 132.961 389.961 132.598 390.469 131.871C390.984 131.137 391.242 130.027 391.242 128.543ZM400.066 119.238V122.32H402.305V124.43H400.066V131.508C400.066 131.992 400.16 132.344 400.348 132.562C400.543 132.773 400.887 132.879 401.379 132.879C401.707 132.879 402.039 132.84 402.375 132.762V134.965C401.727 135.145 401.102 135.234 400.5 135.234C398.312 135.234 397.219 134.027 397.219 131.613V124.43H395.133V122.32H397.219V119.238H400.066Z" fill="#373E5F"/>
<path d="M342.302 167.862L342.493 169.175L342.773 167.992L344.742 161.047H345.85L347.771 167.992L348.044 169.195L348.256 167.855L349.801 161.047H351.12L348.707 171H347.511L345.46 163.747L345.303 162.988L345.146 163.747L343.02 171H341.823L339.417 161.047H340.729L342.302 167.862ZM355.235 171.137C354.233 171.137 353.417 170.809 352.788 170.152C352.159 169.492 351.845 168.61 351.845 167.507V167.274C351.845 166.541 351.984 165.887 352.262 165.312C352.544 164.734 352.936 164.283 353.438 163.959C353.943 163.631 354.49 163.467 355.078 163.467C356.04 163.467 356.787 163.784 357.32 164.417C357.854 165.05 358.12 165.957 358.12 167.138V167.664H353.109C353.128 168.393 353.34 168.983 353.745 169.435C354.155 169.881 354.675 170.104 355.304 170.104C355.75 170.104 356.129 170.013 356.438 169.831C356.748 169.649 357.02 169.407 357.252 169.106L358.024 169.708C357.405 170.66 356.475 171.137 355.235 171.137ZM355.078 164.506C354.568 164.506 354.139 164.693 353.793 165.066C353.447 165.436 353.232 165.955 353.15 166.625H356.855V166.529C356.819 165.887 356.646 165.39 356.336 165.039C356.026 164.684 355.607 164.506 355.078 164.506ZM364.252 163.604L364.286 164.424C364.828 163.786 365.56 163.467 366.48 163.467C367.515 163.467 368.219 163.863 368.593 164.656C368.839 164.301 369.158 164.014 369.55 163.795C369.946 163.576 370.413 163.467 370.951 163.467C372.574 163.467 373.398 164.326 373.426 166.044V171H372.161V166.119C372.161 165.59 372.04 165.196 371.799 164.937C371.557 164.672 371.152 164.54 370.582 164.54C370.113 164.54 369.723 164.681 369.413 164.964C369.103 165.242 368.923 165.618 368.873 166.092V171H367.602V166.153C367.602 165.078 367.075 164.54 366.022 164.54C365.193 164.54 364.626 164.893 364.32 165.6V171H363.056V163.604H364.252ZM379.906 171C379.833 170.854 379.774 170.594 379.729 170.221C379.141 170.831 378.439 171.137 377.623 171.137C376.894 171.137 376.295 170.932 375.825 170.521C375.36 170.107 375.128 169.583 375.128 168.949C375.128 168.179 375.42 167.582 376.003 167.158C376.591 166.73 377.416 166.516 378.478 166.516H379.708V165.935C379.708 165.493 379.576 165.142 379.312 164.882C379.047 164.618 378.658 164.485 378.143 164.485C377.691 164.485 377.313 164.599 377.008 164.827C376.702 165.055 376.55 165.331 376.55 165.654H375.278C375.278 165.285 375.408 164.93 375.668 164.588C375.932 164.242 376.288 163.968 376.734 163.768C377.186 163.567 377.68 163.467 378.218 163.467C379.07 163.467 379.738 163.681 380.221 164.109C380.704 164.533 380.954 165.119 380.973 165.866V169.271C380.973 169.95 381.059 170.49 381.232 170.891V171H379.906ZM377.808 170.036C378.204 170.036 378.58 169.934 378.936 169.729C379.291 169.523 379.549 169.257 379.708 168.929V167.411H378.717C377.167 167.411 376.393 167.865 376.393 168.771C376.393 169.168 376.525 169.478 376.789 169.701C377.053 169.924 377.393 170.036 377.808 170.036ZM385.02 167.575L384.227 168.402V171H382.962V160.5H384.227V166.851L384.903 166.037L387.207 163.604H388.745L385.867 166.693L389.08 171H387.597L385.02 167.575ZM392.983 171.137C391.981 171.137 391.165 170.809 390.536 170.152C389.907 169.492 389.593 168.61 389.593 167.507V167.274C389.593 166.541 389.732 165.887 390.01 165.312C390.292 164.734 390.684 164.283 391.186 163.959C391.691 163.631 392.238 163.467 392.826 163.467C393.788 163.467 394.535 163.784 395.068 164.417C395.602 165.05 395.868 165.957 395.868 167.138V167.664H390.857C390.876 168.393 391.088 168.983 391.493 169.435C391.903 169.881 392.423 170.104 393.052 170.104C393.498 170.104 393.877 170.013 394.187 169.831C394.496 169.649 394.768 169.407 395 169.106L395.772 169.708C395.153 170.66 394.223 171.137 392.983 171.137ZM392.826 164.506C392.316 164.506 391.887 164.693 391.541 165.066C391.195 165.436 390.98 165.955 390.898 166.625H394.604V166.529C394.567 165.887 394.394 165.39 394.084 165.039C393.774 164.684 393.355 164.506 392.826 164.506ZM403.88 171.137C402.877 171.137 402.062 170.809 401.433 170.152C400.804 169.492 400.489 168.61 400.489 167.507V167.274C400.489 166.541 400.628 165.887 400.906 165.312C401.189 164.734 401.581 164.283 402.082 163.959C402.588 163.631 403.135 163.467 403.723 163.467C404.684 163.467 405.432 163.784 405.965 164.417C406.498 165.05 406.765 165.957 406.765 167.138V167.664H401.754C401.772 168.393 401.984 168.983 402.39 169.435C402.8 169.881 403.319 170.104 403.948 170.104C404.395 170.104 404.773 170.013 405.083 169.831C405.393 169.649 405.664 169.407 405.896 169.106L406.669 169.708C406.049 170.66 405.119 171.137 403.88 171.137ZM403.723 164.506C403.212 164.506 402.784 164.693 402.438 165.066C402.091 165.436 401.877 165.955 401.795 166.625H405.5V166.529C405.464 165.887 405.29 165.39 404.98 165.039C404.671 164.684 404.251 164.506 403.723 164.506ZM410.579 169.284L412.411 163.604H413.703L411.051 171H410.087L407.407 163.604H408.699L410.579 169.284ZM417.894 171.137C416.891 171.137 416.075 170.809 415.446 170.152C414.817 169.492 414.503 168.61 414.503 167.507V167.274C414.503 166.541 414.642 165.887 414.92 165.312C415.202 164.734 415.594 164.283 416.096 163.959C416.602 163.631 417.148 163.467 417.736 163.467C418.698 163.467 419.445 163.784 419.979 164.417C420.512 165.05 420.778 165.957 420.778 167.138V167.664H415.768C415.786 168.393 415.998 168.983 416.403 169.435C416.813 169.881 417.333 170.104 417.962 170.104C418.409 170.104 418.787 170.013 419.097 169.831C419.407 169.649 419.678 169.407 419.91 169.106L420.683 169.708C420.063 170.66 419.133 171.137 417.894 171.137ZM417.736 164.506C417.226 164.506 416.798 164.693 416.451 165.066C416.105 165.436 415.891 165.955 415.809 166.625H419.514V166.529C419.477 165.887 419.304 165.39 418.994 165.039C418.684 164.684 418.265 164.506 417.736 164.506ZM425.823 164.738C425.632 164.706 425.424 164.69 425.201 164.69C424.372 164.69 423.809 165.044 423.513 165.75V171H422.248V163.604H423.479L423.499 164.458C423.914 163.797 424.502 163.467 425.263 163.467C425.509 163.467 425.696 163.499 425.823 163.562V164.738ZM429.535 169.147L431.258 163.604H432.611L429.638 172.142C429.177 173.372 428.446 173.987 427.443 173.987L427.204 173.967L426.732 173.878V172.853L427.074 172.88C427.503 172.88 427.835 172.793 428.072 172.62C428.314 172.447 428.512 172.13 428.667 171.67L428.947 170.918L426.309 163.604H427.689L429.535 169.147ZM441.785 171C441.712 170.854 441.653 170.594 441.607 170.221C441.02 170.831 440.318 171.137 439.502 171.137C438.773 171.137 438.174 170.932 437.704 170.521C437.239 170.107 437.007 169.583 437.007 168.949C437.007 168.179 437.299 167.582 437.882 167.158C438.47 166.73 439.295 166.516 440.356 166.516H441.587V165.935C441.587 165.493 441.455 165.142 441.19 164.882C440.926 164.618 440.536 164.485 440.021 164.485C439.57 164.485 439.192 164.599 438.887 164.827C438.581 165.055 438.429 165.331 438.429 165.654H437.157C437.157 165.285 437.287 164.93 437.547 164.588C437.811 164.242 438.167 163.968 438.613 163.768C439.064 163.567 439.559 163.467 440.097 163.467C440.949 163.467 441.617 163.681 442.1 164.109C442.583 164.533 442.833 165.119 442.852 165.866V169.271C442.852 169.95 442.938 170.49 443.111 170.891V171H441.785ZM439.687 170.036C440.083 170.036 440.459 169.934 440.814 169.729C441.17 169.523 441.427 169.257 441.587 168.929V167.411H440.596C439.046 167.411 438.271 167.865 438.271 168.771C438.271 169.168 438.404 169.478 438.668 169.701C438.932 169.924 439.272 170.036 439.687 170.036ZM446.55 161.812V163.604H447.931V164.581H446.55V169.168C446.55 169.464 446.611 169.688 446.734 169.838C446.857 169.984 447.067 170.057 447.363 170.057C447.509 170.057 447.71 170.029 447.965 169.975V171C447.632 171.091 447.309 171.137 446.994 171.137C446.429 171.137 446.003 170.966 445.716 170.624C445.429 170.282 445.285 169.797 445.285 169.168V164.581H443.938V163.604H445.285V161.812H446.55ZM451.13 161.812V163.604H452.511V164.581H451.13V169.168C451.13 169.464 451.191 169.688 451.314 169.838C451.438 169.984 451.647 170.057 451.943 170.057C452.089 170.057 452.29 170.029 452.545 169.975V171C452.212 171.091 451.889 171.137 451.574 171.137C451.009 171.137 450.583 170.966 450.296 170.624C450.009 170.282 449.865 169.797 449.865 169.168V164.581H448.519V163.604H449.865V161.812H451.13ZM457.063 171.137C456.061 171.137 455.245 170.809 454.616 170.152C453.987 169.492 453.673 168.61 453.673 167.507V167.274C453.673 166.541 453.812 165.887 454.09 165.312C454.372 164.734 454.764 164.283 455.266 163.959C455.771 163.631 456.318 163.467 456.906 163.467C457.868 163.467 458.615 163.784 459.148 164.417C459.682 165.05 459.948 165.957 459.948 167.138V167.664H454.938C454.956 168.393 455.168 168.983 455.573 169.435C455.983 169.881 456.503 170.104 457.132 170.104C457.578 170.104 457.957 170.013 458.267 169.831C458.576 169.649 458.848 169.407 459.08 169.106L459.853 169.708C459.233 170.66 458.303 171.137 457.063 171.137ZM456.906 164.506C456.396 164.506 455.967 164.693 455.621 165.066C455.275 165.436 455.061 165.955 454.979 166.625H458.684V166.529C458.647 165.887 458.474 165.39 458.164 165.039C457.854 164.684 457.435 164.506 456.906 164.506ZM462.607 163.604L462.642 164.424C463.184 163.786 463.915 163.467 464.836 163.467C465.87 163.467 466.575 163.863 466.948 164.656C467.194 164.301 467.513 164.014 467.905 163.795C468.302 163.576 468.769 163.467 469.307 163.467C470.929 163.467 471.754 164.326 471.781 166.044V171H470.517V166.119C470.517 165.59 470.396 165.196 470.154 164.937C469.913 164.672 469.507 164.54 468.938 164.54C468.468 164.54 468.078 164.681 467.769 164.964C467.459 165.242 467.279 165.618 467.229 166.092V171H465.957V166.153C465.957 165.078 465.431 164.54 464.378 164.54C463.549 164.54 462.981 164.893 462.676 165.6V171H461.411V163.604H462.607ZM479.943 167.384C479.943 168.509 479.686 169.416 479.171 170.104C478.656 170.793 477.959 171.137 477.079 171.137C476.181 171.137 475.475 170.852 474.96 170.282V173.844H473.695V163.604H474.851L474.912 164.424C475.427 163.786 476.143 163.467 477.059 163.467C477.947 163.467 478.649 163.802 479.164 164.472C479.684 165.142 479.943 166.074 479.943 167.268V167.384ZM478.679 167.24C478.679 166.406 478.501 165.748 478.146 165.265C477.79 164.782 477.302 164.54 476.683 164.54C475.917 164.54 475.343 164.88 474.96 165.559V169.093C475.338 169.767 475.917 170.104 476.696 170.104C477.302 170.104 477.783 169.865 478.139 169.387C478.499 168.904 478.679 168.188 478.679 167.24ZM483.272 161.812V163.604H484.653V164.581H483.272V169.168C483.272 169.464 483.334 169.688 483.457 169.838C483.58 169.984 483.79 170.057 484.086 170.057C484.232 170.057 484.432 170.029 484.688 169.975V171C484.355 171.091 484.031 171.137 483.717 171.137C483.152 171.137 482.726 170.966 482.438 170.624C482.151 170.282 482.008 169.797 482.008 169.168V164.581H480.661V163.604H482.008V161.812H483.272ZM491.325 161.812V163.604H492.706V164.581H491.325V169.168C491.325 169.464 491.387 169.688 491.51 169.838C491.633 169.984 491.842 170.057 492.139 170.057C492.285 170.057 492.485 170.029 492.74 169.975V171C492.408 171.091 492.084 171.137 491.77 171.137C491.204 171.137 490.778 170.966 490.491 170.624C490.204 170.282 490.061 169.797 490.061 169.168V164.581H488.714V163.604H490.061V161.812H491.325ZM493.718 167.233C493.718 166.509 493.859 165.857 494.142 165.278C494.429 164.7 494.825 164.253 495.331 163.938C495.841 163.624 496.423 163.467 497.074 163.467C498.081 163.467 498.895 163.815 499.515 164.513C500.139 165.21 500.451 166.137 500.451 167.295V167.384C500.451 168.104 500.312 168.751 500.034 169.325C499.761 169.895 499.367 170.339 498.852 170.658C498.341 170.977 497.753 171.137 497.088 171.137C496.085 171.137 495.272 170.788 494.647 170.091C494.028 169.394 493.718 168.471 493.718 167.322V167.233ZM494.989 167.384C494.989 168.204 495.178 168.863 495.557 169.359C495.939 169.856 496.45 170.104 497.088 170.104C497.73 170.104 498.241 169.854 498.619 169.353C498.997 168.847 499.187 168.14 499.187 167.233C499.187 166.422 498.993 165.766 498.605 165.265C498.223 164.759 497.712 164.506 497.074 164.506C496.45 164.506 495.946 164.754 495.563 165.251C495.181 165.748 494.989 166.459 494.989 167.384ZM511.771 167.384C511.771 168.514 511.512 169.423 510.992 170.111C510.473 170.795 509.775 171.137 508.9 171.137C507.966 171.137 507.244 170.806 506.733 170.146L506.672 171H505.51V160.5H506.774V164.417C507.285 163.784 507.989 163.467 508.887 163.467C509.785 163.467 510.489 163.806 510.999 164.485C511.514 165.164 511.771 166.094 511.771 167.274V167.384ZM510.507 167.24C510.507 166.379 510.34 165.714 510.008 165.244C509.675 164.775 509.197 164.54 508.572 164.54C507.738 164.54 507.139 164.927 506.774 165.702V168.901C507.162 169.676 507.766 170.063 508.586 170.063C509.192 170.063 509.664 169.829 510.001 169.359C510.338 168.89 510.507 168.184 510.507 167.24ZM516.44 171.137C515.438 171.137 514.622 170.809 513.993 170.152C513.364 169.492 513.05 168.61 513.05 167.507V167.274C513.05 166.541 513.189 165.887 513.467 165.312C513.749 164.734 514.141 164.283 514.643 163.959C515.148 163.631 515.695 163.467 516.283 163.467C517.245 163.467 517.992 163.784 518.525 164.417C519.059 165.05 519.325 165.957 519.325 167.138V167.664H514.314C514.333 168.393 514.545 168.983 514.95 169.435C515.36 169.881 515.88 170.104 516.509 170.104C516.955 170.104 517.334 170.013 517.644 169.831C517.953 169.649 518.225 169.407 518.457 169.106L519.229 169.708C518.61 170.66 517.68 171.137 516.44 171.137ZM516.283 164.506C515.773 164.506 515.344 164.693 514.998 165.066C514.652 165.436 514.438 165.955 514.355 166.625H518.061V166.529C518.024 165.887 517.851 165.39 517.541 165.039C517.231 164.684 516.812 164.506 516.283 164.506ZM344.264 185.038C344.264 184.696 344.134 184.432 343.874 184.245C343.619 184.054 343.17 183.89 342.527 183.753C341.889 183.616 341.381 183.452 341.003 183.261C340.629 183.069 340.351 182.841 340.169 182.577C339.991 182.313 339.902 181.998 339.902 181.634C339.902 181.028 340.158 180.515 340.668 180.096C341.183 179.676 341.839 179.467 342.637 179.467C343.475 179.467 344.154 179.683 344.674 180.116C345.198 180.549 345.46 181.103 345.46 181.777H344.188C344.188 181.431 344.04 181.132 343.744 180.882C343.452 180.631 343.083 180.506 342.637 180.506C342.176 180.506 341.816 180.606 341.557 180.807C341.297 181.007 341.167 181.269 341.167 181.593C341.167 181.898 341.288 182.128 341.529 182.283C341.771 182.438 342.206 182.586 342.835 182.728C343.468 182.869 343.981 183.037 344.373 183.233C344.765 183.429 345.054 183.666 345.241 183.944C345.433 184.218 345.528 184.553 345.528 184.949C345.528 185.61 345.264 186.141 344.735 186.542C344.207 186.938 343.521 187.137 342.678 187.137C342.085 187.137 341.561 187.032 341.105 186.822C340.65 186.613 340.292 186.321 340.032 185.947C339.777 185.569 339.649 185.161 339.649 184.724H340.914C340.937 185.147 341.105 185.485 341.42 185.735C341.739 185.981 342.158 186.104 342.678 186.104C343.156 186.104 343.539 186.009 343.826 185.817C344.118 185.621 344.264 185.362 344.264 185.038ZM351.742 186.269C351.25 186.847 350.528 187.137 349.575 187.137C348.787 187.137 348.185 186.909 347.771 186.453C347.36 185.993 347.153 185.314 347.148 184.416V179.604H348.413V184.382C348.413 185.503 348.869 186.063 349.78 186.063C350.746 186.063 351.389 185.703 351.708 184.983V179.604H352.973V187H351.77L351.742 186.269ZM356.274 187H355.01V179.604H356.274V187ZM354.907 177.642C354.907 177.437 354.969 177.263 355.092 177.122C355.219 176.981 355.406 176.91 355.652 176.91C355.898 176.91 356.085 176.981 356.213 177.122C356.34 177.263 356.404 177.437 356.404 177.642C356.404 177.847 356.34 178.018 356.213 178.154C356.085 178.291 355.898 178.359 355.652 178.359C355.406 178.359 355.219 178.291 355.092 178.154C354.969 178.018 354.907 177.847 354.907 177.642ZM360.021 177.812V179.604H361.401V180.581H360.021V185.168C360.021 185.464 360.082 185.688 360.205 185.838C360.328 185.984 360.538 186.057 360.834 186.057C360.98 186.057 361.18 186.029 361.436 185.975V187C361.103 187.091 360.779 187.137 360.465 187.137C359.9 187.137 359.474 186.966 359.187 186.624C358.899 186.282 358.756 185.797 358.756 185.168V180.581H357.409V179.604H358.756V177.812H360.021ZM367.451 187C367.378 186.854 367.319 186.594 367.273 186.221C366.686 186.831 365.984 187.137 365.168 187.137C364.439 187.137 363.84 186.932 363.37 186.521C362.905 186.107 362.673 185.583 362.673 184.949C362.673 184.179 362.965 183.582 363.548 183.158C364.136 182.73 364.961 182.516 366.022 182.516H367.253V181.935C367.253 181.493 367.121 181.142 366.856 180.882C366.592 180.618 366.202 180.485 365.688 180.485C365.236 180.485 364.858 180.599 364.553 180.827C364.247 181.055 364.095 181.331 364.095 181.654H362.823C362.823 181.285 362.953 180.93 363.213 180.588C363.477 180.242 363.833 179.968 364.279 179.768C364.73 179.567 365.225 179.467 365.763 179.467C366.615 179.467 367.283 179.681 367.766 180.109C368.249 180.533 368.499 181.119 368.518 181.866V185.271C368.518 185.95 368.604 186.49 368.777 186.891V187H367.451ZM365.353 186.036C365.749 186.036 366.125 185.934 366.48 185.729C366.836 185.523 367.093 185.257 367.253 184.929V183.411H366.262C364.712 183.411 363.938 183.865 363.938 184.771C363.938 185.168 364.07 185.478 364.334 185.701C364.598 185.924 364.938 186.036 365.353 186.036ZM376.762 183.384C376.762 184.514 376.502 185.423 375.982 186.111C375.463 186.795 374.766 187.137 373.891 187.137C372.956 187.137 372.234 186.806 371.724 186.146L371.662 187H370.5V176.5H371.765V180.417C372.275 179.784 372.979 179.467 373.877 179.467C374.775 179.467 375.479 179.806 375.989 180.485C376.504 181.164 376.762 182.094 376.762 183.274V183.384ZM375.497 183.24C375.497 182.379 375.331 181.714 374.998 181.244C374.665 180.775 374.187 180.54 373.562 180.54C372.729 180.54 372.129 180.927 371.765 181.702V184.901C372.152 185.676 372.756 186.063 373.576 186.063C374.182 186.063 374.654 185.829 374.991 185.359C375.328 184.89 375.497 184.184 375.497 183.24ZM379.735 187H378.471V176.5H379.735V187ZM384.835 187.137C383.832 187.137 383.017 186.809 382.388 186.152C381.759 185.492 381.444 184.61 381.444 183.507V183.274C381.444 182.541 381.583 181.887 381.861 181.312C382.144 180.734 382.536 180.283 383.037 179.959C383.543 179.631 384.09 179.467 384.678 179.467C385.639 179.467 386.387 179.784 386.92 180.417C387.453 181.05 387.72 181.957 387.72 183.138V183.664H382.709C382.727 184.393 382.939 184.983 383.345 185.435C383.755 185.881 384.274 186.104 384.903 186.104C385.35 186.104 385.728 186.013 386.038 185.831C386.348 185.649 386.619 185.407 386.852 185.106L387.624 185.708C387.004 186.66 386.075 187.137 384.835 187.137ZM384.678 180.506C384.167 180.506 383.739 180.693 383.393 181.066C383.046 181.436 382.832 181.955 382.75 182.625H386.455V182.529C386.419 181.887 386.245 181.39 385.936 181.039C385.626 180.684 385.206 180.506 384.678 180.506ZM394.036 187H392.771V179.604H394.036V187ZM392.669 177.642C392.669 177.437 392.73 177.263 392.854 177.122C392.981 176.981 393.168 176.91 393.414 176.91C393.66 176.91 393.847 176.981 393.975 177.122C394.102 177.263 394.166 177.437 394.166 177.642C394.166 177.847 394.102 178.018 393.975 178.154C393.847 178.291 393.66 178.359 393.414 178.359C393.168 178.359 392.981 178.291 392.854 178.154C392.73 178.018 392.669 177.847 392.669 177.642ZM397.263 179.604L397.304 180.533C397.869 179.822 398.607 179.467 399.519 179.467C401.082 179.467 401.87 180.349 401.884 182.112V187H400.619V182.105C400.615 181.572 400.492 181.178 400.25 180.923C400.013 180.668 399.642 180.54 399.136 180.54C398.726 180.54 398.366 180.649 398.056 180.868C397.746 181.087 397.504 181.374 397.331 181.729V187H396.066V179.604H397.263ZM408.979 177.812V179.604H410.36V180.581H408.979V185.168C408.979 185.464 409.041 185.688 409.164 185.838C409.287 185.984 409.497 186.057 409.793 186.057C409.939 186.057 410.139 186.029 410.395 185.975V187C410.062 187.091 409.738 187.137 409.424 187.137C408.859 187.137 408.433 186.966 408.146 186.624C407.858 186.282 407.715 185.797 407.715 185.168V180.581H406.368V179.604H407.715V177.812H408.979ZM414.913 187.137C413.91 187.137 413.095 186.809 412.466 186.152C411.837 185.492 411.522 184.61 411.522 183.507V183.274C411.522 182.541 411.661 181.887 411.939 181.312C412.222 180.734 412.614 180.283 413.115 179.959C413.621 179.631 414.168 179.467 414.756 179.467C415.717 179.467 416.465 179.784 416.998 180.417C417.531 181.05 417.798 181.957 417.798 183.138V183.664H412.787C412.805 184.393 413.017 184.983 413.423 185.435C413.833 185.881 414.353 186.104 414.981 186.104C415.428 186.104 415.806 186.013 416.116 185.831C416.426 185.649 416.697 185.407 416.93 185.106L417.702 185.708C417.082 186.66 416.153 187.137 414.913 187.137ZM414.756 180.506C414.245 180.506 413.817 180.693 413.471 181.066C413.124 181.436 412.91 181.955 412.828 182.625H416.533V182.529C416.497 181.887 416.324 181.39 416.014 181.039C415.704 180.684 415.285 180.506 414.756 180.506ZM422.843 180.738C422.651 180.706 422.444 180.69 422.221 180.69C421.391 180.69 420.828 181.044 420.532 181.75V187H419.268V179.604H420.498L420.519 180.458C420.933 179.797 421.521 179.467 422.282 179.467C422.528 179.467 422.715 179.499 422.843 179.562V180.738ZM425.201 179.604L425.235 180.424C425.778 179.786 426.509 179.467 427.43 179.467C428.464 179.467 429.168 179.863 429.542 180.656C429.788 180.301 430.107 180.014 430.499 179.795C430.896 179.576 431.363 179.467 431.9 179.467C433.523 179.467 434.348 180.326 434.375 182.044V187H433.11V182.119C433.11 181.59 432.99 181.196 432.748 180.937C432.507 180.672 432.101 180.54 431.531 180.54C431.062 180.54 430.672 180.681 430.362 180.964C430.052 181.242 429.872 181.618 429.822 182.092V187H428.551V182.153C428.551 181.078 428.024 180.54 426.972 180.54C426.142 180.54 425.575 180.893 425.27 181.6V187H424.005V179.604H425.201ZM440.596 185.038C440.596 184.696 440.466 184.432 440.206 184.245C439.951 184.054 439.502 183.89 438.859 183.753C438.221 183.616 437.713 183.452 437.335 183.261C436.961 183.069 436.683 182.841 436.501 182.577C436.323 182.313 436.234 181.998 436.234 181.634C436.234 181.028 436.49 180.515 437 180.096C437.515 179.676 438.171 179.467 438.969 179.467C439.807 179.467 440.486 179.683 441.006 180.116C441.53 180.549 441.792 181.103 441.792 181.777H440.521C440.521 181.431 440.372 181.132 440.076 180.882C439.785 180.631 439.415 180.506 438.969 180.506C438.508 180.506 438.148 180.606 437.889 180.807C437.629 181.007 437.499 181.269 437.499 181.593C437.499 181.898 437.62 182.128 437.861 182.283C438.103 182.438 438.538 182.586 439.167 182.728C439.8 182.869 440.313 183.037 440.705 183.233C441.097 183.429 441.386 183.666 441.573 183.944C441.765 184.218 441.86 184.553 441.86 184.949C441.86 185.61 441.596 186.141 441.067 186.542C440.539 186.938 439.853 187.137 439.01 187.137C438.417 187.137 437.893 187.032 437.438 186.822C436.982 186.613 436.624 186.321 436.364 185.947C436.109 185.569 435.981 185.161 435.981 184.724H437.246C437.269 185.147 437.438 185.485 437.752 185.735C438.071 185.981 438.49 186.104 439.01 186.104C439.488 186.104 439.871 186.009 440.158 185.817C440.45 185.621 440.596 185.362 440.596 185.038ZM446.646 183.233C446.646 182.509 446.787 181.857 447.069 181.278C447.356 180.7 447.753 180.253 448.259 179.938C448.769 179.624 449.35 179.467 450.002 179.467C451.009 179.467 451.823 179.815 452.442 180.513C453.067 181.21 453.379 182.137 453.379 183.295V183.384C453.379 184.104 453.24 184.751 452.962 185.325C452.688 185.895 452.294 186.339 451.779 186.658C451.269 186.977 450.681 187.137 450.016 187.137C449.013 187.137 448.2 186.788 447.575 186.091C446.955 185.394 446.646 184.471 446.646 183.322V183.233ZM447.917 183.384C447.917 184.204 448.106 184.863 448.484 185.359C448.867 185.856 449.378 186.104 450.016 186.104C450.658 186.104 451.169 185.854 451.547 185.353C451.925 184.847 452.114 184.14 452.114 183.233C452.114 182.422 451.921 181.766 451.533 181.265C451.15 180.759 450.64 180.506 450.002 180.506C449.378 180.506 448.874 180.754 448.491 181.251C448.108 181.748 447.917 182.459 447.917 183.384ZM455.587 187V180.581H454.418V179.604H455.587V178.845C455.587 178.052 455.799 177.439 456.223 177.006C456.646 176.573 457.246 176.356 458.021 176.356C458.312 176.356 458.602 176.395 458.889 176.473L458.82 177.498C458.606 177.457 458.378 177.437 458.137 177.437C457.727 177.437 457.41 177.557 457.187 177.799C456.963 178.036 456.852 178.378 456.852 178.824V179.604H458.431V180.581H456.852V187H455.587ZM469.566 183.384C469.566 184.514 469.307 185.423 468.787 186.111C468.268 186.795 467.57 187.137 466.695 187.137C465.761 187.137 465.039 186.806 464.528 186.146L464.467 187H463.305V176.5H464.569V180.417C465.08 179.784 465.784 179.467 466.682 179.467C467.579 179.467 468.284 179.806 468.794 180.485C469.309 181.164 469.566 182.094 469.566 183.274V183.384ZM468.302 183.24C468.302 182.379 468.135 181.714 467.803 181.244C467.47 180.775 466.992 180.54 466.367 180.54C465.533 180.54 464.934 180.927 464.569 181.702V184.901C464.957 185.676 465.561 186.063 466.381 186.063C466.987 186.063 467.459 185.829 467.796 185.359C468.133 184.89 468.302 184.184 468.302 183.24ZM470.831 183.233C470.831 182.509 470.972 181.857 471.255 181.278C471.542 180.7 471.938 180.253 472.444 179.938C472.955 179.624 473.536 179.467 474.188 179.467C475.195 179.467 476.008 179.815 476.628 180.513C477.252 181.21 477.564 182.137 477.564 183.295V183.384C477.564 184.104 477.425 184.751 477.147 185.325C476.874 185.895 476.48 186.339 475.965 186.658C475.454 186.977 474.867 187.137 474.201 187.137C473.199 187.137 472.385 186.788 471.761 186.091C471.141 185.394 470.831 184.471 470.831 183.322V183.233ZM472.103 183.384C472.103 184.204 472.292 184.863 472.67 185.359C473.053 185.856 473.563 186.104 474.201 186.104C474.844 186.104 475.354 185.854 475.732 185.353C476.111 184.847 476.3 184.14 476.3 183.233C476.3 182.422 476.106 181.766 475.719 181.265C475.336 180.759 474.826 180.506 474.188 180.506C473.563 180.506 473.06 180.754 472.677 181.251C472.294 181.748 472.103 182.459 472.103 183.384ZM480.866 177.812V179.604H482.247V180.581H480.866V185.168C480.866 185.464 480.928 185.688 481.051 185.838C481.174 185.984 481.383 186.057 481.68 186.057C481.826 186.057 482.026 186.029 482.281 185.975V187C481.949 187.091 481.625 187.137 481.311 187.137C480.745 187.137 480.319 186.966 480.032 186.624C479.745 186.282 479.602 185.797 479.602 185.168V180.581H478.255V179.604H479.602V177.812H480.866ZM484.995 180.499C485.556 179.811 486.285 179.467 487.183 179.467C488.746 179.467 489.534 180.349 489.548 182.112V187H488.283V182.105C488.279 181.572 488.156 181.178 487.914 180.923C487.677 180.668 487.306 180.54 486.8 180.54C486.39 180.54 486.03 180.649 485.72 180.868C485.41 181.087 485.168 181.374 484.995 181.729V187H483.73V176.5H484.995V180.499ZM501.162 183.384C501.162 184.509 500.905 185.416 500.39 186.104C499.875 186.793 499.177 187.137 498.298 187.137C497.4 187.137 496.694 186.852 496.179 186.282V189.844H494.914V179.604H496.069L496.131 180.424C496.646 179.786 497.361 179.467 498.277 179.467C499.166 179.467 499.868 179.802 500.383 180.472C500.902 181.142 501.162 182.074 501.162 183.268V183.384ZM499.897 183.24C499.897 182.406 499.72 181.748 499.364 181.265C499.009 180.782 498.521 180.54 497.901 180.54C497.136 180.54 496.562 180.88 496.179 181.559V185.093C496.557 185.767 497.136 186.104 497.915 186.104C498.521 186.104 499.002 185.865 499.357 185.387C499.717 184.904 499.897 184.188 499.897 183.24ZM505.845 187.137C504.842 187.137 504.026 186.809 503.397 186.152C502.769 185.492 502.454 184.61 502.454 183.507V183.274C502.454 182.541 502.593 181.887 502.871 181.312C503.154 180.734 503.546 180.283 504.047 179.959C504.553 179.631 505.1 179.467 505.688 179.467C506.649 179.467 507.396 179.784 507.93 180.417C508.463 181.05 508.729 181.957 508.729 183.138V183.664H503.719C503.737 184.393 503.949 184.983 504.354 185.435C504.765 185.881 505.284 186.104 505.913 186.104C506.36 186.104 506.738 186.013 507.048 185.831C507.358 185.649 507.629 185.407 507.861 185.106L508.634 185.708C508.014 186.66 507.084 187.137 505.845 187.137ZM505.688 180.506C505.177 180.506 504.749 180.693 504.402 181.066C504.056 181.436 503.842 181.955 503.76 182.625H507.465V182.529C507.428 181.887 507.255 181.39 506.945 181.039C506.635 180.684 506.216 180.506 505.688 180.506ZM509.864 183.233C509.864 182.509 510.006 181.857 510.288 181.278C510.575 180.7 510.972 180.253 511.478 179.938C511.988 179.624 512.569 179.467 513.221 179.467C514.228 179.467 515.041 179.815 515.661 180.513C516.285 181.21 516.598 182.137 516.598 183.295V183.384C516.598 184.104 516.459 184.751 516.181 185.325C515.907 185.895 515.513 186.339 514.998 186.658C514.488 186.977 513.9 187.137 513.234 187.137C512.232 187.137 511.418 186.788 510.794 186.091C510.174 185.394 509.864 184.471 509.864 183.322V183.233ZM511.136 183.384C511.136 184.204 511.325 184.863 511.703 185.359C512.086 185.856 512.596 186.104 513.234 186.104C513.877 186.104 514.387 185.854 514.766 185.353C515.144 184.847 515.333 184.14 515.333 183.233C515.333 182.422 515.139 181.766 514.752 181.265C514.369 180.759 513.859 180.506 513.221 180.506C512.596 180.506 512.093 180.754 511.71 181.251C511.327 181.748 511.136 182.459 511.136 183.384ZM524.432 183.384C524.432 184.509 524.174 185.416 523.659 186.104C523.144 186.793 522.447 187.137 521.567 187.137C520.67 187.137 519.963 186.852 519.448 186.282V189.844H518.184V179.604H519.339L519.4 180.424C519.915 179.786 520.631 179.467 521.547 179.467C522.436 179.467 523.137 179.802 523.652 180.472C524.172 181.142 524.432 182.074 524.432 183.268V183.384ZM523.167 183.24C523.167 182.406 522.989 181.748 522.634 181.265C522.278 180.782 521.791 180.54 521.171 180.54C520.405 180.54 519.831 180.88 519.448 181.559V185.093C519.826 185.767 520.405 186.104 521.185 186.104C521.791 186.104 522.271 185.865 522.627 185.387C522.987 184.904 523.167 184.188 523.167 183.24ZM527.419 187H526.154V176.5H527.419V187ZM532.519 187.137C531.516 187.137 530.7 186.809 530.071 186.152C529.442 185.492 529.128 184.61 529.128 183.507V183.274C529.128 182.541 529.267 181.887 529.545 181.312C529.827 180.734 530.219 180.283 530.721 179.959C531.227 179.631 531.773 179.467 532.361 179.467C533.323 179.467 534.07 179.784 534.604 180.417C535.137 181.05 535.403 181.957 535.403 183.138V183.664H530.393C530.411 184.393 530.623 184.983 531.028 185.435C531.438 185.881 531.958 186.104 532.587 186.104C533.034 186.104 533.412 186.013 533.722 185.831C534.032 185.649 534.303 185.407 534.535 185.106L535.308 185.708C534.688 186.66 533.758 187.137 532.519 187.137ZM532.361 180.506C531.851 180.506 531.423 180.693 531.076 181.066C530.73 181.436 530.516 181.955 530.434 182.625H534.139V182.529C534.102 181.887 533.929 181.39 533.619 181.039C533.309 180.684 532.89 180.506 532.361 180.506ZM344.523 203C344.451 202.854 344.391 202.594 344.346 202.221C343.758 202.831 343.056 203.137 342.24 203.137C341.511 203.137 340.912 202.932 340.442 202.521C339.978 202.107 339.745 201.583 339.745 200.949C339.745 200.179 340.037 199.582 340.62 199.158C341.208 198.73 342.033 198.516 343.095 198.516H344.325V197.935C344.325 197.493 344.193 197.142 343.929 196.882C343.664 196.618 343.275 196.485 342.76 196.485C342.309 196.485 341.93 196.599 341.625 196.827C341.32 197.055 341.167 197.331 341.167 197.654H339.896C339.896 197.285 340.025 196.93 340.285 196.588C340.549 196.242 340.905 195.968 341.352 195.768C341.803 195.567 342.297 195.467 342.835 195.467C343.687 195.467 344.355 195.681 344.838 196.109C345.321 196.533 345.572 197.119 345.59 197.866V201.271C345.59 201.95 345.676 202.49 345.85 202.891V203H344.523ZM342.425 202.036C342.821 202.036 343.197 201.934 343.553 201.729C343.908 201.523 344.166 201.257 344.325 200.929V199.411H343.334C341.785 199.411 341.01 199.865 341.01 200.771C341.01 201.168 341.142 201.478 341.406 201.701C341.671 201.924 342.01 202.036 342.425 202.036ZM348.769 195.604L348.81 196.533C349.375 195.822 350.113 195.467 351.024 195.467C352.588 195.467 353.376 196.349 353.39 198.112V203H352.125V198.105C352.12 197.572 351.997 197.178 351.756 196.923C351.519 196.668 351.147 196.54 350.642 196.54C350.231 196.54 349.871 196.649 349.562 196.868C349.252 197.087 349.01 197.374 348.837 197.729V203H347.572V195.604H348.769ZM354.989 199.24C354.989 198.105 355.258 197.194 355.796 196.506C356.334 195.813 357.038 195.467 357.908 195.467C358.774 195.467 359.46 195.763 359.966 196.355V192.5H361.23V203H360.068L360.007 202.207C359.501 202.827 358.797 203.137 357.895 203.137C357.038 203.137 356.338 202.786 355.796 202.084C355.258 201.382 354.989 200.466 354.989 199.336V199.24ZM356.254 199.384C356.254 200.222 356.427 200.879 356.773 201.353C357.12 201.826 357.598 202.063 358.209 202.063C359.011 202.063 359.597 201.703 359.966 200.983V197.586C359.588 196.889 359.007 196.54 358.223 196.54C357.603 196.54 357.12 196.779 356.773 197.258C356.427 197.736 356.254 198.445 356.254 199.384ZM368.388 193.812V195.604H369.769V196.581H368.388V201.168C368.388 201.464 368.449 201.688 368.572 201.838C368.695 201.984 368.905 202.057 369.201 202.057C369.347 202.057 369.548 202.029 369.803 201.975V203C369.47 203.091 369.146 203.137 368.832 203.137C368.267 203.137 367.841 202.966 367.554 202.624C367.267 202.282 367.123 201.797 367.123 201.168V196.581H365.776V195.604H367.123V193.812H368.388ZM374.321 203.137C373.319 203.137 372.503 202.809 371.874 202.152C371.245 201.492 370.931 200.61 370.931 199.507V199.274C370.931 198.541 371.07 197.887 371.348 197.312C371.63 196.734 372.022 196.283 372.523 195.959C373.029 195.631 373.576 195.467 374.164 195.467C375.126 195.467 375.873 195.784 376.406 196.417C376.939 197.05 377.206 197.957 377.206 199.138V199.664H372.195C372.214 200.393 372.425 200.983 372.831 201.435C373.241 201.881 373.761 202.104 374.39 202.104C374.836 202.104 375.215 202.013 375.524 201.831C375.834 201.649 376.105 201.407 376.338 201.106L377.11 201.708C376.491 202.66 375.561 203.137 374.321 203.137ZM374.164 196.506C373.654 196.506 373.225 196.693 372.879 197.066C372.533 197.436 372.318 197.955 372.236 198.625H375.941V198.529C375.905 197.887 375.732 197.39 375.422 197.039C375.112 196.684 374.693 196.506 374.164 196.506ZM381.643 202.104C382.094 202.104 382.488 201.968 382.825 201.694C383.162 201.421 383.349 201.079 383.386 200.669H384.582C384.559 201.093 384.413 201.496 384.145 201.879C383.876 202.262 383.516 202.567 383.064 202.795C382.618 203.023 382.144 203.137 381.643 203.137C380.635 203.137 379.833 202.802 379.236 202.132C378.644 201.457 378.348 200.537 378.348 199.37V199.158C378.348 198.438 378.48 197.798 378.744 197.237C379.008 196.677 379.387 196.242 379.879 195.932C380.376 195.622 380.961 195.467 381.636 195.467C382.465 195.467 383.153 195.715 383.7 196.212C384.252 196.709 384.546 197.354 384.582 198.146H383.386C383.349 197.668 383.167 197.276 382.839 196.971C382.515 196.661 382.114 196.506 381.636 196.506C380.993 196.506 380.494 196.738 380.139 197.203C379.788 197.663 379.612 198.331 379.612 199.206V199.445C379.612 200.298 379.788 200.954 380.139 201.414C380.49 201.874 380.991 202.104 381.643 202.104ZM387.269 196.499C387.829 195.811 388.558 195.467 389.456 195.467C391.019 195.467 391.808 196.349 391.821 198.112V203H390.557V198.105C390.552 197.572 390.429 197.178 390.188 196.923C389.951 196.668 389.579 196.54 389.073 196.54C388.663 196.54 388.303 196.649 387.993 196.868C387.683 197.087 387.442 197.374 387.269 197.729V203H386.004V192.5H387.269V196.499ZM394.911 195.604L394.952 196.533C395.517 195.822 396.256 195.467 397.167 195.467C398.73 195.467 399.519 196.349 399.532 198.112V203H398.268V198.105C398.263 197.572 398.14 197.178 397.898 196.923C397.661 196.668 397.29 196.54 396.784 196.54C396.374 196.54 396.014 196.649 395.704 196.868C395.394 197.087 395.153 197.374 394.979 197.729V203H393.715V195.604H394.911ZM401.104 199.233C401.104 198.509 401.246 197.857 401.528 197.278C401.815 196.7 402.212 196.253 402.718 195.938C403.228 195.624 403.809 195.467 404.461 195.467C405.468 195.467 406.282 195.815 406.901 196.513C407.526 197.21 407.838 198.137 407.838 199.295V199.384C407.838 200.104 407.699 200.751 407.421 201.325C407.147 201.895 406.753 202.339 406.238 202.658C405.728 202.977 405.14 203.137 404.475 203.137C403.472 203.137 402.659 202.788 402.034 202.091C401.414 201.394 401.104 200.471 401.104 199.322V199.233ZM402.376 199.384C402.376 200.204 402.565 200.863 402.943 201.359C403.326 201.856 403.837 202.104 404.475 202.104C405.117 202.104 405.628 201.854 406.006 201.353C406.384 200.847 406.573 200.14 406.573 199.233C406.573 198.422 406.38 197.766 405.992 197.265C405.609 196.759 405.099 196.506 404.461 196.506C403.837 196.506 403.333 196.754 402.95 197.251C402.567 197.748 402.376 198.459 402.376 199.384ZM410.798 203H409.533V192.5H410.798V203ZM412.493 199.233C412.493 198.509 412.634 197.857 412.917 197.278C413.204 196.7 413.601 196.253 414.106 195.938C414.617 195.624 415.198 195.467 415.85 195.467C416.857 195.467 417.67 195.815 418.29 196.513C418.914 197.21 419.227 198.137 419.227 199.295V199.384C419.227 200.104 419.088 200.751 418.81 201.325C418.536 201.895 418.142 202.339 417.627 202.658C417.117 202.977 416.529 203.137 415.863 203.137C414.861 203.137 414.047 202.788 413.423 202.091C412.803 201.394 412.493 200.471 412.493 199.322V199.233ZM413.765 199.384C413.765 200.204 413.954 200.863 414.332 201.359C414.715 201.856 415.225 202.104 415.863 202.104C416.506 202.104 417.016 201.854 417.395 201.353C417.773 200.847 417.962 200.14 417.962 199.233C417.962 198.422 417.768 197.766 417.381 197.265C416.998 196.759 416.488 196.506 415.85 196.506C415.225 196.506 414.722 196.754 414.339 197.251C413.956 197.748 413.765 198.459 413.765 199.384ZM420.512 199.24C420.512 198.087 420.778 197.171 421.312 196.492C421.845 195.809 422.551 195.467 423.431 195.467C424.333 195.467 425.037 195.786 425.543 196.424L425.604 195.604H426.76V202.822C426.76 203.779 426.475 204.534 425.905 205.085C425.34 205.636 424.579 205.912 423.622 205.912C423.089 205.912 422.567 205.798 422.057 205.57C421.546 205.342 421.157 205.03 420.888 204.634L421.544 203.875C422.086 204.545 422.749 204.88 423.533 204.88C424.148 204.88 424.627 204.707 424.969 204.36C425.315 204.014 425.488 203.526 425.488 202.897V202.262C424.982 202.845 424.292 203.137 423.417 203.137C422.551 203.137 421.849 202.788 421.312 202.091C420.778 201.394 420.512 200.443 420.512 199.24ZM421.783 199.384C421.783 200.218 421.954 200.874 422.296 201.353C422.638 201.826 423.116 202.063 423.731 202.063C424.529 202.063 425.115 201.701 425.488 200.977V197.6C425.101 196.893 424.52 196.54 423.745 196.54C423.13 196.54 422.649 196.779 422.303 197.258C421.956 197.736 421.783 198.445 421.783 199.384ZM431.094 201.147L432.816 195.604H434.17L431.196 204.142C430.736 205.372 430.005 205.987 429.002 205.987L428.763 205.967L428.291 205.878V204.853L428.633 204.88C429.061 204.88 429.394 204.793 429.631 204.62C429.872 204.447 430.071 204.13 430.226 203.67L430.506 202.918L427.867 195.604H429.248L431.094 201.147ZM440.151 203H438.887V195.604H440.151V203ZM438.784 193.642C438.784 193.437 438.846 193.263 438.969 193.122C439.096 192.981 439.283 192.91 439.529 192.91C439.775 192.91 439.962 192.981 440.09 193.122C440.217 193.263 440.281 193.437 440.281 193.642C440.281 193.847 440.217 194.018 440.09 194.154C439.962 194.291 439.775 194.359 439.529 194.359C439.283 194.359 439.096 194.291 438.969 194.154C438.846 194.018 438.784 193.847 438.784 193.642ZM443.378 195.604L443.419 196.533C443.984 195.822 444.722 195.467 445.634 195.467C447.197 195.467 447.985 196.349 447.999 198.112V203H446.734V198.105C446.73 197.572 446.607 197.178 446.365 196.923C446.128 196.668 445.757 196.54 445.251 196.54C444.841 196.54 444.481 196.649 444.171 196.868C443.861 197.087 443.619 197.374 443.446 197.729V203H442.182V195.604H443.378ZM453.044 199.233C453.044 198.509 453.185 197.857 453.468 197.278C453.755 196.7 454.151 196.253 454.657 195.938C455.168 195.624 455.749 195.467 456.4 195.467C457.408 195.467 458.221 195.815 458.841 196.513C459.465 197.21 459.777 198.137 459.777 199.295V199.384C459.777 200.104 459.638 200.751 459.36 201.325C459.087 201.895 458.693 202.339 458.178 202.658C457.667 202.977 457.079 203.137 456.414 203.137C455.411 203.137 454.598 202.788 453.974 202.091C453.354 201.394 453.044 200.471 453.044 199.322V199.233ZM454.315 199.384C454.315 200.204 454.505 200.863 454.883 201.359C455.266 201.856 455.776 202.104 456.414 202.104C457.057 202.104 457.567 201.854 457.945 201.353C458.324 200.847 458.513 200.14 458.513 199.233C458.513 198.422 458.319 197.766 457.932 197.265C457.549 196.759 457.038 196.506 456.4 196.506C455.776 196.506 455.272 196.754 454.89 197.251C454.507 197.748 454.315 198.459 454.315 199.384ZM464.938 196.738C464.747 196.706 464.54 196.69 464.316 196.69C463.487 196.69 462.924 197.044 462.628 197.75V203H461.363V195.604H462.594L462.614 196.458C463.029 195.797 463.617 195.467 464.378 195.467C464.624 195.467 464.811 195.499 464.938 195.562V196.738ZM465.663 199.24C465.663 198.105 465.932 197.194 466.47 196.506C467.007 195.813 467.712 195.467 468.582 195.467C469.448 195.467 470.134 195.763 470.64 196.355V192.5H471.904V203H470.742L470.681 202.207C470.175 202.827 469.471 203.137 468.568 203.137C467.712 203.137 467.012 202.786 466.47 202.084C465.932 201.382 465.663 200.466 465.663 199.336V199.24ZM466.928 199.384C466.928 200.222 467.101 200.879 467.447 201.353C467.794 201.826 468.272 202.063 468.883 202.063C469.685 202.063 470.271 201.703 470.64 200.983V197.586C470.261 196.889 469.68 196.54 468.896 196.54C468.277 196.54 467.794 196.779 467.447 197.258C467.101 197.736 466.928 198.445 466.928 199.384ZM476.942 203.137C475.94 203.137 475.124 202.809 474.495 202.152C473.866 201.492 473.552 200.61 473.552 199.507V199.274C473.552 198.541 473.691 197.887 473.969 197.312C474.251 196.734 474.643 196.283 475.145 195.959C475.65 195.631 476.197 195.467 476.785 195.467C477.747 195.467 478.494 195.784 479.027 196.417C479.561 197.05 479.827 197.957 479.827 199.138V199.664H474.816C474.835 200.393 475.047 200.983 475.452 201.435C475.862 201.881 476.382 202.104 477.011 202.104C477.457 202.104 477.836 202.013 478.146 201.831C478.455 201.649 478.727 201.407 478.959 201.106L479.731 201.708C479.112 202.66 478.182 203.137 476.942 203.137ZM476.785 196.506C476.275 196.506 475.846 196.693 475.5 197.066C475.154 197.436 474.939 197.955 474.857 198.625H478.562V198.529C478.526 197.887 478.353 197.39 478.043 197.039C477.733 196.684 477.314 196.506 476.785 196.506ZM484.872 196.738C484.681 196.706 484.473 196.69 484.25 196.69C483.421 196.69 482.858 197.044 482.562 197.75V203H481.297V195.604H482.527L482.548 196.458C482.963 195.797 483.55 195.467 484.312 195.467C484.558 195.467 484.744 195.499 484.872 195.562V196.738ZM491.229 193.812V195.604H492.61V196.581H491.229V201.168C491.229 201.464 491.291 201.688 491.414 201.838C491.537 201.984 491.747 202.057 492.043 202.057C492.189 202.057 492.389 202.029 492.645 201.975V203C492.312 203.091 491.988 203.137 491.674 203.137C491.109 203.137 490.683 202.966 490.396 202.624C490.108 202.282 489.965 201.797 489.965 201.168V196.581H488.618V195.604H489.965V193.812H491.229ZM493.622 199.233C493.622 198.509 493.763 197.857 494.046 197.278C494.333 196.7 494.729 196.253 495.235 195.938C495.746 195.624 496.327 195.467 496.979 195.467C497.986 195.467 498.799 195.815 499.419 196.513C500.043 197.21 500.355 198.137 500.355 199.295V199.384C500.355 200.104 500.216 200.751 499.938 201.325C499.665 201.895 499.271 202.339 498.756 202.658C498.245 202.977 497.658 203.137 496.992 203.137C495.99 203.137 495.176 202.788 494.552 202.091C493.932 201.394 493.622 200.471 493.622 199.322V199.233ZM494.894 199.384C494.894 200.204 495.083 200.863 495.461 201.359C495.844 201.856 496.354 202.104 496.992 202.104C497.635 202.104 498.145 201.854 498.523 201.353C498.902 200.847 499.091 200.14 499.091 199.233C499.091 198.422 498.897 197.766 498.51 197.265C498.127 196.759 497.617 196.506 496.979 196.506C496.354 196.506 495.851 196.754 495.468 197.251C495.085 197.748 494.894 198.459 494.894 199.384ZM509.98 203C509.908 202.854 509.848 202.594 509.803 202.221C509.215 202.831 508.513 203.137 507.697 203.137C506.968 203.137 506.369 202.932 505.899 202.521C505.435 202.107 505.202 201.583 505.202 200.949C505.202 200.179 505.494 199.582 506.077 199.158C506.665 198.73 507.49 198.516 508.552 198.516H509.782V197.935C509.782 197.493 509.65 197.142 509.386 196.882C509.121 196.618 508.732 196.485 508.217 196.485C507.766 196.485 507.387 196.599 507.082 196.827C506.777 197.055 506.624 197.331 506.624 197.654H505.353C505.353 197.285 505.482 196.93 505.742 196.588C506.007 196.242 506.362 195.968 506.809 195.768C507.26 195.567 507.754 195.467 508.292 195.467C509.144 195.467 509.812 195.681 510.295 196.109C510.778 196.533 511.029 197.119 511.047 197.866V201.271C511.047 201.95 511.133 202.49 511.307 202.891V203H509.98ZM507.882 202.036C508.278 202.036 508.654 201.934 509.01 201.729C509.365 201.523 509.623 201.257 509.782 200.929V199.411H508.791C507.242 199.411 506.467 199.865 506.467 200.771C506.467 201.168 506.599 201.478 506.863 201.701C507.128 201.924 507.467 202.036 507.882 202.036ZM515.996 202.104C516.447 202.104 516.841 201.968 517.179 201.694C517.516 201.421 517.703 201.079 517.739 200.669H518.936C518.913 201.093 518.767 201.496 518.498 201.879C518.229 202.262 517.869 202.567 517.418 202.795C516.971 203.023 516.497 203.137 515.996 203.137C514.989 203.137 514.187 202.802 513.59 202.132C512.997 201.457 512.701 200.537 512.701 199.37V199.158C512.701 198.438 512.833 197.798 513.098 197.237C513.362 196.677 513.74 196.242 514.232 195.932C514.729 195.622 515.315 195.467 515.989 195.467C516.819 195.467 517.507 195.715 518.054 196.212C518.605 196.709 518.899 197.354 518.936 198.146H517.739C517.703 197.668 517.521 197.276 517.192 196.971C516.869 196.661 516.468 196.506 515.989 196.506C515.347 196.506 514.848 196.738 514.492 197.203C514.141 197.663 513.966 198.331 513.966 199.206V199.445C513.966 200.298 514.141 200.954 514.492 201.414C514.843 201.874 515.344 202.104 515.996 202.104ZM521.622 196.499C522.183 195.811 522.912 195.467 523.81 195.467C525.373 195.467 526.161 196.349 526.175 198.112V203H524.91V198.105C524.906 197.572 524.783 197.178 524.541 196.923C524.304 196.668 523.933 196.54 523.427 196.54C523.017 196.54 522.657 196.649 522.347 196.868C522.037 197.087 521.795 197.374 521.622 197.729V203H520.357V192.5H521.622V196.499ZM529.442 203H528.178V195.604H529.442V203ZM528.075 193.642C528.075 193.437 528.137 193.263 528.26 193.122C528.387 192.981 528.574 192.91 528.82 192.91C529.066 192.91 529.253 192.981 529.381 193.122C529.508 193.263 529.572 193.437 529.572 193.642C529.572 193.847 529.508 194.018 529.381 194.154C529.253 194.291 529.066 194.359 528.82 194.359C528.574 194.359 528.387 194.291 528.26 194.154C528.137 194.018 528.075 193.847 528.075 193.642ZM534.542 203.137C533.539 203.137 532.724 202.809 532.095 202.152C531.466 201.492 531.151 200.61 531.151 199.507V199.274C531.151 198.541 531.29 197.887 531.568 197.312C531.851 196.734 532.243 196.283 532.744 195.959C533.25 195.631 533.797 195.467 534.385 195.467C535.346 195.467 536.094 195.784 536.627 196.417C537.16 197.05 537.427 197.957 537.427 199.138V199.664H532.416C532.434 200.393 532.646 200.983 533.052 201.435C533.462 201.881 533.981 202.104 534.61 202.104C535.057 202.104 535.435 202.013 535.745 201.831C536.055 201.649 536.326 201.407 536.559 201.106L537.331 201.708C536.711 202.66 535.782 203.137 534.542 203.137ZM534.385 196.506C533.874 196.506 533.446 196.693 533.1 197.066C532.753 197.436 532.539 197.955 532.457 198.625H536.162V198.529C536.126 197.887 535.952 197.39 535.643 197.039C535.333 196.684 534.913 196.506 534.385 196.506ZM541.241 201.284L543.073 195.604H544.365L541.713 203H540.749L538.069 195.604H539.361L541.241 201.284ZM548.556 203.137C547.553 203.137 546.737 202.809 546.108 202.152C545.479 201.492 545.165 200.61 545.165 199.507V199.274C545.165 198.541 545.304 197.887 545.582 197.312C545.865 196.734 546.257 196.283 546.758 195.959C547.264 195.631 547.811 195.467 548.398 195.467C549.36 195.467 550.107 195.784 550.641 196.417C551.174 197.05 551.44 197.957 551.44 199.138V199.664H546.43C546.448 200.393 546.66 200.983 547.065 201.435C547.476 201.881 547.995 202.104 548.624 202.104C549.071 202.104 549.449 202.013 549.759 201.831C550.069 201.649 550.34 201.407 550.572 201.106L551.345 201.708C550.725 202.66 549.795 203.137 548.556 203.137ZM548.398 196.506C547.888 196.506 547.46 196.693 547.113 197.066C546.767 197.436 546.553 197.955 546.471 198.625H550.176V198.529C550.139 197.887 549.966 197.39 549.656 197.039C549.346 196.684 548.927 196.506 548.398 196.506ZM339.622 215.233C339.622 214.509 339.763 213.857 340.046 213.278C340.333 212.7 340.729 212.253 341.235 211.938C341.746 211.624 342.327 211.467 342.979 211.467C343.986 211.467 344.799 211.815 345.419 212.513C346.043 213.21 346.355 214.137 346.355 215.295V215.384C346.355 216.104 346.216 216.751 345.938 217.325C345.665 217.895 345.271 218.339 344.756 218.658C344.245 218.977 343.658 219.137 342.992 219.137C341.99 219.137 341.176 218.788 340.552 218.091C339.932 217.394 339.622 216.471 339.622 215.322V215.233ZM340.894 215.384C340.894 216.204 341.083 216.863 341.461 217.359C341.844 217.856 342.354 218.104 342.992 218.104C343.635 218.104 344.145 217.854 344.523 217.353C344.902 216.847 345.091 216.14 345.091 215.233C345.091 214.422 344.897 213.766 344.51 213.265C344.127 212.759 343.617 212.506 342.979 212.506C342.354 212.506 341.851 212.754 341.468 213.251C341.085 213.748 340.894 214.459 340.894 215.384ZM352.508 218.269C352.016 218.847 351.293 219.137 350.341 219.137C349.552 219.137 348.951 218.909 348.536 218.453C348.126 217.993 347.919 217.314 347.914 216.416V211.604H349.179V216.382C349.179 217.503 349.634 218.063 350.546 218.063C351.512 218.063 352.155 217.703 352.474 216.983V211.604H353.738V219H352.535L352.508 218.269ZM359.241 212.738C359.05 212.706 358.842 212.69 358.619 212.69C357.79 212.69 357.227 213.044 356.931 213.75V219H355.666V211.604H356.896L356.917 212.458C357.332 211.797 357.92 211.467 358.681 211.467C358.927 211.467 359.114 211.499 359.241 211.562V212.738ZM363.582 215.24C363.582 214.087 363.849 213.171 364.382 212.492C364.915 211.809 365.621 211.467 366.501 211.467C367.403 211.467 368.107 211.786 368.613 212.424L368.675 211.604H369.83V218.822C369.83 219.779 369.545 220.534 368.976 221.085C368.41 221.636 367.649 221.912 366.692 221.912C366.159 221.912 365.637 221.798 365.127 221.57C364.617 221.342 364.227 221.03 363.958 220.634L364.614 219.875C365.157 220.545 365.82 220.88 366.604 220.88C367.219 220.88 367.697 220.707 368.039 220.36C368.385 220.014 368.559 219.526 368.559 218.897V218.262C368.053 218.845 367.362 219.137 366.487 219.137C365.621 219.137 364.92 218.788 364.382 218.091C363.849 217.394 363.582 216.443 363.582 215.24ZM364.854 215.384C364.854 216.218 365.024 216.874 365.366 217.353C365.708 217.826 366.187 218.063 366.802 218.063C367.599 218.063 368.185 217.701 368.559 216.977V213.6C368.171 212.893 367.59 212.54 366.815 212.54C366.2 212.54 365.719 212.779 365.373 213.258C365.027 213.736 364.854 214.445 364.854 215.384ZM371.409 215.233C371.409 214.509 371.55 213.857 371.833 213.278C372.12 212.7 372.517 212.253 373.022 211.938C373.533 211.624 374.114 211.467 374.766 211.467C375.773 211.467 376.586 211.815 377.206 212.513C377.83 213.21 378.143 214.137 378.143 215.295V215.384C378.143 216.104 378.004 216.751 377.726 217.325C377.452 217.895 377.058 218.339 376.543 218.658C376.033 218.977 375.445 219.137 374.779 219.137C373.777 219.137 372.963 218.788 372.339 218.091C371.719 217.394 371.409 216.471 371.409 215.322V215.233ZM372.681 215.384C372.681 216.204 372.87 216.863 373.248 217.359C373.631 217.856 374.141 218.104 374.779 218.104C375.422 218.104 375.932 217.854 376.311 217.353C376.689 216.847 376.878 216.14 376.878 215.233C376.878 214.422 376.684 213.766 376.297 213.265C375.914 212.759 375.404 212.506 374.766 212.506C374.141 212.506 373.638 212.754 373.255 213.251C372.872 213.748 372.681 214.459 372.681 215.384ZM384.295 219C384.222 218.854 384.163 218.594 384.117 218.221C383.529 218.831 382.827 219.137 382.012 219.137C381.283 219.137 380.683 218.932 380.214 218.521C379.749 218.107 379.517 217.583 379.517 216.949C379.517 216.179 379.808 215.582 380.392 215.158C380.979 214.73 381.804 214.516 382.866 214.516H384.097V213.935C384.097 213.493 383.965 213.142 383.7 212.882C383.436 212.618 383.046 212.485 382.531 212.485C382.08 212.485 381.702 212.599 381.396 212.827C381.091 213.055 380.938 213.331 380.938 213.654H379.667C379.667 213.285 379.797 212.93 380.057 212.588C380.321 212.242 380.676 211.968 381.123 211.768C381.574 211.567 382.069 211.467 382.606 211.467C383.459 211.467 384.126 211.681 384.609 212.109C385.092 212.533 385.343 213.119 385.361 213.866V217.271C385.361 217.95 385.448 218.49 385.621 218.891V219H384.295ZM382.196 218.036C382.593 218.036 382.969 217.934 383.324 217.729C383.68 217.523 383.937 217.257 384.097 216.929V215.411H383.105C381.556 215.411 380.781 215.865 380.781 216.771C380.781 217.168 380.913 217.478 381.178 217.701C381.442 217.924 381.782 218.036 382.196 218.036ZM388.718 219H387.453V208.5H388.718V219ZM395.055 217.038C395.055 216.696 394.925 216.432 394.665 216.245C394.41 216.054 393.961 215.89 393.318 215.753C392.68 215.616 392.172 215.452 391.794 215.261C391.42 215.069 391.142 214.841 390.96 214.577C390.782 214.313 390.693 213.998 390.693 213.634C390.693 213.028 390.949 212.515 391.459 212.096C391.974 211.676 392.63 211.467 393.428 211.467C394.266 211.467 394.945 211.683 395.465 212.116C395.989 212.549 396.251 213.103 396.251 213.777H394.979C394.979 213.431 394.831 213.132 394.535 212.882C394.243 212.631 393.874 212.506 393.428 212.506C392.967 212.506 392.607 212.606 392.348 212.807C392.088 213.007 391.958 213.269 391.958 213.593C391.958 213.898 392.079 214.128 392.32 214.283C392.562 214.438 392.997 214.586 393.626 214.728C394.259 214.869 394.772 215.037 395.164 215.233C395.556 215.429 395.845 215.666 396.032 215.944C396.224 216.218 396.319 216.553 396.319 216.949C396.319 217.61 396.055 218.141 395.526 218.542C394.998 218.938 394.312 219.137 393.469 219.137C392.876 219.137 392.352 219.032 391.896 218.822C391.441 218.613 391.083 218.321 390.823 217.947C390.568 217.569 390.44 217.161 390.44 216.724H391.705C391.728 217.147 391.896 217.485 392.211 217.735C392.53 217.981 392.949 218.104 393.469 218.104C393.947 218.104 394.33 218.009 394.617 217.817C394.909 217.621 395.055 217.362 395.055 217.038ZM402.813 219H401.549V211.604H402.813V219ZM401.446 209.642C401.446 209.437 401.508 209.263 401.631 209.122C401.758 208.981 401.945 208.91 402.191 208.91C402.438 208.91 402.624 208.981 402.752 209.122C402.88 209.263 402.943 209.437 402.943 209.642C402.943 209.847 402.88 210.018 402.752 210.154C402.624 210.291 402.438 210.359 402.191 210.359C401.945 210.359 401.758 210.291 401.631 210.154C401.508 210.018 401.446 209.847 401.446 209.642ZM406.04 211.604L406.081 212.533C406.646 211.822 407.384 211.467 408.296 211.467C409.859 211.467 410.647 212.349 410.661 214.112V219H409.396V214.105C409.392 213.572 409.269 213.178 409.027 212.923C408.79 212.668 408.419 212.54 407.913 212.54C407.503 212.54 407.143 212.649 406.833 212.868C406.523 213.087 406.282 213.374 406.108 213.729V219H404.844V211.604H406.04ZM420.607 219C420.535 218.854 420.475 218.594 420.43 218.221C419.842 218.831 419.14 219.137 418.324 219.137C417.595 219.137 416.996 218.932 416.526 218.521C416.062 218.107 415.829 217.583 415.829 216.949C415.829 216.179 416.121 215.582 416.704 215.158C417.292 214.73 418.117 214.516 419.179 214.516H420.409V213.935C420.409 213.493 420.277 213.142 420.013 212.882C419.748 212.618 419.359 212.485 418.844 212.485C418.393 212.485 418.014 212.599 417.709 212.827C417.404 213.055 417.251 213.331 417.251 213.654H415.979C415.979 213.285 416.109 212.93 416.369 212.588C416.633 212.242 416.989 211.968 417.436 211.768C417.887 211.567 418.381 211.467 418.919 211.467C419.771 211.467 420.439 211.681 420.922 212.109C421.405 212.533 421.656 213.119 421.674 213.866V217.271C421.674 217.95 421.76 218.49 421.934 218.891V219H420.607ZM418.509 218.036C418.905 218.036 419.281 217.934 419.637 217.729C419.992 217.523 420.25 217.257 420.409 216.929V215.411H419.418C417.868 215.411 417.094 215.865 417.094 216.771C417.094 217.168 417.226 217.478 417.49 217.701C417.755 217.924 418.094 218.036 418.509 218.036ZM424.853 211.604L424.894 212.533C425.459 211.822 426.197 211.467 427.108 211.467C428.672 211.467 429.46 212.349 429.474 214.112V219H428.209V214.105C428.204 213.572 428.081 213.178 427.84 212.923C427.603 212.668 427.231 212.54 426.726 212.54C426.315 212.54 425.955 212.649 425.646 212.868C425.336 213.087 425.094 213.374 424.921 213.729V219H423.656V211.604H424.853ZM433.801 217.147L435.523 211.604H436.877L433.903 220.142C433.443 221.372 432.712 221.987 431.709 221.987L431.47 221.967L430.998 221.878V220.853L431.34 220.88C431.768 220.88 432.101 220.793 432.338 220.62C432.579 220.447 432.778 220.13 432.933 219.67L433.213 218.918L430.574 211.604H431.955L433.801 217.147ZM444.554 219.137C443.551 219.137 442.735 218.809 442.106 218.152C441.478 217.492 441.163 216.61 441.163 215.507V215.274C441.163 214.541 441.302 213.887 441.58 213.312C441.863 212.734 442.255 212.283 442.756 211.959C443.262 211.631 443.809 211.467 444.396 211.467C445.358 211.467 446.105 211.784 446.639 212.417C447.172 213.05 447.438 213.957 447.438 215.138V215.664H442.428C442.446 216.393 442.658 216.983 443.063 217.435C443.474 217.881 443.993 218.104 444.622 218.104C445.069 218.104 445.447 218.013 445.757 217.831C446.067 217.649 446.338 217.407 446.57 217.106L447.343 217.708C446.723 218.66 445.793 219.137 444.554 219.137ZM444.396 212.506C443.886 212.506 443.458 212.693 443.111 213.066C442.765 213.436 442.551 213.955 442.469 214.625H446.174V214.529C446.137 213.887 445.964 213.39 445.654 213.039C445.344 212.684 444.925 212.506 444.396 212.506ZM450.104 211.604L450.146 212.533C450.711 211.822 451.449 211.467 452.36 211.467C453.924 211.467 454.712 212.349 454.726 214.112V219H453.461V214.105C453.456 213.572 453.333 213.178 453.092 212.923C452.855 212.668 452.483 212.54 451.978 212.54C451.567 212.54 451.207 212.649 450.897 212.868C450.588 213.087 450.346 213.374 450.173 213.729V219H448.908V211.604H450.104ZM459.073 217.284L460.905 211.604H462.197L459.545 219H458.581L455.901 211.604H457.193L459.073 217.284ZM464.788 219H463.523V211.604H464.788V219ZM463.421 209.642C463.421 209.437 463.482 209.263 463.605 209.122C463.733 208.981 463.92 208.91 464.166 208.91C464.412 208.91 464.599 208.981 464.727 209.122C464.854 209.263 464.918 209.437 464.918 209.642C464.918 209.847 464.854 210.018 464.727 210.154C464.599 210.291 464.412 210.359 464.166 210.359C463.92 210.359 463.733 210.291 463.605 210.154C463.482 210.018 463.421 209.847 463.421 209.642ZM470.394 212.738C470.202 212.706 469.995 212.69 469.771 212.69C468.942 212.69 468.379 213.044 468.083 213.75V219H466.818V211.604H468.049L468.069 212.458C468.484 211.797 469.072 211.467 469.833 211.467C470.079 211.467 470.266 211.499 470.394 211.562V212.738ZM471.091 215.233C471.091 214.509 471.232 213.857 471.515 213.278C471.802 212.7 472.198 212.253 472.704 211.938C473.215 211.624 473.796 211.467 474.447 211.467C475.454 211.467 476.268 211.815 476.888 212.513C477.512 213.21 477.824 214.137 477.824 215.295V215.384C477.824 216.104 477.685 216.751 477.407 217.325C477.134 217.895 476.74 218.339 476.225 218.658C475.714 218.977 475.126 219.137 474.461 219.137C473.458 219.137 472.645 218.788 472.021 218.091C471.401 217.394 471.091 216.471 471.091 215.322V215.233ZM472.362 215.384C472.362 216.204 472.551 216.863 472.93 217.359C473.312 217.856 473.823 218.104 474.461 218.104C475.104 218.104 475.614 217.854 475.992 217.353C476.37 216.847 476.56 216.14 476.56 215.233C476.56 214.422 476.366 213.766 475.979 213.265C475.596 212.759 475.085 212.506 474.447 212.506C473.823 212.506 473.319 212.754 472.937 213.251C472.554 213.748 472.362 214.459 472.362 215.384ZM480.606 211.604L480.647 212.533C481.213 211.822 481.951 211.467 482.862 211.467C484.425 211.467 485.214 212.349 485.228 214.112V219H483.963V214.105C483.958 213.572 483.835 213.178 483.594 212.923C483.357 212.668 482.985 212.54 482.479 212.54C482.069 212.54 481.709 212.649 481.399 212.868C481.09 213.087 480.848 213.374 480.675 213.729V219H479.41V211.604H480.606ZM488.324 211.604L488.358 212.424C488.901 211.786 489.632 211.467 490.553 211.467C491.587 211.467 492.291 211.863 492.665 212.656C492.911 212.301 493.23 212.014 493.622 211.795C494.019 211.576 494.486 211.467 495.023 211.467C496.646 211.467 497.471 212.326 497.498 214.044V219H496.233V214.119C496.233 213.59 496.113 213.196 495.871 212.937C495.63 212.672 495.224 212.54 494.654 212.54C494.185 212.54 493.795 212.681 493.485 212.964C493.175 213.242 492.995 213.618 492.945 214.092V219H491.674V214.153C491.674 213.078 491.147 212.54 490.095 212.54C489.265 212.54 488.698 212.893 488.393 213.6V219H487.128V211.604H488.324ZM502.481 219.137C501.479 219.137 500.663 218.809 500.034 218.152C499.405 217.492 499.091 216.61 499.091 215.507V215.274C499.091 214.541 499.23 213.887 499.508 213.312C499.79 212.734 500.182 212.283 500.684 211.959C501.189 211.631 501.736 211.467 502.324 211.467C503.286 211.467 504.033 211.784 504.566 212.417C505.1 213.05 505.366 213.957 505.366 215.138V215.664H500.355C500.374 216.393 500.586 216.983 500.991 217.435C501.401 217.881 501.921 218.104 502.55 218.104C502.996 218.104 503.375 218.013 503.685 217.831C503.994 217.649 504.266 217.407 504.498 217.106L505.271 217.708C504.651 218.66 503.721 219.137 502.481 219.137ZM502.324 212.506C501.814 212.506 501.385 212.693 501.039 213.066C500.693 213.436 500.479 213.955 500.396 214.625H504.102V214.529C504.065 213.887 503.892 213.39 503.582 213.039C503.272 212.684 502.853 212.506 502.324 212.506ZM508.032 211.604L508.073 212.533C508.638 211.822 509.377 211.467 510.288 211.467C511.851 211.467 512.64 212.349 512.653 214.112V219H511.389V214.105C511.384 213.572 511.261 213.178 511.02 212.923C510.783 212.668 510.411 212.54 509.905 212.54C509.495 212.54 509.135 212.649 508.825 212.868C508.515 213.087 508.274 213.374 508.101 213.729V219H506.836V211.604H508.032ZM516.276 209.812V211.604H517.657V212.581H516.276V217.168C516.276 217.464 516.338 217.688 516.461 217.838C516.584 217.984 516.794 218.057 517.09 218.057C517.236 218.057 517.436 218.029 517.691 217.975V219C517.359 219.091 517.035 219.137 516.721 219.137C516.156 219.137 515.729 218.966 515.442 218.624C515.155 218.282 515.012 217.797 515.012 217.168V212.581H513.665V211.604H515.012V209.812H516.276ZM519.168 218.337C519.168 218.118 519.232 217.936 519.359 217.79C519.492 217.644 519.688 217.571 519.947 217.571C520.207 217.571 520.403 217.644 520.535 217.79C520.672 217.936 520.74 218.118 520.74 218.337C520.74 218.547 520.672 218.722 520.535 218.863C520.403 219.005 520.207 219.075 519.947 219.075C519.688 219.075 519.492 219.005 519.359 218.863C519.232 218.722 519.168 218.547 519.168 218.337Z" fill="#373E5F"/>
<path d="M54.5 288.5H339" stroke="black"/>
<path d="M284 32H44V160H284V32Z" fill="white" stroke="black" stroke-miterlimit="10" stroke-linecap="round"/>
<path d="M95.708 44.552L120.116 86.516H71.3L95.708 44.552Z" fill="#98CEF7"/>
<path d="M276 55H228V103H276V55Z" fill="#98CEF7"/>
<path d="M82.0373 73.0038L116.475 107.221L69.3221 119.855L82.0373 73.0038Z" fill="#2B8AFC"/>
<path d="M209.368 287.818C209.009 285.531 209.356 283.19 210.363 281.106C211.37 279.021 212.989 277.294 215.003 276.154C217.071 275.109 219.603 273.954 219.898 271.654C220.098 270.116 219.138 268.554 219.525 267.054C219.959 265.37 221.825 264.554 223.464 263.975C229.182 261.807 235.039 260.027 240.997 258.649C242.909 264.73 246.197 271.975 248.109 278.055L209.368 287.818Z" fill="#2B8AFF"/>
<path d="M246.052 273.583L209.875 284.347" stroke="black" stroke-linecap="round"/>
<path d="M215.731 276.172C216.693 276.774 217.805 277.095 218.94 277.097C220.075 277.099 221.188 276.783 222.153 276.185C224.072 274.946 225.495 273.073 226.176 270.893C226.821 269.011 227.067 267.014 226.898 265.032C226.729 263.049 226.148 261.124 225.193 259.378" stroke="black" stroke-miterlimit="10" stroke-linecap="round"/>
<path d="M143.489 288.001C143.272 286.828 143.372 285.617 143.78 284.496C144.187 283.374 144.887 282.382 145.806 281.621C148.783 279.334 153.216 280.071 156.394 278.074C159.8 275.934 160.7 271.428 161.012 267.418C167.888 265.26 175.152 264.632 182.296 265.578C183.115 265.613 183.905 265.895 184.56 266.388C185.193 267.128 185.547 268.067 185.56 269.041C186.314 275.332 186.654 281.665 186.577 288.001H143.489Z" fill="#2B8AFF"/>
<path d="M144.323 284.459L186.123 284.51" stroke="black" stroke-linecap="round"/>
<path d="M151.97 279.876C152.772 280.849 153.925 281.467 155.18 281.595C158.672 282.101 162.175 279.925 164 276.905C165.825 273.885 166.21 270.19 165.943 266.671" stroke="black" stroke-miterlimit="10" stroke-linecap="round"/>
<path d="M190.992 162.94C193.05 199.17 201.166 234.799 215.002 268.346C215.042 268.693 215.176 269.021 215.391 269.297C215.605 269.572 215.891 269.783 216.217 269.906C216.544 270.03 216.898 270.061 217.24 269.996C217.583 269.932 217.902 269.774 218.161 269.541C225.887 265.641 235.443 263.898 242.8 259.335C243.109 259.216 243.392 259.035 243.629 258.804C243.867 258.573 244.055 258.296 244.183 257.99C244.311 257.684 244.375 257.355 244.372 257.024C244.369 256.692 244.299 256.365 244.166 256.061C237.828 224.333 228.177 190.367 219.24 159.271L190.992 162.94Z" fill="#3E20EF"/>
<path d="M170.487 172.472C171.94 177.681 173.402 183.135 172.293 188.428C171.622 191.066 170.652 193.618 169.402 196.035C165.901 203.559 162.675 211.202 159.722 218.965C158.556 221.822 157.638 224.774 156.979 227.788C156.433 231.087 156.188 234.429 156.247 237.773C156.147 248.35 156.368 258.923 156.91 269.492C156.841 269.851 156.867 270.222 156.984 270.569C157.102 270.915 157.307 271.225 157.58 271.468C157.854 271.712 158.185 271.88 158.543 271.956C158.901 272.033 159.272 272.016 159.621 271.906L188.753 271.156C187.85 258.135 187.454 245.093 187.565 232.029C187.493 229.103 187.738 226.178 188.294 223.305C189.125 219.662 190.894 216.318 192.555 212.969C197.514 202.942 201.568 192.492 204.669 181.744C205.874 177.566 206.943 173.224 206.409 168.908C205.875 164.592 203.409 160.264 199.366 158.672C197.137 157.916 194.76 157.706 192.433 158.061C184.766 158.902 177.597 162.27 172.054 167.634L170.487 172.472Z" fill="#3E20EF"/>
<path d="M142.823 134.766L131.199 138.704C130.906 138.835 130.582 138.88 130.264 138.834C130.01 138.75 129.782 138.603 129.599 138.408C127.217 136.208 125.643 133.296 124.149 130.421C122.289 126.837 120.489 123.221 118.688 119.608C117.325 116.871 115.931 114.008 115.919 110.954C115.912 108.992 116.478 107.008 116.056 105.092C115.9 104.386 115.456 103.597 114.733 103.586C114.38 103.61 114.043 103.748 113.775 103.979C112.739 104.749 111.985 105.838 111.629 107.079C109.72 106.07 107.66 105.377 105.529 105.028C103.376 104.686 101.173 105.175 99.367 106.396C97.5834 107.917 96.3464 109.981 95.845 112.271C95.6214 112.814 95.5118 113.397 95.5232 113.984C95.5346 114.571 95.6665 115.15 95.911 115.684C96.862 117.213 99.06 117.093 100.861 117.116C101.433 117.08 102.003 117.21 102.503 117.49C102.868 117.772 103.168 118.13 103.381 118.54C110.537 130.311 111.866 145.316 120.781 155.815C121.52 156.78 122.453 157.579 123.519 158.163C125.491 159.114 127.826 158.692 129.946 158.145C137.811 156.116 145.224 152.662 152.584 149.227L142.823 134.766Z" fill="white" stroke="black" stroke-miterlimit="10" stroke-linecap="round"/>
<path d="M217.724 128.952C218.716 121.724 221.441 114.866 224.136 108.087C225.069 105.74 226.018 103.214 225.465 100.75C224.941 98.409 223.097 96.359 223.271 93.966C223.262 93.7162 223.32 93.4687 223.438 93.2483C223.555 93.0279 223.729 92.8425 223.942 92.711C224.179 92.6252 224.433 92.6011 224.682 92.641C225.844 92.7524 226.955 93.1703 227.903 93.852C228.752 92.0941 229.921 90.51 231.351 89.181C232.882 87.573 234.658 85.85 236.878 85.801C237.963 85.8478 239.028 86.1024 240.017 86.551C242.003 87.304 244.23 88.302 244.857 90.332C245.027 91.1194 245.018 91.935 244.829 92.7182C244.641 93.5014 244.279 94.2321 243.769 94.856C242.841 96.168 241.624 97.256 240.702 98.573C239.434 100.592 238.578 102.842 238.182 105.193C235.582 117.115 236.161 129.563 233.503 141.473C233.334 142.668 232.847 143.795 232.094 144.738C230.894 146.001 228.994 146.204 227.256 146.329C224.174 146.551 220.89 146.729 218.191 145.229L217.724 128.952Z" fill="white" stroke="black" stroke-miterlimit="10" stroke-linecap="round"/>
<path d="M171.794 118.663C161.091 120.664 150.968 125.023 142.159 131.424C141.299 132.05 140.37 132.85 140.359 133.914C140.436 134.667 140.759 135.374 141.279 135.924C144.657 140.171 146.848 145.238 147.626 150.609C147.616 151.225 147.811 151.828 148.18 152.322C148.805 152.95 149.847 152.743 150.696 152.49C153.976 151.511 158.743 149.49 161.996 148.432C163.603 155.694 164.03 163.167 163.26 170.564C163.049 172.438 162.98 174.695 164.511 175.796C165.637 176.607 167.171 176.418 168.541 176.196C183.924 173.686 198.311 169.674 213.602 166.652C217.392 166.022 221.111 165.017 224.702 163.652C225.132 163.525 225.502 163.25 225.749 162.876C225.886 162.528 225.908 162.145 225.81 161.784C225.355 159.914 224.531 158.154 223.385 156.607C220.671 152.489 217.605 148.615 214.22 145.029L220.446 146.99C219.827 140.251 219.208 135.011 218.589 128.271C218.635 127.638 218.455 127.009 218.08 126.496C217.706 125.983 217.162 125.62 216.545 125.471L206.821 121.058C203.527 119.4 200.044 118.148 196.448 117.329C191.073 116.329 185.548 117.296 180.174 118.275L171.794 118.663Z" fill="#FF58E0"/>
<path d="M169.042 111.624L166.021 120.576C165.332 122.122 165.102 123.833 165.357 125.506C165.454 125.954 165.672 126.366 165.986 126.699C166.371 126.991 166.822 127.185 167.299 127.264C167.775 127.343 168.264 127.304 168.723 127.151C170.33 126.746 171.838 126.015 173.152 125.004C176.631 122.452 179.178 118.829 180.402 114.691C181.086 112.355 181.202 109.518 179.474 107.809C178.743 107.135 177.846 106.667 176.874 106.455C174.939 105.976 172.899 106.175 171.093 107.018C170.422 107.334 169.721 107.847 169.669 108.587L169.042 111.624Z" fill="white" stroke="black" stroke-miterlimit="10" stroke-linecap="round"/>
<path d="M172.752 91.106C170.087 91.5033 167.662 92.872 165.945 94.9489C164.252 97.0174 162.947 99.3759 162.096 101.91C161.128 104.123 160.738 106.546 160.963 108.951C161.332 111.326 162.977 113.645 165.332 114.129C166.14 114.262 166.967 114.22 167.756 114.004C168.546 113.789 169.28 113.405 169.908 112.88C171.158 111.818 172.127 110.462 172.726 108.935C172.945 108.423 173.205 107.835 173.739 107.683C174.035 107.625 174.341 107.644 174.628 107.738C176.249 108.126 178.036 108.566 179.514 107.795C180.425 107.257 181.134 106.434 181.532 105.454C182.296 103.693 182.473 101.732 182.036 99.8632C181.599 97.9939 180.571 96.315 179.106 95.075L172.752 91.106Z" fill="white" stroke="black" stroke-miterlimit="10" stroke-linecap="round"/>
<path d="M173.254 89.9099C171.425 91.6698 170.27 94.0154 169.991 96.5385C169.712 99.0617 170.326 101.603 171.727 103.72C171.811 103.391 171.958 103.081 172.162 102.81C172.366 102.538 172.621 102.309 172.914 102.137C173.206 101.964 173.53 101.851 173.866 101.804C174.202 101.758 174.545 101.778 174.873 101.864C175.523 102.088 176.07 102.538 176.415 103.133C176.759 103.727 176.878 104.426 176.749 105.101C176.583 105.768 176.208 106.365 175.678 106.803C175.148 107.242 174.492 107.498 173.805 107.536C173.591 109.851 172.619 112.03 171.039 113.736C169.56 115.506 167.792 117.014 166.285 118.76C164.021 121.428 162.398 124.578 161.541 127.971C160.684 131.363 160.615 134.907 161.34 138.33C165.483 133.872 172.24 133.438 178.295 132.815C186.546 131.965 195.408 129.799 200.542 123.284C199.533 121.606 198.987 119.691 198.96 117.733C199.425 119.575 200.439 121.232 201.868 122.484C204.865 120.878 208.001 119.546 211.238 118.506C210.462 115.136 207.617 112.585 204.515 111.055C201.413 109.525 197.986 108.804 194.72 107.664C192.502 106.89 190.04 105.52 189.784 103.185C189.783 102.272 189.855 101.361 189.998 100.46C190.149 97.4219 187.851 94.8009 185.347 93.0749C182.363 91.0189 180.57 90.2149 177.547 89.8519C176.119 89.7067 174.678 89.7262 173.254 89.9099Z" fill="black"/>
<path d="M195.029 102.763C199.247 102.763 202.667 99.3434 202.667 95.1251C202.667 90.9067 199.247 87.4871 195.029 87.4871C190.811 87.4871 187.391 90.9067 187.391 95.1251C187.391 99.3434 190.811 102.763 195.029 102.763Z" fill="black"/>
<path d="M192.144 107.818C194.495 108.894 197.004 109.585 199.574 109.864C202.142 110.143 204.667 110.728 207.096 111.608C208.31 112.055 209.422 112.739 210.37 113.619C211.318 114.499 212.081 115.558 212.617 116.735" stroke="black" stroke-miterlimit="10" stroke-linecap="round"/>
<path d="M171.346 114.854C169.546 117.009 167.183 118.595 165.004 120.363C162.825 122.131 160.741 124.213 159.858 126.876C159.259 129.213 159.141 131.646 159.511 134.03" stroke="black" stroke-miterlimit="10" stroke-linecap="round"/>
<path d="M166.222 96.031C166.752 96.097 167.262 96.2757 167.718 96.5551C168.173 96.8346 168.564 97.2082 168.863 97.651" stroke="black" stroke-miterlimit="10" stroke-linecap="round"/>
<path d="M164.64 99.8491L162.371 104.271C162.344 104.307 162.326 104.348 162.317 104.391C162.308 104.435 162.309 104.48 162.32 104.523C162.33 104.566 162.35 104.606 162.378 104.641C162.406 104.675 162.442 104.703 162.482 104.722L163.367 105.471" stroke="black" stroke-miterlimit="10" stroke-linecap="round"/>
<path d="M161.953 107.749C161.96 107.989 162.028 108.224 162.15 108.431C162.273 108.638 162.446 108.811 162.653 108.933C163.072 109.173 163.549 109.291 164.031 109.275C164.587 109.308 165.136 109.138 165.576 108.797" stroke="black" stroke-miterlimit="10" stroke-linecap="round"/>
<path d="M162.223 148.34C164.223 144.71 165.68 140.806 166.548 136.754" stroke="black" stroke-miterlimit="10" stroke-linecap="round"/>
<path d="M165.508 141.882C167.297 140.453 169.01 138.929 170.639 137.319" stroke="black" stroke-miterlimit="10" stroke-linecap="round"/>
<path d="M204.535 124.026C206.323 130.402 208.928 136.519 212.287 142.226C212.823 143.267 213.557 144.194 214.449 144.953" stroke="black" stroke-miterlimit="10" stroke-linecap="round"/>
<path d="M206.547 129.979C206.361 128.35 206.6 126.7 207.239 125.19" stroke="black" stroke-miterlimit="10" stroke-linecap="round"/>
<path d="M205.031 180.551C202.718 189.095 199.756 197.451 196.171 205.544" stroke="black" stroke-miterlimit="10" stroke-linecap="round"/>
<path d="M201.557 191.696C204.29 190.367 206.912 188.82 209.395 187.068" stroke="black" stroke-miterlimit="10" stroke-linecap="round"/>
<path d="M177.512 168.804C183.233 167.996 188.72 165.99 193.613 162.918C198.507 159.846 202.698 155.777 205.912 150.975" stroke="black" stroke-miterlimit="10" stroke-linecap="round"/>
<path d="M196.483 160.924C192.023 161.666 187.471 161.654 183.015 160.891" stroke="black" stroke-miterlimit="10" stroke-linecap="round"/>
<path d="M188.361 221.624C186.11 225.845 183.146 229.644 179.599 232.853" stroke="black" stroke-miterlimit="10" stroke-linecap="round"/>
<path d="M243.931 88.925C241.562 90.6851 239.562 92.8936 238.044 95.425" stroke="black" stroke-miterlimit="10" stroke-linecap="round"/>
<path d="M240.914 87.187C240.347 87.3424 239.821 87.6183 239.371 87.996C237.364 89.6767 235.613 91.6402 234.171 93.825" stroke="black" stroke-miterlimit="10" stroke-linecap="round"/>
<path d="M237.178 86.0049C234.821 87.3702 232.81 89.2618 231.304 91.5319" stroke="black" stroke-miterlimit="10" stroke-linecap="round"/>
<path d="M131.095 138.729C128.641 139.515 126.225 140.408 123.847 141.407" stroke="black" stroke-miterlimit="10" stroke-linecap="round"/>
<path d="M218.523 126.576C220.21 126.792 221.835 127.35 223.299 128.216" stroke="black" stroke-miterlimit="10" stroke-linecap="round"/>
<path d="M95.602 113.96C97.9834 113.345 100.509 113.636 102.687 114.778" stroke="black" stroke-miterlimit="10" stroke-linecap="round"/>
<path d="M96.4189 110.73C97.5561 110.23 98.793 109.998 100.034 110.052C101.275 110.105 102.487 110.443 103.577 111.04" stroke="black" stroke-miterlimit="10" stroke-linecap="round"/>
<path d="M98.3 107.566C99.7466 107.102 101.272 106.937 102.785 107.079C104.297 107.221 105.765 107.668 107.1 108.393" stroke="black" stroke-miterlimit="10" stroke-linecap="round"/>
<path d="M166.259 99.8999C166.811 99.8999 167.259 99.4522 167.259 98.8999C167.259 98.3476 166.811 97.8999 166.259 97.8999C165.707 97.8999 165.259 98.3476 165.259 98.8999C165.259 99.4522 165.707 99.8999 166.259 99.8999Z" fill="black"/>
<path d="M127 241H79V289H127V241Z" fill="#FD58E0"/>
<path d="M126.5 241.5H79.5V288.5H126.5V241.5Z" stroke="black"/>
<path d="M315 253H279V289H315V253Z" fill="#2B8AFF"/>
<path d="M314.5 253.5H279.5V288.5H314.5V253.5Z" stroke="black"/>
<path d="M270 253H234V289H270V253Z" fill="#98CEF7"/>
<path d="M269.5 253.5H234.5V288.5H269.5V253.5Z" stroke="black"/>
<path d="M302.968 253.5H248.869L275.918 206.994L302.968 253.5Z" fill="#FF58E0"/>
<path d="M275.918 207.989L249.738 253H302.098L275.918 207.989ZM275.918 206L303.837 254H248L275.918 206Z" fill="#FF58E0"/>
</svg>
