<svg width="600" height="320" viewBox="0 0 600 320" fill="none" xmlns="http://www.w3.org/2000/svg">
<rect width="600" height="320" fill="white"/>
<path d="M529 64H71C35.6538 64 7 92.6538 7 128V256C7 291.346 35.6538 320 71 320H529C564.346 320 593 291.346 593 256V128C593 92.6538 564.346 64 529 64Z" fill="white"/>
<path d="M529 64.5H71C35.9299 64.5 7.5 92.9299 7.5 128V256C7.5 291.07 35.9299 319.5 71 319.5H529C564.07 319.5 592.5 291.07 592.5 256V128C592.5 92.9299 564.07 64.5 529 64.5Z" stroke="black"/>
<path d="M350.402 155.547H343.254L341.648 160H339.328L345.844 142.938H347.812L354.34 160H352.031L350.402 155.547ZM343.934 153.695H349.734L346.828 145.715L343.934 153.695ZM355.77 153.555C355.77 151.609 356.23 150.047 357.152 148.867C358.074 147.68 359.281 147.086 360.773 147.086C362.258 147.086 363.434 147.594 364.301 148.609V142H366.469V160H364.477L364.371 158.641C363.504 159.703 362.297 160.234 360.75 160.234C359.281 160.234 358.082 159.633 357.152 158.43C356.23 157.227 355.77 155.656 355.77 153.719V153.555ZM357.938 153.801C357.938 155.238 358.234 156.363 358.828 157.176C359.422 157.988 360.242 158.395 361.289 158.395C362.664 158.395 363.668 157.777 364.301 156.543V150.719C363.652 149.523 362.656 148.926 361.312 148.926C360.25 148.926 359.422 149.336 358.828 150.156C358.234 150.977 357.938 152.191 357.938 153.801ZM377.672 160C377.547 159.75 377.445 159.305 377.367 158.664C376.359 159.711 375.156 160.234 373.758 160.234C372.508 160.234 371.48 159.883 370.676 159.18C369.879 158.469 369.48 157.57 369.48 156.484C369.48 155.164 369.98 154.141 370.98 153.414C371.988 152.68 373.402 152.312 375.223 152.312H377.332V151.316C377.332 150.559 377.105 149.957 376.652 149.512C376.199 149.059 375.531 148.832 374.648 148.832C373.875 148.832 373.227 149.027 372.703 149.418C372.18 149.809 371.918 150.281 371.918 150.836H369.738C369.738 150.203 369.961 149.594 370.406 149.008C370.859 148.414 371.469 147.945 372.234 147.602C373.008 147.258 373.855 147.086 374.777 147.086C376.238 147.086 377.383 147.453 378.211 148.188C379.039 148.914 379.469 149.918 379.5 151.199V157.035C379.5 158.199 379.648 159.125 379.945 159.812V160H377.672ZM374.074 158.348C374.754 158.348 375.398 158.172 376.008 157.82C376.617 157.469 377.059 157.012 377.332 156.449V153.848H375.633C372.977 153.848 371.648 154.625 371.648 156.18C371.648 156.859 371.875 157.391 372.328 157.773C372.781 158.156 373.363 158.348 374.074 158.348ZM393.609 153.801C393.609 155.73 393.168 157.285 392.285 158.465C391.402 159.645 390.207 160.234 388.699 160.234C387.16 160.234 385.949 159.746 385.066 158.77V164.875H382.898V147.32H384.879L384.984 148.727C385.867 147.633 387.094 147.086 388.664 147.086C390.188 147.086 391.391 147.66 392.273 148.809C393.164 149.957 393.609 151.555 393.609 153.602V153.801ZM391.441 153.555C391.441 152.125 391.137 150.996 390.527 150.168C389.918 149.34 389.082 148.926 388.02 148.926C386.707 148.926 385.723 149.508 385.066 150.672V156.73C385.715 157.887 386.707 158.465 388.043 158.465C389.082 158.465 389.906 158.055 390.516 157.234C391.133 156.406 391.441 155.18 391.441 153.555ZM399.316 144.25V147.32H401.684V148.996H399.316V156.859C399.316 157.367 399.422 157.75 399.633 158.008C399.844 158.258 400.203 158.383 400.711 158.383C400.961 158.383 401.305 158.336 401.742 158.242V160C401.172 160.156 400.617 160.234 400.078 160.234C399.109 160.234 398.379 159.941 397.887 159.355C397.395 158.77 397.148 157.938 397.148 156.859V148.996H394.84V147.32H397.148V144.25H399.316Z" fill="#373E5F"/>
<path d="M341.828 188.773H347.219V190H340.32V178.625H341.828V188.773ZM348.32 185.695C348.32 184.867 348.482 184.122 348.805 183.461C349.133 182.799 349.586 182.289 350.164 181.93C350.747 181.57 351.411 181.391 352.156 181.391C353.307 181.391 354.237 181.789 354.945 182.586C355.659 183.383 356.016 184.443 356.016 185.766V185.867C356.016 186.69 355.857 187.43 355.539 188.086C355.227 188.737 354.776 189.245 354.188 189.609C353.604 189.974 352.932 190.156 352.172 190.156C351.026 190.156 350.096 189.758 349.383 188.961C348.674 188.164 348.32 187.109 348.32 185.797V185.695ZM349.773 185.867C349.773 186.805 349.99 187.557 350.422 188.125C350.859 188.693 351.443 188.977 352.172 188.977C352.906 188.977 353.49 188.69 353.922 188.117C354.354 187.539 354.57 186.732 354.57 185.695C354.57 184.768 354.349 184.018 353.906 183.445C353.469 182.867 352.885 182.578 352.156 182.578C351.443 182.578 350.867 182.862 350.43 183.43C349.992 183.997 349.773 184.81 349.773 185.867ZM361.914 182.844C361.695 182.807 361.458 182.789 361.203 182.789C360.255 182.789 359.612 183.193 359.273 184V190H357.828V181.547H359.234L359.258 182.523C359.732 181.768 360.404 181.391 361.273 181.391C361.555 181.391 361.768 181.427 361.914 181.5V182.844ZM366.602 190.156C365.456 190.156 364.523 189.781 363.805 189.031C363.086 188.276 362.727 187.268 362.727 186.008V185.742C362.727 184.904 362.885 184.156 363.203 183.5C363.526 182.839 363.974 182.323 364.547 181.953C365.125 181.578 365.75 181.391 366.422 181.391C367.521 181.391 368.375 181.753 368.984 182.477C369.594 183.201 369.898 184.237 369.898 185.586V186.188H364.172C364.193 187.021 364.435 187.695 364.898 188.211C365.367 188.721 365.961 188.977 366.68 188.977C367.19 188.977 367.622 188.872 367.977 188.664C368.331 188.456 368.641 188.18 368.906 187.836L369.789 188.523C369.081 189.612 368.018 190.156 366.602 190.156ZM366.422 182.578C365.839 182.578 365.349 182.792 364.953 183.219C364.557 183.641 364.312 184.234 364.219 185H368.453V184.891C368.411 184.156 368.214 183.589 367.859 183.188C367.505 182.781 367.026 182.578 366.422 182.578ZM372.938 181.547L372.977 182.484C373.596 181.755 374.432 181.391 375.484 181.391C376.667 181.391 377.471 181.844 377.898 182.75C378.18 182.344 378.544 182.016 378.992 181.766C379.445 181.516 379.979 181.391 380.594 181.391C382.448 181.391 383.391 182.372 383.422 184.336V190H381.977V184.422C381.977 183.818 381.839 183.367 381.562 183.07C381.286 182.768 380.823 182.617 380.172 182.617C379.635 182.617 379.19 182.779 378.836 183.102C378.482 183.419 378.276 183.849 378.219 184.391V190H376.766V184.461C376.766 183.232 376.164 182.617 374.961 182.617C374.013 182.617 373.365 183.021 373.016 183.828V190H371.57V181.547H372.938ZM391.148 190H389.703V181.547H391.148V190ZM389.586 179.305C389.586 179.07 389.656 178.872 389.797 178.711C389.943 178.549 390.156 178.469 390.438 178.469C390.719 178.469 390.932 178.549 391.078 178.711C391.224 178.872 391.297 179.07 391.297 179.305C391.297 179.539 391.224 179.734 391.078 179.891C390.932 180.047 390.719 180.125 390.438 180.125C390.156 180.125 389.943 180.047 389.797 179.891C389.656 179.734 389.586 179.539 389.586 179.305ZM400.609 185.867C400.609 187.154 400.315 188.19 399.727 188.977C399.138 189.763 398.341 190.156 397.336 190.156C396.31 190.156 395.503 189.831 394.914 189.18V193.25H393.469V181.547H394.789L394.859 182.484C395.448 181.755 396.266 181.391 397.312 181.391C398.328 181.391 399.13 181.773 399.719 182.539C400.312 183.305 400.609 184.37 400.609 185.734V185.867ZM399.164 185.703C399.164 184.75 398.961 183.997 398.555 183.445C398.148 182.893 397.591 182.617 396.883 182.617C396.008 182.617 395.352 183.005 394.914 183.781V187.82C395.346 188.591 396.008 188.977 396.898 188.977C397.591 188.977 398.141 188.703 398.547 188.156C398.958 187.604 399.164 186.786 399.164 185.703ZM407.375 187.758C407.375 187.367 407.227 187.065 406.93 186.852C406.638 186.633 406.125 186.445 405.391 186.289C404.661 186.133 404.081 185.945 403.648 185.727C403.221 185.508 402.904 185.247 402.695 184.945C402.492 184.643 402.391 184.284 402.391 183.867C402.391 183.174 402.682 182.589 403.266 182.109C403.854 181.63 404.604 181.391 405.516 181.391C406.474 181.391 407.25 181.638 407.844 182.133C408.443 182.628 408.742 183.26 408.742 184.031H407.289C407.289 183.635 407.12 183.294 406.781 183.008C406.448 182.721 406.026 182.578 405.516 182.578C404.99 182.578 404.578 182.693 404.281 182.922C403.984 183.151 403.836 183.451 403.836 183.82C403.836 184.169 403.974 184.432 404.25 184.609C404.526 184.786 405.023 184.956 405.742 185.117C406.466 185.279 407.052 185.471 407.5 185.695C407.948 185.919 408.279 186.19 408.492 186.508C408.711 186.82 408.82 187.203 408.82 187.656C408.82 188.411 408.518 189.018 407.914 189.477C407.31 189.93 406.526 190.156 405.562 190.156C404.885 190.156 404.286 190.036 403.766 189.797C403.245 189.557 402.836 189.224 402.539 188.797C402.247 188.365 402.102 187.898 402.102 187.398H403.547C403.573 187.883 403.766 188.268 404.125 188.555C404.49 188.836 404.969 188.977 405.562 188.977C406.109 188.977 406.547 188.867 406.875 188.648C407.208 188.424 407.375 188.128 407.375 187.758ZM415.922 189.164C415.359 189.826 414.534 190.156 413.445 190.156C412.544 190.156 411.857 189.896 411.383 189.375C410.914 188.849 410.677 188.073 410.672 187.047V181.547H412.117V187.008C412.117 188.289 412.638 188.93 413.68 188.93C414.784 188.93 415.518 188.518 415.883 187.695V181.547H417.328V190H415.953L415.922 189.164ZM420.891 181.547L420.93 182.484C421.549 181.755 422.385 181.391 423.438 181.391C424.62 181.391 425.424 181.844 425.852 182.75C426.133 182.344 426.497 182.016 426.945 181.766C427.398 181.516 427.932 181.391 428.547 181.391C430.401 181.391 431.344 182.372 431.375 184.336V190H429.93V184.422C429.93 183.818 429.792 183.367 429.516 183.07C429.24 182.768 428.776 182.617 428.125 182.617C427.589 182.617 427.143 182.779 426.789 183.102C426.435 183.419 426.229 183.849 426.172 184.391V190H424.719V184.461C424.719 183.232 424.117 182.617 422.914 182.617C421.966 182.617 421.318 183.021 420.969 183.828V190H419.523V181.547H420.891ZM437.18 185.703C437.18 184.406 437.487 183.365 438.102 182.578C438.716 181.786 439.521 181.391 440.516 181.391C441.505 181.391 442.289 181.729 442.867 182.406V178H444.312V190H442.984L442.914 189.094C442.336 189.802 441.531 190.156 440.5 190.156C439.521 190.156 438.721 189.755 438.102 188.953C437.487 188.151 437.18 187.104 437.18 185.812V185.703ZM438.625 185.867C438.625 186.826 438.823 187.576 439.219 188.117C439.615 188.659 440.161 188.93 440.859 188.93C441.776 188.93 442.445 188.518 442.867 187.695V183.812C442.435 183.016 441.771 182.617 440.875 182.617C440.167 182.617 439.615 182.891 439.219 183.438C438.823 183.984 438.625 184.794 438.625 185.867ZM446.18 185.695C446.18 184.867 446.341 184.122 446.664 183.461C446.992 182.799 447.445 182.289 448.023 181.93C448.607 181.57 449.271 181.391 450.016 181.391C451.167 181.391 452.096 181.789 452.805 182.586C453.518 183.383 453.875 184.443 453.875 185.766V185.867C453.875 186.69 453.716 187.43 453.398 188.086C453.086 188.737 452.635 189.245 452.047 189.609C451.464 189.974 450.792 190.156 450.031 190.156C448.885 190.156 447.956 189.758 447.242 188.961C446.534 188.164 446.18 187.109 446.18 185.797V185.695ZM447.633 185.867C447.633 186.805 447.849 187.557 448.281 188.125C448.719 188.693 449.302 188.977 450.031 188.977C450.766 188.977 451.349 188.69 451.781 188.117C452.214 187.539 452.43 186.732 452.43 185.695C452.43 184.768 452.208 184.018 451.766 183.445C451.328 182.867 450.745 182.578 450.016 182.578C449.302 182.578 448.727 182.862 448.289 183.43C447.852 183.997 447.633 184.81 447.633 185.867ZM457.258 190H455.812V178H457.258V190ZM459.195 185.695C459.195 184.867 459.357 184.122 459.68 183.461C460.008 182.799 460.461 182.289 461.039 181.93C461.622 181.57 462.286 181.391 463.031 181.391C464.182 181.391 465.112 181.789 465.82 182.586C466.534 183.383 466.891 184.443 466.891 185.766V185.867C466.891 186.69 466.732 187.43 466.414 188.086C466.102 188.737 465.651 189.245 465.062 189.609C464.479 189.974 463.807 190.156 463.047 190.156C461.901 190.156 460.971 189.758 460.258 188.961C459.549 188.164 459.195 187.109 459.195 185.797V185.695ZM460.648 185.867C460.648 186.805 460.865 187.557 461.297 188.125C461.734 188.693 462.318 188.977 463.047 188.977C463.781 188.977 464.365 188.69 464.797 188.117C465.229 187.539 465.445 186.732 465.445 185.695C465.445 184.768 465.224 184.018 464.781 183.445C464.344 182.867 463.76 182.578 463.031 182.578C462.318 182.578 461.742 182.862 461.305 183.43C460.867 183.997 460.648 184.81 460.648 185.867ZM472.789 182.844C472.57 182.807 472.333 182.789 472.078 182.789C471.13 182.789 470.487 183.193 470.148 184V190H468.703V181.547H470.109L470.133 182.523C470.607 181.768 471.279 181.391 472.148 181.391C472.43 181.391 472.643 181.427 472.789 181.5V182.844ZM483.016 187.758C483.016 187.367 482.867 187.065 482.57 186.852C482.279 186.633 481.766 186.445 481.031 186.289C480.302 186.133 479.721 185.945 479.289 185.727C478.862 185.508 478.544 185.247 478.336 184.945C478.133 184.643 478.031 184.284 478.031 183.867C478.031 183.174 478.323 182.589 478.906 182.109C479.495 181.63 480.245 181.391 481.156 181.391C482.115 181.391 482.891 181.638 483.484 182.133C484.083 182.628 484.383 183.26 484.383 184.031H482.93C482.93 183.635 482.76 183.294 482.422 183.008C482.089 182.721 481.667 182.578 481.156 182.578C480.63 182.578 480.219 182.693 479.922 182.922C479.625 183.151 479.477 183.451 479.477 183.82C479.477 184.169 479.615 184.432 479.891 184.609C480.167 184.786 480.664 184.956 481.383 185.117C482.107 185.279 482.693 185.471 483.141 185.695C483.589 185.919 483.919 186.19 484.133 186.508C484.352 186.82 484.461 187.203 484.461 187.656C484.461 188.411 484.159 189.018 483.555 189.477C482.951 189.93 482.167 190.156 481.203 190.156C480.526 190.156 479.927 190.036 479.406 189.797C478.885 189.557 478.477 189.224 478.18 188.797C477.888 188.365 477.742 187.898 477.742 187.398H479.188C479.214 187.883 479.406 188.268 479.766 188.555C480.13 188.836 480.609 188.977 481.203 188.977C481.75 188.977 482.188 188.867 482.516 188.648C482.849 188.424 483.016 188.128 483.016 187.758ZM487.914 190H486.469V181.547H487.914V190ZM486.352 179.305C486.352 179.07 486.422 178.872 486.562 178.711C486.708 178.549 486.922 178.469 487.203 178.469C487.484 178.469 487.698 178.549 487.844 178.711C487.99 178.872 488.062 179.07 488.062 179.305C488.062 179.539 487.99 179.734 487.844 179.891C487.698 180.047 487.484 180.125 487.203 180.125C486.922 180.125 486.708 180.047 486.562 179.891C486.422 179.734 486.352 179.539 486.352 179.305ZM492.195 179.5V181.547H493.773V182.664H492.195V187.906C492.195 188.245 492.266 188.5 492.406 188.672C492.547 188.839 492.786 188.922 493.125 188.922C493.292 188.922 493.521 188.891 493.812 188.828V190C493.432 190.104 493.062 190.156 492.703 190.156C492.057 190.156 491.57 189.961 491.242 189.57C490.914 189.18 490.75 188.625 490.75 187.906V182.664H489.211V181.547H490.75V179.5H492.195ZM504.656 190C504.573 189.833 504.505 189.536 504.453 189.109C503.781 189.807 502.979 190.156 502.047 190.156C501.214 190.156 500.529 189.922 499.992 189.453C499.461 188.979 499.195 188.38 499.195 187.656C499.195 186.776 499.529 186.094 500.195 185.609C500.867 185.12 501.81 184.875 503.023 184.875H504.43V184.211C504.43 183.706 504.279 183.305 503.977 183.008C503.674 182.706 503.229 182.555 502.641 182.555C502.125 182.555 501.693 182.685 501.344 182.945C500.995 183.206 500.82 183.521 500.82 183.891H499.367C499.367 183.469 499.516 183.062 499.812 182.672C500.115 182.276 500.521 181.964 501.031 181.734C501.547 181.505 502.112 181.391 502.727 181.391C503.701 181.391 504.464 181.635 505.016 182.125C505.568 182.609 505.854 183.279 505.875 184.133V188.023C505.875 188.799 505.974 189.417 506.172 189.875V190H504.656ZM502.258 188.898C502.711 188.898 503.141 188.781 503.547 188.547C503.953 188.312 504.247 188.008 504.43 187.633V185.898H503.297C501.526 185.898 500.641 186.417 500.641 187.453C500.641 187.906 500.792 188.26 501.094 188.516C501.396 188.771 501.784 188.898 502.258 188.898ZM509.5 181.547L509.539 182.484C510.159 181.755 510.995 181.391 512.047 181.391C513.229 181.391 514.034 181.844 514.461 182.75C514.742 182.344 515.107 182.016 515.555 181.766C516.008 181.516 516.542 181.391 517.156 181.391C519.01 181.391 519.953 182.372 519.984 184.336V190H518.539V184.422C518.539 183.818 518.401 183.367 518.125 183.07C517.849 182.768 517.385 182.617 516.734 182.617C516.198 182.617 515.753 182.779 515.398 183.102C515.044 183.419 514.839 183.849 514.781 184.391V190H513.328V184.461C513.328 183.232 512.727 182.617 511.523 182.617C510.576 182.617 509.927 183.021 509.578 183.828V190H508.133V181.547H509.5ZM525.68 190.156C524.534 190.156 523.602 189.781 522.883 189.031C522.164 188.276 521.805 187.268 521.805 186.008V185.742C521.805 184.904 521.964 184.156 522.281 183.5C522.604 182.839 523.052 182.323 523.625 181.953C524.203 181.578 524.828 181.391 525.5 181.391C526.599 181.391 527.453 181.753 528.062 182.477C528.672 183.201 528.977 184.237 528.977 185.586V186.188H523.25C523.271 187.021 523.513 187.695 523.977 188.211C524.445 188.721 525.039 188.977 525.758 188.977C526.268 188.977 526.701 188.872 527.055 188.664C527.409 188.456 527.719 188.18 527.984 187.836L528.867 188.523C528.159 189.612 527.096 190.156 525.68 190.156ZM525.5 182.578C524.917 182.578 524.427 182.792 524.031 183.219C523.635 183.641 523.391 184.234 523.297 185H527.531V184.891C527.49 184.156 527.292 183.589 526.938 183.188C526.583 182.781 526.104 182.578 525.5 182.578ZM532.617 179.5V181.547H534.195V182.664H532.617V187.906C532.617 188.245 532.688 188.5 532.828 188.672C532.969 188.839 533.208 188.922 533.547 188.922C533.714 188.922 533.943 188.891 534.234 188.828V190C533.854 190.104 533.484 190.156 533.125 190.156C532.479 190.156 531.992 189.961 531.664 189.57C531.336 189.18 531.172 188.625 531.172 187.906V182.664H529.633V181.547H531.172V179.5H532.617ZM535.844 192.266L535.023 191.703C535.513 191.021 535.768 190.318 535.789 189.594V188.289H537.203V189.422C537.203 189.948 537.073 190.474 536.812 191C536.557 191.526 536.234 191.948 535.844 192.266ZM343.484 207.977C344 207.977 344.451 207.82 344.836 207.508C345.221 207.195 345.435 206.805 345.477 206.336H346.844C346.818 206.82 346.651 207.281 346.344 207.719C346.036 208.156 345.625 208.505 345.109 208.766C344.599 209.026 344.057 209.156 343.484 209.156C342.333 209.156 341.417 208.773 340.734 208.008C340.057 207.237 339.719 206.185 339.719 204.852V204.609C339.719 203.786 339.87 203.055 340.172 202.414C340.474 201.773 340.906 201.276 341.469 200.922C342.036 200.568 342.706 200.391 343.477 200.391C344.424 200.391 345.211 200.674 345.836 201.242C346.466 201.81 346.802 202.547 346.844 203.453H345.477C345.435 202.906 345.227 202.458 344.852 202.109C344.482 201.755 344.023 201.578 343.477 201.578C342.742 201.578 342.172 201.844 341.766 202.375C341.365 202.901 341.164 203.664 341.164 204.664V204.938C341.164 205.911 341.365 206.661 341.766 207.188C342.167 207.714 342.74 207.977 343.484 207.977ZM348.086 204.695C348.086 203.867 348.247 203.122 348.57 202.461C348.898 201.799 349.352 201.289 349.93 200.93C350.513 200.57 351.177 200.391 351.922 200.391C353.073 200.391 354.003 200.789 354.711 201.586C355.424 202.383 355.781 203.443 355.781 204.766V204.867C355.781 205.69 355.622 206.43 355.305 207.086C354.992 207.737 354.542 208.245 353.953 208.609C353.37 208.974 352.698 209.156 351.938 209.156C350.792 209.156 349.862 208.758 349.148 207.961C348.44 207.164 348.086 206.109 348.086 204.797V204.695ZM349.539 204.867C349.539 205.805 349.755 206.557 350.188 207.125C350.625 207.693 351.208 207.977 351.938 207.977C352.672 207.977 353.255 207.69 353.688 207.117C354.12 206.539 354.336 205.732 354.336 204.695C354.336 203.768 354.115 203.018 353.672 202.445C353.234 201.867 352.651 201.578 351.922 201.578C351.208 201.578 350.633 201.862 350.195 202.43C349.758 202.997 349.539 203.81 349.539 204.867ZM358.961 200.547L359.008 201.609C359.654 200.797 360.497 200.391 361.539 200.391C363.326 200.391 364.227 201.398 364.242 203.414V209H362.797V203.406C362.792 202.797 362.651 202.346 362.375 202.055C362.104 201.763 361.68 201.617 361.102 201.617C360.633 201.617 360.221 201.742 359.867 201.992C359.513 202.242 359.237 202.57 359.039 202.977V209H357.594V200.547H358.961ZM371.344 206.758C371.344 206.367 371.195 206.065 370.898 205.852C370.607 205.633 370.094 205.445 369.359 205.289C368.63 205.133 368.049 204.945 367.617 204.727C367.19 204.508 366.872 204.247 366.664 203.945C366.461 203.643 366.359 203.284 366.359 202.867C366.359 202.174 366.651 201.589 367.234 201.109C367.823 200.63 368.573 200.391 369.484 200.391C370.443 200.391 371.219 200.638 371.812 201.133C372.411 201.628 372.711 202.26 372.711 203.031H371.258C371.258 202.635 371.089 202.294 370.75 202.008C370.417 201.721 369.995 201.578 369.484 201.578C368.958 201.578 368.547 201.693 368.25 201.922C367.953 202.151 367.805 202.451 367.805 202.82C367.805 203.169 367.943 203.432 368.219 203.609C368.495 203.786 368.992 203.956 369.711 204.117C370.435 204.279 371.021 204.471 371.469 204.695C371.917 204.919 372.247 205.19 372.461 205.508C372.68 205.82 372.789 206.203 372.789 206.656C372.789 207.411 372.487 208.018 371.883 208.477C371.279 208.93 370.495 209.156 369.531 209.156C368.854 209.156 368.255 209.036 367.734 208.797C367.214 208.557 366.805 208.224 366.508 207.797C366.216 207.365 366.07 206.898 366.07 206.398H367.516C367.542 206.883 367.734 207.268 368.094 207.555C368.458 207.836 368.938 207.977 369.531 207.977C370.078 207.977 370.516 207.867 370.844 207.648C371.177 207.424 371.344 207.128 371.344 206.758ZM378.18 209.156C377.034 209.156 376.102 208.781 375.383 208.031C374.664 207.276 374.305 206.268 374.305 205.008V204.742C374.305 203.904 374.464 203.156 374.781 202.5C375.104 201.839 375.552 201.323 376.125 200.953C376.703 200.578 377.328 200.391 378 200.391C379.099 200.391 379.953 200.753 380.562 201.477C381.172 202.201 381.477 203.237 381.477 204.586V205.188H375.75C375.771 206.021 376.013 206.695 376.477 207.211C376.945 207.721 377.539 207.977 378.258 207.977C378.768 207.977 379.201 207.872 379.555 207.664C379.909 207.456 380.219 207.18 380.484 206.836L381.367 207.523C380.659 208.612 379.596 209.156 378.18 209.156ZM378 201.578C377.417 201.578 376.927 201.792 376.531 202.219C376.135 202.641 375.891 203.234 375.797 204H380.031V203.891C379.99 203.156 379.792 202.589 379.438 202.188C379.083 201.781 378.604 201.578 378 201.578ZM385.117 198.5V200.547H386.695V201.664H385.117V206.906C385.117 207.245 385.188 207.5 385.328 207.672C385.469 207.839 385.708 207.922 386.047 207.922C386.214 207.922 386.443 207.891 386.734 207.828V209C386.354 209.104 385.984 209.156 385.625 209.156C384.979 209.156 384.492 208.961 384.164 208.57C383.836 208.18 383.672 207.625 383.672 206.906V201.664H382.133V200.547H383.672V198.5H385.117ZM391.898 209.156C390.753 209.156 389.82 208.781 389.102 208.031C388.383 207.276 388.023 206.268 388.023 205.008V204.742C388.023 203.904 388.182 203.156 388.5 202.5C388.823 201.839 389.271 201.323 389.844 200.953C390.422 200.578 391.047 200.391 391.719 200.391C392.818 200.391 393.672 200.753 394.281 201.477C394.891 202.201 395.195 203.237 395.195 204.586V205.188H389.469C389.49 206.021 389.732 206.695 390.195 207.211C390.664 207.721 391.258 207.977 391.977 207.977C392.487 207.977 392.919 207.872 393.273 207.664C393.628 207.456 393.938 207.18 394.203 206.836L395.086 207.523C394.378 208.612 393.315 209.156 391.898 209.156ZM391.719 201.578C391.135 201.578 390.646 201.792 390.25 202.219C389.854 202.641 389.609 203.234 389.516 204H393.75V203.891C393.708 203.156 393.51 202.589 393.156 202.188C392.802 201.781 392.323 201.578 391.719 201.578ZM398.836 198.5V200.547H400.414V201.664H398.836V206.906C398.836 207.245 398.906 207.5 399.047 207.672C399.188 207.839 399.427 207.922 399.766 207.922C399.932 207.922 400.161 207.891 400.453 207.828V209C400.073 209.104 399.703 209.156 399.344 209.156C398.698 209.156 398.211 208.961 397.883 208.57C397.555 208.18 397.391 207.625 397.391 206.906V201.664H395.852V200.547H397.391V198.5H398.836ZM407.328 208.164C406.766 208.826 405.94 209.156 404.852 209.156C403.951 209.156 403.263 208.896 402.789 208.375C402.32 207.849 402.083 207.073 402.078 206.047V200.547H403.523V206.008C403.523 207.289 404.044 207.93 405.086 207.93C406.19 207.93 406.924 207.518 407.289 206.695V200.547H408.734V209H407.359L407.328 208.164ZM415.023 201.844C414.805 201.807 414.568 201.789 414.312 201.789C413.365 201.789 412.721 202.193 412.383 203V209H410.938V200.547H412.344L412.367 201.523C412.841 200.768 413.513 200.391 414.383 200.391C414.664 200.391 414.878 200.427 415.023 200.5V201.844ZM425.25 206.758C425.25 206.367 425.102 206.065 424.805 205.852C424.513 205.633 424 205.445 423.266 205.289C422.536 205.133 421.956 204.945 421.523 204.727C421.096 204.508 420.779 204.247 420.57 203.945C420.367 203.643 420.266 203.284 420.266 202.867C420.266 202.174 420.557 201.589 421.141 201.109C421.729 200.63 422.479 200.391 423.391 200.391C424.349 200.391 425.125 200.638 425.719 201.133C426.318 201.628 426.617 202.26 426.617 203.031H425.164C425.164 202.635 424.995 202.294 424.656 202.008C424.323 201.721 423.901 201.578 423.391 201.578C422.865 201.578 422.453 201.693 422.156 201.922C421.859 202.151 421.711 202.451 421.711 202.82C421.711 203.169 421.849 203.432 422.125 203.609C422.401 203.786 422.898 203.956 423.617 204.117C424.341 204.279 424.927 204.471 425.375 204.695C425.823 204.919 426.154 205.19 426.367 205.508C426.586 205.82 426.695 206.203 426.695 206.656C426.695 207.411 426.393 208.018 425.789 208.477C425.185 208.93 424.401 209.156 423.438 209.156C422.76 209.156 422.161 209.036 421.641 208.797C421.12 208.557 420.711 208.224 420.414 207.797C420.122 207.365 419.977 206.898 419.977 206.398H421.422C421.448 206.883 421.641 207.268 422 207.555C422.365 207.836 422.844 207.977 423.438 207.977C423.984 207.977 424.422 207.867 424.75 207.648C425.083 207.424 425.25 207.128 425.25 206.758ZM433.797 209C433.714 208.833 433.646 208.536 433.594 208.109C432.922 208.807 432.12 209.156 431.188 209.156C430.354 209.156 429.669 208.922 429.133 208.453C428.602 207.979 428.336 207.38 428.336 206.656C428.336 205.776 428.669 205.094 429.336 204.609C430.008 204.12 430.951 203.875 432.164 203.875H433.57V203.211C433.57 202.706 433.419 202.305 433.117 202.008C432.815 201.706 432.37 201.555 431.781 201.555C431.266 201.555 430.833 201.685 430.484 201.945C430.135 202.206 429.961 202.521 429.961 202.891H428.508C428.508 202.469 428.656 202.062 428.953 201.672C429.255 201.276 429.661 200.964 430.172 200.734C430.688 200.505 431.253 200.391 431.867 200.391C432.841 200.391 433.604 200.635 434.156 201.125C434.708 201.609 434.995 202.279 435.016 203.133V207.023C435.016 207.799 435.115 208.417 435.312 208.875V209H433.797ZM431.398 207.898C431.852 207.898 432.281 207.781 432.688 207.547C433.094 207.312 433.388 207.008 433.57 206.633V204.898H432.438C430.667 204.898 429.781 205.417 429.781 206.453C429.781 206.906 429.932 207.26 430.234 207.516C430.536 207.771 430.924 207.898 431.398 207.898ZM436.93 204.703C436.93 203.406 437.237 202.365 437.852 201.578C438.466 200.786 439.271 200.391 440.266 200.391C441.255 200.391 442.039 200.729 442.617 201.406V197H444.062V209H442.734L442.664 208.094C442.086 208.802 441.281 209.156 440.25 209.156C439.271 209.156 438.471 208.755 437.852 207.953C437.237 207.151 436.93 206.104 436.93 204.812V204.703ZM438.375 204.867C438.375 205.826 438.573 206.576 438.969 207.117C439.365 207.659 439.911 207.93 440.609 207.93C441.526 207.93 442.195 207.518 442.617 206.695V202.812C442.185 202.016 441.521 201.617 440.625 201.617C439.917 201.617 439.365 201.891 438.969 202.438C438.573 202.984 438.375 203.794 438.375 204.867ZM447.883 209H446.438V200.547H447.883V209ZM446.32 198.305C446.32 198.07 446.391 197.872 446.531 197.711C446.677 197.549 446.891 197.469 447.172 197.469C447.453 197.469 447.667 197.549 447.812 197.711C447.958 197.872 448.031 198.07 448.031 198.305C448.031 198.539 447.958 198.734 447.812 198.891C447.667 199.047 447.453 199.125 447.172 199.125C446.891 199.125 446.677 199.047 446.531 198.891C446.391 198.734 446.32 198.539 446.32 198.305ZM457.344 204.867C457.344 206.154 457.049 207.19 456.461 207.977C455.872 208.763 455.076 209.156 454.07 209.156C453.044 209.156 452.237 208.831 451.648 208.18V212.25H450.203V200.547H451.523L451.594 201.484C452.182 200.755 453 200.391 454.047 200.391C455.062 200.391 455.865 200.773 456.453 201.539C457.047 202.305 457.344 203.37 457.344 204.734V204.867ZM455.898 204.703C455.898 203.75 455.695 202.997 455.289 202.445C454.883 201.893 454.326 201.617 453.617 201.617C452.742 201.617 452.086 202.005 451.648 202.781V206.82C452.081 207.591 452.742 207.977 453.633 207.977C454.326 207.977 454.875 207.703 455.281 207.156C455.693 206.604 455.898 205.786 455.898 204.703ZM464.109 206.758C464.109 206.367 463.961 206.065 463.664 205.852C463.372 205.633 462.859 205.445 462.125 205.289C461.396 205.133 460.815 204.945 460.383 204.727C459.956 204.508 459.638 204.247 459.43 203.945C459.227 203.643 459.125 203.284 459.125 202.867C459.125 202.174 459.417 201.589 460 201.109C460.589 200.63 461.339 200.391 462.25 200.391C463.208 200.391 463.984 200.638 464.578 201.133C465.177 201.628 465.477 202.26 465.477 203.031H464.023C464.023 202.635 463.854 202.294 463.516 202.008C463.182 201.721 462.76 201.578 462.25 201.578C461.724 201.578 461.312 201.693 461.016 201.922C460.719 202.151 460.57 202.451 460.57 202.82C460.57 203.169 460.708 203.432 460.984 203.609C461.26 203.786 461.758 203.956 462.477 204.117C463.201 204.279 463.786 204.471 464.234 204.695C464.682 204.919 465.013 205.19 465.227 205.508C465.445 205.82 465.555 206.203 465.555 206.656C465.555 207.411 465.253 208.018 464.648 208.477C464.044 208.93 463.26 209.156 462.297 209.156C461.62 209.156 461.021 209.036 460.5 208.797C459.979 208.557 459.57 208.224 459.273 207.797C458.982 207.365 458.836 206.898 458.836 206.398H460.281C460.307 206.883 460.5 207.268 460.859 207.555C461.224 207.836 461.703 207.977 462.297 207.977C462.844 207.977 463.281 207.867 463.609 207.648C463.943 207.424 464.109 207.128 464.109 206.758ZM470.828 207.977C471.344 207.977 471.794 207.82 472.18 207.508C472.565 207.195 472.779 206.805 472.82 206.336H474.188C474.161 206.82 473.995 207.281 473.688 207.719C473.38 208.156 472.969 208.505 472.453 208.766C471.943 209.026 471.401 209.156 470.828 209.156C469.677 209.156 468.76 208.773 468.078 208.008C467.401 207.237 467.062 206.185 467.062 204.852V204.609C467.062 203.786 467.214 203.055 467.516 202.414C467.818 201.773 468.25 201.276 468.812 200.922C469.38 200.568 470.049 200.391 470.82 200.391C471.768 200.391 472.555 200.674 473.18 201.242C473.81 201.81 474.146 202.547 474.188 203.453H472.82C472.779 202.906 472.57 202.458 472.195 202.109C471.826 201.755 471.367 201.578 470.82 201.578C470.086 201.578 469.516 201.844 469.109 202.375C468.708 202.901 468.508 203.664 468.508 204.664V204.938C468.508 205.911 468.708 206.661 469.109 207.188C469.51 207.714 470.083 207.977 470.828 207.977ZM477.383 209H475.938V200.547H477.383V209ZM475.82 198.305C475.82 198.07 475.891 197.872 476.031 197.711C476.177 197.549 476.391 197.469 476.672 197.469C476.953 197.469 477.167 197.549 477.312 197.711C477.458 197.872 477.531 198.07 477.531 198.305C477.531 198.539 477.458 198.734 477.312 198.891C477.167 199.047 476.953 199.125 476.672 199.125C476.391 199.125 476.177 199.047 476.031 198.891C475.891 198.734 475.82 198.539 475.82 198.305ZM481.07 200.547L481.117 201.609C481.763 200.797 482.607 200.391 483.648 200.391C485.435 200.391 486.336 201.398 486.352 203.414V209H484.906V203.406C484.901 202.797 484.76 202.346 484.484 202.055C484.214 201.763 483.789 201.617 483.211 201.617C482.742 201.617 482.331 201.742 481.977 201.992C481.622 202.242 481.346 202.57 481.148 202.977V209H479.703V200.547H481.07ZM488.188 204.703C488.188 203.385 488.492 202.339 489.102 201.562C489.711 200.781 490.518 200.391 491.523 200.391C492.555 200.391 493.359 200.755 493.938 201.484L494.008 200.547H495.328V208.797C495.328 209.891 495.003 210.753 494.352 211.383C493.706 212.013 492.836 212.328 491.742 212.328C491.133 212.328 490.536 212.198 489.953 211.938C489.37 211.677 488.924 211.32 488.617 210.867L489.367 210C489.987 210.766 490.745 211.148 491.641 211.148C492.344 211.148 492.891 210.951 493.281 210.555C493.677 210.159 493.875 209.602 493.875 208.883V208.156C493.297 208.823 492.508 209.156 491.508 209.156C490.518 209.156 489.716 208.758 489.102 207.961C488.492 207.164 488.188 206.078 488.188 204.703ZM489.641 204.867C489.641 205.82 489.836 206.57 490.227 207.117C490.617 207.659 491.164 207.93 491.867 207.93C492.779 207.93 493.448 207.516 493.875 206.688V202.828C493.432 202.021 492.768 201.617 491.883 201.617C491.18 201.617 490.63 201.891 490.234 202.438C489.839 202.984 489.641 203.794 489.641 204.867ZM504.992 209.156C503.846 209.156 502.914 208.781 502.195 208.031C501.477 207.276 501.117 206.268 501.117 205.008V204.742C501.117 203.904 501.276 203.156 501.594 202.5C501.917 201.839 502.365 201.323 502.938 200.953C503.516 200.578 504.141 200.391 504.812 200.391C505.911 200.391 506.766 200.753 507.375 201.477C507.984 202.201 508.289 203.237 508.289 204.586V205.188H502.562C502.583 206.021 502.826 206.695 503.289 207.211C503.758 207.721 504.352 207.977 505.07 207.977C505.581 207.977 506.013 207.872 506.367 207.664C506.721 207.456 507.031 207.18 507.297 206.836L508.18 207.523C507.471 208.612 506.409 209.156 504.992 209.156ZM504.812 201.578C504.229 201.578 503.74 201.792 503.344 202.219C502.948 202.641 502.703 203.234 502.609 204H506.844V203.891C506.802 203.156 506.604 202.589 506.25 202.188C505.896 201.781 505.417 201.578 504.812 201.578ZM511.539 209H510.094V197H511.539V209ZM515.43 209H513.984V200.547H515.43V209ZM513.867 198.305C513.867 198.07 513.938 197.872 514.078 197.711C514.224 197.549 514.438 197.469 514.719 197.469C515 197.469 515.214 197.549 515.359 197.711C515.505 197.872 515.578 198.07 515.578 198.305C515.578 198.539 515.505 198.734 515.359 198.891C515.214 199.047 515 199.125 514.719 199.125C514.438 199.125 514.224 199.047 514.078 198.891C513.938 198.734 513.867 198.539 513.867 198.305ZM519.711 198.5V200.547H521.289V201.664H519.711V206.906C519.711 207.245 519.781 207.5 519.922 207.672C520.062 207.839 520.302 207.922 520.641 207.922C520.807 207.922 521.036 207.891 521.328 207.828V209C520.948 209.104 520.578 209.156 520.219 209.156C519.573 209.156 519.086 208.961 518.758 208.57C518.43 208.18 518.266 207.625 518.266 206.906V201.664H516.727V200.547H518.266V198.5H519.711ZM527.07 201.844C526.852 201.807 526.615 201.789 526.359 201.789C525.411 201.789 524.768 202.193 524.43 203V209H522.984V200.547H524.391L524.414 201.523C524.888 200.768 525.56 200.391 526.43 200.391C526.711 200.391 526.924 200.427 527.07 200.5V201.844ZM527.391 211.266L526.57 210.703C527.06 210.021 527.315 209.318 527.336 208.594V207.289H528.75V208.422C528.75 208.948 528.62 209.474 528.359 210C528.104 210.526 527.781 210.948 527.391 211.266ZM345.016 225.758C345.016 225.367 344.867 225.065 344.57 224.852C344.279 224.633 343.766 224.445 343.031 224.289C342.302 224.133 341.721 223.945 341.289 223.727C340.862 223.508 340.544 223.247 340.336 222.945C340.133 222.643 340.031 222.284 340.031 221.867C340.031 221.174 340.323 220.589 340.906 220.109C341.495 219.63 342.245 219.391 343.156 219.391C344.115 219.391 344.891 219.638 345.484 220.133C346.083 220.628 346.383 221.26 346.383 222.031H344.93C344.93 221.635 344.76 221.294 344.422 221.008C344.089 220.721 343.667 220.578 343.156 220.578C342.63 220.578 342.219 220.693 341.922 220.922C341.625 221.151 341.477 221.451 341.477 221.82C341.477 222.169 341.615 222.432 341.891 222.609C342.167 222.786 342.664 222.956 343.383 223.117C344.107 223.279 344.693 223.471 345.141 223.695C345.589 223.919 345.919 224.19 346.133 224.508C346.352 224.82 346.461 225.203 346.461 225.656C346.461 226.411 346.159 227.018 345.555 227.477C344.951 227.93 344.167 228.156 343.203 228.156C342.526 228.156 341.927 228.036 341.406 227.797C340.885 227.557 340.477 227.224 340.18 226.797C339.888 226.365 339.742 225.898 339.742 225.398H341.188C341.214 225.883 341.406 226.268 341.766 226.555C342.13 226.836 342.609 226.977 343.203 226.977C343.75 226.977 344.188 226.867 344.516 226.648C344.849 226.424 345.016 226.128 345.016 225.758ZM351.852 228.156C350.706 228.156 349.773 227.781 349.055 227.031C348.336 226.276 347.977 225.268 347.977 224.008V223.742C347.977 222.904 348.135 222.156 348.453 221.5C348.776 220.839 349.224 220.323 349.797 219.953C350.375 219.578 351 219.391 351.672 219.391C352.771 219.391 353.625 219.753 354.234 220.477C354.844 221.201 355.148 222.237 355.148 223.586V224.188H349.422C349.443 225.021 349.685 225.695 350.148 226.211C350.617 226.721 351.211 226.977 351.93 226.977C352.44 226.977 352.872 226.872 353.227 226.664C353.581 226.456 353.891 226.18 354.156 225.836L355.039 226.523C354.331 227.612 353.268 228.156 351.852 228.156ZM351.672 220.578C351.089 220.578 350.599 220.792 350.203 221.219C349.807 221.641 349.562 222.234 349.469 223H353.703V222.891C353.661 222.156 353.464 221.589 353.109 221.188C352.755 220.781 352.276 220.578 351.672 220.578ZM356.477 223.703C356.477 222.406 356.784 221.365 357.398 220.578C358.013 219.786 358.818 219.391 359.812 219.391C360.802 219.391 361.586 219.729 362.164 220.406V216H363.609V228H362.281L362.211 227.094C361.633 227.802 360.828 228.156 359.797 228.156C358.818 228.156 358.018 227.755 357.398 226.953C356.784 226.151 356.477 225.104 356.477 223.812V223.703ZM357.922 223.867C357.922 224.826 358.12 225.576 358.516 226.117C358.911 226.659 359.458 226.93 360.156 226.93C361.073 226.93 361.742 226.518 362.164 225.695V221.812C361.732 221.016 361.068 220.617 360.172 220.617C359.464 220.617 358.911 220.891 358.516 221.438C358.12 221.984 357.922 222.794 357.922 223.867ZM369.477 223.703C369.477 222.406 369.784 221.365 370.398 220.578C371.013 219.786 371.818 219.391 372.812 219.391C373.802 219.391 374.586 219.729 375.164 220.406V216H376.609V228H375.281L375.211 227.094C374.633 227.802 373.828 228.156 372.797 228.156C371.818 228.156 371.018 227.755 370.398 226.953C369.784 226.151 369.477 225.104 369.477 223.812V223.703ZM370.922 223.867C370.922 224.826 371.12 225.576 371.516 226.117C371.911 226.659 372.458 226.93 373.156 226.93C374.073 226.93 374.742 226.518 375.164 225.695V221.812C374.732 221.016 374.068 220.617 373.172 220.617C372.464 220.617 371.911 220.891 371.516 221.438C371.12 221.984 370.922 222.794 370.922 223.867ZM380.43 228H378.984V219.547H380.43V228ZM378.867 217.305C378.867 217.07 378.938 216.872 379.078 216.711C379.224 216.549 379.438 216.469 379.719 216.469C380 216.469 380.214 216.549 380.359 216.711C380.505 216.872 380.578 217.07 380.578 217.305C380.578 217.539 380.505 217.734 380.359 217.891C380.214 218.047 380 218.125 379.719 218.125C379.438 218.125 379.224 218.047 379.078 217.891C378.938 217.734 378.867 217.539 378.867 217.305ZM387.969 228C387.885 227.833 387.818 227.536 387.766 227.109C387.094 227.807 386.292 228.156 385.359 228.156C384.526 228.156 383.841 227.922 383.305 227.453C382.773 226.979 382.508 226.38 382.508 225.656C382.508 224.776 382.841 224.094 383.508 223.609C384.18 223.12 385.122 222.875 386.336 222.875H387.742V222.211C387.742 221.706 387.591 221.305 387.289 221.008C386.987 220.706 386.542 220.555 385.953 220.555C385.438 220.555 385.005 220.685 384.656 220.945C384.307 221.206 384.133 221.521 384.133 221.891H382.68C382.68 221.469 382.828 221.062 383.125 220.672C383.427 220.276 383.833 219.964 384.344 219.734C384.859 219.505 385.424 219.391 386.039 219.391C387.013 219.391 387.776 219.635 388.328 220.125C388.88 220.609 389.167 221.279 389.188 222.133V226.023C389.188 226.799 389.286 227.417 389.484 227.875V228H387.969ZM385.57 226.898C386.023 226.898 386.453 226.781 386.859 226.547C387.266 226.312 387.56 226.008 387.742 225.633V223.898H386.609C384.839 223.898 383.953 224.417 383.953 225.453C383.953 225.906 384.104 226.26 384.406 226.516C384.708 226.771 385.096 226.898 385.57 226.898ZM392.812 219.547L392.852 220.484C393.471 219.755 394.307 219.391 395.359 219.391C396.542 219.391 397.346 219.844 397.773 220.75C398.055 220.344 398.419 220.016 398.867 219.766C399.32 219.516 399.854 219.391 400.469 219.391C402.323 219.391 403.266 220.372 403.297 222.336V228H401.852V222.422C401.852 221.818 401.714 221.367 401.438 221.07C401.161 220.768 400.698 220.617 400.047 220.617C399.51 220.617 399.065 220.779 398.711 221.102C398.357 221.419 398.151 221.849 398.094 222.391V228H396.641V222.461C396.641 221.232 396.039 220.617 394.836 220.617C393.888 220.617 393.24 221.021 392.891 221.828V228H391.445V219.547H392.812ZM410.82 219.547L410.867 220.609C411.513 219.797 412.357 219.391 413.398 219.391C415.185 219.391 416.086 220.398 416.102 222.414V228H414.656V222.406C414.651 221.797 414.51 221.346 414.234 221.055C413.964 220.763 413.539 220.617 412.961 220.617C412.492 220.617 412.081 220.742 411.727 220.992C411.372 221.242 411.096 221.57 410.898 221.977V228H409.453V219.547H410.82ZM417.898 223.695C417.898 222.867 418.06 222.122 418.383 221.461C418.711 220.799 419.164 220.289 419.742 219.93C420.326 219.57 420.99 219.391 421.734 219.391C422.885 219.391 423.815 219.789 424.523 220.586C425.237 221.383 425.594 222.443 425.594 223.766V223.867C425.594 224.69 425.435 225.43 425.117 226.086C424.805 226.737 424.354 227.245 423.766 227.609C423.182 227.974 422.51 228.156 421.75 228.156C420.604 228.156 419.674 227.758 418.961 226.961C418.253 226.164 417.898 225.109 417.898 223.797V223.695ZM419.352 223.867C419.352 224.805 419.568 225.557 420 226.125C420.438 226.693 421.021 226.977 421.75 226.977C422.484 226.977 423.068 226.69 423.5 226.117C423.932 225.539 424.148 224.732 424.148 223.695C424.148 222.768 423.927 222.018 423.484 221.445C423.047 220.867 422.464 220.578 421.734 220.578C421.021 220.578 420.445 220.862 420.008 221.43C419.57 221.997 419.352 222.81 419.352 223.867ZM428.773 219.547L428.82 220.609C429.466 219.797 430.31 219.391 431.352 219.391C433.138 219.391 434.039 220.398 434.055 222.414V228H432.609V222.406C432.604 221.797 432.464 221.346 432.188 221.055C431.917 220.763 431.492 220.617 430.914 220.617C430.445 220.617 430.034 220.742 429.68 220.992C429.326 221.242 429.049 221.57 428.852 221.977V228H427.406V219.547H428.773ZM441.453 227.164C440.891 227.826 440.065 228.156 438.977 228.156C438.076 228.156 437.388 227.896 436.914 227.375C436.445 226.849 436.208 226.073 436.203 225.047V219.547H437.648V225.008C437.648 226.289 438.169 226.93 439.211 226.93C440.315 226.93 441.049 226.518 441.414 225.695V219.547H442.859V228H441.484L441.453 227.164ZM446.422 219.547L446.461 220.484C447.081 219.755 447.917 219.391 448.969 219.391C450.151 219.391 450.956 219.844 451.383 220.75C451.664 220.344 452.029 220.016 452.477 219.766C452.93 219.516 453.464 219.391 454.078 219.391C455.932 219.391 456.875 220.372 456.906 222.336V228H455.461V222.422C455.461 221.818 455.323 221.367 455.047 221.07C454.771 220.768 454.307 220.617 453.656 220.617C453.12 220.617 452.674 220.779 452.32 221.102C451.966 221.419 451.76 221.849 451.703 222.391V228H450.25V222.461C450.25 221.232 449.648 220.617 448.445 220.617C447.497 220.617 446.849 221.021 446.5 221.828V228H445.055V219.547H446.422ZM461.859 225.883L463.828 219.547H465.375L461.977 229.305C461.451 230.711 460.615 231.414 459.469 231.414L459.195 231.391L458.656 231.289V230.117L459.047 230.148C459.536 230.148 459.917 230.049 460.188 229.852C460.464 229.654 460.69 229.292 460.867 228.766L461.188 227.906L458.172 219.547H459.75L461.859 225.883ZM474.148 228.156C473.003 228.156 472.07 227.781 471.352 227.031C470.633 226.276 470.273 225.268 470.273 224.008V223.742C470.273 222.904 470.432 222.156 470.75 221.5C471.073 220.839 471.521 220.323 472.094 219.953C472.672 219.578 473.297 219.391 473.969 219.391C475.068 219.391 475.922 219.753 476.531 220.477C477.141 221.201 477.445 222.237 477.445 223.586V224.188H471.719C471.74 225.021 471.982 225.695 472.445 226.211C472.914 226.721 473.508 226.977 474.227 226.977C474.737 226.977 475.169 226.872 475.523 226.664C475.878 226.456 476.188 226.18 476.453 225.836L477.336 226.523C476.628 227.612 475.565 228.156 474.148 228.156ZM473.969 220.578C473.385 220.578 472.896 220.792 472.5 221.219C472.104 221.641 471.859 222.234 471.766 223H476V222.891C475.958 222.156 475.76 221.589 475.406 221.188C475.052 220.781 474.573 220.578 473.969 220.578ZM480.695 228H479.25V219.547H480.695V228ZM479.133 217.305C479.133 217.07 479.203 216.872 479.344 216.711C479.49 216.549 479.703 216.469 479.984 216.469C480.266 216.469 480.479 216.549 480.625 216.711C480.771 216.872 480.844 217.07 480.844 217.305C480.844 217.539 480.771 217.734 480.625 217.891C480.479 218.047 480.266 218.125 479.984 218.125C479.703 218.125 479.49 218.047 479.344 217.891C479.203 217.734 479.133 217.539 479.133 217.305ZM487.102 220.844C486.883 220.807 486.646 220.789 486.391 220.789C485.443 220.789 484.799 221.193 484.461 222V228H483.016V219.547H484.422L484.445 220.523C484.919 219.768 485.591 219.391 486.461 219.391C486.742 219.391 486.956 219.427 487.102 219.5V220.844ZM489.797 219.547L489.836 220.484C490.456 219.755 491.292 219.391 492.344 219.391C493.526 219.391 494.331 219.844 494.758 220.75C495.039 220.344 495.404 220.016 495.852 219.766C496.305 219.516 496.839 219.391 497.453 219.391C499.307 219.391 500.25 220.372 500.281 222.336V228H498.836V222.422C498.836 221.818 498.698 221.367 498.422 221.07C498.146 220.768 497.682 220.617 497.031 220.617C496.495 220.617 496.049 220.779 495.695 221.102C495.341 221.419 495.135 221.849 495.078 222.391V228H493.625V222.461C493.625 221.232 493.023 220.617 491.82 220.617C490.872 220.617 490.224 221.021 489.875 221.828V228H488.43V219.547H489.797ZM502.086 223.695C502.086 222.867 502.247 222.122 502.57 221.461C502.898 220.799 503.352 220.289 503.93 219.93C504.513 219.57 505.177 219.391 505.922 219.391C507.073 219.391 508.003 219.789 508.711 220.586C509.424 221.383 509.781 222.443 509.781 223.766V223.867C509.781 224.69 509.622 225.43 509.305 226.086C508.992 226.737 508.542 227.245 507.953 227.609C507.37 227.974 506.698 228.156 505.938 228.156C504.792 228.156 503.862 227.758 503.148 226.961C502.44 226.164 502.086 225.109 502.086 223.797V223.695ZM503.539 223.867C503.539 224.805 503.755 225.557 504.188 226.125C504.625 226.693 505.208 226.977 505.938 226.977C506.672 226.977 507.255 226.69 507.688 226.117C508.12 225.539 508.336 224.732 508.336 223.695C508.336 222.768 508.115 222.018 507.672 221.445C507.234 220.867 506.651 220.578 505.922 220.578C505.208 220.578 504.633 220.862 504.195 221.43C503.758 221.997 503.539 222.81 503.539 223.867ZM511.242 223.703C511.242 222.406 511.549 221.365 512.164 220.578C512.779 219.786 513.583 219.391 514.578 219.391C515.568 219.391 516.352 219.729 516.93 220.406V216H518.375V228H517.047L516.977 227.094C516.398 227.802 515.594 228.156 514.562 228.156C513.583 228.156 512.784 227.755 512.164 226.953C511.549 226.151 511.242 225.104 511.242 223.812V223.703ZM512.688 223.867C512.688 224.826 512.885 225.576 513.281 226.117C513.677 226.659 514.224 226.93 514.922 226.93C515.839 226.93 516.508 226.518 516.93 225.695V221.812C516.497 221.016 515.833 220.617 514.938 220.617C514.229 220.617 513.677 220.891 513.281 221.438C512.885 221.984 512.688 222.794 512.688 223.867ZM342.055 236.5V238.547H343.633V239.664H342.055V244.906C342.055 245.245 342.125 245.5 342.266 245.672C342.406 245.839 342.646 245.922 342.984 245.922C343.151 245.922 343.38 245.891 343.672 245.828V247C343.292 247.104 342.922 247.156 342.562 247.156C341.917 247.156 341.43 246.961 341.102 246.57C340.773 246.18 340.609 245.625 340.609 244.906V239.664H339.07V238.547H340.609V236.5H342.055ZM348.836 247.156C347.69 247.156 346.758 246.781 346.039 246.031C345.32 245.276 344.961 244.268 344.961 243.008V242.742C344.961 241.904 345.12 241.156 345.438 240.5C345.76 239.839 346.208 239.323 346.781 238.953C347.359 238.578 347.984 238.391 348.656 238.391C349.755 238.391 350.609 238.753 351.219 239.477C351.828 240.201 352.133 241.237 352.133 242.586V243.188H346.406C346.427 244.021 346.669 244.695 347.133 245.211C347.602 245.721 348.195 245.977 348.914 245.977C349.424 245.977 349.857 245.872 350.211 245.664C350.565 245.456 350.875 245.18 351.141 244.836L352.023 245.523C351.315 246.612 350.253 247.156 348.836 247.156ZM348.656 239.578C348.073 239.578 347.583 239.792 347.188 240.219C346.792 240.641 346.547 241.234 346.453 242H350.688V241.891C350.646 241.156 350.448 240.589 350.094 240.188C349.74 239.781 349.26 239.578 348.656 239.578ZM355.172 238.547L355.211 239.484C355.831 238.755 356.667 238.391 357.719 238.391C358.901 238.391 359.706 238.844 360.133 239.75C360.414 239.344 360.779 239.016 361.227 238.766C361.68 238.516 362.214 238.391 362.828 238.391C364.682 238.391 365.625 239.372 365.656 241.336V247H364.211V241.422C364.211 240.818 364.073 240.367 363.797 240.07C363.521 239.768 363.057 239.617 362.406 239.617C361.87 239.617 361.424 239.779 361.07 240.102C360.716 240.419 360.51 240.849 360.453 241.391V247H359V241.461C359 240.232 358.398 239.617 357.195 239.617C356.247 239.617 355.599 240.021 355.25 240.828V247H353.805V238.547H355.172ZM374.984 242.867C374.984 244.154 374.69 245.19 374.102 245.977C373.513 246.763 372.716 247.156 371.711 247.156C370.685 247.156 369.878 246.831 369.289 246.18V250.25H367.844V238.547H369.164L369.234 239.484C369.823 238.755 370.641 238.391 371.688 238.391C372.703 238.391 373.505 238.773 374.094 239.539C374.688 240.305 374.984 241.37 374.984 242.734V242.867ZM373.539 242.703C373.539 241.75 373.336 240.997 372.93 240.445C372.523 239.893 371.966 239.617 371.258 239.617C370.383 239.617 369.727 240.005 369.289 240.781V244.82C369.721 245.591 370.383 245.977 371.273 245.977C371.966 245.977 372.516 245.703 372.922 245.156C373.333 244.604 373.539 243.786 373.539 242.703ZM376.445 242.695C376.445 241.867 376.607 241.122 376.93 240.461C377.258 239.799 377.711 239.289 378.289 238.93C378.872 238.57 379.536 238.391 380.281 238.391C381.432 238.391 382.362 238.789 383.07 239.586C383.784 240.383 384.141 241.443 384.141 242.766V242.867C384.141 243.69 383.982 244.43 383.664 245.086C383.352 245.737 382.901 246.245 382.312 246.609C381.729 246.974 381.057 247.156 380.297 247.156C379.151 247.156 378.221 246.758 377.508 245.961C376.799 245.164 376.445 244.109 376.445 242.797V242.695ZM377.898 242.867C377.898 243.805 378.115 244.557 378.547 245.125C378.984 245.693 379.568 245.977 380.297 245.977C381.031 245.977 381.615 245.69 382.047 245.117C382.479 244.539 382.695 243.732 382.695 242.695C382.695 241.768 382.474 241.018 382.031 240.445C381.594 239.867 381.01 239.578 380.281 239.578C379.568 239.578 378.992 239.862 378.555 240.43C378.117 240.997 377.898 241.81 377.898 242.867ZM390.039 239.844C389.82 239.807 389.583 239.789 389.328 239.789C388.38 239.789 387.737 240.193 387.398 241V247H385.953V238.547H387.359L387.383 239.523C387.857 238.768 388.529 238.391 389.398 238.391C389.68 238.391 389.893 238.427 390.039 238.5V239.844Z" fill="#373E5F"/>
<path d="M54.5 288.5H339" stroke="black"/>
<path d="M284 32H44V160H284V32Z" fill="white" stroke="black" stroke-miterlimit="10" stroke-linecap="round"/>
<path d="M95.708 44.552L120.116 86.516H71.3L95.708 44.552Z" fill="#98CEF7"/>
<path d="M276 55H228V103H276V55Z" fill="#98CEF7"/>
<path d="M82.0373 73.0038L116.475 107.221L69.3221 119.855L82.0373 73.0038Z" fill="#2B8AFC"/>
<path d="M209.368 287.818C209.009 285.531 209.356 283.19 210.363 281.106C211.37 279.022 212.989 277.294 215.003 276.154C217.071 275.109 219.603 273.954 219.898 271.654C220.098 270.116 219.138 268.554 219.525 267.054C219.959 265.37 221.825 264.554 223.464 263.975C229.182 261.807 235.039 260.028 240.997 258.649C242.909 264.73 246.197 271.975 248.109 278.055L209.368 287.818Z" fill="#2B8AFF"/>
<path d="M246.052 273.583L209.875 284.347" stroke="black" stroke-linecap="round"/>
<path d="M215.731 276.172C216.693 276.774 217.805 277.095 218.94 277.097C220.075 277.099 221.188 276.783 222.153 276.185C224.072 274.946 225.495 273.073 226.176 270.893C226.821 269.011 227.067 267.015 226.898 265.032C226.729 263.049 226.148 261.124 225.193 259.378" stroke="black" stroke-miterlimit="10" stroke-linecap="round"/>
<path d="M143.489 288.001C143.272 286.828 143.372 285.618 143.78 284.496C144.187 283.374 144.887 282.382 145.806 281.621C148.783 279.334 153.216 280.071 156.394 278.074C159.8 275.934 160.7 271.428 161.012 267.418C167.888 265.26 175.152 264.632 182.296 265.578C183.115 265.613 183.905 265.895 184.56 266.388C185.193 267.128 185.547 268.067 185.56 269.041C186.314 275.332 186.654 281.666 186.577 288.001H143.489Z" fill="#2B8AFF"/>
<path d="M144.323 284.459L186.123 284.51" stroke="black" stroke-linecap="round"/>
<path d="M151.97 279.876C152.772 280.849 153.925 281.467 155.18 281.595C158.672 282.101 162.175 279.925 164 276.905C165.825 273.885 166.21 270.19 165.943 266.671" stroke="black" stroke-miterlimit="10" stroke-linecap="round"/>
<path d="M190.992 162.94C193.05 199.17 201.166 234.799 215.002 268.346C215.042 268.693 215.176 269.021 215.391 269.297C215.605 269.572 215.891 269.783 216.217 269.906C216.544 270.03 216.898 270.061 217.24 269.996C217.583 269.932 217.902 269.774 218.161 269.541C225.887 265.641 235.443 263.898 242.8 259.335C243.109 259.216 243.392 259.035 243.629 258.804C243.867 258.573 244.055 258.296 244.183 257.99C244.311 257.684 244.375 257.355 244.372 257.024C244.369 256.692 244.299 256.365 244.166 256.061C237.828 224.333 228.177 190.367 219.24 159.271L190.992 162.94Z" fill="#3E20EF"/>
<path d="M170.487 172.472C171.94 177.681 173.402 183.135 172.293 188.428C171.622 191.066 170.652 193.618 169.402 196.035C165.901 203.559 162.675 211.202 159.722 218.965C158.556 221.822 157.638 224.774 156.979 227.788C156.433 231.087 156.188 234.429 156.247 237.773C156.147 248.35 156.368 258.923 156.91 269.492C156.841 269.851 156.867 270.222 156.984 270.569C157.102 270.915 157.307 271.225 157.58 271.468C157.854 271.712 158.185 271.88 158.543 271.957C158.901 272.033 159.272 272.016 159.621 271.906L188.753 271.156C187.85 258.135 187.454 245.093 187.565 232.029C187.493 229.103 187.738 226.178 188.294 223.305C189.125 219.662 190.894 216.318 192.555 212.969C197.514 202.942 201.568 192.492 204.669 181.744C205.874 177.566 206.943 173.224 206.409 168.908C205.875 164.592 203.409 160.264 199.366 158.672C197.137 157.916 194.76 157.706 192.433 158.061C184.766 158.902 177.597 162.27 172.054 167.634L170.487 172.472Z" fill="#3E20EF"/>
<path d="M142.823 134.766L131.199 138.704C130.906 138.835 130.582 138.88 130.264 138.834C130.01 138.75 129.782 138.603 129.599 138.408C127.217 136.208 125.643 133.296 124.149 130.421C122.289 126.837 120.489 123.221 118.688 119.608C117.325 116.871 115.931 114.008 115.919 110.954C115.912 108.992 116.478 107.008 116.056 105.092C115.9 104.386 115.456 103.597 114.733 103.586C114.38 103.61 114.043 103.748 113.775 103.979C112.739 104.749 111.985 105.838 111.629 107.079C109.72 106.07 107.66 105.377 105.529 105.028C103.376 104.687 101.173 105.176 99.367 106.396C97.5834 107.918 96.3464 109.981 95.845 112.271C95.6214 112.814 95.5118 113.397 95.5232 113.984C95.5346 114.572 95.6665 115.15 95.911 115.684C96.862 117.213 99.06 117.093 100.861 117.116C101.433 117.081 102.003 117.21 102.503 117.49C102.868 117.772 103.168 118.13 103.381 118.54C110.537 130.311 111.866 145.316 120.781 155.815C121.52 156.78 122.453 157.579 123.519 158.163C125.491 159.114 127.826 158.692 129.946 158.145C137.811 156.116 145.224 152.662 152.584 149.227L142.823 134.766Z" fill="white" stroke="black" stroke-miterlimit="10" stroke-linecap="round"/>
<path d="M217.724 128.952C218.716 121.724 221.441 114.866 224.136 108.087C225.069 105.74 226.018 103.214 225.465 100.75C224.941 98.409 223.097 96.359 223.271 93.966C223.262 93.7162 223.32 93.4687 223.438 93.2483C223.555 93.0279 223.729 92.8425 223.942 92.711C224.179 92.6252 224.433 92.6011 224.682 92.641C225.844 92.7524 226.955 93.1703 227.903 93.852C228.752 92.0941 229.921 90.51 231.351 89.181C232.882 87.573 234.658 85.85 236.878 85.801C237.963 85.8478 239.028 86.1024 240.017 86.551C242.003 87.304 244.23 88.302 244.857 90.332C245.027 91.1194 245.018 91.935 244.829 92.7182C244.641 93.5014 244.279 94.2321 243.769 94.856C242.841 96.168 241.624 97.256 240.702 98.573C239.434 100.592 238.578 102.842 238.182 105.193C235.582 117.115 236.161 129.563 233.503 141.473C233.334 142.668 232.847 143.795 232.094 144.738C230.894 146.001 228.994 146.204 227.256 146.329C224.174 146.551 220.89 146.729 218.191 145.229L217.724 128.952Z" fill="white" stroke="black" stroke-miterlimit="10" stroke-linecap="round"/>
<path d="M171.794 118.663C161.091 120.664 150.968 125.023 142.159 131.424C141.299 132.05 140.37 132.85 140.359 133.914C140.436 134.667 140.759 135.374 141.279 135.924C144.657 140.171 146.848 145.238 147.626 150.609C147.616 151.226 147.811 151.828 148.18 152.322C148.805 152.95 149.847 152.743 150.696 152.49C153.976 151.511 158.743 149.49 161.996 148.432C163.603 155.694 164.03 163.167 163.26 170.564C163.049 172.438 162.98 174.695 164.511 175.796C165.637 176.607 167.171 176.418 168.541 176.196C183.924 173.686 198.311 169.674 213.602 166.652C217.392 166.022 221.111 165.017 224.702 163.652C225.132 163.525 225.502 163.25 225.749 162.876C225.886 162.528 225.908 162.145 225.81 161.784C225.355 159.914 224.531 158.154 223.385 156.607C220.671 152.49 217.605 148.616 214.22 145.029L220.446 146.99C219.827 140.251 219.208 135.011 218.589 128.271C218.635 127.638 218.455 127.009 218.08 126.496C217.706 125.984 217.162 125.62 216.545 125.471L206.821 121.058C203.527 119.4 200.044 118.148 196.448 117.329C191.073 116.329 185.548 117.296 180.174 118.275L171.794 118.663Z" fill="#FF58E0"/>
<path d="M169.042 111.624L166.021 120.576C165.332 122.122 165.102 123.833 165.357 125.506C165.454 125.954 165.672 126.366 165.986 126.699C166.371 126.991 166.822 127.185 167.299 127.264C167.775 127.342 168.264 127.304 168.723 127.151C170.33 126.745 171.838 126.015 173.152 125.004C176.631 122.452 179.178 118.829 180.402 114.691C181.086 112.355 181.202 109.518 179.474 107.809C178.743 107.135 177.846 106.667 176.874 106.455C174.939 105.976 172.899 106.175 171.093 107.018C170.422 107.334 169.721 107.847 169.669 108.587L169.042 111.624Z" fill="white" stroke="black" stroke-miterlimit="10" stroke-linecap="round"/>
<path d="M172.752 91.106C170.087 91.5034 167.662 92.8721 165.945 94.949C164.252 97.0175 162.947 99.376 162.096 101.91C161.128 104.123 160.738 106.546 160.963 108.951C161.332 111.326 162.977 113.645 165.332 114.129C166.14 114.262 166.967 114.22 167.756 114.004C168.546 113.789 169.28 113.405 169.908 112.88C171.158 111.818 172.127 110.462 172.726 108.935C172.945 108.423 173.205 107.835 173.739 107.683C174.035 107.625 174.341 107.644 174.628 107.738C176.249 108.126 178.036 108.566 179.514 107.795C180.425 107.257 181.134 106.434 181.532 105.454C182.296 103.693 182.473 101.733 182.036 99.8633C181.599 97.9939 180.571 96.315 179.106 95.075L172.752 91.106Z" fill="white" stroke="black" stroke-miterlimit="10" stroke-linecap="round"/>
<path d="M173.254 89.91C171.425 91.6699 170.27 94.0155 169.991 96.5386C169.712 99.0618 170.326 101.603 171.727 103.72C171.811 103.391 171.958 103.082 172.162 102.81C172.366 102.538 172.621 102.309 172.914 102.137C173.206 101.964 173.53 101.851 173.866 101.805C174.202 101.758 174.545 101.778 174.873 101.864C175.523 102.088 176.07 102.538 176.415 103.133C176.759 103.727 176.878 104.426 176.749 105.101C176.583 105.768 176.208 106.365 175.678 106.803C175.148 107.242 174.492 107.498 173.805 107.536C173.591 109.851 172.619 112.03 171.039 113.736C169.56 115.506 167.792 117.014 166.285 118.76C164.021 121.428 162.398 124.579 161.541 127.971C160.684 131.363 160.615 134.907 161.34 138.33C165.483 133.872 172.24 133.438 178.295 132.815C186.546 131.965 195.408 129.799 200.542 123.284C199.533 121.606 198.987 119.691 198.96 117.733C199.425 119.575 200.439 121.232 201.868 122.484C204.865 120.878 208.001 119.546 211.238 118.506C210.462 115.136 207.617 112.585 204.515 111.055C201.413 109.525 197.986 108.804 194.72 107.664C192.502 106.89 190.04 105.52 189.784 103.185C189.783 102.272 189.855 101.361 189.998 100.46C190.149 97.422 187.851 94.801 185.347 93.075C182.363 91.019 180.57 90.215 177.547 89.852C176.119 89.7069 174.678 89.7263 173.254 89.91V89.91Z" fill="black"/>
<path d="M195.029 102.763C199.247 102.763 202.667 99.3434 202.667 95.1251C202.667 90.9067 199.247 87.4871 195.029 87.4871C190.811 87.4871 187.391 90.9067 187.391 95.1251C187.391 99.3434 190.811 102.763 195.029 102.763Z" fill="black"/>
<path d="M192.144 107.818C194.495 108.894 197.004 109.585 199.574 109.864C202.142 110.143 204.667 110.728 207.096 111.608C208.31 112.055 209.422 112.738 210.37 113.618C211.318 114.498 212.081 115.558 212.617 116.735" stroke="black" stroke-miterlimit="10" stroke-linecap="round"/>
<path d="M171.346 114.854C169.546 117.009 167.183 118.595 165.004 120.363C162.825 122.131 160.741 124.213 159.858 126.876C159.259 129.213 159.141 131.646 159.511 134.03" stroke="black" stroke-miterlimit="10" stroke-linecap="round"/>
<path d="M166.222 96.031C166.752 96.097 167.262 96.2757 167.718 96.5551C168.173 96.8346 168.564 97.2082 168.863 97.651" stroke="black" stroke-miterlimit="10" stroke-linecap="round"/>
<path d="M164.64 99.849L162.371 104.271C162.344 104.307 162.326 104.348 162.317 104.391C162.308 104.435 162.309 104.48 162.32 104.523C162.33 104.566 162.35 104.606 162.378 104.641C162.406 104.675 162.442 104.703 162.482 104.722L163.367 105.471" stroke="black" stroke-miterlimit="10" stroke-linecap="round"/>
<path d="M161.953 107.749C161.96 107.989 162.028 108.224 162.15 108.431C162.273 108.638 162.446 108.811 162.653 108.933C163.072 109.173 163.549 109.291 164.031 109.275C164.587 109.308 165.136 109.138 165.576 108.797" stroke="black" stroke-miterlimit="10" stroke-linecap="round"/>
<path d="M162.223 148.34C164.223 144.71 165.68 140.807 166.548 136.754" stroke="black" stroke-miterlimit="10" stroke-linecap="round"/>
<path d="M165.508 141.882C167.297 140.452 169.01 138.929 170.639 137.319" stroke="black" stroke-miterlimit="10" stroke-linecap="round"/>
<path d="M204.535 124.026C206.323 130.402 208.928 136.519 212.287 142.226C212.823 143.267 213.557 144.194 214.449 144.953" stroke="black" stroke-miterlimit="10" stroke-linecap="round"/>
<path d="M206.547 129.979C206.361 128.35 206.6 126.7 207.239 125.19" stroke="black" stroke-miterlimit="10" stroke-linecap="round"/>
<path d="M205.031 180.551C202.718 189.095 199.756 197.451 196.171 205.544" stroke="black" stroke-miterlimit="10" stroke-linecap="round"/>
<path d="M201.557 191.696C204.29 190.368 206.912 188.82 209.395 187.068" stroke="black" stroke-miterlimit="10" stroke-linecap="round"/>
<path d="M177.512 168.804C183.233 167.996 188.72 165.99 193.613 162.918C198.507 159.846 202.698 155.776 205.912 150.975" stroke="black" stroke-miterlimit="10" stroke-linecap="round"/>
<path d="M196.483 160.924C192.023 161.665 187.471 161.654 183.015 160.891" stroke="black" stroke-miterlimit="10" stroke-linecap="round"/>
<path d="M188.361 221.624C186.11 225.845 183.146 229.644 179.599 232.853" stroke="black" stroke-miterlimit="10" stroke-linecap="round"/>
<path d="M243.931 88.925C241.562 90.6851 239.562 92.8936 238.044 95.425" stroke="black" stroke-miterlimit="10" stroke-linecap="round"/>
<path d="M240.914 87.187C240.347 87.3424 239.821 87.6183 239.371 87.996C237.364 89.6767 235.613 91.6402 234.171 93.825" stroke="black" stroke-miterlimit="10" stroke-linecap="round"/>
<path d="M237.178 86.005C234.821 87.3704 232.81 89.2619 231.304 91.532" stroke="black" stroke-miterlimit="10" stroke-linecap="round"/>
<path d="M131.095 138.729C128.641 139.515 126.225 140.408 123.847 141.407" stroke="black" stroke-miterlimit="10" stroke-linecap="round"/>
<path d="M218.523 126.576C220.21 126.793 221.835 127.351 223.299 128.216" stroke="black" stroke-miterlimit="10" stroke-linecap="round"/>
<path d="M95.602 113.96C97.9834 113.345 100.509 113.636 102.687 114.778" stroke="black" stroke-miterlimit="10" stroke-linecap="round"/>
<path d="M96.4189 110.73C97.5561 110.23 98.793 109.998 100.034 110.051C101.275 110.105 102.487 110.443 103.577 111.04" stroke="black" stroke-miterlimit="10" stroke-linecap="round"/>
<path d="M98.3 107.566C99.7466 107.102 101.272 106.937 102.785 107.079C104.297 107.221 105.765 107.668 107.1 108.393" stroke="black" stroke-miterlimit="10" stroke-linecap="round"/>
<path d="M166.259 99.9C166.811 99.9 167.259 99.4523 167.259 98.9C167.259 98.3477 166.811 97.9 166.259 97.9C165.707 97.9 165.259 98.3477 165.259 98.9C165.259 99.4523 165.707 99.9 166.259 99.9Z" fill="black"/>
<path d="M127 241H79V289H127V241Z" fill="#FD58E0"/>
<path d="M126.5 241.5H79.5V288.5H126.5V241.5Z" stroke="black"/>
<path d="M315 253H279V289H315V253Z" fill="#2B8AFF"/>
<path d="M314.5 253.5H279.5V288.5H314.5V253.5Z" stroke="black"/>
<path d="M270 253H234V289H270V253Z" fill="#98CEF7"/>
<path d="M269.5 253.5H234.5V288.5H269.5V253.5Z" stroke="black"/>
<path d="M302.967 253.5H248.869L275.918 206.995L302.967 253.5Z" fill="#FF58E0"/>
<path d="M275.918 207.989L249.738 253H302.098L275.918 207.989ZM275.918 206L303.837 254H248L275.918 206Z" fill="#FF58E0"/>
</svg>
