<svg width="600" height="320" viewBox="0 0 600 320" fill="none" xmlns="http://www.w3.org/2000/svg">
<rect width="600" height="320" fill="white"/>
<path d="M529 64H71C35.6538 64 7 92.6538 7 128V256C7 291.346 35.6538 320 71 320H529C564.346 320 593 291.346 593 256V128C593 92.6538 564.346 64 529 64Z" fill="white"/>
<path d="M529 64.5H71C35.9299 64.5 7.5 92.9299 7.5 128V256C7.5 291.07 35.9299 319.5 71 319.5H529C564.07 319.5 592.5 291.07 592.5 256V128C592.5 92.9299 564.07 64.5 529 64.5Z" stroke="black"/>
<path d="M350.402 155.547H343.254L341.648 160H339.328L345.844 142.938H347.812L354.34 160H352.031L350.402 155.547ZM343.934 153.695H349.734L346.828 145.715L343.934 153.695ZM355.781 153.555C355.781 151.578 356.238 150.008 357.152 148.844C358.066 147.672 359.277 147.086 360.785 147.086C362.332 147.086 363.539 147.633 364.406 148.727L364.512 147.32H366.492V159.695C366.492 161.336 366.004 162.629 365.027 163.574C364.059 164.52 362.754 164.992 361.113 164.992C360.199 164.992 359.305 164.797 358.43 164.406C357.555 164.016 356.887 163.48 356.426 162.801L357.551 161.5C358.48 162.648 359.617 163.223 360.961 163.223C362.016 163.223 362.836 162.926 363.422 162.332C364.016 161.738 364.312 160.902 364.312 159.824V158.734C363.445 159.734 362.262 160.234 360.762 160.234C359.277 160.234 358.074 159.637 357.152 158.441C356.238 157.246 355.781 155.617 355.781 153.555ZM357.961 153.801C357.961 155.23 358.254 156.355 358.84 157.176C359.426 157.988 360.246 158.395 361.301 158.395C362.668 158.395 363.672 157.773 364.312 156.531V150.742C363.648 149.531 362.652 148.926 361.324 148.926C360.27 148.926 359.445 149.336 358.852 150.156C358.258 150.977 357.961 152.191 357.961 153.801ZM372.129 160H369.961V147.32H372.129V160ZM369.785 143.957C369.785 143.605 369.891 143.309 370.102 143.066C370.32 142.824 370.641 142.703 371.062 142.703C371.484 142.703 371.805 142.824 372.023 143.066C372.242 143.309 372.352 143.605 372.352 143.957C372.352 144.309 372.242 144.602 372.023 144.836C371.805 145.07 371.484 145.188 371.062 145.188C370.641 145.188 370.32 145.07 370.102 144.836C369.891 144.602 369.785 144.309 369.785 143.957ZM377.965 160H375.797V142H377.965V160ZM386.707 160.234C384.988 160.234 383.59 159.672 382.512 158.547C381.434 157.414 380.895 155.902 380.895 154.012V153.613C380.895 152.355 381.133 151.234 381.609 150.25C382.094 149.258 382.766 148.484 383.625 147.93C384.492 147.367 385.43 147.086 386.438 147.086C388.086 147.086 389.367 147.629 390.281 148.715C391.195 149.801 391.652 151.355 391.652 153.379V154.281H383.062C383.094 155.531 383.457 156.543 384.152 157.316C384.855 158.082 385.746 158.465 386.824 158.465C387.59 158.465 388.238 158.309 388.77 157.996C389.301 157.684 389.766 157.27 390.164 156.754L391.488 157.785C390.426 159.418 388.832 160.234 386.707 160.234ZM386.438 148.867C385.562 148.867 384.828 149.188 384.234 149.828C383.641 150.461 383.273 151.352 383.133 152.5H389.484V152.336C389.422 151.234 389.125 150.383 388.594 149.781C388.062 149.172 387.344 148.867 386.438 148.867Z" fill="#373E5F"/>
<path d="M341.828 188.773H347.219V190H340.32V178.625H341.828V188.773ZM348.32 185.695C348.32 184.867 348.482 184.122 348.805 183.461C349.133 182.799 349.586 182.289 350.164 181.93C350.747 181.57 351.411 181.391 352.156 181.391C353.307 181.391 354.237 181.789 354.945 182.586C355.659 183.383 356.016 184.443 356.016 185.766V185.867C356.016 186.69 355.857 187.43 355.539 188.086C355.227 188.737 354.776 189.245 354.188 189.609C353.604 189.974 352.932 190.156 352.172 190.156C351.026 190.156 350.096 189.758 349.383 188.961C348.674 188.164 348.32 187.109 348.32 185.797V185.695ZM349.773 185.867C349.773 186.805 349.99 187.557 350.422 188.125C350.859 188.693 351.443 188.977 352.172 188.977C352.906 188.977 353.49 188.69 353.922 188.117C354.354 187.539 354.57 186.732 354.57 185.695C354.57 184.768 354.349 184.018 353.906 183.445C353.469 182.867 352.885 182.578 352.156 182.578C351.443 182.578 350.867 182.862 350.43 183.43C349.992 183.997 349.773 184.81 349.773 185.867ZM361.914 182.844C361.695 182.807 361.458 182.789 361.203 182.789C360.255 182.789 359.612 183.193 359.273 184V190H357.828V181.547H359.234L359.258 182.523C359.732 181.768 360.404 181.391 361.273 181.391C361.555 181.391 361.768 181.427 361.914 181.5V182.844ZM366.602 190.156C365.456 190.156 364.523 189.781 363.805 189.031C363.086 188.276 362.727 187.268 362.727 186.008V185.742C362.727 184.904 362.885 184.156 363.203 183.5C363.526 182.839 363.974 182.323 364.547 181.953C365.125 181.578 365.75 181.391 366.422 181.391C367.521 181.391 368.375 181.753 368.984 182.477C369.594 183.201 369.898 184.237 369.898 185.586V186.188H364.172C364.193 187.021 364.435 187.695 364.898 188.211C365.367 188.721 365.961 188.977 366.68 188.977C367.19 188.977 367.622 188.872 367.977 188.664C368.331 188.456 368.641 188.18 368.906 187.836L369.789 188.523C369.081 189.612 368.018 190.156 366.602 190.156ZM366.422 182.578C365.839 182.578 365.349 182.792 364.953 183.219C364.557 183.641 364.312 184.234 364.219 185H368.453V184.891C368.411 184.156 368.214 183.589 367.859 183.188C367.505 182.781 367.026 182.578 366.422 182.578ZM372.938 181.547L372.977 182.484C373.596 181.755 374.432 181.391 375.484 181.391C376.667 181.391 377.471 181.844 377.898 182.75C378.18 182.344 378.544 182.016 378.992 181.766C379.445 181.516 379.979 181.391 380.594 181.391C382.448 181.391 383.391 182.372 383.422 184.336V190H381.977V184.422C381.977 183.818 381.839 183.367 381.562 183.07C381.286 182.768 380.823 182.617 380.172 182.617C379.635 182.617 379.19 182.779 378.836 183.102C378.482 183.419 378.276 183.849 378.219 184.391V190H376.766V184.461C376.766 183.232 376.164 182.617 374.961 182.617C374.013 182.617 373.365 183.021 373.016 183.828V190H371.57V181.547H372.938ZM391.148 190H389.703V181.547H391.148V190ZM389.586 179.305C389.586 179.07 389.656 178.872 389.797 178.711C389.943 178.549 390.156 178.469 390.438 178.469C390.719 178.469 390.932 178.549 391.078 178.711C391.224 178.872 391.297 179.07 391.297 179.305C391.297 179.539 391.224 179.734 391.078 179.891C390.932 180.047 390.719 180.125 390.438 180.125C390.156 180.125 389.943 180.047 389.797 179.891C389.656 179.734 389.586 179.539 389.586 179.305ZM400.609 185.867C400.609 187.154 400.315 188.19 399.727 188.977C399.138 189.763 398.341 190.156 397.336 190.156C396.31 190.156 395.503 189.831 394.914 189.18V193.25H393.469V181.547H394.789L394.859 182.484C395.448 181.755 396.266 181.391 397.312 181.391C398.328 181.391 399.13 181.773 399.719 182.539C400.312 183.305 400.609 184.37 400.609 185.734V185.867ZM399.164 185.703C399.164 184.75 398.961 183.997 398.555 183.445C398.148 182.893 397.591 182.617 396.883 182.617C396.008 182.617 395.352 183.005 394.914 183.781V187.82C395.346 188.591 396.008 188.977 396.898 188.977C397.591 188.977 398.141 188.703 398.547 188.156C398.958 187.604 399.164 186.786 399.164 185.703ZM407.375 187.758C407.375 187.367 407.227 187.065 406.93 186.852C406.638 186.633 406.125 186.445 405.391 186.289C404.661 186.133 404.081 185.945 403.648 185.727C403.221 185.508 402.904 185.247 402.695 184.945C402.492 184.643 402.391 184.284 402.391 183.867C402.391 183.174 402.682 182.589 403.266 182.109C403.854 181.63 404.604 181.391 405.516 181.391C406.474 181.391 407.25 181.638 407.844 182.133C408.443 182.628 408.742 183.26 408.742 184.031H407.289C407.289 183.635 407.12 183.294 406.781 183.008C406.448 182.721 406.026 182.578 405.516 182.578C404.99 182.578 404.578 182.693 404.281 182.922C403.984 183.151 403.836 183.451 403.836 183.82C403.836 184.169 403.974 184.432 404.25 184.609C404.526 184.786 405.023 184.956 405.742 185.117C406.466 185.279 407.052 185.471 407.5 185.695C407.948 185.919 408.279 186.19 408.492 186.508C408.711 186.82 408.82 187.203 408.82 187.656C408.82 188.411 408.518 189.018 407.914 189.477C407.31 189.93 406.526 190.156 405.562 190.156C404.885 190.156 404.286 190.036 403.766 189.797C403.245 189.557 402.836 189.224 402.539 188.797C402.247 188.365 402.102 187.898 402.102 187.398H403.547C403.573 187.883 403.766 188.268 404.125 188.555C404.49 188.836 404.969 188.977 405.562 188.977C406.109 188.977 406.547 188.867 406.875 188.648C407.208 188.424 407.375 188.128 407.375 187.758ZM415.922 189.164C415.359 189.826 414.534 190.156 413.445 190.156C412.544 190.156 411.857 189.896 411.383 189.375C410.914 188.849 410.677 188.073 410.672 187.047V181.547H412.117V187.008C412.117 188.289 412.638 188.93 413.68 188.93C414.784 188.93 415.518 188.518 415.883 187.695V181.547H417.328V190H415.953L415.922 189.164ZM420.891 181.547L420.93 182.484C421.549 181.755 422.385 181.391 423.438 181.391C424.62 181.391 425.424 181.844 425.852 182.75C426.133 182.344 426.497 182.016 426.945 181.766C427.398 181.516 427.932 181.391 428.547 181.391C430.401 181.391 431.344 182.372 431.375 184.336V190H429.93V184.422C429.93 183.818 429.792 183.367 429.516 183.07C429.24 182.768 428.776 182.617 428.125 182.617C427.589 182.617 427.143 182.779 426.789 183.102C426.435 183.419 426.229 183.849 426.172 184.391V190H424.719V184.461C424.719 183.232 424.117 182.617 422.914 182.617C421.966 182.617 421.318 183.021 420.969 183.828V190H419.523V181.547H420.891ZM437.18 185.703C437.18 184.406 437.487 183.365 438.102 182.578C438.716 181.786 439.521 181.391 440.516 181.391C441.505 181.391 442.289 181.729 442.867 182.406V178H444.312V190H442.984L442.914 189.094C442.336 189.802 441.531 190.156 440.5 190.156C439.521 190.156 438.721 189.755 438.102 188.953C437.487 188.151 437.18 187.104 437.18 185.812V185.703ZM438.625 185.867C438.625 186.826 438.823 187.576 439.219 188.117C439.615 188.659 440.161 188.93 440.859 188.93C441.776 188.93 442.445 188.518 442.867 187.695V183.812C442.435 183.016 441.771 182.617 440.875 182.617C440.167 182.617 439.615 182.891 439.219 183.438C438.823 183.984 438.625 184.794 438.625 185.867ZM446.18 185.695C446.18 184.867 446.341 184.122 446.664 183.461C446.992 182.799 447.445 182.289 448.023 181.93C448.607 181.57 449.271 181.391 450.016 181.391C451.167 181.391 452.096 181.789 452.805 182.586C453.518 183.383 453.875 184.443 453.875 185.766V185.867C453.875 186.69 453.716 187.43 453.398 188.086C453.086 188.737 452.635 189.245 452.047 189.609C451.464 189.974 450.792 190.156 450.031 190.156C448.885 190.156 447.956 189.758 447.242 188.961C446.534 188.164 446.18 187.109 446.18 185.797V185.695ZM447.633 185.867C447.633 186.805 447.849 187.557 448.281 188.125C448.719 188.693 449.302 188.977 450.031 188.977C450.766 188.977 451.349 188.69 451.781 188.117C452.214 187.539 452.43 186.732 452.43 185.695C452.43 184.768 452.208 184.018 451.766 183.445C451.328 182.867 450.745 182.578 450.016 182.578C449.302 182.578 448.727 182.862 448.289 183.43C447.852 183.997 447.633 184.81 447.633 185.867ZM457.258 190H455.812V178H457.258V190ZM459.195 185.695C459.195 184.867 459.357 184.122 459.68 183.461C460.008 182.799 460.461 182.289 461.039 181.93C461.622 181.57 462.286 181.391 463.031 181.391C464.182 181.391 465.112 181.789 465.82 182.586C466.534 183.383 466.891 184.443 466.891 185.766V185.867C466.891 186.69 466.732 187.43 466.414 188.086C466.102 188.737 465.651 189.245 465.062 189.609C464.479 189.974 463.807 190.156 463.047 190.156C461.901 190.156 460.971 189.758 460.258 188.961C459.549 188.164 459.195 187.109 459.195 185.797V185.695ZM460.648 185.867C460.648 186.805 460.865 187.557 461.297 188.125C461.734 188.693 462.318 188.977 463.047 188.977C463.781 188.977 464.365 188.69 464.797 188.117C465.229 187.539 465.445 186.732 465.445 185.695C465.445 184.768 465.224 184.018 464.781 183.445C464.344 182.867 463.76 182.578 463.031 182.578C462.318 182.578 461.742 182.862 461.305 183.43C460.867 183.997 460.648 184.81 460.648 185.867ZM472.789 182.844C472.57 182.807 472.333 182.789 472.078 182.789C471.13 182.789 470.487 183.193 470.148 184V190H468.703V181.547H470.109L470.133 182.523C470.607 181.768 471.279 181.391 472.148 181.391C472.43 181.391 472.643 181.427 472.789 181.5V182.844ZM483.016 187.758C483.016 187.367 482.867 187.065 482.57 186.852C482.279 186.633 481.766 186.445 481.031 186.289C480.302 186.133 479.721 185.945 479.289 185.727C478.862 185.508 478.544 185.247 478.336 184.945C478.133 184.643 478.031 184.284 478.031 183.867C478.031 183.174 478.323 182.589 478.906 182.109C479.495 181.63 480.245 181.391 481.156 181.391C482.115 181.391 482.891 181.638 483.484 182.133C484.083 182.628 484.383 183.26 484.383 184.031H482.93C482.93 183.635 482.76 183.294 482.422 183.008C482.089 182.721 481.667 182.578 481.156 182.578C480.63 182.578 480.219 182.693 479.922 182.922C479.625 183.151 479.477 183.451 479.477 183.82C479.477 184.169 479.615 184.432 479.891 184.609C480.167 184.786 480.664 184.956 481.383 185.117C482.107 185.279 482.693 185.471 483.141 185.695C483.589 185.919 483.919 186.19 484.133 186.508C484.352 186.82 484.461 187.203 484.461 187.656C484.461 188.411 484.159 189.018 483.555 189.477C482.951 189.93 482.167 190.156 481.203 190.156C480.526 190.156 479.927 190.036 479.406 189.797C478.885 189.557 478.477 189.224 478.18 188.797C477.888 188.365 477.742 187.898 477.742 187.398H479.188C479.214 187.883 479.406 188.268 479.766 188.555C480.13 188.836 480.609 188.977 481.203 188.977C481.75 188.977 482.188 188.867 482.516 188.648C482.849 188.424 483.016 188.128 483.016 187.758ZM487.914 190H486.469V181.547H487.914V190ZM486.352 179.305C486.352 179.07 486.422 178.872 486.562 178.711C486.708 178.549 486.922 178.469 487.203 178.469C487.484 178.469 487.698 178.549 487.844 178.711C487.99 178.872 488.062 179.07 488.062 179.305C488.062 179.539 487.99 179.734 487.844 179.891C487.698 180.047 487.484 180.125 487.203 180.125C486.922 180.125 486.708 180.047 486.562 179.891C486.422 179.734 486.352 179.539 486.352 179.305ZM492.195 179.5V181.547H493.773V182.664H492.195V187.906C492.195 188.245 492.266 188.5 492.406 188.672C492.547 188.839 492.786 188.922 493.125 188.922C493.292 188.922 493.521 188.891 493.812 188.828V190C493.432 190.104 493.062 190.156 492.703 190.156C492.057 190.156 491.57 189.961 491.242 189.57C490.914 189.18 490.75 188.625 490.75 187.906V182.664H489.211V181.547H490.75V179.5H492.195ZM504.656 190C504.573 189.833 504.505 189.536 504.453 189.109C503.781 189.807 502.979 190.156 502.047 190.156C501.214 190.156 500.529 189.922 499.992 189.453C499.461 188.979 499.195 188.38 499.195 187.656C499.195 186.776 499.529 186.094 500.195 185.609C500.867 185.12 501.81 184.875 503.023 184.875H504.43V184.211C504.43 183.706 504.279 183.305 503.977 183.008C503.674 182.706 503.229 182.555 502.641 182.555C502.125 182.555 501.693 182.685 501.344 182.945C500.995 183.206 500.82 183.521 500.82 183.891H499.367C499.367 183.469 499.516 183.062 499.812 182.672C500.115 182.276 500.521 181.964 501.031 181.734C501.547 181.505 502.112 181.391 502.727 181.391C503.701 181.391 504.464 181.635 505.016 182.125C505.568 182.609 505.854 183.279 505.875 184.133V188.023C505.875 188.799 505.974 189.417 506.172 189.875V190H504.656ZM502.258 188.898C502.711 188.898 503.141 188.781 503.547 188.547C503.953 188.312 504.247 188.008 504.43 187.633V185.898H503.297C501.526 185.898 500.641 186.417 500.641 187.453C500.641 187.906 500.792 188.26 501.094 188.516C501.396 188.771 501.784 188.898 502.258 188.898ZM509.5 181.547L509.539 182.484C510.159 181.755 510.995 181.391 512.047 181.391C513.229 181.391 514.034 181.844 514.461 182.75C514.742 182.344 515.107 182.016 515.555 181.766C516.008 181.516 516.542 181.391 517.156 181.391C519.01 181.391 519.953 182.372 519.984 184.336V190H518.539V184.422C518.539 183.818 518.401 183.367 518.125 183.07C517.849 182.768 517.385 182.617 516.734 182.617C516.198 182.617 515.753 182.779 515.398 183.102C515.044 183.419 514.839 183.849 514.781 184.391V190H513.328V184.461C513.328 183.232 512.727 182.617 511.523 182.617C510.576 182.617 509.927 183.021 509.578 183.828V190H508.133V181.547H509.5ZM525.68 190.156C524.534 190.156 523.602 189.781 522.883 189.031C522.164 188.276 521.805 187.268 521.805 186.008V185.742C521.805 184.904 521.964 184.156 522.281 183.5C522.604 182.839 523.052 182.323 523.625 181.953C524.203 181.578 524.828 181.391 525.5 181.391C526.599 181.391 527.453 181.753 528.062 182.477C528.672 183.201 528.977 184.237 528.977 185.586V186.188H523.25C523.271 187.021 523.513 187.695 523.977 188.211C524.445 188.721 525.039 188.977 525.758 188.977C526.268 188.977 526.701 188.872 527.055 188.664C527.409 188.456 527.719 188.18 527.984 187.836L528.867 188.523C528.159 189.612 527.096 190.156 525.68 190.156ZM525.5 182.578C524.917 182.578 524.427 182.792 524.031 183.219C523.635 183.641 523.391 184.234 523.297 185H527.531V184.891C527.49 184.156 527.292 183.589 526.938 183.188C526.583 182.781 526.104 182.578 525.5 182.578ZM532.617 179.5V181.547H534.195V182.664H532.617V187.906C532.617 188.245 532.688 188.5 532.828 188.672C532.969 188.839 533.208 188.922 533.547 188.922C533.714 188.922 533.943 188.891 534.234 188.828V190C533.854 190.104 533.484 190.156 533.125 190.156C532.479 190.156 531.992 189.961 531.664 189.57C531.336 189.18 531.172 188.625 531.172 187.906V182.664H529.633V181.547H531.172V179.5H532.617ZM535.844 192.266L535.023 191.703C535.513 191.021 535.768 190.318 535.789 189.594V188.289H537.203V189.422C537.203 189.948 537.073 190.474 536.812 191C536.557 191.526 536.234 191.948 535.844 192.266ZM343.484 207.977C344 207.977 344.451 207.82 344.836 207.508C345.221 207.195 345.435 206.805 345.477 206.336H346.844C346.818 206.82 346.651 207.281 346.344 207.719C346.036 208.156 345.625 208.505 345.109 208.766C344.599 209.026 344.057 209.156 343.484 209.156C342.333 209.156 341.417 208.773 340.734 208.008C340.057 207.237 339.719 206.185 339.719 204.852V204.609C339.719 203.786 339.87 203.055 340.172 202.414C340.474 201.773 340.906 201.276 341.469 200.922C342.036 200.568 342.706 200.391 343.477 200.391C344.424 200.391 345.211 200.674 345.836 201.242C346.466 201.81 346.802 202.547 346.844 203.453H345.477C345.435 202.906 345.227 202.458 344.852 202.109C344.482 201.755 344.023 201.578 343.477 201.578C342.742 201.578 342.172 201.844 341.766 202.375C341.365 202.901 341.164 203.664 341.164 204.664V204.938C341.164 205.911 341.365 206.661 341.766 207.188C342.167 207.714 342.74 207.977 343.484 207.977ZM348.086 204.695C348.086 203.867 348.247 203.122 348.57 202.461C348.898 201.799 349.352 201.289 349.93 200.93C350.513 200.57 351.177 200.391 351.922 200.391C353.073 200.391 354.003 200.789 354.711 201.586C355.424 202.383 355.781 203.443 355.781 204.766V204.867C355.781 205.69 355.622 206.43 355.305 207.086C354.992 207.737 354.542 208.245 353.953 208.609C353.37 208.974 352.698 209.156 351.938 209.156C350.792 209.156 349.862 208.758 349.148 207.961C348.44 207.164 348.086 206.109 348.086 204.797V204.695ZM349.539 204.867C349.539 205.805 349.755 206.557 350.188 207.125C350.625 207.693 351.208 207.977 351.938 207.977C352.672 207.977 353.255 207.69 353.688 207.117C354.12 206.539 354.336 205.732 354.336 204.695C354.336 203.768 354.115 203.018 353.672 202.445C353.234 201.867 352.651 201.578 351.922 201.578C351.208 201.578 350.633 201.862 350.195 202.43C349.758 202.997 349.539 203.81 349.539 204.867ZM358.961 200.547L359.008 201.609C359.654 200.797 360.497 200.391 361.539 200.391C363.326 200.391 364.227 201.398 364.242 203.414V209H362.797V203.406C362.792 202.797 362.651 202.346 362.375 202.055C362.104 201.763 361.68 201.617 361.102 201.617C360.633 201.617 360.221 201.742 359.867 201.992C359.513 202.242 359.237 202.57 359.039 202.977V209H357.594V200.547H358.961ZM371.344 206.758C371.344 206.367 371.195 206.065 370.898 205.852C370.607 205.633 370.094 205.445 369.359 205.289C368.63 205.133 368.049 204.945 367.617 204.727C367.19 204.508 366.872 204.247 366.664 203.945C366.461 203.643 366.359 203.284 366.359 202.867C366.359 202.174 366.651 201.589 367.234 201.109C367.823 200.63 368.573 200.391 369.484 200.391C370.443 200.391 371.219 200.638 371.812 201.133C372.411 201.628 372.711 202.26 372.711 203.031H371.258C371.258 202.635 371.089 202.294 370.75 202.008C370.417 201.721 369.995 201.578 369.484 201.578C368.958 201.578 368.547 201.693 368.25 201.922C367.953 202.151 367.805 202.451 367.805 202.82C367.805 203.169 367.943 203.432 368.219 203.609C368.495 203.786 368.992 203.956 369.711 204.117C370.435 204.279 371.021 204.471 371.469 204.695C371.917 204.919 372.247 205.19 372.461 205.508C372.68 205.82 372.789 206.203 372.789 206.656C372.789 207.411 372.487 208.018 371.883 208.477C371.279 208.93 370.495 209.156 369.531 209.156C368.854 209.156 368.255 209.036 367.734 208.797C367.214 208.557 366.805 208.224 366.508 207.797C366.216 207.365 366.07 206.898 366.07 206.398H367.516C367.542 206.883 367.734 207.268 368.094 207.555C368.458 207.836 368.938 207.977 369.531 207.977C370.078 207.977 370.516 207.867 370.844 207.648C371.177 207.424 371.344 207.128 371.344 206.758ZM378.18 209.156C377.034 209.156 376.102 208.781 375.383 208.031C374.664 207.276 374.305 206.268 374.305 205.008V204.742C374.305 203.904 374.464 203.156 374.781 202.5C375.104 201.839 375.552 201.323 376.125 200.953C376.703 200.578 377.328 200.391 378 200.391C379.099 200.391 379.953 200.753 380.562 201.477C381.172 202.201 381.477 203.237 381.477 204.586V205.188H375.75C375.771 206.021 376.013 206.695 376.477 207.211C376.945 207.721 377.539 207.977 378.258 207.977C378.768 207.977 379.201 207.872 379.555 207.664C379.909 207.456 380.219 207.18 380.484 206.836L381.367 207.523C380.659 208.612 379.596 209.156 378.18 209.156ZM378 201.578C377.417 201.578 376.927 201.792 376.531 202.219C376.135 202.641 375.891 203.234 375.797 204H380.031V203.891C379.99 203.156 379.792 202.589 379.438 202.188C379.083 201.781 378.604 201.578 378 201.578ZM385.117 198.5V200.547H386.695V201.664H385.117V206.906C385.117 207.245 385.188 207.5 385.328 207.672C385.469 207.839 385.708 207.922 386.047 207.922C386.214 207.922 386.443 207.891 386.734 207.828V209C386.354 209.104 385.984 209.156 385.625 209.156C384.979 209.156 384.492 208.961 384.164 208.57C383.836 208.18 383.672 207.625 383.672 206.906V201.664H382.133V200.547H383.672V198.5H385.117ZM391.898 209.156C390.753 209.156 389.82 208.781 389.102 208.031C388.383 207.276 388.023 206.268 388.023 205.008V204.742C388.023 203.904 388.182 203.156 388.5 202.5C388.823 201.839 389.271 201.323 389.844 200.953C390.422 200.578 391.047 200.391 391.719 200.391C392.818 200.391 393.672 200.753 394.281 201.477C394.891 202.201 395.195 203.237 395.195 204.586V205.188H389.469C389.49 206.021 389.732 206.695 390.195 207.211C390.664 207.721 391.258 207.977 391.977 207.977C392.487 207.977 392.919 207.872 393.273 207.664C393.628 207.456 393.938 207.18 394.203 206.836L395.086 207.523C394.378 208.612 393.315 209.156 391.898 209.156ZM391.719 201.578C391.135 201.578 390.646 201.792 390.25 202.219C389.854 202.641 389.609 203.234 389.516 204H393.75V203.891C393.708 203.156 393.51 202.589 393.156 202.188C392.802 201.781 392.323 201.578 391.719 201.578ZM398.836 198.5V200.547H400.414V201.664H398.836V206.906C398.836 207.245 398.906 207.5 399.047 207.672C399.188 207.839 399.427 207.922 399.766 207.922C399.932 207.922 400.161 207.891 400.453 207.828V209C400.073 209.104 399.703 209.156 399.344 209.156C398.698 209.156 398.211 208.961 397.883 208.57C397.555 208.18 397.391 207.625 397.391 206.906V201.664H395.852V200.547H397.391V198.5H398.836ZM407.328 208.164C406.766 208.826 405.94 209.156 404.852 209.156C403.951 209.156 403.263 208.896 402.789 208.375C402.32 207.849 402.083 207.073 402.078 206.047V200.547H403.523V206.008C403.523 207.289 404.044 207.93 405.086 207.93C406.19 207.93 406.924 207.518 407.289 206.695V200.547H408.734V209H407.359L407.328 208.164ZM415.023 201.844C414.805 201.807 414.568 201.789 414.312 201.789C413.365 201.789 412.721 202.193 412.383 203V209H410.938V200.547H412.344L412.367 201.523C412.841 200.768 413.513 200.391 414.383 200.391C414.664 200.391 414.878 200.427 415.023 200.5V201.844ZM425.25 206.758C425.25 206.367 425.102 206.065 424.805 205.852C424.513 205.633 424 205.445 423.266 205.289C422.536 205.133 421.956 204.945 421.523 204.727C421.096 204.508 420.779 204.247 420.57 203.945C420.367 203.643 420.266 203.284 420.266 202.867C420.266 202.174 420.557 201.589 421.141 201.109C421.729 200.63 422.479 200.391 423.391 200.391C424.349 200.391 425.125 200.638 425.719 201.133C426.318 201.628 426.617 202.26 426.617 203.031H425.164C425.164 202.635 424.995 202.294 424.656 202.008C424.323 201.721 423.901 201.578 423.391 201.578C422.865 201.578 422.453 201.693 422.156 201.922C421.859 202.151 421.711 202.451 421.711 202.82C421.711 203.169 421.849 203.432 422.125 203.609C422.401 203.786 422.898 203.956 423.617 204.117C424.341 204.279 424.927 204.471 425.375 204.695C425.823 204.919 426.154 205.19 426.367 205.508C426.586 205.82 426.695 206.203 426.695 206.656C426.695 207.411 426.393 208.018 425.789 208.477C425.185 208.93 424.401 209.156 423.438 209.156C422.76 209.156 422.161 209.036 421.641 208.797C421.12 208.557 420.711 208.224 420.414 207.797C420.122 207.365 419.977 206.898 419.977 206.398H421.422C421.448 206.883 421.641 207.268 422 207.555C422.365 207.836 422.844 207.977 423.438 207.977C423.984 207.977 424.422 207.867 424.75 207.648C425.083 207.424 425.25 207.128 425.25 206.758ZM433.797 209C433.714 208.833 433.646 208.536 433.594 208.109C432.922 208.807 432.12 209.156 431.188 209.156C430.354 209.156 429.669 208.922 429.133 208.453C428.602 207.979 428.336 207.38 428.336 206.656C428.336 205.776 428.669 205.094 429.336 204.609C430.008 204.12 430.951 203.875 432.164 203.875H433.57V203.211C433.57 202.706 433.419 202.305 433.117 202.008C432.815 201.706 432.37 201.555 431.781 201.555C431.266 201.555 430.833 201.685 430.484 201.945C430.135 202.206 429.961 202.521 429.961 202.891H428.508C428.508 202.469 428.656 202.062 428.953 201.672C429.255 201.276 429.661 200.964 430.172 200.734C430.688 200.505 431.253 200.391 431.867 200.391C432.841 200.391 433.604 200.635 434.156 201.125C434.708 201.609 434.995 202.279 435.016 203.133V207.023C435.016 207.799 435.115 208.417 435.312 208.875V209H433.797ZM431.398 207.898C431.852 207.898 432.281 207.781 432.688 207.547C433.094 207.312 433.388 207.008 433.57 206.633V204.898H432.438C430.667 204.898 429.781 205.417 429.781 206.453C429.781 206.906 429.932 207.26 430.234 207.516C430.536 207.771 430.924 207.898 431.398 207.898ZM436.93 204.703C436.93 203.406 437.237 202.365 437.852 201.578C438.466 200.786 439.271 200.391 440.266 200.391C441.255 200.391 442.039 200.729 442.617 201.406V197H444.062V209H442.734L442.664 208.094C442.086 208.802 441.281 209.156 440.25 209.156C439.271 209.156 438.471 208.755 437.852 207.953C437.237 207.151 436.93 206.104 436.93 204.812V204.703ZM438.375 204.867C438.375 205.826 438.573 206.576 438.969 207.117C439.365 207.659 439.911 207.93 440.609 207.93C441.526 207.93 442.195 207.518 442.617 206.695V202.812C442.185 202.016 441.521 201.617 440.625 201.617C439.917 201.617 439.365 201.891 438.969 202.438C438.573 202.984 438.375 203.794 438.375 204.867ZM447.883 209H446.438V200.547H447.883V209ZM446.32 198.305C446.32 198.07 446.391 197.872 446.531 197.711C446.677 197.549 446.891 197.469 447.172 197.469C447.453 197.469 447.667 197.549 447.812 197.711C447.958 197.872 448.031 198.07 448.031 198.305C448.031 198.539 447.958 198.734 447.812 198.891C447.667 199.047 447.453 199.125 447.172 199.125C446.891 199.125 446.677 199.047 446.531 198.891C446.391 198.734 446.32 198.539 446.32 198.305ZM457.344 204.867C457.344 206.154 457.049 207.19 456.461 207.977C455.872 208.763 455.076 209.156 454.07 209.156C453.044 209.156 452.237 208.831 451.648 208.18V212.25H450.203V200.547H451.523L451.594 201.484C452.182 200.755 453 200.391 454.047 200.391C455.062 200.391 455.865 200.773 456.453 201.539C457.047 202.305 457.344 203.37 457.344 204.734V204.867ZM455.898 204.703C455.898 203.75 455.695 202.997 455.289 202.445C454.883 201.893 454.326 201.617 453.617 201.617C452.742 201.617 452.086 202.005 451.648 202.781V206.82C452.081 207.591 452.742 207.977 453.633 207.977C454.326 207.977 454.875 207.703 455.281 207.156C455.693 206.604 455.898 205.786 455.898 204.703ZM464.109 206.758C464.109 206.367 463.961 206.065 463.664 205.852C463.372 205.633 462.859 205.445 462.125 205.289C461.396 205.133 460.815 204.945 460.383 204.727C459.956 204.508 459.638 204.247 459.43 203.945C459.227 203.643 459.125 203.284 459.125 202.867C459.125 202.174 459.417 201.589 460 201.109C460.589 200.63 461.339 200.391 462.25 200.391C463.208 200.391 463.984 200.638 464.578 201.133C465.177 201.628 465.477 202.26 465.477 203.031H464.023C464.023 202.635 463.854 202.294 463.516 202.008C463.182 201.721 462.76 201.578 462.25 201.578C461.724 201.578 461.312 201.693 461.016 201.922C460.719 202.151 460.57 202.451 460.57 202.82C460.57 203.169 460.708 203.432 460.984 203.609C461.26 203.786 461.758 203.956 462.477 204.117C463.201 204.279 463.786 204.471 464.234 204.695C464.682 204.919 465.013 205.19 465.227 205.508C465.445 205.82 465.555 206.203 465.555 206.656C465.555 207.411 465.253 208.018 464.648 208.477C464.044 208.93 463.26 209.156 462.297 209.156C461.62 209.156 461.021 209.036 460.5 208.797C459.979 208.557 459.57 208.224 459.273 207.797C458.982 207.365 458.836 206.898 458.836 206.398H460.281C460.307 206.883 460.5 207.268 460.859 207.555C461.224 207.836 461.703 207.977 462.297 207.977C462.844 207.977 463.281 207.867 463.609 207.648C463.943 207.424 464.109 207.128 464.109 206.758ZM470.828 207.977C471.344 207.977 471.794 207.82 472.18 207.508C472.565 207.195 472.779 206.805 472.82 206.336H474.188C474.161 206.82 473.995 207.281 473.688 207.719C473.38 208.156 472.969 208.505 472.453 208.766C471.943 209.026 471.401 209.156 470.828 209.156C469.677 209.156 468.76 208.773 468.078 208.008C467.401 207.237 467.062 206.185 467.062 204.852V204.609C467.062 203.786 467.214 203.055 467.516 202.414C467.818 201.773 468.25 201.276 468.812 200.922C469.38 200.568 470.049 200.391 470.82 200.391C471.768 200.391 472.555 200.674 473.18 201.242C473.81 201.81 474.146 202.547 474.188 203.453H472.82C472.779 202.906 472.57 202.458 472.195 202.109C471.826 201.755 471.367 201.578 470.82 201.578C470.086 201.578 469.516 201.844 469.109 202.375C468.708 202.901 468.508 203.664 468.508 204.664V204.938C468.508 205.911 468.708 206.661 469.109 207.188C469.51 207.714 470.083 207.977 470.828 207.977ZM477.383 209H475.938V200.547H477.383V209ZM475.82 198.305C475.82 198.07 475.891 197.872 476.031 197.711C476.177 197.549 476.391 197.469 476.672 197.469C476.953 197.469 477.167 197.549 477.312 197.711C477.458 197.872 477.531 198.07 477.531 198.305C477.531 198.539 477.458 198.734 477.312 198.891C477.167 199.047 476.953 199.125 476.672 199.125C476.391 199.125 476.177 199.047 476.031 198.891C475.891 198.734 475.82 198.539 475.82 198.305ZM481.07 200.547L481.117 201.609C481.763 200.797 482.607 200.391 483.648 200.391C485.435 200.391 486.336 201.398 486.352 203.414V209H484.906V203.406C484.901 202.797 484.76 202.346 484.484 202.055C484.214 201.763 483.789 201.617 483.211 201.617C482.742 201.617 482.331 201.742 481.977 201.992C481.622 202.242 481.346 202.57 481.148 202.977V209H479.703V200.547H481.07ZM488.188 204.703C488.188 203.385 488.492 202.339 489.102 201.562C489.711 200.781 490.518 200.391 491.523 200.391C492.555 200.391 493.359 200.755 493.938 201.484L494.008 200.547H495.328V208.797C495.328 209.891 495.003 210.753 494.352 211.383C493.706 212.013 492.836 212.328 491.742 212.328C491.133 212.328 490.536 212.198 489.953 211.938C489.37 211.677 488.924 211.32 488.617 210.867L489.367 210C489.987 210.766 490.745 211.148 491.641 211.148C492.344 211.148 492.891 210.951 493.281 210.555C493.677 210.159 493.875 209.602 493.875 208.883V208.156C493.297 208.823 492.508 209.156 491.508 209.156C490.518 209.156 489.716 208.758 489.102 207.961C488.492 207.164 488.188 206.078 488.188 204.703ZM489.641 204.867C489.641 205.82 489.836 206.57 490.227 207.117C490.617 207.659 491.164 207.93 491.867 207.93C492.779 207.93 493.448 207.516 493.875 206.688V202.828C493.432 202.021 492.768 201.617 491.883 201.617C491.18 201.617 490.63 201.891 490.234 202.438C489.839 202.984 489.641 203.794 489.641 204.867ZM504.992 209.156C503.846 209.156 502.914 208.781 502.195 208.031C501.477 207.276 501.117 206.268 501.117 205.008V204.742C501.117 203.904 501.276 203.156 501.594 202.5C501.917 201.839 502.365 201.323 502.938 200.953C503.516 200.578 504.141 200.391 504.812 200.391C505.911 200.391 506.766 200.753 507.375 201.477C507.984 202.201 508.289 203.237 508.289 204.586V205.188H502.562C502.583 206.021 502.826 206.695 503.289 207.211C503.758 207.721 504.352 207.977 505.07 207.977C505.581 207.977 506.013 207.872 506.367 207.664C506.721 207.456 507.031 207.18 507.297 206.836L508.18 207.523C507.471 208.612 506.409 209.156 504.992 209.156ZM504.812 201.578C504.229 201.578 503.74 201.792 503.344 202.219C502.948 202.641 502.703 203.234 502.609 204H506.844V203.891C506.802 203.156 506.604 202.589 506.25 202.188C505.896 201.781 505.417 201.578 504.812 201.578ZM511.539 209H510.094V197H511.539V209ZM515.43 209H513.984V200.547H515.43V209ZM513.867 198.305C513.867 198.07 513.938 197.872 514.078 197.711C514.224 197.549 514.438 197.469 514.719 197.469C515 197.469 515.214 197.549 515.359 197.711C515.505 197.872 515.578 198.07 515.578 198.305C515.578 198.539 515.505 198.734 515.359 198.891C515.214 199.047 515 199.125 514.719 199.125C514.438 199.125 514.224 199.047 514.078 198.891C513.938 198.734 513.867 198.539 513.867 198.305ZM519.711 198.5V200.547H521.289V201.664H519.711V206.906C519.711 207.245 519.781 207.5 519.922 207.672C520.062 207.839 520.302 207.922 520.641 207.922C520.807 207.922 521.036 207.891 521.328 207.828V209C520.948 209.104 520.578 209.156 520.219 209.156C519.573 209.156 519.086 208.961 518.758 208.57C518.43 208.18 518.266 207.625 518.266 206.906V201.664H516.727V200.547H518.266V198.5H519.711ZM527.07 201.844C526.852 201.807 526.615 201.789 526.359 201.789C525.411 201.789 524.768 202.193 524.43 203V209H522.984V200.547H524.391L524.414 201.523C524.888 200.768 525.56 200.391 526.43 200.391C526.711 200.391 526.924 200.427 527.07 200.5V201.844ZM527.391 211.266L526.57 210.703C527.06 210.021 527.315 209.318 527.336 208.594V207.289H528.75V208.422C528.75 208.948 528.62 209.474 528.359 210C528.104 210.526 527.781 210.948 527.391 211.266ZM345.016 225.758C345.016 225.367 344.867 225.065 344.57 224.852C344.279 224.633 343.766 224.445 343.031 224.289C342.302 224.133 341.721 223.945 341.289 223.727C340.862 223.508 340.544 223.247 340.336 222.945C340.133 222.643 340.031 222.284 340.031 221.867C340.031 221.174 340.323 220.589 340.906 220.109C341.495 219.63 342.245 219.391 343.156 219.391C344.115 219.391 344.891 219.638 345.484 220.133C346.083 220.628 346.383 221.26 346.383 222.031H344.93C344.93 221.635 344.76 221.294 344.422 221.008C344.089 220.721 343.667 220.578 343.156 220.578C342.63 220.578 342.219 220.693 341.922 220.922C341.625 221.151 341.477 221.451 341.477 221.82C341.477 222.169 341.615 222.432 341.891 222.609C342.167 222.786 342.664 222.956 343.383 223.117C344.107 223.279 344.693 223.471 345.141 223.695C345.589 223.919 345.919 224.19 346.133 224.508C346.352 224.82 346.461 225.203 346.461 225.656C346.461 226.411 346.159 227.018 345.555 227.477C344.951 227.93 344.167 228.156 343.203 228.156C342.526 228.156 341.927 228.036 341.406 227.797C340.885 227.557 340.477 227.224 340.18 226.797C339.888 226.365 339.742 225.898 339.742 225.398H341.188C341.214 225.883 341.406 226.268 341.766 226.555C342.13 226.836 342.609 226.977 343.203 226.977C343.75 226.977 344.188 226.867 344.516 226.648C344.849 226.424 345.016 226.128 345.016 225.758ZM351.852 228.156C350.706 228.156 349.773 227.781 349.055 227.031C348.336 226.276 347.977 225.268 347.977 224.008V223.742C347.977 222.904 348.135 222.156 348.453 221.5C348.776 220.839 349.224 220.323 349.797 219.953C350.375 219.578 351 219.391 351.672 219.391C352.771 219.391 353.625 219.753 354.234 220.477C354.844 221.201 355.148 222.237 355.148 223.586V224.188H349.422C349.443 225.021 349.685 225.695 350.148 226.211C350.617 226.721 351.211 226.977 351.93 226.977C352.44 226.977 352.872 226.872 353.227 226.664C353.581 226.456 353.891 226.18 354.156 225.836L355.039 226.523C354.331 227.612 353.268 228.156 351.852 228.156ZM351.672 220.578C351.089 220.578 350.599 220.792 350.203 221.219C349.807 221.641 349.562 222.234 349.469 223H353.703V222.891C353.661 222.156 353.464 221.589 353.109 221.188C352.755 220.781 352.276 220.578 351.672 220.578ZM356.477 223.703C356.477 222.406 356.784 221.365 357.398 220.578C358.013 219.786 358.818 219.391 359.812 219.391C360.802 219.391 361.586 219.729 362.164 220.406V216H363.609V228H362.281L362.211 227.094C361.633 227.802 360.828 228.156 359.797 228.156C358.818 228.156 358.018 227.755 357.398 226.953C356.784 226.151 356.477 225.104 356.477 223.812V223.703ZM357.922 223.867C357.922 224.826 358.12 225.576 358.516 226.117C358.911 226.659 359.458 226.93 360.156 226.93C361.073 226.93 361.742 226.518 362.164 225.695V221.812C361.732 221.016 361.068 220.617 360.172 220.617C359.464 220.617 358.911 220.891 358.516 221.438C358.12 221.984 357.922 222.794 357.922 223.867ZM369.477 223.703C369.477 222.406 369.784 221.365 370.398 220.578C371.013 219.786 371.818 219.391 372.812 219.391C373.802 219.391 374.586 219.729 375.164 220.406V216H376.609V228H375.281L375.211 227.094C374.633 227.802 373.828 228.156 372.797 228.156C371.818 228.156 371.018 227.755 370.398 226.953C369.784 226.151 369.477 225.104 369.477 223.812V223.703ZM370.922 223.867C370.922 224.826 371.12 225.576 371.516 226.117C371.911 226.659 372.458 226.93 373.156 226.93C374.073 226.93 374.742 226.518 375.164 225.695V221.812C374.732 221.016 374.068 220.617 373.172 220.617C372.464 220.617 371.911 220.891 371.516 221.438C371.12 221.984 370.922 222.794 370.922 223.867ZM380.43 228H378.984V219.547H380.43V228ZM378.867 217.305C378.867 217.07 378.938 216.872 379.078 216.711C379.224 216.549 379.438 216.469 379.719 216.469C380 216.469 380.214 216.549 380.359 216.711C380.505 216.872 380.578 217.07 380.578 217.305C380.578 217.539 380.505 217.734 380.359 217.891C380.214 218.047 380 218.125 379.719 218.125C379.438 218.125 379.224 218.047 379.078 217.891C378.938 217.734 378.867 217.539 378.867 217.305ZM387.969 228C387.885 227.833 387.818 227.536 387.766 227.109C387.094 227.807 386.292 228.156 385.359 228.156C384.526 228.156 383.841 227.922 383.305 227.453C382.773 226.979 382.508 226.38 382.508 225.656C382.508 224.776 382.841 224.094 383.508 223.609C384.18 223.12 385.122 222.875 386.336 222.875H387.742V222.211C387.742 221.706 387.591 221.305 387.289 221.008C386.987 220.706 386.542 220.555 385.953 220.555C385.438 220.555 385.005 220.685 384.656 220.945C384.307 221.206 384.133 221.521 384.133 221.891H382.68C382.68 221.469 382.828 221.062 383.125 220.672C383.427 220.276 383.833 219.964 384.344 219.734C384.859 219.505 385.424 219.391 386.039 219.391C387.013 219.391 387.776 219.635 388.328 220.125C388.88 220.609 389.167 221.279 389.188 222.133V226.023C389.188 226.799 389.286 227.417 389.484 227.875V228H387.969ZM385.57 226.898C386.023 226.898 386.453 226.781 386.859 226.547C387.266 226.312 387.56 226.008 387.742 225.633V223.898H386.609C384.839 223.898 383.953 224.417 383.953 225.453C383.953 225.906 384.104 226.26 384.406 226.516C384.708 226.771 385.096 226.898 385.57 226.898ZM392.812 219.547L392.852 220.484C393.471 219.755 394.307 219.391 395.359 219.391C396.542 219.391 397.346 219.844 397.773 220.75C398.055 220.344 398.419 220.016 398.867 219.766C399.32 219.516 399.854 219.391 400.469 219.391C402.323 219.391 403.266 220.372 403.297 222.336V228H401.852V222.422C401.852 221.818 401.714 221.367 401.438 221.07C401.161 220.768 400.698 220.617 400.047 220.617C399.51 220.617 399.065 220.779 398.711 221.102C398.357 221.419 398.151 221.849 398.094 222.391V228H396.641V222.461C396.641 221.232 396.039 220.617 394.836 220.617C393.888 220.617 393.24 221.021 392.891 221.828V228H391.445V219.547H392.812ZM410.82 219.547L410.867 220.609C411.513 219.797 412.357 219.391 413.398 219.391C415.185 219.391 416.086 220.398 416.102 222.414V228H414.656V222.406C414.651 221.797 414.51 221.346 414.234 221.055C413.964 220.763 413.539 220.617 412.961 220.617C412.492 220.617 412.081 220.742 411.727 220.992C411.372 221.242 411.096 221.57 410.898 221.977V228H409.453V219.547H410.82ZM417.898 223.695C417.898 222.867 418.06 222.122 418.383 221.461C418.711 220.799 419.164 220.289 419.742 219.93C420.326 219.57 420.99 219.391 421.734 219.391C422.885 219.391 423.815 219.789 424.523 220.586C425.237 221.383 425.594 222.443 425.594 223.766V223.867C425.594 224.69 425.435 225.43 425.117 226.086C424.805 226.737 424.354 227.245 423.766 227.609C423.182 227.974 422.51 228.156 421.75 228.156C420.604 228.156 419.674 227.758 418.961 226.961C418.253 226.164 417.898 225.109 417.898 223.797V223.695ZM419.352 223.867C419.352 224.805 419.568 225.557 420 226.125C420.438 226.693 421.021 226.977 421.75 226.977C422.484 226.977 423.068 226.69 423.5 226.117C423.932 225.539 424.148 224.732 424.148 223.695C424.148 222.768 423.927 222.018 423.484 221.445C423.047 220.867 422.464 220.578 421.734 220.578C421.021 220.578 420.445 220.862 420.008 221.43C419.57 221.997 419.352 222.81 419.352 223.867ZM428.773 219.547L428.82 220.609C429.466 219.797 430.31 219.391 431.352 219.391C433.138 219.391 434.039 220.398 434.055 222.414V228H432.609V222.406C432.604 221.797 432.464 221.346 432.188 221.055C431.917 220.763 431.492 220.617 430.914 220.617C430.445 220.617 430.034 220.742 429.68 220.992C429.326 221.242 429.049 221.57 428.852 221.977V228H427.406V219.547H428.773ZM441.453 227.164C440.891 227.826 440.065 228.156 438.977 228.156C438.076 228.156 437.388 227.896 436.914 227.375C436.445 226.849 436.208 226.073 436.203 225.047V219.547H437.648V225.008C437.648 226.289 438.169 226.93 439.211 226.93C440.315 226.93 441.049 226.518 441.414 225.695V219.547H442.859V228H441.484L441.453 227.164ZM446.422 219.547L446.461 220.484C447.081 219.755 447.917 219.391 448.969 219.391C450.151 219.391 450.956 219.844 451.383 220.75C451.664 220.344 452.029 220.016 452.477 219.766C452.93 219.516 453.464 219.391 454.078 219.391C455.932 219.391 456.875 220.372 456.906 222.336V228H455.461V222.422C455.461 221.818 455.323 221.367 455.047 221.07C454.771 220.768 454.307 220.617 453.656 220.617C453.12 220.617 452.674 220.779 452.32 221.102C451.966 221.419 451.76 221.849 451.703 222.391V228H450.25V222.461C450.25 221.232 449.648 220.617 448.445 220.617C447.497 220.617 446.849 221.021 446.5 221.828V228H445.055V219.547H446.422ZM461.859 225.883L463.828 219.547H465.375L461.977 229.305C461.451 230.711 460.615 231.414 459.469 231.414L459.195 231.391L458.656 231.289V230.117L459.047 230.148C459.536 230.148 459.917 230.049 460.188 229.852C460.464 229.654 460.69 229.292 460.867 228.766L461.188 227.906L458.172 219.547H459.75L461.859 225.883ZM474.148 228.156C473.003 228.156 472.07 227.781 471.352 227.031C470.633 226.276 470.273 225.268 470.273 224.008V223.742C470.273 222.904 470.432 222.156 470.75 221.5C471.073 220.839 471.521 220.323 472.094 219.953C472.672 219.578 473.297 219.391 473.969 219.391C475.068 219.391 475.922 219.753 476.531 220.477C477.141 221.201 477.445 222.237 477.445 223.586V224.188H471.719C471.74 225.021 471.982 225.695 472.445 226.211C472.914 226.721 473.508 226.977 474.227 226.977C474.737 226.977 475.169 226.872 475.523 226.664C475.878 226.456 476.188 226.18 476.453 225.836L477.336 226.523C476.628 227.612 475.565 228.156 474.148 228.156ZM473.969 220.578C473.385 220.578 472.896 220.792 472.5 221.219C472.104 221.641 471.859 222.234 471.766 223H476V222.891C475.958 222.156 475.76 221.589 475.406 221.188C475.052 220.781 474.573 220.578 473.969 220.578ZM480.695 228H479.25V219.547H480.695V228ZM479.133 217.305C479.133 217.07 479.203 216.872 479.344 216.711C479.49 216.549 479.703 216.469 479.984 216.469C480.266 216.469 480.479 216.549 480.625 216.711C480.771 216.872 480.844 217.07 480.844 217.305C480.844 217.539 480.771 217.734 480.625 217.891C480.479 218.047 480.266 218.125 479.984 218.125C479.703 218.125 479.49 218.047 479.344 217.891C479.203 217.734 479.133 217.539 479.133 217.305ZM487.102 220.844C486.883 220.807 486.646 220.789 486.391 220.789C485.443 220.789 484.799 221.193 484.461 222V228H483.016V219.547H484.422L484.445 220.523C484.919 219.768 485.591 219.391 486.461 219.391C486.742 219.391 486.956 219.427 487.102 219.5V220.844ZM489.797 219.547L489.836 220.484C490.456 219.755 491.292 219.391 492.344 219.391C493.526 219.391 494.331 219.844 494.758 220.75C495.039 220.344 495.404 220.016 495.852 219.766C496.305 219.516 496.839 219.391 497.453 219.391C499.307 219.391 500.25 220.372 500.281 222.336V228H498.836V222.422C498.836 221.818 498.698 221.367 498.422 221.07C498.146 220.768 497.682 220.617 497.031 220.617C496.495 220.617 496.049 220.779 495.695 221.102C495.341 221.419 495.135 221.849 495.078 222.391V228H493.625V222.461C493.625 221.232 493.023 220.617 491.82 220.617C490.872 220.617 490.224 221.021 489.875 221.828V228H488.43V219.547H489.797ZM502.086 223.695C502.086 222.867 502.247 222.122 502.57 221.461C502.898 220.799 503.352 220.289 503.93 219.93C504.513 219.57 505.177 219.391 505.922 219.391C507.073 219.391 508.003 219.789 508.711 220.586C509.424 221.383 509.781 222.443 509.781 223.766V223.867C509.781 224.69 509.622 225.43 509.305 226.086C508.992 226.737 508.542 227.245 507.953 227.609C507.37 227.974 506.698 228.156 505.938 228.156C504.792 228.156 503.862 227.758 503.148 226.961C502.44 226.164 502.086 225.109 502.086 223.797V223.695ZM503.539 223.867C503.539 224.805 503.755 225.557 504.188 226.125C504.625 226.693 505.208 226.977 505.938 226.977C506.672 226.977 507.255 226.69 507.688 226.117C508.12 225.539 508.336 224.732 508.336 223.695C508.336 222.768 508.115 222.018 507.672 221.445C507.234 220.867 506.651 220.578 505.922 220.578C505.208 220.578 504.633 220.862 504.195 221.43C503.758 221.997 503.539 222.81 503.539 223.867ZM511.242 223.703C511.242 222.406 511.549 221.365 512.164 220.578C512.779 219.786 513.583 219.391 514.578 219.391C515.568 219.391 516.352 219.729 516.93 220.406V216H518.375V228H517.047L516.977 227.094C516.398 227.802 515.594 228.156 514.562 228.156C513.583 228.156 512.784 227.755 512.164 226.953C511.549 226.151 511.242 225.104 511.242 223.812V223.703ZM512.688 223.867C512.688 224.826 512.885 225.576 513.281 226.117C513.677 226.659 514.224 226.93 514.922 226.93C515.839 226.93 516.508 226.518 516.93 225.695V221.812C516.497 221.016 515.833 220.617 514.938 220.617C514.229 220.617 513.677 220.891 513.281 221.438C512.885 221.984 512.688 222.794 512.688 223.867ZM342.055 236.5V238.547H343.633V239.664H342.055V244.906C342.055 245.245 342.125 245.5 342.266 245.672C342.406 245.839 342.646 245.922 342.984 245.922C343.151 245.922 343.38 245.891 343.672 245.828V247C343.292 247.104 342.922 247.156 342.562 247.156C341.917 247.156 341.43 246.961 341.102 246.57C340.773 246.18 340.609 245.625 340.609 244.906V239.664H339.07V238.547H340.609V236.5H342.055ZM348.836 247.156C347.69 247.156 346.758 246.781 346.039 246.031C345.32 245.276 344.961 244.268 344.961 243.008V242.742C344.961 241.904 345.12 241.156 345.438 240.5C345.76 239.839 346.208 239.323 346.781 238.953C347.359 238.578 347.984 238.391 348.656 238.391C349.755 238.391 350.609 238.753 351.219 239.477C351.828 240.201 352.133 241.237 352.133 242.586V243.188H346.406C346.427 244.021 346.669 244.695 347.133 245.211C347.602 245.721 348.195 245.977 348.914 245.977C349.424 245.977 349.857 245.872 350.211 245.664C350.565 245.456 350.875 245.18 351.141 244.836L352.023 245.523C351.315 246.612 350.253 247.156 348.836 247.156ZM348.656 239.578C348.073 239.578 347.583 239.792 347.188 240.219C346.792 240.641 346.547 241.234 346.453 242H350.688V241.891C350.646 241.156 350.448 240.589 350.094 240.188C349.74 239.781 349.26 239.578 348.656 239.578ZM355.172 238.547L355.211 239.484C355.831 238.755 356.667 238.391 357.719 238.391C358.901 238.391 359.706 238.844 360.133 239.75C360.414 239.344 360.779 239.016 361.227 238.766C361.68 238.516 362.214 238.391 362.828 238.391C364.682 238.391 365.625 239.372 365.656 241.336V247H364.211V241.422C364.211 240.818 364.073 240.367 363.797 240.07C363.521 239.768 363.057 239.617 362.406 239.617C361.87 239.617 361.424 239.779 361.07 240.102C360.716 240.419 360.51 240.849 360.453 241.391V247H359V241.461C359 240.232 358.398 239.617 357.195 239.617C356.247 239.617 355.599 240.021 355.25 240.828V247H353.805V238.547H355.172ZM374.984 242.867C374.984 244.154 374.69 245.19 374.102 245.977C373.513 246.763 372.716 247.156 371.711 247.156C370.685 247.156 369.878 246.831 369.289 246.18V250.25H367.844V238.547H369.164L369.234 239.484C369.823 238.755 370.641 238.391 371.688 238.391C372.703 238.391 373.505 238.773 374.094 239.539C374.688 240.305 374.984 241.37 374.984 242.734V242.867ZM373.539 242.703C373.539 241.75 373.336 240.997 372.93 240.445C372.523 239.893 371.966 239.617 371.258 239.617C370.383 239.617 369.727 240.005 369.289 240.781V244.82C369.721 245.591 370.383 245.977 371.273 245.977C371.966 245.977 372.516 245.703 372.922 245.156C373.333 244.604 373.539 243.786 373.539 242.703ZM376.445 242.695C376.445 241.867 376.607 241.122 376.93 240.461C377.258 239.799 377.711 239.289 378.289 238.93C378.872 238.57 379.536 238.391 380.281 238.391C381.432 238.391 382.362 238.789 383.07 239.586C383.784 240.383 384.141 241.443 384.141 242.766V242.867C384.141 243.69 383.982 244.43 383.664 245.086C383.352 245.737 382.901 246.245 382.312 246.609C381.729 246.974 381.057 247.156 380.297 247.156C379.151 247.156 378.221 246.758 377.508 245.961C376.799 245.164 376.445 244.109 376.445 242.797V242.695ZM377.898 242.867C377.898 243.805 378.115 244.557 378.547 245.125C378.984 245.693 379.568 245.977 380.297 245.977C381.031 245.977 381.615 245.69 382.047 245.117C382.479 244.539 382.695 243.732 382.695 242.695C382.695 241.768 382.474 241.018 382.031 240.445C381.594 239.867 381.01 239.578 380.281 239.578C379.568 239.578 378.992 239.862 378.555 240.43C378.117 240.997 377.898 241.81 377.898 242.867ZM390.039 239.844C389.82 239.807 389.583 239.789 389.328 239.789C388.38 239.789 387.737 240.193 387.398 241V247H385.953V238.547H387.359L387.383 239.523C387.857 238.768 388.529 238.391 389.398 238.391C389.68 238.391 389.893 238.427 390.039 238.5V239.844Z" fill="#373E5F"/>
<path d="M277 32H37V160H277V32Z" fill="white" stroke="black" stroke-miterlimit="10" stroke-linecap="round"/>
<path opacity="0.3" d="M117.5 32.5V160.5" stroke="black" stroke-dasharray="4 4"/>
<path opacity="0.3" d="M197.5 32.5V160.5" stroke="black" stroke-dasharray="4 4"/>
<path d="M198.298 85.316H176.563V98.595H198.298V85.316Z" fill="#98CEF7"/>
<path d="M226.798 77.874H205.063V91.153H226.798V77.874Z" fill="#98CEF7"/>
<path d="M167.817 61.82H146.082V75.099H167.817V61.82Z" fill="#98CEF7"/>
<path d="M185.413 130.372H163.678V143.651H185.413V130.372Z" fill="#98CEF7"/>
<path d="M76.924 87.924H55.189V101.203H76.924V87.924Z" fill="#98CEF7"/>
<path d="M229.218 47.486H207.483V60.765H229.218V47.486Z" fill="#98CEF7"/>
<path d="M306.042 288.357C306.302 286.272 306.072 284.156 305.369 282.176C304.576 280.59 302.757 279.788 301.01 279.476C299.263 279.164 297.454 279.218 295.748 278.736C294.042 278.254 292.362 277.043 292.069 275.293C291.961 274.647 291.969 273.837 291.387 273.54C291.166 273.448 290.926 273.406 290.687 273.419L278.046 273.169C278.146 277.586 278.736 283.938 278.832 288.354L306.042 288.357Z" fill="#FF58E0"/>
<path d="M298.895 279.726C298.662 280.504 298.188 281.188 297.541 281.679C296.957 281.964 296.309 282.091 295.66 282.048C294.798 282.092 293.933 282.027 293.086 281.856C292.28 281.64 291.51 281.307 290.801 280.867C288.519 279.53 286.558 277.709 285.053 275.534" stroke="black" stroke-miterlimit="10" stroke-linecap="round"/>
<path d="M220.69 288.357C220.598 286.744 220.989 285.139 221.814 283.749C222.639 282.36 223.86 281.248 225.321 280.557C227.694 279.486 230.421 279.646 232.97 279.14C235.519 278.634 238.257 276.994 238.477 274.4C243.478 273.687 248.525 273.348 253.577 273.385C253.99 278.198 254.177 283.525 254.124 288.355L220.69 288.357Z" fill="#FF58E0"/>
<path d="M226.136 280.546C226.243 281.175 226.513 281.764 226.921 282.254C227.329 282.744 227.859 283.118 228.457 283.337C229.663 283.759 230.957 283.862 232.214 283.637C234.617 283.349 236.9 282.427 238.829 280.965C240.759 279.488 242.112 277.384 242.656 275.016" stroke="black" stroke-miterlimit="10" stroke-linecap="round"/>
<path d="M205.118 109.483L205.341 100.669C205.423 99.916 205.313 99.1545 205.023 98.455C204.866 98.1116 204.589 97.8374 204.244 97.6838C203.899 97.5302 203.51 97.5078 203.15 97.621C202.293 98.012 201.73 99.453 200.902 99.004C200.692 98.8609 200.528 98.6593 200.431 98.424C199.777 97.055 198.938 95.7821 197.938 94.641C196.922 93.493 195.495 92.7904 193.965 92.685C193.123 92.6874 192.293 92.8783 191.534 93.244C189.948 94.0138 188.655 95.2792 187.852 96.8488C187.048 98.4184 186.777 100.207 187.08 101.944C187.687 104.144 188.761 106.187 190.23 107.933L192.196 110.638C193.56 112.515 195.129 114.531 197.396 115.004C198.234 115.167 199.101 115.105 199.907 114.824C200.714 114.543 201.431 114.053 201.986 113.404L205.118 109.483Z" fill="white" stroke="black" stroke-miterlimit="10" stroke-linecap="round"/>
<path d="M152.888 113.667C158.36 104.574 160.358 93.8082 158.513 83.3571C158.128 81.2211 157.582 79.108 157.407 76.944C157.333 76.5698 157.338 76.1843 157.421 75.812C157.505 75.4398 157.665 75.089 157.891 74.7821C158.42 74.2331 159.606 74.406 159.662 75.166C159.894 72.473 159.026 69.766 159.356 67.088C159.518 65.773 159.986 65.648 161.062 65.539C161.842 65.4588 162.626 65.4308 163.41 65.455C165.976 65.717 166.885 67.226 168.239 69.421C170.822 73.608 169.339 78.97 169.207 83.888C169.138 86.363 169.434 88.831 169.607 91.301C169.908 95.5497 169.85 99.8162 169.434 104.055C168.793 110.583 167.095 117.407 162.418 122.006C161.634 122.916 160.548 123.512 159.359 123.685L152.888 113.667Z" fill="white" stroke="black" stroke-miterlimit="10" stroke-linecap="round"/>
<path d="M61.9819 156.965C68.4949 166.191 79.2979 171.32 89.9179 175.165C92.1499 176.092 94.5151 176.659 96.9249 176.844C98.1317 176.928 99.3422 176.747 100.472 176.316C101.602 175.884 102.624 175.211 103.468 174.344C103.965 173.818 104.325 173.179 104.519 172.482C104.712 171.784 104.733 171.051 104.578 170.344C104.061 168.511 102.149 167.48 100.365 166.815C93.8859 164.398 86.2929 163.85 81.4079 158.955C79.6319 157.176 78.3559 154.929 76.4789 153.255C74.6019 151.581 71.7359 150.577 69.5789 151.862L61.9819 156.965Z" fill="white" stroke="black" stroke-miterlimit="10" stroke-linecap="round"/>
<path d="M282.548 160.369C280.598 163.006 278.885 165.811 277.431 168.751C276.833 169.817 276.444 170.987 276.283 172.198C276.083 174.798 277.783 177.132 279.528 179.075C280.073 179.844 280.89 180.376 281.814 180.563C282.956 180.646 283.892 179.715 284.632 178.842C287.495 175.463 290.013 171.806 292.149 167.927C292.849 166.663 293.463 164.976 292.51 163.892C291.421 162.653 289.25 163.338 287.89 162.403L282.548 160.369Z" fill="white" stroke="black" stroke-miterlimit="10" stroke-linecap="round"/>
<path d="M279.952 145.745C285.928 186.796 292.362 230.718 293.228 272.193C293.374 273.256 293.133 274.337 292.548 275.237C291.973 275.805 291.245 276.194 290.453 276.357C286.896 277.401 279.413 279.31 277.46 276.157C275.34 272.737 254.377 200.562 255.898 162.105C256.034 158.648 256.298 155.105 257.737 151.96C259.176 148.815 262.051 146.11 265.497 145.807C268.21 145.569 270.872 146.807 273.597 146.696L279.952 145.745Z" fill="#2B8AFF"/>
<path d="M236.152 150.182C227.54 190.987 227.634 233.15 236.426 273.916C236.747 275.395 237.15 276.99 238.334 277.932C240.547 279.691 243.793 279.619 246.599 279.958C248.66 280.207 251.022 279.941 252.584 278.575C253.226 277.88 253.637 277.004 253.761 276.066C261.95 241.132 264.037 205.081 265.332 169.223C265.532 163.674 265.643 157.812 262.956 152.953C260.269 148.094 253.722 144.915 248.974 147.794L236.152 150.182Z" fill="#2B8AFF"/>
<path d="M90.4798 247.125C89.1394 256.253 88.5006 265.471 88.5688 274.697C88.4597 276.668 88.7589 278.641 89.4477 280.491C89.8074 281.41 90.4236 282.207 91.223 282.786C92.0224 283.365 92.9713 283.702 93.9568 283.757C94.4152 283.758 94.8676 283.653 95.2791 283.45C95.6906 283.248 96.05 282.954 96.3298 282.591C96.6302 282.105 96.8418 281.569 96.9548 281.008L103.447 256.329C104.081 253.923 104.717 251.4 104.159 248.975C103.601 246.55 101.428 244.3 98.9527 244.562L90.4798 247.125Z" fill="white" stroke="black" stroke-miterlimit="10" stroke-linecap="round"/>
<path d="M143.118 251.259C145.405 259.59 148.292 267.745 151.758 275.659C152.386 277.355 153.332 278.917 154.545 280.259C155.116 280.971 155.887 281.496 156.759 281.765C157.631 282.034 158.563 282.035 159.436 281.768C160.308 281.501 161.081 280.978 161.653 280.267C162.225 279.557 162.571 278.69 162.645 277.781C162.9 276.017 162.835 274.222 162.455 272.481C161.182 263.343 159.223 254.313 156.593 245.469L143.118 251.259Z" fill="white" stroke="black" stroke-miterlimit="10" stroke-linecap="round"/>
<path d="M101.217 157.303C92.782 185.603 89.665 215.18 86.588 244.554C86.2574 246.175 86.4153 247.858 87.042 249.39C88.122 251.407 90.585 252.16 92.801 252.727L100.851 254.787C101.963 255.072 106.164 255.352 107.233 254.933C108.933 254.265 109.524 252.198 109.89 250.405C115.29 224.017 120.696 197.613 124.601 170.963C125.346 165.88 125.981 160.423 123.674 155.833C121.367 151.243 111.883 148.439 107.907 151.693L101.217 157.303Z" fill="#3E20EF"/>
<path d="M131.593 157.396C144.646 186.177 153.96 216.511 159.31 247.658C159.468 248.001 159.539 248.378 159.515 248.754C159.492 249.131 159.375 249.496 159.176 249.817C158.976 250.137 158.701 250.403 158.373 250.591C158.045 250.779 157.676 250.882 157.299 250.892L146.86 253.666C144.825 254.207 142.568 254.729 140.692 253.766C139.295 252.872 138.187 251.591 137.503 250.08C123.144 224.786 112.883 197.377 107.103 168.871C106.363 165.217 105.718 161.315 107.093 157.85C108.468 154.385 112.66 151.774 116.004 153.423L131.593 157.396Z" fill="#3E20EF"/>
<path d="M115.676 103.349L116.699 108.643C116.813 109.377 117.007 110.096 117.276 110.789C117.792 111.989 118.756 112.989 119.102 114.245C119.777 116.71 117.662 119.293 115.173 119.877C112.684 120.461 110.073 119.519 107.887 118.197C106.988 117.782 106.219 117.129 105.664 116.308C105.109 115.488 104.789 114.532 104.738 113.543C104.392 111.703 104.53 109.804 105.138 108.033C105.452 107.153 105.985 106.368 106.687 105.751C107.389 105.135 108.237 104.707 109.15 104.51L115.676 103.349Z" fill="white" stroke="black" stroke-miterlimit="10" stroke-linecap="round"/>
<path d="M108.853 116.074C114.993 111.49 123.082 110.56 130.744 110.474C138.406 110.388 146.234 110.953 153.583 108.784C156.923 114.603 164.006 122.246 162.602 126.241C161.344 129.818 146.886 131.13 138.302 132.531C140.659 134.877 140.909 138.683 140.015 141.885C139.121 145.087 137.283 147.93 135.897 150.953C134.511 153.976 133.568 157.444 134.597 160.607C128.787 160.731 123.163 162.513 117.504 163.833C111.845 165.153 105.839 166.003 100.286 164.291C99.9712 164.224 99.6842 164.064 99.463 163.83C99.3482 163.604 99.2801 163.357 99.2629 163.105C99.2457 162.852 99.2798 162.598 99.363 162.359C99.909 159.138 98.223 155.976 96.342 153.304C94.461 150.632 92.266 148.021 91.562 144.83C91.429 144.23 91.077 143.43 90.488 143.604C90.3391 143.661 90.2051 143.751 90.096 143.868C85.846 147.817 82.6244 152.743 80.711 158.22C74.2438 158.872 67.7278 158.879 61.259 158.243C60.647 150.569 63.68 142.937 68.281 136.765C72.882 130.593 78.967 125.699 85.181 121.149L108.853 116.074Z" fill="#FF58E0"/>
<path d="M110.695 86.631C112.231 86.7989 113.701 87.3452 114.974 88.221C116.247 89.0968 117.282 90.2746 117.988 91.649C119.37 94.4272 119.872 97.5611 119.426 100.632C118.996 104.403 117.139 108.499 113.505 109.594C111.538 110.109 109.448 109.842 107.673 108.85C105.918 107.857 104.378 106.526 103.141 104.934C101.488 103.124 100.367 100.893 99.9008 98.486C99.4068 94.954 101.135 91.508 103.05 88.498L110.695 86.631Z" fill="white" stroke="black" stroke-miterlimit="10" stroke-linecap="round"/>
<path d="M112.425 93.538C110.695 91.804 112.597 88.887 112.294 86.457C111.976 83.913 109.258 82.383 106.74 81.902C103.238 81.3227 99.6427 81.9204 96.5167 83.6017C93.3906 85.2829 90.91 87.953 89.4628 91.194C87.7428 95.318 87.8738 99.956 88.2088 104.411C88.3588 106.402 88.1678 108.989 86.2588 109.573C85.1588 109.908 84.0188 109.357 82.9048 109.086C81.3766 108.71 79.7657 108.868 78.3394 109.533C76.9132 110.198 75.7572 111.331 75.0633 112.744C74.3694 114.156 74.1793 115.764 74.5244 117.299C74.8695 118.835 75.7292 120.206 76.9608 121.186C74.1318 120.559 71.1378 122.286 69.6608 124.777C68.3017 127.367 67.8819 130.348 68.4728 133.212C69.2735 138.175 71.8263 142.687 75.6684 145.93C79.5105 149.172 84.3874 150.93 89.4146 150.885C94.4419 150.84 99.2865 148.995 103.07 145.684C106.853 142.374 109.325 137.817 110.037 132.84C110.697 128.222 109.498 122.97 105.695 120.268C109.008 121.409 112.762 118.981 114.067 115.728C115.346 112.432 115.369 108.781 114.13 105.47C113.276 103.161 112.03 100.829 109.88 99.624C109.079 99.3444 108.295 99.0196 107.531 98.651C107.205 98.3922 106.936 98.0683 106.743 97.6998C106.549 97.3314 106.435 96.9265 106.406 96.5113C106.378 96.096 106.437 95.6794 106.579 95.2881C106.721 94.8969 106.943 94.5395 107.231 94.239C108.504 93.139 110.945 93.966 111.065 95.646L112.425 93.538Z" fill="black" stroke="black" stroke-miterlimit="10"/>
<path d="M113.236 288.057C113.486 285.887 112.256 282.776 110.298 281.806C108.74 281.194 107.069 280.927 105.398 281.023C103.723 281.117 102.055 280.736 100.588 279.923C99.2038 278.992 98.8998 277.387 98.8388 275.597C94.6918 275.491 91.0448 275.384 86.8978 275.278C85.9578 279.48 85.9098 283.833 86.7568 288.055L113.236 288.057Z" fill="#2B8AFF"/>
<path d="M177.76 288.057C178.011 285.887 176.78 282.776 174.822 281.806C173.264 281.194 171.592 280.927 169.922 281.023C168.247 281.117 166.579 280.736 165.112 279.923C163.728 278.992 163.424 277.387 163.363 275.597C159.216 275.491 155.568 275.384 151.421 275.278C150.481 279.48 150.433 283.833 151.281 288.055L177.76 288.057Z" fill="#2B8AFF"/>
<path d="M247.175 79.818C246.181 80.1911 245.285 80.7855 244.554 81.5561C243.824 82.3267 243.278 83.2534 242.959 84.266C242.337 86.2942 242.04 88.408 242.079 90.529C241.979 93.574 241.966 96.817 243.579 99.405C244.486 100.757 245.744 101.836 247.217 102.53C248.689 103.223 250.323 103.504 251.943 103.343C253.558 103.15 255.114 102.617 256.509 101.779C257.903 100.942 259.105 99.8188 260.035 98.484C261.88 95.7863 262.866 92.5935 262.864 89.325C263.055 87.2737 262.567 85.2163 261.474 83.4698C260.381 81.7233 258.744 80.3847 256.816 79.66L247.175 79.818Z" fill="white" stroke="black" stroke-miterlimit="10" stroke-linecap="round"/>
<path d="M251.345 92.263C252.004 95.8939 251.793 99.6293 250.73 103.163C250.345 104.606 249.897 106.232 250.66 107.516C251.383 108.471 252.426 109.134 253.598 109.383C255.625 110.159 257.814 110.414 259.965 110.124C261.036 109.961 262.037 109.491 262.848 108.773C263.659 108.054 264.245 107.116 264.535 106.072C265.1 103.235 262.754 100.564 262.775 97.672C262.787 96.06 263.511 94.306 262.675 92.927C262.385 92.4839 261.996 92.1135 261.54 91.8441C260.759 91.3551 259.88 91.0435 258.965 90.9312C258.05 90.8189 257.122 90.9086 256.246 91.1941L251.345 92.263Z" fill="white" stroke="black" stroke-miterlimit="10" stroke-linecap="round"/>
<path d="M247.094 87.511C247.254 86.9966 247.293 86.4521 247.207 85.9203C247.121 85.3884 246.913 84.8837 246.599 84.446C246.032 83.7449 245.507 83.0102 245.027 82.2459C243.778 80.0309 245.239 77.2099 247.159 75.5459C249.075 73.8831 251.427 72.8044 253.937 72.4376C256.447 72.0708 259.009 72.4315 261.32 73.4767C263.631 74.522 265.594 76.208 266.977 78.3349C268.359 80.4618 269.102 82.9405 269.118 85.477C269.18 88.6889 268.209 91.8359 266.347 94.454C265.388 95.7076 264.136 96.707 262.701 97.365C260.183 98.1485 257.483 98.1283 254.977 97.307C252.215 96.482 249.877 93.548 250.742 90.798C251.402 90.6431 251.997 90.2857 252.443 89.7759C252.89 89.2661 253.166 88.6294 253.232 87.9549C253.269 87.6527 253.24 87.3461 253.148 87.056C253.055 86.7659 252.901 86.4993 252.696 86.2743C252.49 86.0494 252.239 85.8714 251.959 85.7526C251.678 85.6338 251.376 85.577 251.071 85.586C250.76 85.5993 250.454 85.6748 250.172 85.808C249.89 85.9411 249.638 86.1294 249.429 86.3615C249.221 86.5937 249.062 86.8652 248.96 87.16C248.858 87.4547 248.816 87.7668 248.837 88.078L247.094 87.511Z" fill="black" stroke="black" stroke-miterlimit="10"/>
<path d="M255.259 104.679C248.131 104.439 241.191 107.298 235.502 111.6C229.813 115.902 225.122 121.355 220.068 126.389C219.396 127.059 218.474 127.777 217.595 127.42C217.152 127.183 216.791 126.817 216.561 126.37C212.761 120.478 209.237 114.42 205.99 108.195C201.61 110.599 197.447 113.378 193.548 116.503C198.209 125.523 203.706 134.085 209.969 142.077C212.509 145.317 215.929 148.777 220.008 148.223C221.963 147.801 223.775 146.881 225.269 145.552C229.747 142.121 233.888 138.27 237.634 134.052C238.181 139.007 237.136 144.009 234.65 148.33C233.976 149.496 233.167 150.757 233.422 152.08C233.731 153.687 235.438 154.57 236.975 155.132C249.475 159.7 263.567 158.317 276.075 153.757C277.84 153.247 279.456 152.317 280.784 151.047C282.013 149.691 280.543 135.531 279.533 134.006C290.79 144.678 288.487 148.082 283.297 155.754C282.048 157.6 281.939 158.632 282.15 160.909C282.253 162.25 282.55 163.57 283.032 164.826C284.383 167.447 286.473 169.615 289.043 171.061C289.538 171.419 290.132 171.615 290.743 171.62C291.699 171.535 292.334 170.62 292.816 169.791C294.83 166.327 296.62 162.739 298.177 159.047C300.405 153.761 302.177 148.033 301.362 142.355C300.622 137.167 297.81 132.541 295.062 128.08C292.739 124.053 290.037 120.256 286.992 116.743C284.724 114.079 282.276 111.573 279.665 109.243C274.485 104.936 267.152 104.658 260.415 104.654C259.124 104.656 256.547 104.722 255.259 104.679Z" fill="#3E20EF"/>
<path d="M154.828 110.364C156.693 110.373 158.494 111.047 159.907 112.264" stroke="black" stroke-miterlimit="10" stroke-linecap="round"/>
<path d="M138.201 132.467C136.056 132.792 133.863 132.413 131.951 131.389C130.039 130.364 128.509 128.748 127.592 126.782" stroke="black" stroke-miterlimit="10" stroke-linecap="round"/>
<path d="M126.475 124.188C126.168 122.917 126.282 121.581 126.8 120.38" stroke="black" stroke-miterlimit="10" stroke-linecap="round"/>
<path d="M101.962 152.736C103.123 154.536 105.389 155.242 107.502 155.585C110.696 156.103 113.953 156.091 117.143 155.55" stroke="black" stroke-miterlimit="10" stroke-linecap="round"/>
<path d="M112.799 153.825C115.935 152.817 118.875 151.277 121.49 149.273" stroke="black" stroke-miterlimit="10" stroke-linecap="round"/>
<path d="M117.96 208.157C113.282 198.158 110.881 187.245 110.931 176.205" stroke="black" stroke-miterlimit="10" stroke-linecap="round"/>
<path d="M112.373 191.616L105.166 186.016" stroke="black" stroke-miterlimit="10" stroke-linecap="round"/>
<path d="M138.647 251.407C142.261 250.487 145.814 249.342 149.286 247.981" stroke="black" stroke-miterlimit="10" stroke-linecap="round"/>
<path d="M158.478 244.484C157.608 244.855 156.714 245.169 155.803 245.424" stroke="black" stroke-miterlimit="10" stroke-linecap="round"/>
<path d="M86.7588 246.093C90.9728 246.786 95.1554 247.644 99.3068 248.666" stroke="black" stroke-miterlimit="10" stroke-linecap="round"/>
<path d="M109.575 250.984C107.815 250.791 106.088 250.368 104.438 249.726" stroke="black" stroke-miterlimit="10" stroke-linecap="round"/>
<path d="M160.261 65.864C161.594 67.908 161.699 70.489 161.761 72.929" stroke="black" stroke-miterlimit="10" stroke-linecap="round"/>
<path d="M162.528 65.659C163.898 67.7278 164.692 70.1244 164.828 72.6021" stroke="black" stroke-miterlimit="10" stroke-linecap="round"/>
<path d="M165.758 66.38C166.548 68.1624 166.904 70.1064 166.798 72.053" stroke="black" stroke-miterlimit="10" stroke-linecap="round"/>
<path d="M159.606 75.1V77.381" stroke="black" stroke-miterlimit="10" stroke-linecap="round"/>
<path d="M200.799 99.083L202.465 102.592" stroke="black" stroke-miterlimit="10" stroke-linecap="round"/>
<path d="M193.781 92.814C194.777 95.4292 196.087 97.914 197.681 100.214" stroke="black" stroke-miterlimit="10" stroke-linecap="round"/>
<path d="M190.268 94.23C190.948 96.9171 192.202 99.4252 193.943 101.582" stroke="black" stroke-miterlimit="10" stroke-linecap="round"/>
<path d="M187.745 97.143C188.297 99.7938 189.842 102.133 192.063 103.681" stroke="black" stroke-miterlimit="10" stroke-linecap="round"/>
<path d="M237.862 133.938C240.634 130.986 243.243 127.885 245.677 124.648" stroke="black" stroke-miterlimit="10" stroke-linecap="round"/>
<path d="M242.242 129.677L248.961 126.504" stroke="black" stroke-miterlimit="10" stroke-linecap="round"/>
<path d="M279.426 133.92C278.333 128.878 276.555 124.009 274.143 119.448" stroke="black" stroke-miterlimit="10" stroke-linecap="round"/>
<path d="M276.893 125.414C276.705 123.524 276.832 121.616 277.269 119.768" stroke="black" stroke-miterlimit="10" stroke-linecap="round"/>
<path d="M219.194 126.402C216.919 127.65 214.737 129.061 212.666 130.624" stroke="black" stroke-miterlimit="10" stroke-linecap="round"/>
<path d="M287.439 143.831C288.667 146.267 290.344 148.449 292.382 150.262" stroke="black" stroke-miterlimit="10" stroke-linecap="round"/>
<path d="M245.125 148.208C252.754 152.15 261.444 153.55 269.925 152.202" stroke="black" stroke-miterlimit="10" stroke-linecap="round"/>
<path d="M262.625 220.057C266.955 204.142 267.838 187.486 265.216 171.202" stroke="black" stroke-miterlimit="10" stroke-linecap="round"/>
<path d="M266.738 193.449L275.53 185.949" stroke="black" stroke-miterlimit="10" stroke-linecap="round"/>
<path d="M156.607 278.232C158.902 278.21 161.195 278.131 163.487 277.996" stroke="black" stroke-miterlimit="10" stroke-linecap="round"/>
<path d="M151.191 277.858C152.043 277.951 152.897 278.018 153.754 278.058" stroke="black" stroke-miterlimit="10" stroke-linecap="round"/>
<path d="M91.2021 277.664L98.9022 277.857" stroke="black" stroke-miterlimit="10" stroke-linecap="round"/>
<path d="M86.7241 277.73L88.3911 277.844" stroke="black" stroke-miterlimit="10" stroke-linecap="round"/>
<path d="M87 285.519H112.5" stroke="black" stroke-miterlimit="10" stroke-linecap="round"/>
<path d="M151.5 285.519H176.5" stroke="black" stroke-miterlimit="10" stroke-linecap="round"/>
<path d="M115.833 89.64C114.927 90.3149 114.258 91.2604 113.925 92.34" stroke="black" stroke-miterlimit="10" stroke-linecap="round"/>
<path d="M117.49 100.376C117.774 100.572 118.103 100.693 118.446 100.728C118.789 100.763 119.136 100.71 119.453 100.576" stroke="black" stroke-miterlimit="10" stroke-linecap="round"/>
<path d="M243.12 85.513C244.303 85.6042 245.406 86.1482 246.198 87.032" stroke="black" stroke-miterlimit="10" stroke-linecap="round"/>
<path d="M243.322 97.081C243.996 97.4022 244.754 97.5068 245.49 97.3804C246.226 97.254 246.905 96.9028 247.434 96.375" stroke="black" stroke-miterlimit="10" stroke-linecap="round"/>
<path d="M116.5 94C117.052 94 117.5 93.5523 117.5 93C117.5 92.4477 117.052 92 116.5 92C115.948 92 115.5 92.4477 115.5 93C115.5 93.5523 115.948 94 116.5 94Z" fill="black"/>
<path d="M116.5 93.5C116.776 93.5 117 93.2761 117 93C117 92.7239 116.776 92.5 116.5 92.5C116.224 92.5 116 92.7239 116 93C116 93.2761 116.224 93.5 116.5 93.5Z" stroke="black" stroke-linecap="round"/>
<path d="M244.001 89C244.553 89 245.001 88.5523 245.001 88C245.001 87.4477 244.553 87 244.001 87C243.449 87 243.001 87.4477 243.001 88C243.001 88.5523 243.449 89 244.001 89Z" fill="black"/>
<path d="M244.001 88.5C244.277 88.5 244.501 88.2761 244.501 88C244.501 87.7239 244.277 87.5 244.001 87.5C243.725 87.5 243.501 87.7239 243.501 88C243.501 88.2761 243.725 88.5 244.001 88.5Z" stroke="black" stroke-linecap="round"/>
<path d="M54 288.5H338.5" stroke="black"/>
</svg>
