<svg width="600" height="320" viewBox="0 0 600 320" fill="none" xmlns="http://www.w3.org/2000/svg">
<rect width="600" height="320" fill="white"/>
<path d="M529 64H71C35.6538 64 7 92.6538 7 128V256C7 291.346 35.6538 320 71 320H529C564.346 320 593 291.346 593 256V128C593 92.6538 564.346 64 529 64Z" fill="white"/>
<path d="M529 64.5H71C35.9299 64.5 7.5 92.9299 7.5 128V256C7.5 291.07 35.9299 319.5 71 319.5H529C564.07 319.5 592.5 291.07 592.5 256V128C592.5 92.9299 564.07 64.5 529 64.5Z" stroke="black"/>
<path d="M353.531 154.586C353.32 156.391 352.652 157.785 351.527 158.77C350.41 159.746 348.922 160.234 347.062 160.234C345.047 160.234 343.43 159.512 342.211 158.066C341 156.621 340.395 154.688 340.395 152.266V150.625C340.395 149.039 340.676 147.645 341.238 146.441C341.809 145.238 342.613 144.316 343.652 143.676C344.691 143.027 345.895 142.703 347.262 142.703C349.074 142.703 350.527 143.211 351.621 144.227C352.715 145.234 353.352 146.633 353.531 148.422H351.27C351.074 147.062 350.648 146.078 349.992 145.469C349.344 144.859 348.434 144.555 347.262 144.555C345.824 144.555 344.695 145.086 343.875 146.148C343.062 147.211 342.656 148.723 342.656 150.684V152.336C342.656 154.188 343.043 155.66 343.816 156.754C344.59 157.848 345.672 158.395 347.062 158.395C348.312 158.395 349.27 158.113 349.934 157.551C350.605 156.98 351.051 155.992 351.27 154.586H353.531ZM362.402 149.266C362.074 149.211 361.719 149.184 361.336 149.184C359.914 149.184 358.949 149.789 358.441 151V160H356.273V147.32H358.383L358.418 148.785C359.129 147.652 360.137 147.086 361.441 147.086C361.863 147.086 362.184 147.141 362.402 147.25V149.266ZM369.434 160.234C367.715 160.234 366.316 159.672 365.238 158.547C364.16 157.414 363.621 155.902 363.621 154.012V153.613C363.621 152.355 363.859 151.234 364.336 150.25C364.82 149.258 365.492 148.484 366.352 147.93C367.219 147.367 368.156 147.086 369.164 147.086C370.812 147.086 372.094 147.629 373.008 148.715C373.922 149.801 374.379 151.355 374.379 153.379V154.281H365.789C365.82 155.531 366.184 156.543 366.879 157.316C367.582 158.082 368.473 158.465 369.551 158.465C370.316 158.465 370.965 158.309 371.496 157.996C372.027 157.684 372.492 157.27 372.891 156.754L374.215 157.785C373.152 159.418 371.559 160.234 369.434 160.234ZM369.164 148.867C368.289 148.867 367.555 149.188 366.961 149.828C366.367 150.461 366 151.352 365.859 152.5H372.211V152.336C372.148 151.234 371.852 150.383 371.32 149.781C370.789 149.172 370.07 148.867 369.164 148.867ZM384.727 160C384.602 159.75 384.5 159.305 384.422 158.664C383.414 159.711 382.211 160.234 380.812 160.234C379.562 160.234 378.535 159.883 377.73 159.18C376.934 158.469 376.535 157.57 376.535 156.484C376.535 155.164 377.035 154.141 378.035 153.414C379.043 152.68 380.457 152.312 382.277 152.312H384.387V151.316C384.387 150.559 384.16 149.957 383.707 149.512C383.254 149.059 382.586 148.832 381.703 148.832C380.93 148.832 380.281 149.027 379.758 149.418C379.234 149.809 378.973 150.281 378.973 150.836H376.793C376.793 150.203 377.016 149.594 377.461 149.008C377.914 148.414 378.523 147.945 379.289 147.602C380.062 147.258 380.91 147.086 381.832 147.086C383.293 147.086 384.438 147.453 385.266 148.188C386.094 148.914 386.523 149.918 386.555 151.199V157.035C386.555 158.199 386.703 159.125 387 159.812V160H384.727ZM381.129 158.348C381.809 158.348 382.453 158.172 383.062 157.82C383.672 157.469 384.113 157.012 384.387 156.449V153.848H382.688C380.031 153.848 378.703 154.625 378.703 156.18C378.703 156.859 378.93 157.391 379.383 157.773C379.836 158.156 380.418 158.348 381.129 158.348ZM392.895 144.25V147.32H395.262V148.996H392.895V156.859C392.895 157.367 393 157.75 393.211 158.008C393.422 158.258 393.781 158.383 394.289 158.383C394.539 158.383 394.883 158.336 395.32 158.242V160C394.75 160.156 394.195 160.234 393.656 160.234C392.688 160.234 391.957 159.941 391.465 159.355C390.973 158.77 390.727 157.938 390.727 156.859V148.996H388.418V147.32H390.727V144.25H392.895ZM400.16 160H397.992V147.32H400.16V160ZM397.816 143.957C397.816 143.605 397.922 143.309 398.133 143.066C398.352 142.824 398.672 142.703 399.094 142.703C399.516 142.703 399.836 142.824 400.055 143.066C400.273 143.309 400.383 143.605 400.383 143.957C400.383 144.309 400.273 144.602 400.055 144.836C399.836 145.07 399.516 145.188 399.094 145.188C398.672 145.188 398.352 145.07 398.133 144.836C397.922 144.602 397.816 144.309 397.816 143.957ZM407.824 157.059L410.965 147.32H413.18L408.633 160H406.98L402.387 147.32H404.602L407.824 157.059ZM420.363 160.234C418.645 160.234 417.246 159.672 416.168 158.547C415.09 157.414 414.551 155.902 414.551 154.012V153.613C414.551 152.355 414.789 151.234 415.266 150.25C415.75 149.258 416.422 148.484 417.281 147.93C418.148 147.367 419.086 147.086 420.094 147.086C421.742 147.086 423.023 147.629 423.938 148.715C424.852 149.801 425.309 151.355 425.309 153.379V154.281H416.719C416.75 155.531 417.113 156.543 417.809 157.316C418.512 158.082 419.402 158.465 420.48 158.465C421.246 158.465 421.895 158.309 422.426 157.996C422.957 157.684 423.422 157.27 423.82 156.754L425.145 157.785C424.082 159.418 422.488 160.234 420.363 160.234ZM420.094 148.867C419.219 148.867 418.484 149.188 417.891 149.828C417.297 150.461 416.93 151.352 416.789 152.5H423.141V152.336C423.078 151.234 422.781 150.383 422.25 149.781C421.719 149.172 421 148.867 420.094 148.867Z" fill="#373E5F"/>
<path d="M341.828 188.773H347.219V190H340.32V178.625H341.828V188.773ZM348.32 185.695C348.32 184.867 348.482 184.122 348.805 183.461C349.133 182.799 349.586 182.289 350.164 181.93C350.747 181.57 351.411 181.391 352.156 181.391C353.307 181.391 354.237 181.789 354.945 182.586C355.659 183.383 356.016 184.443 356.016 185.766V185.867C356.016 186.69 355.857 187.43 355.539 188.086C355.227 188.737 354.776 189.245 354.188 189.609C353.604 189.974 352.932 190.156 352.172 190.156C351.026 190.156 350.096 189.758 349.383 188.961C348.674 188.164 348.32 187.109 348.32 185.797V185.695ZM349.773 185.867C349.773 186.805 349.99 187.557 350.422 188.125C350.859 188.693 351.443 188.977 352.172 188.977C352.906 188.977 353.49 188.69 353.922 188.117C354.354 187.539 354.57 186.732 354.57 185.695C354.57 184.768 354.349 184.018 353.906 183.445C353.469 182.867 352.885 182.578 352.156 182.578C351.443 182.578 350.867 182.862 350.43 183.43C349.992 183.997 349.773 184.81 349.773 185.867ZM361.914 182.844C361.695 182.807 361.458 182.789 361.203 182.789C360.255 182.789 359.612 183.193 359.273 184V190H357.828V181.547H359.234L359.258 182.523C359.732 181.768 360.404 181.391 361.273 181.391C361.555 181.391 361.768 181.427 361.914 181.5V182.844ZM366.602 190.156C365.456 190.156 364.523 189.781 363.805 189.031C363.086 188.276 362.727 187.268 362.727 186.008V185.742C362.727 184.904 362.885 184.156 363.203 183.5C363.526 182.839 363.974 182.323 364.547 181.953C365.125 181.578 365.75 181.391 366.422 181.391C367.521 181.391 368.375 181.753 368.984 182.477C369.594 183.201 369.898 184.237 369.898 185.586V186.188H364.172C364.193 187.021 364.435 187.695 364.898 188.211C365.367 188.721 365.961 188.977 366.68 188.977C367.19 188.977 367.622 188.872 367.977 188.664C368.331 188.456 368.641 188.18 368.906 187.836L369.789 188.523C369.081 189.612 368.018 190.156 366.602 190.156ZM366.422 182.578C365.839 182.578 365.349 182.792 364.953 183.219C364.557 183.641 364.312 184.234 364.219 185H368.453V184.891C368.411 184.156 368.214 183.589 367.859 183.188C367.505 182.781 367.026 182.578 366.422 182.578ZM372.938 181.547L372.977 182.484C373.596 181.755 374.432 181.391 375.484 181.391C376.667 181.391 377.471 181.844 377.898 182.75C378.18 182.344 378.544 182.016 378.992 181.766C379.445 181.516 379.979 181.391 380.594 181.391C382.448 181.391 383.391 182.372 383.422 184.336V190H381.977V184.422C381.977 183.818 381.839 183.367 381.562 183.07C381.286 182.768 380.823 182.617 380.172 182.617C379.635 182.617 379.19 182.779 378.836 183.102C378.482 183.419 378.276 183.849 378.219 184.391V190H376.766V184.461C376.766 183.232 376.164 182.617 374.961 182.617C374.013 182.617 373.365 183.021 373.016 183.828V190H371.57V181.547H372.938ZM391.148 190H389.703V181.547H391.148V190ZM389.586 179.305C389.586 179.07 389.656 178.872 389.797 178.711C389.943 178.549 390.156 178.469 390.438 178.469C390.719 178.469 390.932 178.549 391.078 178.711C391.224 178.872 391.297 179.07 391.297 179.305C391.297 179.539 391.224 179.734 391.078 179.891C390.932 180.047 390.719 180.125 390.438 180.125C390.156 180.125 389.943 180.047 389.797 179.891C389.656 179.734 389.586 179.539 389.586 179.305ZM400.609 185.867C400.609 187.154 400.315 188.19 399.727 188.977C399.138 189.763 398.341 190.156 397.336 190.156C396.31 190.156 395.503 189.831 394.914 189.18V193.25H393.469V181.547H394.789L394.859 182.484C395.448 181.755 396.266 181.391 397.312 181.391C398.328 181.391 399.13 181.773 399.719 182.539C400.312 183.305 400.609 184.37 400.609 185.734V185.867ZM399.164 185.703C399.164 184.75 398.961 183.997 398.555 183.445C398.148 182.893 397.591 182.617 396.883 182.617C396.008 182.617 395.352 183.005 394.914 183.781V187.82C395.346 188.591 396.008 188.977 396.898 188.977C397.591 188.977 398.141 188.703 398.547 188.156C398.958 187.604 399.164 186.786 399.164 185.703ZM407.375 187.758C407.375 187.367 407.227 187.065 406.93 186.852C406.638 186.633 406.125 186.445 405.391 186.289C404.661 186.133 404.081 185.945 403.648 185.727C403.221 185.508 402.904 185.247 402.695 184.945C402.492 184.643 402.391 184.284 402.391 183.867C402.391 183.174 402.682 182.589 403.266 182.109C403.854 181.63 404.604 181.391 405.516 181.391C406.474 181.391 407.25 181.638 407.844 182.133C408.443 182.628 408.742 183.26 408.742 184.031H407.289C407.289 183.635 407.12 183.294 406.781 183.008C406.448 182.721 406.026 182.578 405.516 182.578C404.99 182.578 404.578 182.693 404.281 182.922C403.984 183.151 403.836 183.451 403.836 183.82C403.836 184.169 403.974 184.432 404.25 184.609C404.526 184.786 405.023 184.956 405.742 185.117C406.466 185.279 407.052 185.471 407.5 185.695C407.948 185.919 408.279 186.19 408.492 186.508C408.711 186.82 408.82 187.203 408.82 187.656C408.82 188.411 408.518 189.018 407.914 189.477C407.31 189.93 406.526 190.156 405.562 190.156C404.885 190.156 404.286 190.036 403.766 189.797C403.245 189.557 402.836 189.224 402.539 188.797C402.247 188.365 402.102 187.898 402.102 187.398H403.547C403.573 187.883 403.766 188.268 404.125 188.555C404.49 188.836 404.969 188.977 405.562 188.977C406.109 188.977 406.547 188.867 406.875 188.648C407.208 188.424 407.375 188.128 407.375 187.758ZM415.922 189.164C415.359 189.826 414.534 190.156 413.445 190.156C412.544 190.156 411.857 189.896 411.383 189.375C410.914 188.849 410.677 188.073 410.672 187.047V181.547H412.117V187.008C412.117 188.289 412.638 188.93 413.68 188.93C414.784 188.93 415.518 188.518 415.883 187.695V181.547H417.328V190H415.953L415.922 189.164ZM420.891 181.547L420.93 182.484C421.549 181.755 422.385 181.391 423.438 181.391C424.62 181.391 425.424 181.844 425.852 182.75C426.133 182.344 426.497 182.016 426.945 181.766C427.398 181.516 427.932 181.391 428.547 181.391C430.401 181.391 431.344 182.372 431.375 184.336V190H429.93V184.422C429.93 183.818 429.792 183.367 429.516 183.07C429.24 182.768 428.776 182.617 428.125 182.617C427.589 182.617 427.143 182.779 426.789 183.102C426.435 183.419 426.229 183.849 426.172 184.391V190H424.719V184.461C424.719 183.232 424.117 182.617 422.914 182.617C421.966 182.617 421.318 183.021 420.969 183.828V190H419.523V181.547H420.891ZM437.18 185.703C437.18 184.406 437.487 183.365 438.102 182.578C438.716 181.786 439.521 181.391 440.516 181.391C441.505 181.391 442.289 181.729 442.867 182.406V178H444.312V190H442.984L442.914 189.094C442.336 189.802 441.531 190.156 440.5 190.156C439.521 190.156 438.721 189.755 438.102 188.953C437.487 188.151 437.18 187.104 437.18 185.812V185.703ZM438.625 185.867C438.625 186.826 438.823 187.576 439.219 188.117C439.615 188.659 440.161 188.93 440.859 188.93C441.776 188.93 442.445 188.518 442.867 187.695V183.812C442.435 183.016 441.771 182.617 440.875 182.617C440.167 182.617 439.615 182.891 439.219 183.438C438.823 183.984 438.625 184.794 438.625 185.867ZM446.18 185.695C446.18 184.867 446.341 184.122 446.664 183.461C446.992 182.799 447.445 182.289 448.023 181.93C448.607 181.57 449.271 181.391 450.016 181.391C451.167 181.391 452.096 181.789 452.805 182.586C453.518 183.383 453.875 184.443 453.875 185.766V185.867C453.875 186.69 453.716 187.43 453.398 188.086C453.086 188.737 452.635 189.245 452.047 189.609C451.464 189.974 450.792 190.156 450.031 190.156C448.885 190.156 447.956 189.758 447.242 188.961C446.534 188.164 446.18 187.109 446.18 185.797V185.695ZM447.633 185.867C447.633 186.805 447.849 187.557 448.281 188.125C448.719 188.693 449.302 188.977 450.031 188.977C450.766 188.977 451.349 188.69 451.781 188.117C452.214 187.539 452.43 186.732 452.43 185.695C452.43 184.768 452.208 184.018 451.766 183.445C451.328 182.867 450.745 182.578 450.016 182.578C449.302 182.578 448.727 182.862 448.289 183.43C447.852 183.997 447.633 184.81 447.633 185.867ZM457.258 190H455.812V178H457.258V190ZM459.195 185.695C459.195 184.867 459.357 184.122 459.68 183.461C460.008 182.799 460.461 182.289 461.039 181.93C461.622 181.57 462.286 181.391 463.031 181.391C464.182 181.391 465.112 181.789 465.82 182.586C466.534 183.383 466.891 184.443 466.891 185.766V185.867C466.891 186.69 466.732 187.43 466.414 188.086C466.102 188.737 465.651 189.245 465.062 189.609C464.479 189.974 463.807 190.156 463.047 190.156C461.901 190.156 460.971 189.758 460.258 188.961C459.549 188.164 459.195 187.109 459.195 185.797V185.695ZM460.648 185.867C460.648 186.805 460.865 187.557 461.297 188.125C461.734 188.693 462.318 188.977 463.047 188.977C463.781 188.977 464.365 188.69 464.797 188.117C465.229 187.539 465.445 186.732 465.445 185.695C465.445 184.768 465.224 184.018 464.781 183.445C464.344 182.867 463.76 182.578 463.031 182.578C462.318 182.578 461.742 182.862 461.305 183.43C460.867 183.997 460.648 184.81 460.648 185.867ZM472.789 182.844C472.57 182.807 472.333 182.789 472.078 182.789C471.13 182.789 470.487 183.193 470.148 184V190H468.703V181.547H470.109L470.133 182.523C470.607 181.768 471.279 181.391 472.148 181.391C472.43 181.391 472.643 181.427 472.789 181.5V182.844ZM483.016 187.758C483.016 187.367 482.867 187.065 482.57 186.852C482.279 186.633 481.766 186.445 481.031 186.289C480.302 186.133 479.721 185.945 479.289 185.727C478.862 185.508 478.544 185.247 478.336 184.945C478.133 184.643 478.031 184.284 478.031 183.867C478.031 183.174 478.323 182.589 478.906 182.109C479.495 181.63 480.245 181.391 481.156 181.391C482.115 181.391 482.891 181.638 483.484 182.133C484.083 182.628 484.383 183.26 484.383 184.031H482.93C482.93 183.635 482.76 183.294 482.422 183.008C482.089 182.721 481.667 182.578 481.156 182.578C480.63 182.578 480.219 182.693 479.922 182.922C479.625 183.151 479.477 183.451 479.477 183.82C479.477 184.169 479.615 184.432 479.891 184.609C480.167 184.786 480.664 184.956 481.383 185.117C482.107 185.279 482.693 185.471 483.141 185.695C483.589 185.919 483.919 186.19 484.133 186.508C484.352 186.82 484.461 187.203 484.461 187.656C484.461 188.411 484.159 189.018 483.555 189.477C482.951 189.93 482.167 190.156 481.203 190.156C480.526 190.156 479.927 190.036 479.406 189.797C478.885 189.557 478.477 189.224 478.18 188.797C477.888 188.365 477.742 187.898 477.742 187.398H479.188C479.214 187.883 479.406 188.268 479.766 188.555C480.13 188.836 480.609 188.977 481.203 188.977C481.75 188.977 482.188 188.867 482.516 188.648C482.849 188.424 483.016 188.128 483.016 187.758ZM487.914 190H486.469V181.547H487.914V190ZM486.352 179.305C486.352 179.07 486.422 178.872 486.562 178.711C486.708 178.549 486.922 178.469 487.203 178.469C487.484 178.469 487.698 178.549 487.844 178.711C487.99 178.872 488.062 179.07 488.062 179.305C488.062 179.539 487.99 179.734 487.844 179.891C487.698 180.047 487.484 180.125 487.203 180.125C486.922 180.125 486.708 180.047 486.562 179.891C486.422 179.734 486.352 179.539 486.352 179.305ZM492.195 179.5V181.547H493.773V182.664H492.195V187.906C492.195 188.245 492.266 188.5 492.406 188.672C492.547 188.839 492.786 188.922 493.125 188.922C493.292 188.922 493.521 188.891 493.812 188.828V190C493.432 190.104 493.062 190.156 492.703 190.156C492.057 190.156 491.57 189.961 491.242 189.57C490.914 189.18 490.75 188.625 490.75 187.906V182.664H489.211V181.547H490.75V179.5H492.195ZM504.656 190C504.573 189.833 504.505 189.536 504.453 189.109C503.781 189.807 502.979 190.156 502.047 190.156C501.214 190.156 500.529 189.922 499.992 189.453C499.461 188.979 499.195 188.38 499.195 187.656C499.195 186.776 499.529 186.094 500.195 185.609C500.867 185.12 501.81 184.875 503.023 184.875H504.43V184.211C504.43 183.706 504.279 183.305 503.977 183.008C503.674 182.706 503.229 182.555 502.641 182.555C502.125 182.555 501.693 182.685 501.344 182.945C500.995 183.206 500.82 183.521 500.82 183.891H499.367C499.367 183.469 499.516 183.062 499.812 182.672C500.115 182.276 500.521 181.964 501.031 181.734C501.547 181.505 502.112 181.391 502.727 181.391C503.701 181.391 504.464 181.635 505.016 182.125C505.568 182.609 505.854 183.279 505.875 184.133V188.023C505.875 188.799 505.974 189.417 506.172 189.875V190H504.656ZM502.258 188.898C502.711 188.898 503.141 188.781 503.547 188.547C503.953 188.312 504.247 188.008 504.43 187.633V185.898H503.297C501.526 185.898 500.641 186.417 500.641 187.453C500.641 187.906 500.792 188.26 501.094 188.516C501.396 188.771 501.784 188.898 502.258 188.898ZM509.5 181.547L509.539 182.484C510.159 181.755 510.995 181.391 512.047 181.391C513.229 181.391 514.034 181.844 514.461 182.75C514.742 182.344 515.107 182.016 515.555 181.766C516.008 181.516 516.542 181.391 517.156 181.391C519.01 181.391 519.953 182.372 519.984 184.336V190H518.539V184.422C518.539 183.818 518.401 183.367 518.125 183.07C517.849 182.768 517.385 182.617 516.734 182.617C516.198 182.617 515.753 182.779 515.398 183.102C515.044 183.419 514.839 183.849 514.781 184.391V190H513.328V184.461C513.328 183.232 512.727 182.617 511.523 182.617C510.576 182.617 509.927 183.021 509.578 183.828V190H508.133V181.547H509.5ZM525.68 190.156C524.534 190.156 523.602 189.781 522.883 189.031C522.164 188.276 521.805 187.268 521.805 186.008V185.742C521.805 184.904 521.964 184.156 522.281 183.5C522.604 182.839 523.052 182.323 523.625 181.953C524.203 181.578 524.828 181.391 525.5 181.391C526.599 181.391 527.453 181.753 528.062 182.477C528.672 183.201 528.977 184.237 528.977 185.586V186.188H523.25C523.271 187.021 523.513 187.695 523.977 188.211C524.445 188.721 525.039 188.977 525.758 188.977C526.268 188.977 526.701 188.872 527.055 188.664C527.409 188.456 527.719 188.18 527.984 187.836L528.867 188.523C528.159 189.612 527.096 190.156 525.68 190.156ZM525.5 182.578C524.917 182.578 524.427 182.792 524.031 183.219C523.635 183.641 523.391 184.234 523.297 185H527.531V184.891C527.49 184.156 527.292 183.589 526.938 183.188C526.583 182.781 526.104 182.578 525.5 182.578ZM532.617 179.5V181.547H534.195V182.664H532.617V187.906C532.617 188.245 532.688 188.5 532.828 188.672C532.969 188.839 533.208 188.922 533.547 188.922C533.714 188.922 533.943 188.891 534.234 188.828V190C533.854 190.104 533.484 190.156 533.125 190.156C532.479 190.156 531.992 189.961 531.664 189.57C531.336 189.18 531.172 188.625 531.172 187.906V182.664H529.633V181.547H531.172V179.5H532.617ZM535.844 192.266L535.023 191.703C535.513 191.021 535.768 190.318 535.789 189.594V188.289H537.203V189.422C537.203 189.948 537.073 190.474 536.812 191C536.557 191.526 536.234 191.948 535.844 192.266ZM343.484 207.977C344 207.977 344.451 207.82 344.836 207.508C345.221 207.195 345.435 206.805 345.477 206.336H346.844C346.818 206.82 346.651 207.281 346.344 207.719C346.036 208.156 345.625 208.505 345.109 208.766C344.599 209.026 344.057 209.156 343.484 209.156C342.333 209.156 341.417 208.773 340.734 208.008C340.057 207.237 339.719 206.185 339.719 204.852V204.609C339.719 203.786 339.87 203.055 340.172 202.414C340.474 201.773 340.906 201.276 341.469 200.922C342.036 200.568 342.706 200.391 343.477 200.391C344.424 200.391 345.211 200.674 345.836 201.242C346.466 201.81 346.802 202.547 346.844 203.453H345.477C345.435 202.906 345.227 202.458 344.852 202.109C344.482 201.755 344.023 201.578 343.477 201.578C342.742 201.578 342.172 201.844 341.766 202.375C341.365 202.901 341.164 203.664 341.164 204.664V204.938C341.164 205.911 341.365 206.661 341.766 207.188C342.167 207.714 342.74 207.977 343.484 207.977ZM348.086 204.695C348.086 203.867 348.247 203.122 348.57 202.461C348.898 201.799 349.352 201.289 349.93 200.93C350.513 200.57 351.177 200.391 351.922 200.391C353.073 200.391 354.003 200.789 354.711 201.586C355.424 202.383 355.781 203.443 355.781 204.766V204.867C355.781 205.69 355.622 206.43 355.305 207.086C354.992 207.737 354.542 208.245 353.953 208.609C353.37 208.974 352.698 209.156 351.938 209.156C350.792 209.156 349.862 208.758 349.148 207.961C348.44 207.164 348.086 206.109 348.086 204.797V204.695ZM349.539 204.867C349.539 205.805 349.755 206.557 350.188 207.125C350.625 207.693 351.208 207.977 351.938 207.977C352.672 207.977 353.255 207.69 353.688 207.117C354.12 206.539 354.336 205.732 354.336 204.695C354.336 203.768 354.115 203.018 353.672 202.445C353.234 201.867 352.651 201.578 351.922 201.578C351.208 201.578 350.633 201.862 350.195 202.43C349.758 202.997 349.539 203.81 349.539 204.867ZM358.961 200.547L359.008 201.609C359.654 200.797 360.497 200.391 361.539 200.391C363.326 200.391 364.227 201.398 364.242 203.414V209H362.797V203.406C362.792 202.797 362.651 202.346 362.375 202.055C362.104 201.763 361.68 201.617 361.102 201.617C360.633 201.617 360.221 201.742 359.867 201.992C359.513 202.242 359.237 202.57 359.039 202.977V209H357.594V200.547H358.961ZM371.344 206.758C371.344 206.367 371.195 206.065 370.898 205.852C370.607 205.633 370.094 205.445 369.359 205.289C368.63 205.133 368.049 204.945 367.617 204.727C367.19 204.508 366.872 204.247 366.664 203.945C366.461 203.643 366.359 203.284 366.359 202.867C366.359 202.174 366.651 201.589 367.234 201.109C367.823 200.63 368.573 200.391 369.484 200.391C370.443 200.391 371.219 200.638 371.812 201.133C372.411 201.628 372.711 202.26 372.711 203.031H371.258C371.258 202.635 371.089 202.294 370.75 202.008C370.417 201.721 369.995 201.578 369.484 201.578C368.958 201.578 368.547 201.693 368.25 201.922C367.953 202.151 367.805 202.451 367.805 202.82C367.805 203.169 367.943 203.432 368.219 203.609C368.495 203.786 368.992 203.956 369.711 204.117C370.435 204.279 371.021 204.471 371.469 204.695C371.917 204.919 372.247 205.19 372.461 205.508C372.68 205.82 372.789 206.203 372.789 206.656C372.789 207.411 372.487 208.018 371.883 208.477C371.279 208.93 370.495 209.156 369.531 209.156C368.854 209.156 368.255 209.036 367.734 208.797C367.214 208.557 366.805 208.224 366.508 207.797C366.216 207.365 366.07 206.898 366.07 206.398H367.516C367.542 206.883 367.734 207.268 368.094 207.555C368.458 207.836 368.938 207.977 369.531 207.977C370.078 207.977 370.516 207.867 370.844 207.648C371.177 207.424 371.344 207.128 371.344 206.758ZM378.18 209.156C377.034 209.156 376.102 208.781 375.383 208.031C374.664 207.276 374.305 206.268 374.305 205.008V204.742C374.305 203.904 374.464 203.156 374.781 202.5C375.104 201.839 375.552 201.323 376.125 200.953C376.703 200.578 377.328 200.391 378 200.391C379.099 200.391 379.953 200.753 380.562 201.477C381.172 202.201 381.477 203.237 381.477 204.586V205.188H375.75C375.771 206.021 376.013 206.695 376.477 207.211C376.945 207.721 377.539 207.977 378.258 207.977C378.768 207.977 379.201 207.872 379.555 207.664C379.909 207.456 380.219 207.18 380.484 206.836L381.367 207.523C380.659 208.612 379.596 209.156 378.18 209.156ZM378 201.578C377.417 201.578 376.927 201.792 376.531 202.219C376.135 202.641 375.891 203.234 375.797 204H380.031V203.891C379.99 203.156 379.792 202.589 379.438 202.188C379.083 201.781 378.604 201.578 378 201.578ZM385.117 198.5V200.547H386.695V201.664H385.117V206.906C385.117 207.245 385.188 207.5 385.328 207.672C385.469 207.839 385.708 207.922 386.047 207.922C386.214 207.922 386.443 207.891 386.734 207.828V209C386.354 209.104 385.984 209.156 385.625 209.156C384.979 209.156 384.492 208.961 384.164 208.57C383.836 208.18 383.672 207.625 383.672 206.906V201.664H382.133V200.547H383.672V198.5H385.117ZM391.898 209.156C390.753 209.156 389.82 208.781 389.102 208.031C388.383 207.276 388.023 206.268 388.023 205.008V204.742C388.023 203.904 388.182 203.156 388.5 202.5C388.823 201.839 389.271 201.323 389.844 200.953C390.422 200.578 391.047 200.391 391.719 200.391C392.818 200.391 393.672 200.753 394.281 201.477C394.891 202.201 395.195 203.237 395.195 204.586V205.188H389.469C389.49 206.021 389.732 206.695 390.195 207.211C390.664 207.721 391.258 207.977 391.977 207.977C392.487 207.977 392.919 207.872 393.273 207.664C393.628 207.456 393.938 207.18 394.203 206.836L395.086 207.523C394.378 208.612 393.315 209.156 391.898 209.156ZM391.719 201.578C391.135 201.578 390.646 201.792 390.25 202.219C389.854 202.641 389.609 203.234 389.516 204H393.75V203.891C393.708 203.156 393.51 202.589 393.156 202.188C392.802 201.781 392.323 201.578 391.719 201.578ZM398.836 198.5V200.547H400.414V201.664H398.836V206.906C398.836 207.245 398.906 207.5 399.047 207.672C399.188 207.839 399.427 207.922 399.766 207.922C399.932 207.922 400.161 207.891 400.453 207.828V209C400.073 209.104 399.703 209.156 399.344 209.156C398.698 209.156 398.211 208.961 397.883 208.57C397.555 208.18 397.391 207.625 397.391 206.906V201.664H395.852V200.547H397.391V198.5H398.836ZM407.328 208.164C406.766 208.826 405.94 209.156 404.852 209.156C403.951 209.156 403.263 208.896 402.789 208.375C402.32 207.849 402.083 207.073 402.078 206.047V200.547H403.523V206.008C403.523 207.289 404.044 207.93 405.086 207.93C406.19 207.93 406.924 207.518 407.289 206.695V200.547H408.734V209H407.359L407.328 208.164ZM415.023 201.844C414.805 201.807 414.568 201.789 414.312 201.789C413.365 201.789 412.721 202.193 412.383 203V209H410.938V200.547H412.344L412.367 201.523C412.841 200.768 413.513 200.391 414.383 200.391C414.664 200.391 414.878 200.427 415.023 200.5V201.844ZM425.25 206.758C425.25 206.367 425.102 206.065 424.805 205.852C424.513 205.633 424 205.445 423.266 205.289C422.536 205.133 421.956 204.945 421.523 204.727C421.096 204.508 420.779 204.247 420.57 203.945C420.367 203.643 420.266 203.284 420.266 202.867C420.266 202.174 420.557 201.589 421.141 201.109C421.729 200.63 422.479 200.391 423.391 200.391C424.349 200.391 425.125 200.638 425.719 201.133C426.318 201.628 426.617 202.26 426.617 203.031H425.164C425.164 202.635 424.995 202.294 424.656 202.008C424.323 201.721 423.901 201.578 423.391 201.578C422.865 201.578 422.453 201.693 422.156 201.922C421.859 202.151 421.711 202.451 421.711 202.82C421.711 203.169 421.849 203.432 422.125 203.609C422.401 203.786 422.898 203.956 423.617 204.117C424.341 204.279 424.927 204.471 425.375 204.695C425.823 204.919 426.154 205.19 426.367 205.508C426.586 205.82 426.695 206.203 426.695 206.656C426.695 207.411 426.393 208.018 425.789 208.477C425.185 208.93 424.401 209.156 423.438 209.156C422.76 209.156 422.161 209.036 421.641 208.797C421.12 208.557 420.711 208.224 420.414 207.797C420.122 207.365 419.977 206.898 419.977 206.398H421.422C421.448 206.883 421.641 207.268 422 207.555C422.365 207.836 422.844 207.977 423.438 207.977C423.984 207.977 424.422 207.867 424.75 207.648C425.083 207.424 425.25 207.128 425.25 206.758ZM433.797 209C433.714 208.833 433.646 208.536 433.594 208.109C432.922 208.807 432.12 209.156 431.188 209.156C430.354 209.156 429.669 208.922 429.133 208.453C428.602 207.979 428.336 207.38 428.336 206.656C428.336 205.776 428.669 205.094 429.336 204.609C430.008 204.12 430.951 203.875 432.164 203.875H433.57V203.211C433.57 202.706 433.419 202.305 433.117 202.008C432.815 201.706 432.37 201.555 431.781 201.555C431.266 201.555 430.833 201.685 430.484 201.945C430.135 202.206 429.961 202.521 429.961 202.891H428.508C428.508 202.469 428.656 202.062 428.953 201.672C429.255 201.276 429.661 200.964 430.172 200.734C430.688 200.505 431.253 200.391 431.867 200.391C432.841 200.391 433.604 200.635 434.156 201.125C434.708 201.609 434.995 202.279 435.016 203.133V207.023C435.016 207.799 435.115 208.417 435.312 208.875V209H433.797ZM431.398 207.898C431.852 207.898 432.281 207.781 432.688 207.547C433.094 207.312 433.388 207.008 433.57 206.633V204.898H432.438C430.667 204.898 429.781 205.417 429.781 206.453C429.781 206.906 429.932 207.26 430.234 207.516C430.536 207.771 430.924 207.898 431.398 207.898ZM436.93 204.703C436.93 203.406 437.237 202.365 437.852 201.578C438.466 200.786 439.271 200.391 440.266 200.391C441.255 200.391 442.039 200.729 442.617 201.406V197H444.062V209H442.734L442.664 208.094C442.086 208.802 441.281 209.156 440.25 209.156C439.271 209.156 438.471 208.755 437.852 207.953C437.237 207.151 436.93 206.104 436.93 204.812V204.703ZM438.375 204.867C438.375 205.826 438.573 206.576 438.969 207.117C439.365 207.659 439.911 207.93 440.609 207.93C441.526 207.93 442.195 207.518 442.617 206.695V202.812C442.185 202.016 441.521 201.617 440.625 201.617C439.917 201.617 439.365 201.891 438.969 202.438C438.573 202.984 438.375 203.794 438.375 204.867ZM447.883 209H446.438V200.547H447.883V209ZM446.32 198.305C446.32 198.07 446.391 197.872 446.531 197.711C446.677 197.549 446.891 197.469 447.172 197.469C447.453 197.469 447.667 197.549 447.812 197.711C447.958 197.872 448.031 198.07 448.031 198.305C448.031 198.539 447.958 198.734 447.812 198.891C447.667 199.047 447.453 199.125 447.172 199.125C446.891 199.125 446.677 199.047 446.531 198.891C446.391 198.734 446.32 198.539 446.32 198.305ZM457.344 204.867C457.344 206.154 457.049 207.19 456.461 207.977C455.872 208.763 455.076 209.156 454.07 209.156C453.044 209.156 452.237 208.831 451.648 208.18V212.25H450.203V200.547H451.523L451.594 201.484C452.182 200.755 453 200.391 454.047 200.391C455.062 200.391 455.865 200.773 456.453 201.539C457.047 202.305 457.344 203.37 457.344 204.734V204.867ZM455.898 204.703C455.898 203.75 455.695 202.997 455.289 202.445C454.883 201.893 454.326 201.617 453.617 201.617C452.742 201.617 452.086 202.005 451.648 202.781V206.82C452.081 207.591 452.742 207.977 453.633 207.977C454.326 207.977 454.875 207.703 455.281 207.156C455.693 206.604 455.898 205.786 455.898 204.703ZM464.109 206.758C464.109 206.367 463.961 206.065 463.664 205.852C463.372 205.633 462.859 205.445 462.125 205.289C461.396 205.133 460.815 204.945 460.383 204.727C459.956 204.508 459.638 204.247 459.43 203.945C459.227 203.643 459.125 203.284 459.125 202.867C459.125 202.174 459.417 201.589 460 201.109C460.589 200.63 461.339 200.391 462.25 200.391C463.208 200.391 463.984 200.638 464.578 201.133C465.177 201.628 465.477 202.26 465.477 203.031H464.023C464.023 202.635 463.854 202.294 463.516 202.008C463.182 201.721 462.76 201.578 462.25 201.578C461.724 201.578 461.312 201.693 461.016 201.922C460.719 202.151 460.57 202.451 460.57 202.82C460.57 203.169 460.708 203.432 460.984 203.609C461.26 203.786 461.758 203.956 462.477 204.117C463.201 204.279 463.786 204.471 464.234 204.695C464.682 204.919 465.013 205.19 465.227 205.508C465.445 205.82 465.555 206.203 465.555 206.656C465.555 207.411 465.253 208.018 464.648 208.477C464.044 208.93 463.26 209.156 462.297 209.156C461.62 209.156 461.021 209.036 460.5 208.797C459.979 208.557 459.57 208.224 459.273 207.797C458.982 207.365 458.836 206.898 458.836 206.398H460.281C460.307 206.883 460.5 207.268 460.859 207.555C461.224 207.836 461.703 207.977 462.297 207.977C462.844 207.977 463.281 207.867 463.609 207.648C463.943 207.424 464.109 207.128 464.109 206.758ZM470.828 207.977C471.344 207.977 471.794 207.82 472.18 207.508C472.565 207.195 472.779 206.805 472.82 206.336H474.188C474.161 206.82 473.995 207.281 473.688 207.719C473.38 208.156 472.969 208.505 472.453 208.766C471.943 209.026 471.401 209.156 470.828 209.156C469.677 209.156 468.76 208.773 468.078 208.008C467.401 207.237 467.062 206.185 467.062 204.852V204.609C467.062 203.786 467.214 203.055 467.516 202.414C467.818 201.773 468.25 201.276 468.812 200.922C469.38 200.568 470.049 200.391 470.82 200.391C471.768 200.391 472.555 200.674 473.18 201.242C473.81 201.81 474.146 202.547 474.188 203.453H472.82C472.779 202.906 472.57 202.458 472.195 202.109C471.826 201.755 471.367 201.578 470.82 201.578C470.086 201.578 469.516 201.844 469.109 202.375C468.708 202.901 468.508 203.664 468.508 204.664V204.938C468.508 205.911 468.708 206.661 469.109 207.188C469.51 207.714 470.083 207.977 470.828 207.977ZM477.383 209H475.938V200.547H477.383V209ZM475.82 198.305C475.82 198.07 475.891 197.872 476.031 197.711C476.177 197.549 476.391 197.469 476.672 197.469C476.953 197.469 477.167 197.549 477.312 197.711C477.458 197.872 477.531 198.07 477.531 198.305C477.531 198.539 477.458 198.734 477.312 198.891C477.167 199.047 476.953 199.125 476.672 199.125C476.391 199.125 476.177 199.047 476.031 198.891C475.891 198.734 475.82 198.539 475.82 198.305ZM481.07 200.547L481.117 201.609C481.763 200.797 482.607 200.391 483.648 200.391C485.435 200.391 486.336 201.398 486.352 203.414V209H484.906V203.406C484.901 202.797 484.76 202.346 484.484 202.055C484.214 201.763 483.789 201.617 483.211 201.617C482.742 201.617 482.331 201.742 481.977 201.992C481.622 202.242 481.346 202.57 481.148 202.977V209H479.703V200.547H481.07ZM488.188 204.703C488.188 203.385 488.492 202.339 489.102 201.562C489.711 200.781 490.518 200.391 491.523 200.391C492.555 200.391 493.359 200.755 493.938 201.484L494.008 200.547H495.328V208.797C495.328 209.891 495.003 210.753 494.352 211.383C493.706 212.013 492.836 212.328 491.742 212.328C491.133 212.328 490.536 212.198 489.953 211.938C489.37 211.677 488.924 211.32 488.617 210.867L489.367 210C489.987 210.766 490.745 211.148 491.641 211.148C492.344 211.148 492.891 210.951 493.281 210.555C493.677 210.159 493.875 209.602 493.875 208.883V208.156C493.297 208.823 492.508 209.156 491.508 209.156C490.518 209.156 489.716 208.758 489.102 207.961C488.492 207.164 488.188 206.078 488.188 204.703ZM489.641 204.867C489.641 205.82 489.836 206.57 490.227 207.117C490.617 207.659 491.164 207.93 491.867 207.93C492.779 207.93 493.448 207.516 493.875 206.688V202.828C493.432 202.021 492.768 201.617 491.883 201.617C491.18 201.617 490.63 201.891 490.234 202.438C489.839 202.984 489.641 203.794 489.641 204.867ZM504.992 209.156C503.846 209.156 502.914 208.781 502.195 208.031C501.477 207.276 501.117 206.268 501.117 205.008V204.742C501.117 203.904 501.276 203.156 501.594 202.5C501.917 201.839 502.365 201.323 502.938 200.953C503.516 200.578 504.141 200.391 504.812 200.391C505.911 200.391 506.766 200.753 507.375 201.477C507.984 202.201 508.289 203.237 508.289 204.586V205.188H502.562C502.583 206.021 502.826 206.695 503.289 207.211C503.758 207.721 504.352 207.977 505.07 207.977C505.581 207.977 506.013 207.872 506.367 207.664C506.721 207.456 507.031 207.18 507.297 206.836L508.18 207.523C507.471 208.612 506.409 209.156 504.992 209.156ZM504.812 201.578C504.229 201.578 503.74 201.792 503.344 202.219C502.948 202.641 502.703 203.234 502.609 204H506.844V203.891C506.802 203.156 506.604 202.589 506.25 202.188C505.896 201.781 505.417 201.578 504.812 201.578ZM511.539 209H510.094V197H511.539V209ZM515.43 209H513.984V200.547H515.43V209ZM513.867 198.305C513.867 198.07 513.938 197.872 514.078 197.711C514.224 197.549 514.438 197.469 514.719 197.469C515 197.469 515.214 197.549 515.359 197.711C515.505 197.872 515.578 198.07 515.578 198.305C515.578 198.539 515.505 198.734 515.359 198.891C515.214 199.047 515 199.125 514.719 199.125C514.438 199.125 514.224 199.047 514.078 198.891C513.938 198.734 513.867 198.539 513.867 198.305ZM519.711 198.5V200.547H521.289V201.664H519.711V206.906C519.711 207.245 519.781 207.5 519.922 207.672C520.062 207.839 520.302 207.922 520.641 207.922C520.807 207.922 521.036 207.891 521.328 207.828V209C520.948 209.104 520.578 209.156 520.219 209.156C519.573 209.156 519.086 208.961 518.758 208.57C518.43 208.18 518.266 207.625 518.266 206.906V201.664H516.727V200.547H518.266V198.5H519.711ZM527.07 201.844C526.852 201.807 526.615 201.789 526.359 201.789C525.411 201.789 524.768 202.193 524.43 203V209H522.984V200.547H524.391L524.414 201.523C524.888 200.768 525.56 200.391 526.43 200.391C526.711 200.391 526.924 200.427 527.07 200.5V201.844ZM527.391 211.266L526.57 210.703C527.06 210.021 527.315 209.318 527.336 208.594V207.289H528.75V208.422C528.75 208.948 528.62 209.474 528.359 210C528.104 210.526 527.781 210.948 527.391 211.266ZM345.016 225.758C345.016 225.367 344.867 225.065 344.57 224.852C344.279 224.633 343.766 224.445 343.031 224.289C342.302 224.133 341.721 223.945 341.289 223.727C340.862 223.508 340.544 223.247 340.336 222.945C340.133 222.643 340.031 222.284 340.031 221.867C340.031 221.174 340.323 220.589 340.906 220.109C341.495 219.63 342.245 219.391 343.156 219.391C344.115 219.391 344.891 219.638 345.484 220.133C346.083 220.628 346.383 221.26 346.383 222.031H344.93C344.93 221.635 344.76 221.294 344.422 221.008C344.089 220.721 343.667 220.578 343.156 220.578C342.63 220.578 342.219 220.693 341.922 220.922C341.625 221.151 341.477 221.451 341.477 221.82C341.477 222.169 341.615 222.432 341.891 222.609C342.167 222.786 342.664 222.956 343.383 223.117C344.107 223.279 344.693 223.471 345.141 223.695C345.589 223.919 345.919 224.19 346.133 224.508C346.352 224.82 346.461 225.203 346.461 225.656C346.461 226.411 346.159 227.018 345.555 227.477C344.951 227.93 344.167 228.156 343.203 228.156C342.526 228.156 341.927 228.036 341.406 227.797C340.885 227.557 340.477 227.224 340.18 226.797C339.888 226.365 339.742 225.898 339.742 225.398H341.188C341.214 225.883 341.406 226.268 341.766 226.555C342.13 226.836 342.609 226.977 343.203 226.977C343.75 226.977 344.188 226.867 344.516 226.648C344.849 226.424 345.016 226.128 345.016 225.758ZM351.852 228.156C350.706 228.156 349.773 227.781 349.055 227.031C348.336 226.276 347.977 225.268 347.977 224.008V223.742C347.977 222.904 348.135 222.156 348.453 221.5C348.776 220.839 349.224 220.323 349.797 219.953C350.375 219.578 351 219.391 351.672 219.391C352.771 219.391 353.625 219.753 354.234 220.477C354.844 221.201 355.148 222.237 355.148 223.586V224.188H349.422C349.443 225.021 349.685 225.695 350.148 226.211C350.617 226.721 351.211 226.977 351.93 226.977C352.44 226.977 352.872 226.872 353.227 226.664C353.581 226.456 353.891 226.18 354.156 225.836L355.039 226.523C354.331 227.612 353.268 228.156 351.852 228.156ZM351.672 220.578C351.089 220.578 350.599 220.792 350.203 221.219C349.807 221.641 349.562 222.234 349.469 223H353.703V222.891C353.661 222.156 353.464 221.589 353.109 221.188C352.755 220.781 352.276 220.578 351.672 220.578ZM356.477 223.703C356.477 222.406 356.784 221.365 357.398 220.578C358.013 219.786 358.818 219.391 359.812 219.391C360.802 219.391 361.586 219.729 362.164 220.406V216H363.609V228H362.281L362.211 227.094C361.633 227.802 360.828 228.156 359.797 228.156C358.818 228.156 358.018 227.755 357.398 226.953C356.784 226.151 356.477 225.104 356.477 223.812V223.703ZM357.922 223.867C357.922 224.826 358.12 225.576 358.516 226.117C358.911 226.659 359.458 226.93 360.156 226.93C361.073 226.93 361.742 226.518 362.164 225.695V221.812C361.732 221.016 361.068 220.617 360.172 220.617C359.464 220.617 358.911 220.891 358.516 221.438C358.12 221.984 357.922 222.794 357.922 223.867ZM369.477 223.703C369.477 222.406 369.784 221.365 370.398 220.578C371.013 219.786 371.818 219.391 372.812 219.391C373.802 219.391 374.586 219.729 375.164 220.406V216H376.609V228H375.281L375.211 227.094C374.633 227.802 373.828 228.156 372.797 228.156C371.818 228.156 371.018 227.755 370.398 226.953C369.784 226.151 369.477 225.104 369.477 223.812V223.703ZM370.922 223.867C370.922 224.826 371.12 225.576 371.516 226.117C371.911 226.659 372.458 226.93 373.156 226.93C374.073 226.93 374.742 226.518 375.164 225.695V221.812C374.732 221.016 374.068 220.617 373.172 220.617C372.464 220.617 371.911 220.891 371.516 221.438C371.12 221.984 370.922 222.794 370.922 223.867ZM380.43 228H378.984V219.547H380.43V228ZM378.867 217.305C378.867 217.07 378.938 216.872 379.078 216.711C379.224 216.549 379.438 216.469 379.719 216.469C380 216.469 380.214 216.549 380.359 216.711C380.505 216.872 380.578 217.07 380.578 217.305C380.578 217.539 380.505 217.734 380.359 217.891C380.214 218.047 380 218.125 379.719 218.125C379.438 218.125 379.224 218.047 379.078 217.891C378.938 217.734 378.867 217.539 378.867 217.305ZM387.969 228C387.885 227.833 387.818 227.536 387.766 227.109C387.094 227.807 386.292 228.156 385.359 228.156C384.526 228.156 383.841 227.922 383.305 227.453C382.773 226.979 382.508 226.38 382.508 225.656C382.508 224.776 382.841 224.094 383.508 223.609C384.18 223.12 385.122 222.875 386.336 222.875H387.742V222.211C387.742 221.706 387.591 221.305 387.289 221.008C386.987 220.706 386.542 220.555 385.953 220.555C385.438 220.555 385.005 220.685 384.656 220.945C384.307 221.206 384.133 221.521 384.133 221.891H382.68C382.68 221.469 382.828 221.062 383.125 220.672C383.427 220.276 383.833 219.964 384.344 219.734C384.859 219.505 385.424 219.391 386.039 219.391C387.013 219.391 387.776 219.635 388.328 220.125C388.88 220.609 389.167 221.279 389.188 222.133V226.023C389.188 226.799 389.286 227.417 389.484 227.875V228H387.969ZM385.57 226.898C386.023 226.898 386.453 226.781 386.859 226.547C387.266 226.312 387.56 226.008 387.742 225.633V223.898H386.609C384.839 223.898 383.953 224.417 383.953 225.453C383.953 225.906 384.104 226.26 384.406 226.516C384.708 226.771 385.096 226.898 385.57 226.898ZM392.812 219.547L392.852 220.484C393.471 219.755 394.307 219.391 395.359 219.391C396.542 219.391 397.346 219.844 397.773 220.75C398.055 220.344 398.419 220.016 398.867 219.766C399.32 219.516 399.854 219.391 400.469 219.391C402.323 219.391 403.266 220.372 403.297 222.336V228H401.852V222.422C401.852 221.818 401.714 221.367 401.438 221.07C401.161 220.768 400.698 220.617 400.047 220.617C399.51 220.617 399.065 220.779 398.711 221.102C398.357 221.419 398.151 221.849 398.094 222.391V228H396.641V222.461C396.641 221.232 396.039 220.617 394.836 220.617C393.888 220.617 393.24 221.021 392.891 221.828V228H391.445V219.547H392.812ZM410.82 219.547L410.867 220.609C411.513 219.797 412.357 219.391 413.398 219.391C415.185 219.391 416.086 220.398 416.102 222.414V228H414.656V222.406C414.651 221.797 414.51 221.346 414.234 221.055C413.964 220.763 413.539 220.617 412.961 220.617C412.492 220.617 412.081 220.742 411.727 220.992C411.372 221.242 411.096 221.57 410.898 221.977V228H409.453V219.547H410.82ZM417.898 223.695C417.898 222.867 418.06 222.122 418.383 221.461C418.711 220.799 419.164 220.289 419.742 219.93C420.326 219.57 420.99 219.391 421.734 219.391C422.885 219.391 423.815 219.789 424.523 220.586C425.237 221.383 425.594 222.443 425.594 223.766V223.867C425.594 224.69 425.435 225.43 425.117 226.086C424.805 226.737 424.354 227.245 423.766 227.609C423.182 227.974 422.51 228.156 421.75 228.156C420.604 228.156 419.674 227.758 418.961 226.961C418.253 226.164 417.898 225.109 417.898 223.797V223.695ZM419.352 223.867C419.352 224.805 419.568 225.557 420 226.125C420.438 226.693 421.021 226.977 421.75 226.977C422.484 226.977 423.068 226.69 423.5 226.117C423.932 225.539 424.148 224.732 424.148 223.695C424.148 222.768 423.927 222.018 423.484 221.445C423.047 220.867 422.464 220.578 421.734 220.578C421.021 220.578 420.445 220.862 420.008 221.43C419.57 221.997 419.352 222.81 419.352 223.867ZM428.773 219.547L428.82 220.609C429.466 219.797 430.31 219.391 431.352 219.391C433.138 219.391 434.039 220.398 434.055 222.414V228H432.609V222.406C432.604 221.797 432.464 221.346 432.188 221.055C431.917 220.763 431.492 220.617 430.914 220.617C430.445 220.617 430.034 220.742 429.68 220.992C429.326 221.242 429.049 221.57 428.852 221.977V228H427.406V219.547H428.773ZM441.453 227.164C440.891 227.826 440.065 228.156 438.977 228.156C438.076 228.156 437.388 227.896 436.914 227.375C436.445 226.849 436.208 226.073 436.203 225.047V219.547H437.648V225.008C437.648 226.289 438.169 226.93 439.211 226.93C440.315 226.93 441.049 226.518 441.414 225.695V219.547H442.859V228H441.484L441.453 227.164ZM446.422 219.547L446.461 220.484C447.081 219.755 447.917 219.391 448.969 219.391C450.151 219.391 450.956 219.844 451.383 220.75C451.664 220.344 452.029 220.016 452.477 219.766C452.93 219.516 453.464 219.391 454.078 219.391C455.932 219.391 456.875 220.372 456.906 222.336V228H455.461V222.422C455.461 221.818 455.323 221.367 455.047 221.07C454.771 220.768 454.307 220.617 453.656 220.617C453.12 220.617 452.674 220.779 452.32 221.102C451.966 221.419 451.76 221.849 451.703 222.391V228H450.25V222.461C450.25 221.232 449.648 220.617 448.445 220.617C447.497 220.617 446.849 221.021 446.5 221.828V228H445.055V219.547H446.422ZM461.859 225.883L463.828 219.547H465.375L461.977 229.305C461.451 230.711 460.615 231.414 459.469 231.414L459.195 231.391L458.656 231.289V230.117L459.047 230.148C459.536 230.148 459.917 230.049 460.188 229.852C460.464 229.654 460.69 229.292 460.867 228.766L461.188 227.906L458.172 219.547H459.75L461.859 225.883ZM474.148 228.156C473.003 228.156 472.07 227.781 471.352 227.031C470.633 226.276 470.273 225.268 470.273 224.008V223.742C470.273 222.904 470.432 222.156 470.75 221.5C471.073 220.839 471.521 220.323 472.094 219.953C472.672 219.578 473.297 219.391 473.969 219.391C475.068 219.391 475.922 219.753 476.531 220.477C477.141 221.201 477.445 222.237 477.445 223.586V224.188H471.719C471.74 225.021 471.982 225.695 472.445 226.211C472.914 226.721 473.508 226.977 474.227 226.977C474.737 226.977 475.169 226.872 475.523 226.664C475.878 226.456 476.188 226.18 476.453 225.836L477.336 226.523C476.628 227.612 475.565 228.156 474.148 228.156ZM473.969 220.578C473.385 220.578 472.896 220.792 472.5 221.219C472.104 221.641 471.859 222.234 471.766 223H476V222.891C475.958 222.156 475.76 221.589 475.406 221.188C475.052 220.781 474.573 220.578 473.969 220.578ZM480.695 228H479.25V219.547H480.695V228ZM479.133 217.305C479.133 217.07 479.203 216.872 479.344 216.711C479.49 216.549 479.703 216.469 479.984 216.469C480.266 216.469 480.479 216.549 480.625 216.711C480.771 216.872 480.844 217.07 480.844 217.305C480.844 217.539 480.771 217.734 480.625 217.891C480.479 218.047 480.266 218.125 479.984 218.125C479.703 218.125 479.49 218.047 479.344 217.891C479.203 217.734 479.133 217.539 479.133 217.305ZM487.102 220.844C486.883 220.807 486.646 220.789 486.391 220.789C485.443 220.789 484.799 221.193 484.461 222V228H483.016V219.547H484.422L484.445 220.523C484.919 219.768 485.591 219.391 486.461 219.391C486.742 219.391 486.956 219.427 487.102 219.5V220.844ZM489.797 219.547L489.836 220.484C490.456 219.755 491.292 219.391 492.344 219.391C493.526 219.391 494.331 219.844 494.758 220.75C495.039 220.344 495.404 220.016 495.852 219.766C496.305 219.516 496.839 219.391 497.453 219.391C499.307 219.391 500.25 220.372 500.281 222.336V228H498.836V222.422C498.836 221.818 498.698 221.367 498.422 221.07C498.146 220.768 497.682 220.617 497.031 220.617C496.495 220.617 496.049 220.779 495.695 221.102C495.341 221.419 495.135 221.849 495.078 222.391V228H493.625V222.461C493.625 221.232 493.023 220.617 491.82 220.617C490.872 220.617 490.224 221.021 489.875 221.828V228H488.43V219.547H489.797ZM502.086 223.695C502.086 222.867 502.247 222.122 502.57 221.461C502.898 220.799 503.352 220.289 503.93 219.93C504.513 219.57 505.177 219.391 505.922 219.391C507.073 219.391 508.003 219.789 508.711 220.586C509.424 221.383 509.781 222.443 509.781 223.766V223.867C509.781 224.69 509.622 225.43 509.305 226.086C508.992 226.737 508.542 227.245 507.953 227.609C507.37 227.974 506.698 228.156 505.938 228.156C504.792 228.156 503.862 227.758 503.148 226.961C502.44 226.164 502.086 225.109 502.086 223.797V223.695ZM503.539 223.867C503.539 224.805 503.755 225.557 504.188 226.125C504.625 226.693 505.208 226.977 505.938 226.977C506.672 226.977 507.255 226.69 507.688 226.117C508.12 225.539 508.336 224.732 508.336 223.695C508.336 222.768 508.115 222.018 507.672 221.445C507.234 220.867 506.651 220.578 505.922 220.578C505.208 220.578 504.633 220.862 504.195 221.43C503.758 221.997 503.539 222.81 503.539 223.867ZM511.242 223.703C511.242 222.406 511.549 221.365 512.164 220.578C512.779 219.786 513.583 219.391 514.578 219.391C515.568 219.391 516.352 219.729 516.93 220.406V216H518.375V228H517.047L516.977 227.094C516.398 227.802 515.594 228.156 514.562 228.156C513.583 228.156 512.784 227.755 512.164 226.953C511.549 226.151 511.242 225.104 511.242 223.812V223.703ZM512.688 223.867C512.688 224.826 512.885 225.576 513.281 226.117C513.677 226.659 514.224 226.93 514.922 226.93C515.839 226.93 516.508 226.518 516.93 225.695V221.812C516.497 221.016 515.833 220.617 514.938 220.617C514.229 220.617 513.677 220.891 513.281 221.438C512.885 221.984 512.688 222.794 512.688 223.867ZM342.055 236.5V238.547H343.633V239.664H342.055V244.906C342.055 245.245 342.125 245.5 342.266 245.672C342.406 245.839 342.646 245.922 342.984 245.922C343.151 245.922 343.38 245.891 343.672 245.828V247C343.292 247.104 342.922 247.156 342.562 247.156C341.917 247.156 341.43 246.961 341.102 246.57C340.773 246.18 340.609 245.625 340.609 244.906V239.664H339.07V238.547H340.609V236.5H342.055ZM348.836 247.156C347.69 247.156 346.758 246.781 346.039 246.031C345.32 245.276 344.961 244.268 344.961 243.008V242.742C344.961 241.904 345.12 241.156 345.438 240.5C345.76 239.839 346.208 239.323 346.781 238.953C347.359 238.578 347.984 238.391 348.656 238.391C349.755 238.391 350.609 238.753 351.219 239.477C351.828 240.201 352.133 241.237 352.133 242.586V243.188H346.406C346.427 244.021 346.669 244.695 347.133 245.211C347.602 245.721 348.195 245.977 348.914 245.977C349.424 245.977 349.857 245.872 350.211 245.664C350.565 245.456 350.875 245.18 351.141 244.836L352.023 245.523C351.315 246.612 350.253 247.156 348.836 247.156ZM348.656 239.578C348.073 239.578 347.583 239.792 347.188 240.219C346.792 240.641 346.547 241.234 346.453 242H350.688V241.891C350.646 241.156 350.448 240.589 350.094 240.188C349.74 239.781 349.26 239.578 348.656 239.578ZM355.172 238.547L355.211 239.484C355.831 238.755 356.667 238.391 357.719 238.391C358.901 238.391 359.706 238.844 360.133 239.75C360.414 239.344 360.779 239.016 361.227 238.766C361.68 238.516 362.214 238.391 362.828 238.391C364.682 238.391 365.625 239.372 365.656 241.336V247H364.211V241.422C364.211 240.818 364.073 240.367 363.797 240.07C363.521 239.768 363.057 239.617 362.406 239.617C361.87 239.617 361.424 239.779 361.07 240.102C360.716 240.419 360.51 240.849 360.453 241.391V247H359V241.461C359 240.232 358.398 239.617 357.195 239.617C356.247 239.617 355.599 240.021 355.25 240.828V247H353.805V238.547H355.172ZM374.984 242.867C374.984 244.154 374.69 245.19 374.102 245.977C373.513 246.763 372.716 247.156 371.711 247.156C370.685 247.156 369.878 246.831 369.289 246.18V250.25H367.844V238.547H369.164L369.234 239.484C369.823 238.755 370.641 238.391 371.688 238.391C372.703 238.391 373.505 238.773 374.094 239.539C374.688 240.305 374.984 241.37 374.984 242.734V242.867ZM373.539 242.703C373.539 241.75 373.336 240.997 372.93 240.445C372.523 239.893 371.966 239.617 371.258 239.617C370.383 239.617 369.727 240.005 369.289 240.781V244.82C369.721 245.591 370.383 245.977 371.273 245.977C371.966 245.977 372.516 245.703 372.922 245.156C373.333 244.604 373.539 243.786 373.539 242.703ZM376.445 242.695C376.445 241.867 376.607 241.122 376.93 240.461C377.258 239.799 377.711 239.289 378.289 238.93C378.872 238.57 379.536 238.391 380.281 238.391C381.432 238.391 382.362 238.789 383.07 239.586C383.784 240.383 384.141 241.443 384.141 242.766V242.867C384.141 243.69 383.982 244.43 383.664 245.086C383.352 245.737 382.901 246.245 382.312 246.609C381.729 246.974 381.057 247.156 380.297 247.156C379.151 247.156 378.221 246.758 377.508 245.961C376.799 245.164 376.445 244.109 376.445 242.797V242.695ZM377.898 242.867C377.898 243.805 378.115 244.557 378.547 245.125C378.984 245.693 379.568 245.977 380.297 245.977C381.031 245.977 381.615 245.69 382.047 245.117C382.479 244.539 382.695 243.732 382.695 242.695C382.695 241.768 382.474 241.018 382.031 240.445C381.594 239.867 381.01 239.578 380.281 239.578C379.568 239.578 378.992 239.862 378.555 240.43C378.117 240.997 377.898 241.81 377.898 242.867ZM390.039 239.844C389.82 239.807 389.583 239.789 389.328 239.789C388.38 239.789 387.737 240.193 387.398 241V247H385.953V238.547H387.359L387.383 239.523C387.857 238.768 388.529 238.391 389.398 238.391C389.68 238.391 389.893 238.427 390.039 238.5V239.844Z" fill="#373E5F"/>
<path d="M54 288.5H338.5" stroke="black"/>
<path d="M155.712 287.842C153.987 281.692 152.585 275.455 151.512 269.158L165.287 262.017C165.554 261.806 165.89 261.7 166.229 261.719C166.569 261.737 166.891 261.879 167.134 262.117L180.769 271.453C181.208 271.707 181.583 272.056 181.869 272.475C182.113 272.979 182.233 273.533 182.219 274.092C182.206 274.651 182.059 275.199 181.792 275.69C181.21 276.39 180.185 276.409 179.373 276.817C175.609 278.705 171.764 280.426 167.923 282.151C167.487 282.351 167.137 282.793 166.662 282.739C165.276 282.583 164.271 279.986 162.933 280.378C162.702 280.471 162.494 280.612 162.321 280.791C162.148 280.969 162.014 281.182 161.928 281.416C161.408 282.551 161.348 283.844 161.761 285.022L155.712 287.842Z" fill="#2B8AFC"/>
<path d="M163.247 265.681C164.122 266.074 164.917 266.624 165.592 267.305C166.221 267.789 166.881 268.233 167.567 268.633L170.696 270.548C171.207 270.924 171.804 271.165 172.432 271.248C172.89 271.215 173.336 271.089 173.743 270.878C174.151 270.668 174.512 270.377 174.804 270.023C175.254 269.58 175.677 269.111 176.071 268.617" stroke="black" stroke-miterlimit="10" stroke-linecap="round"/>
<path d="M170.161 269.772C171.263 268.731 172.427 267.758 173.645 266.856" stroke="black" stroke-miterlimit="10" stroke-linecap="round"/>
<path d="M166.285 267.571C167.076 266.66 167.984 265.857 168.985 265.185C169.311 264.991 169.613 264.758 169.885 264.493" stroke="black" stroke-miterlimit="10" stroke-linecap="round"/>
<path d="M86.5171 288C87.5517 281.814 88.9149 275.687 90.6011 269.645L106.101 269.008C106.445 268.963 106.795 269.012 107.113 269.15C107.377 269.327 107.591 269.57 107.733 269.855L116.15 283.685C116.438 284.087 116.631 284.549 116.713 285.037C116.791 285.918 115.286 288.001 115.286 288.001H98.6471C98.6471 288.001 98.7361 284.348 96.2101 284.228C95.9628 284.215 95.7155 284.252 95.4833 284.338C95.2511 284.424 95.039 284.557 94.8601 284.728C93.9081 285.568 93.3097 286.737 93.1852 288H86.5171Z" fill="#2B8AFC"/>
<path d="M101.763 268.661C103.031 272.011 104.758 275.17 106.894 278.045C107.233 278.558 107.667 279.001 108.171 279.352C108.94 279.776 109.841 279.893 110.693 279.681C111.536 279.467 112.348 279.147 113.111 278.73" stroke="black" stroke-miterlimit="10" stroke-linecap="round"/>
<path d="M106.611 277.349L110.472 275.349" stroke="black" stroke-miterlimit="10" stroke-linecap="round"/>
<path d="M104.373 273.69C105.742 272.957 107.125 272.246 108.52 271.557" stroke="black" stroke-miterlimit="10" stroke-linecap="round"/>
<path d="M188.217 160.491C189.795 160.047 191.394 159.685 193.009 159.406C193.49 159.271 194.003 159.3 194.466 159.488C194.72 159.651 194.916 159.889 195.025 160.17C195.134 160.451 195.152 160.76 195.075 161.051C194.905 161.633 194.526 162.131 194.012 162.451C196.57 162.074 199.162 161.989 201.739 162.198C202.306 162.216 202.866 162.334 203.392 162.547C203.909 162.801 204.345 163.193 204.653 163.68C206.073 165.842 204.926 168.951 202.827 170.463C200.728 171.975 198.001 172.263 195.415 172.31C191.968 172.376 188.415 172.086 185.329 170.546C184.899 170.33 184.429 169.772 184.795 169.457L188.217 160.491Z" fill="white" stroke="black" stroke-miterlimit="10" stroke-linecap="round"/>
<path d="M141.709 104.595C141.506 104.993 141.436 105.446 141.511 105.886C141.585 106.326 141.799 106.731 142.122 107.04C142.714 107.707 143.522 108.14 144.172 108.752C144.991 109.557 145.523 110.61 145.686 111.747C145.849 112.884 145.633 114.043 145.072 115.046C146.608 115.184 147.491 116.846 147.906 118.333C148.863 121.755 148.666 125.877 146.055 128.288C144.922 129.255 143.584 129.95 142.142 130.322C141.058 130.662 139.935 130.861 138.801 130.914C133.921 131.073 129.401 127.402 127.78 122.797C127.134 120.961 126.884 119.01 127.046 117.071C127.208 115.131 127.779 113.248 128.72 111.545C129.661 109.842 130.952 108.357 132.507 107.188C134.063 106.019 135.848 105.192 137.746 104.761L141.709 104.595Z" fill="black" stroke="black" stroke-miterlimit="10"/>
<path d="M137.889 158.967C145.979 185.935 154.49 212.772 163.419 239.479C165.367 245.697 167.691 251.791 170.378 257.727C170.936 258.901 171.534 260.227 171.086 261.449C170.774 262.138 170.287 262.734 169.673 263.176C164.145 267.765 156.8 269.364 149.765 270.819C149.296 270.968 148.792 270.962 148.328 270.801C147.972 270.588 147.683 270.279 147.493 269.911C142.346 261.793 138.931 252.716 135.701 243.663C129.919 227.457 124.619 211.09 119.801 194.563C117.843 187.848 115.947 180.876 116.886 173.945C117.825 167.014 122.334 160.081 129.146 158.492L137.889 158.967Z" fill="#3E21EF"/>
<path d="M103.832 160.763C95.1761 196.288 88.7403 232.317 84.5618 268.641C84.4258 269.802 84.4448 271.266 85.4918 271.786C85.9153 271.955 86.3728 272.021 86.8268 271.979L111.709 271.609C111.942 271.646 112.18 271.631 112.406 271.567C112.633 271.502 112.843 271.389 113.021 271.235C113.2 271.08 113.342 270.889 113.439 270.674C113.536 270.459 113.585 270.226 113.582 269.99C121.92 237.759 126.488 204.669 127.197 171.384C127.271 167.95 126.713 164.531 125.55 161.299C124.375 158.28 125.808 156.099 122.594 155.699C119.468 155.309 116.394 157.083 113.257 156.807L103.832 160.763Z" fill="#3E21EF"/>
<path d="M211.592 287.646C213.118 287.179 215.004 283.467 214.955 281.872C214.804 280.273 214.194 278.752 213.197 277.493C212.203 276.244 211.301 274.924 210.497 273.545C209.883 272.305 209.545 270.947 209.505 269.563C209.466 268.18 209.727 266.805 210.27 265.532C211.133 263.546 212.717 261.502 211.987 259.464C211.557 258.534 210.894 257.73 210.062 257.131L194.93 244.154C190.562 248.461 185.194 254.767 180.83 259.073L211.592 287.646Z" fill="#FD58E0"/>
<path d="M203.632 259.816C202.94 262.287 202.632 264.851 202.719 267.416C202.728 268.22 202.831 269.021 203.025 269.801C203.463 271.41 204.497 272.792 205.918 273.665C207.339 274.538 209.039 274.837 210.672 274.501" stroke="black" stroke-miterlimit="10" stroke-linecap="round"/>
<path d="M249.276 270.468C249.468 276.241 248.918 282.268 249.625 288H289.807C290.172 285.962 288.893 283.919 287.357 282.53C286.229 281.512 284.942 280.686 283.546 280.087C281.646 279.274 279.573 278.887 277.77 277.882C274.156 275.868 272.29 271.802 270.656 268L249.276 270.468Z" fill="#FD58E0"/>
<path d="M282.764 279.93C282.598 280.448 282.328 280.926 281.972 281.336C281.615 281.746 281.179 282.08 280.69 282.317C279.707 282.785 278.629 283.019 277.54 283.001C275.672 282.992 273.831 282.557 272.156 281.729C270.482 280.902 269.018 279.703 267.877 278.224C266.756 276.731 265.95 275.026 265.506 273.212C265.062 271.399 264.99 269.514 265.294 267.672" stroke="black" stroke-miterlimit="10" stroke-linecap="round"/>
<path d="M265.418 175.379C270.358 205.806 273.038 236.557 273.436 267.379C273.506 267.835 273.475 268.301 273.347 268.745C273.218 269.188 272.995 269.599 272.692 269.947C272.179 270.293 271.576 270.481 270.958 270.486C262.939 271.319 254.9 271.903 246.84 272.237C246.538 272.34 246.215 272.364 245.902 272.308C245.588 272.252 245.294 272.117 245.047 271.916C244.8 271.715 244.608 271.454 244.489 271.158C244.371 270.862 244.329 270.541 244.369 270.225C241.381 239.453 238.416 208.678 235.474 177.901C235.313 177.11 235.413 176.288 235.761 175.56C236.264 174.922 236.974 174.478 237.768 174.305C244.001 172.3 250.709 172.32 256.931 174.362L265.418 175.379Z" fill="#2B8AFC"/>
<path d="M248.784 174.751C245.571 196.384 239.924 217.585 231.953 237.951C228.016 248.004 223.365 258.066 215.78 265.751C215.055 266.613 214.102 267.254 213.031 267.6C211.811 267.763 210.571 267.554 209.473 267C203.248 264.525 197.474 261.04 192.384 256.686C189.684 254.377 186.974 251.106 187.877 247.673C188.484 246.012 189.478 244.52 190.777 243.32C195.877 237.671 200.105 231.292 203.32 224.394C206.091 218.075 208.429 211.576 210.32 204.94C214.052 192.883 217.794 180.782 219.876 168.333C219.903 167.671 220.181 167.044 220.654 166.579C221.198 166.273 221.837 166.179 222.447 166.316C229.725 167.111 236.754 169.43 243.076 173.122L248.784 174.751Z" fill="#2B8AFC"/>
<path d="M265.09 123.196C275.212 126.068 284.225 131.602 288.578 142.591C283.278 145.991 279.578 149.731 275.386 154.432C273.367 152.572 271.62 150.436 270.197 148.088C268.631 157.148 267.058 166.33 267.84 175.488C267.894 175.736 267.848 175.994 267.714 176.209C267.571 176.345 267.389 176.433 267.194 176.461C258.915 178.478 250.181 177.692 241.865 175.832C233.549 173.972 225.508 171.066 217.293 168.801C218.301 154.813 220.285 142.217 225.615 129.246C226.238 127.44 227.233 125.784 228.535 124.386C230.535 122.486 233.406 121.849 236.146 121.515C243.607 120.606 251.266 119.856 258.409 122.196L265.09 123.196Z" fill="#3E21EF"/>
<path d="M267.089 123.285C267.507 121.256 268.577 119.419 270.136 118.055C270.716 116.323 270.053 114.432 269.278 112.776C268.936 111.97 268.48 111.217 267.924 110.54C267.363 109.949 266.724 109.438 266.024 109.021C265.266 108.453 264.373 108.091 263.433 107.972C262.716 107.996 262.016 108.191 261.39 108.541C260.763 108.89 260.23 109.384 259.833 109.981C259.033 111.012 255.964 119.925 254.803 120.755C254.678 120.816 254.575 120.914 254.507 121.035C254.44 121.157 254.411 121.296 254.425 121.434C254.384 122.409 254.478 123.385 254.706 124.334C254.847 125.029 255.123 125.689 255.519 126.278C255.892 126.778 256.356 127.204 256.887 127.532C258.013 128.241 259.305 128.643 260.635 128.698C261.965 128.753 263.285 128.46 264.467 127.847C265.001 127.581 265.474 127.206 265.855 126.747C266.332 126.024 266.654 125.21 266.8 124.356C266.894 124.003 266.987 123.642 267.089 123.285Z" fill="white" stroke="black" stroke-miterlimit="10" stroke-linecap="round"/>
<path d="M276.476 102.935C277.819 108.287 277.18 113.944 274.676 118.861C274.056 120.149 273.094 121.242 271.895 122.021C271.359 122.319 270.78 122.531 270.179 122.651C268.586 122.955 266.938 122.756 265.462 122.084C263.987 121.411 262.756 120.297 261.94 118.896C261.382 117.832 261.004 116.683 260.819 115.496C260.538 113.93 260.453 112.334 260.565 110.747C260.602 110.52 260.58 110.288 260.5 110.072C260.39 109.882 260.226 109.729 260.028 109.633C259.156 109.133 259.578 108.617 258.698 108.128C258.071 107.779 257.544 107.275 257.167 106.664C256.756 105.923 256.534 105.092 256.52 104.245C256.506 103.398 256.701 102.56 257.087 101.806C257.818 100.283 257.67 99.4531 259.113 98.5751C259.918 98.0756 260.785 97.6814 261.69 97.4021C263.429 96.945 265.239 96.8319 267.021 97.0691C268.695 97.1793 270.329 97.6237 271.828 98.3761C272.575 98.7569 273.235 99.2874 273.767 99.9347C274.3 100.582 274.693 101.332 274.923 102.138L276.476 102.935Z" fill="white" stroke="black" stroke-miterlimit="10" stroke-linecap="round"/>
<path d="M238.715 129.417C237.937 127.619 237 125.893 235.915 124.261C235.651 123.815 235.309 123.421 234.904 123.098C233.662 122.212 231.935 122.761 230.573 123.45C224.875 126.354 220.343 131.121 217.731 136.958L235.838 145.945C235.981 146.039 236.155 146.075 236.324 146.045C236.518 145.983 236.61 145.767 236.673 145.574C237.021 144.498 237.197 143.374 237.194 142.243" fill="#0016F7"/>
<path d="M238.715 129.417C237.937 127.619 237 125.893 235.915 124.261C235.651 123.815 235.309 123.421 234.904 123.098C233.662 122.212 231.935 122.761 230.573 123.45C224.875 126.354 220.343 131.121 217.731 136.958L235.838 145.945C235.981 146.039 236.155 146.075 236.324 146.045C236.518 145.983 236.61 145.767 236.673 145.574C237.021 144.498 237.197 143.374 237.194 142.243" stroke="black" stroke-linecap="round"/>
<path d="M218.23 137.124C224.607 139.982 230.877 143.066 237.039 146.376C237.059 145.291 236.844 144.214 236.407 143.22C234.935 139.091 233.173 134.609 229.331 132.5C227.013 131.227 223.771 131.186 222.019 133.168" fill="#0016F7"/>
<path d="M218.23 137.124C224.607 139.982 230.877 143.066 237.039 146.376C237.059 145.291 236.844 144.214 236.407 143.22C234.935 139.091 233.173 134.609 229.331 132.5C227.013 131.227 223.771 131.186 222.019 133.168" stroke="black" stroke-linecap="round"/>
<path d="M239.246 216.978C244.365 207.312 247.222 196.609 247.602 185.678" stroke="black" stroke-miterlimit="10" stroke-linecap="round"/>
<path d="M277.834 277.928C277.009 278.717 276.501 279.78 276.405 280.918" stroke="black" stroke-miterlimit="10" stroke-linecap="round"/>
<path d="M274.417 275.09C273.482 275.259 272.651 275.79 272.105 276.568C271.729 276.957 271.484 277.454 271.405 277.989C271.395 277.983 271.388 277.975 271.383 277.964C271.378 277.954 271.377 277.943 271.38 277.932C271.382 277.92 271.388 277.91 271.396 277.903C271.404 277.895 271.415 277.89 271.426 277.889" stroke="black" stroke-miterlimit="10" stroke-linecap="round"/>
<path d="M272.482 272.084C271.602 272.182 270.747 272.441 269.961 272.848C269.171 273.26 268.541 273.924 268.17 274.734" stroke="black" stroke-miterlimit="10" stroke-linecap="round"/>
<path d="M209.565 271.783C209.018 271.387 208.395 271.108 207.736 270.962C207.077 270.817 206.395 270.808 205.732 270.936" stroke="black" stroke-miterlimit="10" stroke-linecap="round"/>
<path d="M209.342 267.856C207.703 266.766 205.703 266.359 203.768 266.721" stroke="black" stroke-miterlimit="10" stroke-linecap="round"/>
<path d="M272.77 111.447L273.087 114.696C273.161 115.054 273.114 115.426 272.955 115.754C272.755 116.06 272.246 116.171 272.048 115.867" stroke="black" stroke-miterlimit="10" stroke-linecap="round"/>
<path d="M272.615 118.362C272.278 118.628 271.889 118.821 271.474 118.93C271.058 119.038 270.625 119.059 270.201 118.992C269.777 118.925 269.371 118.771 269.009 118.539C268.648 118.308 268.338 118.004 268.099 117.647" stroke="black" stroke-miterlimit="10" stroke-linecap="round"/>
<path d="M250.956 189.967C249.661 193.067 248.021 196.011 246.066 198.743" stroke="black" stroke-miterlimit="10" stroke-linecap="round"/>
<path d="M230.874 179.505C229.377 181.21 227.476 182.514 225.347 183.297C223.217 184.081 220.925 184.32 218.679 183.992" stroke="black" stroke-miterlimit="10" stroke-linecap="round"/>
<path d="M190.577 243.82C194.634 248.852 199.69 252.988 205.424 255.97" stroke="black" stroke-miterlimit="10" stroke-linecap="round"/>
<path d="M218.345 262.408C216.403 261.829 214.57 260.931 212.922 259.751" stroke="black" stroke-miterlimit="10" stroke-linecap="round"/>
<path d="M273.247 264.333C270.755 264.886 268.203 265.118 265.653 265.023" stroke="black" stroke-miterlimit="10" stroke-linecap="round"/>
<path d="M259.421 264.962C254.388 265.262 249.121 265.516 244.088 265.728" stroke="black" stroke-miterlimit="10" stroke-linecap="round"/>
<path d="M263.69 106.244C263.592 105.702 263.637 105.143 263.821 104.624C264.005 104.105 264.322 103.643 264.739 103.283C265.129 103.07 265.548 102.916 265.983 102.827C266.517 102.722 267.025 102.51 267.475 102.203C267.925 101.897 268.308 101.503 268.602 101.045C269.877 102.854 272.158 103.625 274.315 104.119C275.479 104.425 276.678 104.57 277.881 104.551C278.661 104.565 279.434 104.397 280.138 104.062C280.843 103.727 281.46 103.232 281.941 102.618C282.422 102.004 282.754 101.287 282.911 100.523C283.068 99.7584 283.046 98.9682 282.846 98.214C282.741 97.4351 282.443 96.6948 281.979 96.06C281.746 95.7447 281.447 95.4834 281.104 95.2936C280.761 95.1038 280.38 94.99 279.989 94.9601C280.019 94.5384 279.958 94.1153 279.812 93.7187C279.666 93.3222 279.437 92.9614 279.14 92.6601C278.542 92.0606 277.827 91.5902 277.04 91.2781C275.719 90.6442 274.277 90.3051 272.812 90.2842C271.347 90.2633 269.895 90.5611 268.556 91.157C268.415 91.2385 268.263 91.2994 268.105 91.3381C267.817 91.3575 267.529 91.3113 267.261 91.2031C266.531 91.0048 265.762 91.002 265.03 91.1951C264.299 91.3882 263.631 91.7703 263.094 92.303C262.961 92.4703 262.789 92.6033 262.594 92.691C262.447 92.7277 262.295 92.7372 262.144 92.719C261.109 92.6431 260.07 92.7951 259.1 93.1644C258.129 93.5336 257.252 94.1111 256.529 94.8561C255.479 96.0895 254.868 97.6375 254.794 99.256C254.726 100.865 254.945 102.474 255.44 104.006C255.484 104.119 255.5 104.241 255.487 104.362C255.448 104.497 255.374 104.619 255.273 104.716C254.705 105.387 254.297 106.18 254.081 107.032C253.865 107.885 253.847 108.776 254.027 109.637C254.207 110.498 254.581 111.307 255.121 112.001C255.661 112.696 256.352 113.258 257.142 113.645C257.561 113.885 258.03 114.025 258.512 114.056C258.994 114.086 259.476 114.006 259.922 113.821C260.072 113.754 260.199 113.647 260.291 113.511C260.379 113.318 260.414 113.104 260.391 112.893C260.391 111.562 260.704 110.25 261.303 109.062C260.741 109.084 260.183 108.969 259.674 108.73C259.165 108.49 258.722 108.131 258.381 107.684C258.052 107.228 257.864 106.685 257.84 106.123C257.817 105.561 257.959 105.004 258.248 104.522C258.559 104.054 259.022 103.707 259.559 103.54C260.095 103.373 260.673 103.396 261.195 103.605C261.7 103.85 262.088 104.284 262.274 104.814C262.46 105.343 262.43 105.925 262.189 106.432L263.69 106.244Z" fill="black" stroke="black" stroke-miterlimit="10" stroke-linecap="round"/>
<path d="M120.757 118.124C114.284 114.218 105.621 115.482 99.3199 119.661C93.0189 123.84 88.736 130.45 85.468 137.269C83.568 141.239 81.926 145.427 81.62 149.819C81.314 154.211 82.4969 158.867 85.5899 162C86.8322 163.209 88.2536 164.218 89.8039 164.993C98.3579 169.476 108.823 169.048 117.97 165.952C119.799 165.221 121.7 164.687 123.642 164.358C126.435 164.165 129.238 164.169 132.031 164.371C141.421 164.634 137.763 158.249 140.552 152.579C152.528 164.338 169.462 172.866 186.226 172.092C186.555 172.107 186.881 172.026 187.165 171.858C187.431 171.613 187.612 171.291 187.684 170.937C188.702 167.656 189.635 164.35 190.484 161.019C190.595 160.804 190.656 160.566 190.663 160.324C190.67 160.082 190.622 159.842 190.523 159.621C190.424 159.4 190.276 159.204 190.091 159.048C189.906 158.891 189.688 158.779 189.453 158.719C176.063 151.863 161.8 144.964 153.309 132.546C151.038 129.225 149.153 125.481 145.909 123.098C141.766 120.053 136.26 119.83 131.118 119.725L120.757 118.124Z" fill="#FD58E0"/>
<path d="M124.849 103.72C124.071 108.122 122.747 112.41 120.908 116.484C120.624 116.98 120.483 117.545 120.501 118.116C120.6 118.489 120.776 118.836 121.017 119.137C121.258 119.438 121.559 119.686 121.901 119.864C124.777 121.799 128.555 122.77 131.754 121.436C132.163 121.282 132.537 121.048 132.854 120.747C133.674 119.905 133.628 118.573 133.533 117.402C133.281 114.302 133.073 111.085 134.157 108.17C134.387 107.666 134.545 107.133 134.626 106.585C134.615 105.926 134.392 105.287 133.991 104.763C133.59 104.239 133.032 103.858 132.398 103.675C131.118 103.338 129.77 103.354 128.498 103.72H124.849Z" fill="white" stroke="black" stroke-miterlimit="10" stroke-linecap="round"/>
<path d="M143.968 91.8651C144.669 95.6542 144.455 99.5558 143.346 103.246C142.764 105.377 141.726 107.356 140.304 109.046C138.863 110.74 136.836 111.827 134.628 112.09C133.525 112.163 132.418 112.009 131.376 111.638C130.335 111.268 129.38 110.688 128.57 109.935C126.955 108.407 125.871 106.402 125.477 104.214C124.619 104.767 123.662 105.147 122.658 105.332C122.154 105.416 121.637 105.354 121.168 105.153C120.699 104.951 120.298 104.619 120.012 104.196C119.839 103.818 119.746 103.409 119.74 102.993C119.734 102.578 119.814 102.166 119.975 101.783C120.637 100.22 121.613 98.8084 122.842 97.637L125.451 94.791C127.663 92.377 129.951 89.9041 132.92 88.5161C135.889 87.1281 139.72 87.0781 142.154 89.2721L143.968 91.8651Z" fill="white" stroke="black" stroke-miterlimit="10" stroke-linecap="round"/>
<path d="M129.595 87.467C128.737 87.2567 127.984 86.7452 127.472 86.0256C126.959 85.3061 126.723 84.4264 126.805 83.547C126.924 82.6718 127.261 81.8404 127.785 81.1296C128.309 80.4187 129.004 79.8511 129.805 79.479C130.088 79.3351 130.385 79.2189 130.69 79.1321C131.457 78.9403 132.262 78.9724 133.011 79.2246C133.759 79.4768 134.42 79.9386 134.914 80.555C135.39 81.1852 135.69 81.9308 135.782 82.7152C135.875 83.4996 135.757 84.2945 135.44 85.018C135.107 85.7341 134.603 86.3573 133.973 86.8328C133.343 87.3083 132.605 87.6216 131.825 87.745C131.708 87.763 131.545 87.745 131.534 87.626" fill="black"/>
<path d="M129.595 87.467C128.737 87.2567 127.984 86.7452 127.472 86.0256C126.959 85.3061 126.723 84.4264 126.805 83.547C126.924 82.6718 127.261 81.8404 127.785 81.1296C128.309 80.4187 129.004 79.8511 129.805 79.479C130.088 79.3351 130.385 79.2189 130.69 79.1321C131.457 78.9403 132.262 78.9724 133.011 79.2246C133.759 79.4768 134.42 79.9386 134.914 80.555C135.39 81.1852 135.69 81.9308 135.782 82.7152C135.875 83.4996 135.757 84.2945 135.44 85.018C135.107 85.7341 134.603 86.3573 133.973 86.8328C133.343 87.3083 132.605 87.6216 131.825 87.745C131.708 87.763 131.545 87.745 131.534 87.626" stroke="black" stroke-miterlimit="10"/>
<path d="M132.089 80.527C132.582 80.2848 133.133 80.1836 133.68 80.2348C134.227 80.286 134.749 80.4875 135.189 80.8171C135.622 81.156 135.978 81.583 136.234 82.0698C136.489 82.5567 136.639 83.0922 136.672 83.6411C136.729 84.744 136.46 85.8395 135.9 86.7911" stroke="black" stroke-miterlimit="10" stroke-linecap="round"/>
<path d="M126.111 86.0041C126.537 86.4314 127.045 86.7685 127.604 86.9951C128.163 87.2217 128.762 87.3333 129.366 87.3231" stroke="black" stroke-miterlimit="10" stroke-linecap="round"/>
<path d="M120.756 118.124C122.282 116.063 123.526 113.809 124.456 111.419C125.225 109.097 125.573 106.655 125.481 104.21C124.926 104.421 124.327 104.484 123.741 104.393C123.155 104.303 122.602 104.063 122.137 103.695C121.698 103.39 121.368 102.953 121.195 102.448C121.021 101.943 121.013 101.395 121.171 100.885C121.234 100.348 121.47 99.8463 121.844 99.4561C122.219 99.0659 122.71 98.8085 123.244 98.7231C124.004 98.5861 124.999 98.631 125.099 99.651H126.214L126.563 97.6291C128.728 97.277 130.788 96.4467 132.593 95.1987C134.398 93.9506 135.901 92.3161 136.995 90.414C138.328 91.601 142.773 92.558 144.495 92.089C143.487 86.002 137.442 84.805 133.573 85.12C131.081 85.4183 128.789 86.6297 127.139 88.5201C125.511 90.4019 124.22 92.5499 123.322 94.87C122.544 96.7 121.764 98.7091 120.064 99.7411C119.048 100.357 117.823 100.541 116.772 101.093C115.948 101.542 115.26 102.203 114.779 103.008C114.298 103.814 114.042 104.733 114.037 105.671C114.073 105.924 114.024 106.182 113.899 106.405C113.633 106.753 113.099 106.637 112.672 106.521C111.556 106.202 110.379 106.163 109.245 106.408C108.112 106.654 107.056 107.175 106.172 107.927C105.31 108.705 104.707 109.727 104.444 110.857C104.18 111.988 104.268 113.171 104.697 114.25C103.751 114.474 102.862 114.892 102.086 115.478C101.309 116.063 100.663 116.802 100.187 117.65C99.86 118.249 99.6241 118.893 99.4868 119.561C105.767 115.463 114.338 114.25 120.756 118.124Z" fill="black" stroke="black" stroke-miterlimit="10"/>
<path d="M100.187 150.95C104.833 143.543 107.047 134.868 106.518 126.14" stroke="black" stroke-miterlimit="10" stroke-linecap="round"/>
<path d="M106.783 131.677C107.741 130.559 108.511 129.293 109.064 127.928" stroke="black" stroke-miterlimit="10" stroke-linecap="round"/>
<path d="M140.616 152.761C142.373 145.294 141.581 137.481 140.499 129.887" stroke="black" stroke-miterlimit="10" stroke-linecap="round"/>
<path d="M141.238 134.363C141.967 132.665 142.589 130.923 143.103 129.147" stroke="black" stroke-miterlimit="10" stroke-linecap="round"/>
<path d="M204.604 163.569C202.384 163.914 200.155 164.19 197.916 164.397" stroke="black" stroke-miterlimit="10" stroke-linecap="round"/>
<path d="M205.328 166.117C202.614 166.645 199.865 166.974 197.103 167.101" stroke="black" stroke-miterlimit="10" stroke-linecap="round"/>
<path d="M203.54 169.636C200.769 170.126 197.963 170.393 195.149 170.436" stroke="black" stroke-miterlimit="10" stroke-linecap="round"/>
<path d="M124.632 210.436C128.024 197.522 129.499 184.179 129.009 170.836" stroke="black" stroke-miterlimit="10" stroke-linecap="round"/>
<path d="M128.54 191.167C131.641 187.539 134.448 183.671 136.935 179.598" stroke="black" stroke-miterlimit="10" stroke-linecap="round"/>
<path d="M134.796 96.0041C135.792 95.6768 136.869 95.6976 137.852 96.0631" stroke="black" stroke-miterlimit="10" stroke-linecap="round"/>
<path d="M141.426 96.782C141.811 96.689 142.213 96.6975 142.594 96.8067C142.975 96.9159 143.321 97.1221 143.598 97.405" stroke="black" stroke-miterlimit="10" stroke-linecap="round"/>
<path d="M139.679 100.232C139.695 101.478 139.691 102.724 139.666 103.97C139.696 104.328 139.608 104.687 139.417 104.991C139.194 105.269 138.688 105.336 138.509 105.027" stroke="black" stroke-miterlimit="10" stroke-linecap="round"/>
<path d="M135.143 106.625C135.308 106.991 135.562 107.31 135.881 107.552C136.201 107.795 136.576 107.953 136.973 108.013C137.767 108.125 138.573 108.099 139.358 107.936" stroke="black" stroke-miterlimit="10" stroke-linecap="round"/>
<path d="M241.976 90.0376L151.345 114.322L181.61 227.272L272.241 202.987L241.976 90.0376Z" fill="white"/>
<path d="M242.33 89.4252L150.733 113.969L181.256 227.884L272.853 203.341L242.33 89.4252Z" stroke="black" stroke-miterlimit="10" stroke-linecap="round"/>
<path d="M270.268 148.393C270.413 152.144 270.558 153.893 270.702 157.645C270.714 157.954 271.15 161.614 270.702 161.554C266.537 161.529 262.378 161.208 258.259 160.593C255.652 160.334 253.07 159.874 250.534 159.218C250.534 159.218 249.325 156.689 247.834 155.862C246.641 155.221 245.377 154.723 244.067 154.379C243.539 154.199 242.966 154.202 242.441 154.389C241.916 154.575 241.469 154.934 241.173 155.406C240.99 155.769 240.906 156.216 240.573 156.448C240.183 156.719 239.659 156.567 239.189 156.504C238.504 156.452 237.817 156.562 237.182 156.823C236.547 157.085 235.982 157.491 235.533 158.01C234.643 159.056 233.955 160.258 233.504 161.554C232.746 163.435 232.104 165.57 232.868 167.448C233.819 169.787 236.519 170.792 238.929 171.543C241.216 172.256 244.348 170.954 246.67 171.543C257.538 174.3 268.258 176.286 279.112 173.475C280.948 173.103 282.689 172.36 284.229 171.292C286.059 169.671 287.372 167.548 288.007 165.187C289.877 159.535 290.174 153.48 288.866 147.672C288.372 145.495 287.113 141.298 285.6 139.657C284.06 137.986 282.281 139.023 280.01 139.082C278.871 139.119 277.753 139.395 276.729 139.893C275.704 140.391 274.796 141.1 274.064 141.972L270.268 148.393Z" fill="white" stroke="black" stroke-miterlimit="10" stroke-linecap="round"/>
<path d="M270.706 161.543C274.017 161.626 277.318 161.953 280.582 162.52" stroke="black" stroke-miterlimit="10" stroke-linecap="round"/>
<path d="M235.094 159.148C237.653 160.169 240.296 160.965 242.994 161.527" stroke="black" stroke-miterlimit="10" stroke-linecap="round"/>
<path d="M233.458 162.641C236.241 163.903 239.203 164.726 242.239 165.081" stroke="black" stroke-miterlimit="10" stroke-linecap="round"/>
<path d="M232.888 165.95C234.934 167.33 237.29 168.18 239.745 168.425" stroke="black" stroke-miterlimit="10" stroke-linecap="round"/>
<path d="M239.726 156.562C241.821 157.053 243.929 157.487 246.05 157.862" stroke="black" stroke-miterlimit="10" stroke-linecap="round"/>
<path d="M282.609 134.908C285.344 136.791 287.43 139.474 288.578 142.59C289.712 145.692 290.329 148.959 290.405 152.26C282.805 153.096 275.04 153.925 267.564 152.307C266.429 147.269 267.152 141.99 269.601 137.443" fill="#3E21EF"/>
<path d="M266.812 108.214C267.687 107.651 268.711 107.364 269.751 107.389" stroke="black" stroke-miterlimit="10" stroke-linecap="round"/>
<path d="M274.105 107.742C274.522 107.707 274.941 107.775 275.325 107.942C275.709 108.108 276.046 108.367 276.305 108.696" stroke="black" stroke-miterlimit="10" stroke-linecap="round"/>
<path d="M84.0721 190.224C83.406 189.72 82.8458 189.09 82.4233 188.37C82.0007 187.65 81.7242 186.853 81.6095 186.026C81.4949 185.199 81.5443 184.357 81.7549 183.549C81.9655 182.741 82.3332 181.982 82.8371 181.316L119.937 132.266L132.185 124.995L130.085 139.94L92.985 188.99C92.4811 189.657 91.8507 190.218 91.1299 190.64C90.4091 191.063 89.6121 191.34 88.7843 191.454C87.9566 191.569 87.1143 191.519 86.3057 191.308C85.4971 191.097 84.7381 190.729 84.0721 190.224V190.224Z" fill="white" stroke="black" stroke-miterlimit="10" stroke-linecap="round"/>
<path d="M119.941 132.265L130.091 139.935L93.0062 189.012C91.9892 190.357 90.4793 191.244 88.8085 191.477C87.1378 191.709 85.4431 191.269 84.0972 190.252V190.252C83.4307 189.748 82.8699 189.118 82.4468 188.398C82.0237 187.678 81.7466 186.881 81.6314 186.054C81.5162 185.227 81.565 184.385 81.7752 183.576C81.9854 182.768 82.3528 182.009 82.8564 181.342L119.941 132.265Z" fill="#98CEF7" stroke="black" stroke-width="1.00021" stroke-miterlimit="10" stroke-linecap="round"/>
<path d="M130.091 139.935L119.941 132.265L84.9114 178.622L95.0612 186.292L130.091 139.935Z" fill="white" stroke="black" stroke-width="1.00021" stroke-miterlimit="10" stroke-linecap="round"/>
<path d="M130.091 139.935L119.941 132.265L87.7817 174.824L97.9315 182.494L130.091 139.935Z" fill="#98CEF7" stroke="black" stroke-width="1.00021" stroke-miterlimit="10" stroke-linecap="round"/>
<path d="M122.567 148.385C124.409 146.842 126.399 145.486 128.509 144.336C129.158 144.01 130.019 143.736 130.543 144.236C131.143 144.811 130.73 145.809 130.291 146.513C131.503 145.807 132.806 145.269 134.163 144.913C134.843 144.738 135.552 144.702 136.246 144.807C136.94 144.912 137.607 145.155 138.205 145.523C138.779 145.943 139.243 146.497 139.557 147.136C139.87 147.775 140.024 148.48 140.005 149.192C139.946 150.625 139.347 151.982 138.329 152.992C137.262 153.987 136.011 154.764 134.646 155.279C132.186 156.335 128.94 157.669 126.304 157.197L122.567 148.385Z" fill="white" stroke="black" stroke-miterlimit="10" stroke-linecap="round"/>
<path d="M136.84 144.962C135.039 145.949 133.186 146.838 131.289 147.623" stroke="black" stroke-miterlimit="10" stroke-linecap="round"/>
<path d="M138.97 146.26C138.671 146.746 138.265 147.156 137.783 147.46C136.196 148.607 134.488 149.577 132.69 150.354" stroke="black" stroke-miterlimit="10" stroke-linecap="round"/>
<path d="M139.941 148.788C138.308 150.603 136.306 152.047 134.068 153.023" stroke="black" stroke-miterlimit="10" stroke-linecap="round"/>
<path d="M93.3589 166.309C101.959 167.482 110.693 165.589 118.946 162.902C121.404 162.222 123.745 161.172 125.887 159.787C126.106 159.66 126.278 159.466 126.379 159.234C126.422 159.047 126.42 158.852 126.372 158.666C125.808 155.493 124.721 152.435 123.154 149.619C122.798 148.98 122.335 148.294 121.616 148.155C121.23 148.111 120.839 148.152 120.47 148.274C110.962 150.667 101.151 151.63 91.3589 151.133" fill="#FD58E0"/>
<path d="M93.3589 166.309C101.959 167.482 110.693 165.589 118.946 162.902C121.404 162.222 123.745 161.172 125.887 159.787C126.106 159.66 126.278 159.466 126.379 159.234C126.422 159.047 126.42 158.852 126.372 158.666C125.808 155.493 124.721 152.435 123.154 149.619C122.798 148.98 122.335 148.294 121.616 148.155C121.23 148.111 120.839 148.152 120.47 148.274C110.962 150.667 101.151 151.63 91.3589 151.133" stroke="black" stroke-miterlimit="10" stroke-linecap="round"/>
<path d="M244.694 187.722L197.832 200.279C194.915 201.06 193.184 204.059 193.966 206.976L193.966 206.977C194.748 209.894 197.746 211.625 200.663 210.843L247.525 198.287C250.442 197.505 252.173 194.507 251.392 191.59L251.391 191.589C250.61 188.672 247.611 186.941 244.694 187.722Z" fill="#98CEF7"/>
<path d="M202.102 127.032C194.861 128.943 185.487 136.589 188.418 148.317C191.349 160.045 197.758 160.697 202.97 166.996C208.182 173.295 207.64 174.596 208.4 177.638C208.806 179.333 209.837 180.812 211.287 181.779C212.737 182.745 214.499 183.128 216.219 182.851C220.128 182.09 221.649 179.051 220.997 174.38C220.345 169.709 219.151 168.407 220.671 162.98C222.191 157.553 227.187 146.256 223.06 137.134C221.392 133.19 218.345 129.989 214.487 128.129C210.629 126.27 206.226 125.88 202.102 127.032V127.032Z" fill="#98CEF7"/>
<path d="M210.87 169.209C205.87 164.209 202.063 157.517 202.279 150.445C202.261 150.145 202.334 149.846 202.488 149.587C202.961 148.944 203.988 149.366 204.58 149.902C205.557 150.797 206.342 151.881 206.887 153.089C207.432 154.297 207.726 155.602 207.751 156.927C206.984 157.263 206.239 156.411 205.891 155.647C205.114 153.942 204.708 152.091 204.7 150.217C204.662 149.471 204.799 148.726 205.1 148.042C205.254 147.702 205.494 147.408 205.796 147.189C206.099 146.971 206.453 146.835 206.824 146.795C207.892 146.748 208.714 147.706 209.254 148.628C210.253 150.333 210.905 152.218 211.173 154.175C211.249 154.727 211.211 155.43 210.7 155.652C210.499 155.714 210.282 155.706 210.087 155.629C209.891 155.552 209.727 155.41 209.622 155.227C209.423 154.855 209.315 154.442 209.308 154.02C209.039 152.243 209.137 150.43 209.596 148.693C209.682 148.297 209.867 147.929 210.135 147.624C210.403 147.32 210.745 147.09 211.127 146.955C211.584 146.937 212.037 147.042 212.439 147.261C212.84 147.479 213.175 147.802 213.408 148.195C215.753 151.19 216.413 155.178 216.424 158.982C216.432 162.112 216.057 165.232 215.307 168.271" stroke="#2B8AFC" stroke-miterlimit="10" stroke-linecap="round"/>
<path d="M204.82 169.339C208.054 173.686 207.746 175.019 208.401 177.639C208.807 179.334 209.838 180.813 211.288 181.78C212.738 182.746 214.5 183.129 216.22 182.852C220.13 182.092 221.65 179.052 220.998 174.381C220.451 170.456 219.526 168.901 220.145 165.281L204.82 169.339Z" fill="#2B8AFF"/>
<path d="M267.406 151.823C267.298 151.223 267.258 150.614 267.285 150.005C267.231 147.398 267.398 144.79 267.785 142.211C268.177 139.621 269.221 137.172 270.819 135.096" stroke="black" stroke-miterlimit="10" stroke-linecap="round"/>
<path d="M268.234 139.824C268.189 137.761 268.171 135.584 269.182 133.786" stroke="black" stroke-miterlimit="10" stroke-linecap="round"/>
<path d="M270.499 152.912C267.899 152.367 267.344 151.848 267.42 151.787" stroke="black" stroke-miterlimit="10" stroke-linecap="round"/>
<path d="M137 99.5001C137.552 99.5001 138 99.0523 138 98.5001C138 97.9478 137.552 97.5001 137 97.5001C136.448 97.5001 136 97.9478 136 98.5001C136 99.0523 136.448 99.5001 137 99.5001Z" fill="black"/>
<path d="M142.5 100.5C143.052 100.5 143.5 100.052 143.5 99.5001C143.5 98.9478 143.052 98.5001 142.5 98.5001C141.948 98.5001 141.5 98.9478 141.5 99.5001C141.5 100.052 141.948 100.5 142.5 100.5Z" fill="black"/>
<path d="M269.501 110.5C270.053 110.5 270.501 110.052 270.501 109.5C270.501 108.948 270.053 108.5 269.501 108.5C268.949 108.5 268.501 108.948 268.501 109.5C268.501 110.052 268.949 110.5 269.501 110.5Z" fill="black"/>
<path d="M275.001 111C275.553 111 276.001 110.552 276.001 110C276.001 109.448 275.553 109 275.001 109C274.449 109 274.001 109.448 274.001 110C274.001 110.552 274.449 111 275.001 111Z" fill="black"/>
<path d="M241.976 90.0376L151.345 114.322L155.486 129.777L246.117 105.492L241.976 90.0376Z" fill="#98CEF7"/>
</svg>
