<svg width="600" height="321" viewBox="0 0 600 321" fill="none" xmlns="http://www.w3.org/2000/svg">
<rect width="600" height="320" fill="white"/>
<path d="M529 64.3818H71C35.6538 64.3818 7 93.0356 7 128.382V256.382C7 291.728 35.6538 320.382 71 320.382H529C564.346 320.382 593 291.728 593 256.382V128.382C593 93.0356 564.346 64.3818 529 64.3818Z" fill="white"/>
<path d="M529 64.8818H71C35.9299 64.8818 7.5 93.3118 7.5 128.382V256.382C7.5 291.452 35.9299 319.882 71 319.882H529C564.07 319.882 592.5 291.452 592.5 256.382V128.382C592.5 93.3118 564.07 64.8818 529 64.8818Z" stroke="black"/>
<path d="M353.531 154.968C353.32 156.772 352.652 158.167 351.527 159.151C350.41 160.128 348.922 160.616 347.062 160.616C345.047 160.616 343.43 159.894 342.211 158.448C341 157.003 340.395 155.069 340.395 152.647V151.007C340.395 149.421 340.676 148.026 341.238 146.823C341.809 145.62 342.613 144.698 343.652 144.058C344.691 143.409 345.895 143.085 347.262 143.085C349.074 143.085 350.527 143.593 351.621 144.608C352.715 145.616 353.352 147.015 353.531 148.804H351.27C351.074 147.444 350.648 146.46 349.992 145.851C349.344 145.241 348.434 144.937 347.262 144.937C345.824 144.937 344.695 145.468 343.875 146.53C343.062 147.593 342.656 149.104 342.656 151.065V152.718C342.656 154.569 343.043 156.042 343.816 157.136C344.59 158.229 345.672 158.776 347.062 158.776C348.312 158.776 349.27 158.495 349.934 157.933C350.605 157.362 351.051 156.374 351.27 154.968H353.531ZM355.699 153.925C355.699 152.683 355.941 151.565 356.426 150.573C356.918 149.581 357.598 148.815 358.465 148.276C359.34 147.737 360.336 147.468 361.453 147.468C363.18 147.468 364.574 148.065 365.637 149.261C366.707 150.456 367.242 152.046 367.242 154.03V154.183C367.242 155.417 367.004 156.526 366.527 157.511C366.059 158.487 365.383 159.249 364.5 159.796C363.625 160.343 362.617 160.616 361.477 160.616C359.758 160.616 358.363 160.019 357.293 158.823C356.23 157.628 355.699 156.046 355.699 154.077V153.925ZM357.879 154.183C357.879 155.589 358.203 156.718 358.852 157.569C359.508 158.421 360.383 158.847 361.477 158.847C362.578 158.847 363.453 158.417 364.102 157.558C364.75 156.69 365.074 155.479 365.074 153.925C365.074 152.534 364.742 151.409 364.078 150.55C363.422 149.683 362.547 149.249 361.453 149.249C360.383 149.249 359.52 149.675 358.863 150.526C358.207 151.378 357.879 152.597 357.879 154.183ZM372.316 160.382H370.148V142.382H372.316V160.382ZM378.152 160.382H375.984V142.382H378.152V160.382ZM389.461 160.382C389.336 160.132 389.234 159.687 389.156 159.046C388.148 160.093 386.945 160.616 385.547 160.616C384.297 160.616 383.27 160.265 382.465 159.562C381.668 158.851 381.27 157.952 381.27 156.866C381.27 155.546 381.77 154.522 382.77 153.796C383.777 153.062 385.191 152.694 387.012 152.694H389.121V151.698C389.121 150.94 388.895 150.339 388.441 149.894C387.988 149.44 387.32 149.214 386.438 149.214C385.664 149.214 385.016 149.409 384.492 149.8C383.969 150.19 383.707 150.663 383.707 151.218H381.527C381.527 150.585 381.75 149.976 382.195 149.39C382.648 148.796 383.258 148.327 384.023 147.983C384.797 147.64 385.645 147.468 386.566 147.468C388.027 147.468 389.172 147.835 390 148.569C390.828 149.296 391.258 150.3 391.289 151.581V157.417C391.289 158.581 391.438 159.507 391.734 160.194V160.382H389.461ZM385.863 158.729C386.543 158.729 387.188 158.554 387.797 158.202C388.406 157.851 388.848 157.394 389.121 156.831V154.229H387.422C384.766 154.229 383.438 155.007 383.438 156.562C383.438 157.241 383.664 157.772 384.117 158.155C384.57 158.538 385.152 158.729 385.863 158.729ZM405.422 154.183C405.422 156.12 404.977 157.679 404.086 158.858C403.195 160.03 402 160.616 400.5 160.616C398.898 160.616 397.66 160.05 396.785 158.917L396.68 160.382H394.688V142.382H396.855V149.097C397.73 148.011 398.938 147.468 400.477 147.468C402.016 147.468 403.223 148.05 404.098 149.214C404.98 150.378 405.422 151.972 405.422 153.995V154.183ZM403.254 153.937C403.254 152.46 402.969 151.319 402.398 150.515C401.828 149.71 401.008 149.308 399.938 149.308C398.508 149.308 397.48 149.972 396.855 151.3V156.784C397.52 158.112 398.555 158.776 399.961 158.776C401 158.776 401.809 158.374 402.387 157.569C402.965 156.765 403.254 155.554 403.254 153.937ZM407.59 153.925C407.59 152.683 407.832 151.565 408.316 150.573C408.809 149.581 409.488 148.815 410.355 148.276C411.23 147.737 412.227 147.468 413.344 147.468C415.07 147.468 416.465 148.065 417.527 149.261C418.598 150.456 419.133 152.046 419.133 154.03V154.183C419.133 155.417 418.895 156.526 418.418 157.511C417.949 158.487 417.273 159.249 416.391 159.796C415.516 160.343 414.508 160.616 413.367 160.616C411.648 160.616 410.254 160.019 409.184 158.823C408.121 157.628 407.59 156.046 407.59 154.077V153.925ZM409.77 154.183C409.77 155.589 410.094 156.718 410.742 157.569C411.398 158.421 412.273 158.847 413.367 158.847C414.469 158.847 415.344 158.417 415.992 157.558C416.641 156.69 416.965 155.479 416.965 153.925C416.965 152.534 416.633 151.409 415.969 150.55C415.312 149.683 414.438 149.249 413.344 149.249C412.273 149.249 411.41 149.675 410.754 150.526C410.098 151.378 409.77 152.597 409.77 154.183ZM427.98 149.647C427.652 149.593 427.297 149.565 426.914 149.565C425.492 149.565 424.527 150.171 424.02 151.382V160.382H421.852V147.702H423.961L423.996 149.167C424.707 148.034 425.715 147.468 427.02 147.468C427.441 147.468 427.762 147.522 427.98 147.632V149.647ZM437.344 160.382C437.219 160.132 437.117 159.687 437.039 159.046C436.031 160.093 434.828 160.616 433.43 160.616C432.18 160.616 431.152 160.265 430.348 159.562C429.551 158.851 429.152 157.952 429.152 156.866C429.152 155.546 429.652 154.522 430.652 153.796C431.66 153.062 433.074 152.694 434.895 152.694H437.004V151.698C437.004 150.94 436.777 150.339 436.324 149.894C435.871 149.44 435.203 149.214 434.32 149.214C433.547 149.214 432.898 149.409 432.375 149.8C431.852 150.19 431.59 150.663 431.59 151.218H429.41C429.41 150.585 429.633 149.976 430.078 149.39C430.531 148.796 431.141 148.327 431.906 147.983C432.68 147.64 433.527 147.468 434.449 147.468C435.91 147.468 437.055 147.835 437.883 148.569C438.711 149.296 439.141 150.3 439.172 151.581V157.417C439.172 158.581 439.32 159.507 439.617 160.194V160.382H437.344ZM433.746 158.729C434.426 158.729 435.07 158.554 435.68 158.202C436.289 157.851 436.73 157.394 437.004 156.831V154.229H435.305C432.648 154.229 431.32 155.007 431.32 156.562C431.32 157.241 431.547 157.772 432 158.155C432.453 158.538 433.035 158.729 433.746 158.729ZM445.512 144.632V147.702H447.879V149.378H445.512V157.241C445.512 157.749 445.617 158.132 445.828 158.39C446.039 158.64 446.398 158.765 446.906 158.765C447.156 158.765 447.5 158.718 447.938 158.624V160.382C447.367 160.538 446.812 160.616 446.273 160.616C445.305 160.616 444.574 160.323 444.082 159.737C443.59 159.151 443.344 158.319 443.344 157.241V149.378H441.035V147.702H443.344V144.632H445.512ZM455.684 160.616C453.965 160.616 452.566 160.054 451.488 158.929C450.41 157.796 449.871 156.284 449.871 154.394V153.995C449.871 152.737 450.109 151.616 450.586 150.632C451.07 149.64 451.742 148.866 452.602 148.312C453.469 147.749 454.406 147.468 455.414 147.468C457.062 147.468 458.344 148.011 459.258 149.097C460.172 150.183 460.629 151.737 460.629 153.761V154.663H452.039C452.07 155.913 452.434 156.925 453.129 157.698C453.832 158.464 454.723 158.847 455.801 158.847C456.566 158.847 457.215 158.69 457.746 158.378C458.277 158.065 458.742 157.651 459.141 157.136L460.465 158.167C459.402 159.8 457.809 160.616 455.684 160.616ZM455.414 149.249C454.539 149.249 453.805 149.569 453.211 150.21C452.617 150.843 452.25 151.733 452.109 152.882H458.461V152.718C458.398 151.616 458.102 150.765 457.57 150.163C457.039 149.554 456.32 149.249 455.414 149.249Z" fill="#373E5F"/>
<path d="M341.828 189.155H347.219V190.382H340.32V179.007H341.828V189.155ZM348.32 186.077C348.32 185.249 348.482 184.504 348.805 183.843C349.133 183.181 349.586 182.671 350.164 182.312C350.747 181.952 351.411 181.772 352.156 181.772C353.307 181.772 354.237 182.171 354.945 182.968C355.659 183.765 356.016 184.825 356.016 186.147V186.249C356.016 187.072 355.857 187.812 355.539 188.468C355.227 189.119 354.776 189.627 354.188 189.991C353.604 190.356 352.932 190.538 352.172 190.538C351.026 190.538 350.096 190.14 349.383 189.343C348.674 188.546 348.32 187.491 348.32 186.179V186.077ZM349.773 186.249C349.773 187.187 349.99 187.939 350.422 188.507C350.859 189.075 351.443 189.358 352.172 189.358C352.906 189.358 353.49 189.072 353.922 188.499C354.354 187.921 354.57 187.114 354.57 186.077C354.57 185.15 354.349 184.4 353.906 183.827C353.469 183.249 352.885 182.96 352.156 182.96C351.443 182.96 350.867 183.244 350.43 183.812C349.992 184.379 349.773 185.192 349.773 186.249ZM361.914 183.226C361.695 183.189 361.458 183.171 361.203 183.171C360.255 183.171 359.612 183.575 359.273 184.382V190.382H357.828V181.929H359.234L359.258 182.905C359.732 182.15 360.404 181.772 361.273 181.772C361.555 181.772 361.768 181.809 361.914 181.882V183.226ZM366.602 190.538C365.456 190.538 364.523 190.163 363.805 189.413C363.086 188.658 362.727 187.65 362.727 186.39V186.124C362.727 185.285 362.885 184.538 363.203 183.882C363.526 183.22 363.974 182.705 364.547 182.335C365.125 181.96 365.75 181.772 366.422 181.772C367.521 181.772 368.375 182.134 368.984 182.858C369.594 183.582 369.898 184.619 369.898 185.968V186.569H364.172C364.193 187.403 364.435 188.077 364.898 188.593C365.367 189.103 365.961 189.358 366.68 189.358C367.19 189.358 367.622 189.254 367.977 189.046C368.331 188.838 368.641 188.562 368.906 188.218L369.789 188.905C369.081 189.994 368.018 190.538 366.602 190.538ZM366.422 182.96C365.839 182.96 365.349 183.174 364.953 183.601C364.557 184.022 364.312 184.616 364.219 185.382H368.453V185.272C368.411 184.538 368.214 183.97 367.859 183.569C367.505 183.163 367.026 182.96 366.422 182.96ZM372.938 181.929L372.977 182.866C373.596 182.137 374.432 181.772 375.484 181.772C376.667 181.772 377.471 182.226 377.898 183.132C378.18 182.726 378.544 182.397 378.992 182.147C379.445 181.897 379.979 181.772 380.594 181.772C382.448 181.772 383.391 182.754 383.422 184.718V190.382H381.977V184.804C381.977 184.2 381.839 183.749 381.562 183.452C381.286 183.15 380.823 182.999 380.172 182.999C379.635 182.999 379.19 183.16 378.836 183.483C378.482 183.801 378.276 184.231 378.219 184.772V190.382H376.766V184.843C376.766 183.614 376.164 182.999 374.961 182.999C374.013 182.999 373.365 183.403 373.016 184.21V190.382H371.57V181.929H372.938ZM391.148 190.382H389.703V181.929H391.148V190.382ZM389.586 179.687C389.586 179.452 389.656 179.254 389.797 179.093C389.943 178.931 390.156 178.851 390.438 178.851C390.719 178.851 390.932 178.931 391.078 179.093C391.224 179.254 391.297 179.452 391.297 179.687C391.297 179.921 391.224 180.116 391.078 180.272C390.932 180.429 390.719 180.507 390.438 180.507C390.156 180.507 389.943 180.429 389.797 180.272C389.656 180.116 389.586 179.921 389.586 179.687ZM400.609 186.249C400.609 187.535 400.315 188.572 399.727 189.358C399.138 190.145 398.341 190.538 397.336 190.538C396.31 190.538 395.503 190.213 394.914 189.562V193.632H393.469V181.929H394.789L394.859 182.866C395.448 182.137 396.266 181.772 397.312 181.772C398.328 181.772 399.13 182.155 399.719 182.921C400.312 183.687 400.609 184.752 400.609 186.116V186.249ZM399.164 186.085C399.164 185.132 398.961 184.379 398.555 183.827C398.148 183.275 397.591 182.999 396.883 182.999C396.008 182.999 395.352 183.387 394.914 184.163V188.202C395.346 188.973 396.008 189.358 396.898 189.358C397.591 189.358 398.141 189.085 398.547 188.538C398.958 187.986 399.164 187.168 399.164 186.085ZM407.375 188.14C407.375 187.749 407.227 187.447 406.93 187.233C406.638 187.015 406.125 186.827 405.391 186.671C404.661 186.515 404.081 186.327 403.648 186.108C403.221 185.89 402.904 185.629 402.695 185.327C402.492 185.025 402.391 184.666 402.391 184.249C402.391 183.556 402.682 182.97 403.266 182.491C403.854 182.012 404.604 181.772 405.516 181.772C406.474 181.772 407.25 182.02 407.844 182.515C408.443 183.009 408.742 183.642 408.742 184.413H407.289C407.289 184.017 407.12 183.676 406.781 183.39C406.448 183.103 406.026 182.96 405.516 182.96C404.99 182.96 404.578 183.075 404.281 183.304C403.984 183.533 403.836 183.832 403.836 184.202C403.836 184.551 403.974 184.814 404.25 184.991C404.526 185.168 405.023 185.338 405.742 185.499C406.466 185.66 407.052 185.853 407.5 186.077C407.948 186.301 408.279 186.572 408.492 186.89C408.711 187.202 408.82 187.585 408.82 188.038C408.82 188.793 408.518 189.4 407.914 189.858C407.31 190.312 406.526 190.538 405.562 190.538C404.885 190.538 404.286 190.418 403.766 190.179C403.245 189.939 402.836 189.606 402.539 189.179C402.247 188.746 402.102 188.28 402.102 187.78H403.547C403.573 188.265 403.766 188.65 404.125 188.937C404.49 189.218 404.969 189.358 405.562 189.358C406.109 189.358 406.547 189.249 406.875 189.03C407.208 188.806 407.375 188.509 407.375 188.14ZM415.922 189.546C415.359 190.207 414.534 190.538 413.445 190.538C412.544 190.538 411.857 190.278 411.383 189.757C410.914 189.231 410.677 188.455 410.672 187.429V181.929H412.117V187.39C412.117 188.671 412.638 189.312 413.68 189.312C414.784 189.312 415.518 188.9 415.883 188.077V181.929H417.328V190.382H415.953L415.922 189.546ZM420.891 181.929L420.93 182.866C421.549 182.137 422.385 181.772 423.438 181.772C424.62 181.772 425.424 182.226 425.852 183.132C426.133 182.726 426.497 182.397 426.945 182.147C427.398 181.897 427.932 181.772 428.547 181.772C430.401 181.772 431.344 182.754 431.375 184.718V190.382H429.93V184.804C429.93 184.2 429.792 183.749 429.516 183.452C429.24 183.15 428.776 182.999 428.125 182.999C427.589 182.999 427.143 183.16 426.789 183.483C426.435 183.801 426.229 184.231 426.172 184.772V190.382H424.719V184.843C424.719 183.614 424.117 182.999 422.914 182.999C421.966 182.999 421.318 183.403 420.969 184.21V190.382H419.523V181.929H420.891ZM437.18 186.085C437.18 184.788 437.487 183.746 438.102 182.96C438.716 182.168 439.521 181.772 440.516 181.772C441.505 181.772 442.289 182.111 442.867 182.788V178.382H444.312V190.382H442.984L442.914 189.476C442.336 190.184 441.531 190.538 440.5 190.538C439.521 190.538 438.721 190.137 438.102 189.335C437.487 188.533 437.18 187.486 437.18 186.194V186.085ZM438.625 186.249C438.625 187.207 438.823 187.957 439.219 188.499C439.615 189.041 440.161 189.312 440.859 189.312C441.776 189.312 442.445 188.9 442.867 188.077V184.194C442.435 183.397 441.771 182.999 440.875 182.999C440.167 182.999 439.615 183.272 439.219 183.819C438.823 184.366 438.625 185.176 438.625 186.249ZM446.18 186.077C446.18 185.249 446.341 184.504 446.664 183.843C446.992 183.181 447.445 182.671 448.023 182.312C448.607 181.952 449.271 181.772 450.016 181.772C451.167 181.772 452.096 182.171 452.805 182.968C453.518 183.765 453.875 184.825 453.875 186.147V186.249C453.875 187.072 453.716 187.812 453.398 188.468C453.086 189.119 452.635 189.627 452.047 189.991C451.464 190.356 450.792 190.538 450.031 190.538C448.885 190.538 447.956 190.14 447.242 189.343C446.534 188.546 446.18 187.491 446.18 186.179V186.077ZM447.633 186.249C447.633 187.187 447.849 187.939 448.281 188.507C448.719 189.075 449.302 189.358 450.031 189.358C450.766 189.358 451.349 189.072 451.781 188.499C452.214 187.921 452.43 187.114 452.43 186.077C452.43 185.15 452.208 184.4 451.766 183.827C451.328 183.249 450.745 182.96 450.016 182.96C449.302 182.96 448.727 183.244 448.289 183.812C447.852 184.379 447.633 185.192 447.633 186.249ZM457.258 190.382H455.812V178.382H457.258V190.382ZM459.195 186.077C459.195 185.249 459.357 184.504 459.68 183.843C460.008 183.181 460.461 182.671 461.039 182.312C461.622 181.952 462.286 181.772 463.031 181.772C464.182 181.772 465.112 182.171 465.82 182.968C466.534 183.765 466.891 184.825 466.891 186.147V186.249C466.891 187.072 466.732 187.812 466.414 188.468C466.102 189.119 465.651 189.627 465.062 189.991C464.479 190.356 463.807 190.538 463.047 190.538C461.901 190.538 460.971 190.14 460.258 189.343C459.549 188.546 459.195 187.491 459.195 186.179V186.077ZM460.648 186.249C460.648 187.187 460.865 187.939 461.297 188.507C461.734 189.075 462.318 189.358 463.047 189.358C463.781 189.358 464.365 189.072 464.797 188.499C465.229 187.921 465.445 187.114 465.445 186.077C465.445 185.15 465.224 184.4 464.781 183.827C464.344 183.249 463.76 182.96 463.031 182.96C462.318 182.96 461.742 183.244 461.305 183.812C460.867 184.379 460.648 185.192 460.648 186.249ZM472.789 183.226C472.57 183.189 472.333 183.171 472.078 183.171C471.13 183.171 470.487 183.575 470.148 184.382V190.382H468.703V181.929H470.109L470.133 182.905C470.607 182.15 471.279 181.772 472.148 181.772C472.43 181.772 472.643 181.809 472.789 181.882V183.226ZM483.016 188.14C483.016 187.749 482.867 187.447 482.57 187.233C482.279 187.015 481.766 186.827 481.031 186.671C480.302 186.515 479.721 186.327 479.289 186.108C478.862 185.89 478.544 185.629 478.336 185.327C478.133 185.025 478.031 184.666 478.031 184.249C478.031 183.556 478.323 182.97 478.906 182.491C479.495 182.012 480.245 181.772 481.156 181.772C482.115 181.772 482.891 182.02 483.484 182.515C484.083 183.009 484.383 183.642 484.383 184.413H482.93C482.93 184.017 482.76 183.676 482.422 183.39C482.089 183.103 481.667 182.96 481.156 182.96C480.63 182.96 480.219 183.075 479.922 183.304C479.625 183.533 479.477 183.832 479.477 184.202C479.477 184.551 479.615 184.814 479.891 184.991C480.167 185.168 480.664 185.338 481.383 185.499C482.107 185.66 482.693 185.853 483.141 186.077C483.589 186.301 483.919 186.572 484.133 186.89C484.352 187.202 484.461 187.585 484.461 188.038C484.461 188.793 484.159 189.4 483.555 189.858C482.951 190.312 482.167 190.538 481.203 190.538C480.526 190.538 479.927 190.418 479.406 190.179C478.885 189.939 478.477 189.606 478.18 189.179C477.888 188.746 477.742 188.28 477.742 187.78H479.188C479.214 188.265 479.406 188.65 479.766 188.937C480.13 189.218 480.609 189.358 481.203 189.358C481.75 189.358 482.188 189.249 482.516 189.03C482.849 188.806 483.016 188.509 483.016 188.14ZM487.914 190.382H486.469V181.929H487.914V190.382ZM486.352 179.687C486.352 179.452 486.422 179.254 486.562 179.093C486.708 178.931 486.922 178.851 487.203 178.851C487.484 178.851 487.698 178.931 487.844 179.093C487.99 179.254 488.062 179.452 488.062 179.687C488.062 179.921 487.99 180.116 487.844 180.272C487.698 180.429 487.484 180.507 487.203 180.507C486.922 180.507 486.708 180.429 486.562 180.272C486.422 180.116 486.352 179.921 486.352 179.687ZM492.195 179.882V181.929H493.773V183.046H492.195V188.288C492.195 188.627 492.266 188.882 492.406 189.054C492.547 189.22 492.786 189.304 493.125 189.304C493.292 189.304 493.521 189.272 493.812 189.21V190.382C493.432 190.486 493.062 190.538 492.703 190.538C492.057 190.538 491.57 190.343 491.242 189.952C490.914 189.562 490.75 189.007 490.75 188.288V183.046H489.211V181.929H490.75V179.882H492.195ZM504.656 190.382C504.573 190.215 504.505 189.918 504.453 189.491C503.781 190.189 502.979 190.538 502.047 190.538C501.214 190.538 500.529 190.304 499.992 189.835C499.461 189.361 499.195 188.762 499.195 188.038C499.195 187.158 499.529 186.476 500.195 185.991C500.867 185.502 501.81 185.257 503.023 185.257H504.43V184.593C504.43 184.088 504.279 183.687 503.977 183.39C503.674 183.088 503.229 182.937 502.641 182.937C502.125 182.937 501.693 183.067 501.344 183.327C500.995 183.588 500.82 183.903 500.82 184.272H499.367C499.367 183.851 499.516 183.444 499.812 183.054C500.115 182.658 500.521 182.345 501.031 182.116C501.547 181.887 502.112 181.772 502.727 181.772C503.701 181.772 504.464 182.017 505.016 182.507C505.568 182.991 505.854 183.66 505.875 184.515V188.405C505.875 189.181 505.974 189.799 506.172 190.257V190.382H504.656ZM502.258 189.28C502.711 189.28 503.141 189.163 503.547 188.929C503.953 188.694 504.247 188.39 504.43 188.015V186.28H503.297C501.526 186.28 500.641 186.799 500.641 187.835C500.641 188.288 500.792 188.642 501.094 188.897C501.396 189.153 501.784 189.28 502.258 189.28ZM509.5 181.929L509.539 182.866C510.159 182.137 510.995 181.772 512.047 181.772C513.229 181.772 514.034 182.226 514.461 183.132C514.742 182.726 515.107 182.397 515.555 182.147C516.008 181.897 516.542 181.772 517.156 181.772C519.01 181.772 519.953 182.754 519.984 184.718V190.382H518.539V184.804C518.539 184.2 518.401 183.749 518.125 183.452C517.849 183.15 517.385 182.999 516.734 182.999C516.198 182.999 515.753 183.16 515.398 183.483C515.044 183.801 514.839 184.231 514.781 184.772V190.382H513.328V184.843C513.328 183.614 512.727 182.999 511.523 182.999C510.576 182.999 509.927 183.403 509.578 184.21V190.382H508.133V181.929H509.5ZM525.68 190.538C524.534 190.538 523.602 190.163 522.883 189.413C522.164 188.658 521.805 187.65 521.805 186.39V186.124C521.805 185.285 521.964 184.538 522.281 183.882C522.604 183.22 523.052 182.705 523.625 182.335C524.203 181.96 524.828 181.772 525.5 181.772C526.599 181.772 527.453 182.134 528.062 182.858C528.672 183.582 528.977 184.619 528.977 185.968V186.569H523.25C523.271 187.403 523.513 188.077 523.977 188.593C524.445 189.103 525.039 189.358 525.758 189.358C526.268 189.358 526.701 189.254 527.055 189.046C527.409 188.838 527.719 188.562 527.984 188.218L528.867 188.905C528.159 189.994 527.096 190.538 525.68 190.538ZM525.5 182.96C524.917 182.96 524.427 183.174 524.031 183.601C523.635 184.022 523.391 184.616 523.297 185.382H527.531V185.272C527.49 184.538 527.292 183.97 526.938 183.569C526.583 183.163 526.104 182.96 525.5 182.96ZM532.617 179.882V181.929H534.195V183.046H532.617V188.288C532.617 188.627 532.688 188.882 532.828 189.054C532.969 189.22 533.208 189.304 533.547 189.304C533.714 189.304 533.943 189.272 534.234 189.21V190.382C533.854 190.486 533.484 190.538 533.125 190.538C532.479 190.538 531.992 190.343 531.664 189.952C531.336 189.562 531.172 189.007 531.172 188.288V183.046H529.633V181.929H531.172V179.882H532.617ZM535.844 192.647L535.023 192.085C535.513 191.403 535.768 190.7 535.789 189.976V188.671H537.203V189.804C537.203 190.33 537.073 190.856 536.812 191.382C536.557 191.908 536.234 192.33 535.844 192.647ZM343.484 208.358C344 208.358 344.451 208.202 344.836 207.89C345.221 207.577 345.435 207.187 345.477 206.718H346.844C346.818 207.202 346.651 207.663 346.344 208.101C346.036 208.538 345.625 208.887 345.109 209.147C344.599 209.408 344.057 209.538 343.484 209.538C342.333 209.538 341.417 209.155 340.734 208.39C340.057 207.619 339.719 206.567 339.719 205.233V204.991C339.719 204.168 339.87 203.437 340.172 202.796C340.474 202.155 340.906 201.658 341.469 201.304C342.036 200.95 342.706 200.772 343.477 200.772C344.424 200.772 345.211 201.056 345.836 201.624C346.466 202.192 346.802 202.929 346.844 203.835H345.477C345.435 203.288 345.227 202.84 344.852 202.491C344.482 202.137 344.023 201.96 343.477 201.96C342.742 201.96 342.172 202.226 341.766 202.757C341.365 203.283 341.164 204.046 341.164 205.046V205.319C341.164 206.293 341.365 207.043 341.766 207.569C342.167 208.095 342.74 208.358 343.484 208.358ZM348.086 205.077C348.086 204.249 348.247 203.504 348.57 202.843C348.898 202.181 349.352 201.671 349.93 201.312C350.513 200.952 351.177 200.772 351.922 200.772C353.073 200.772 354.003 201.171 354.711 201.968C355.424 202.765 355.781 203.825 355.781 205.147V205.249C355.781 206.072 355.622 206.812 355.305 207.468C354.992 208.119 354.542 208.627 353.953 208.991C353.37 209.356 352.698 209.538 351.938 209.538C350.792 209.538 349.862 209.14 349.148 208.343C348.44 207.546 348.086 206.491 348.086 205.179V205.077ZM349.539 205.249C349.539 206.187 349.755 206.939 350.188 207.507C350.625 208.075 351.208 208.358 351.938 208.358C352.672 208.358 353.255 208.072 353.688 207.499C354.12 206.921 354.336 206.114 354.336 205.077C354.336 204.15 354.115 203.4 353.672 202.827C353.234 202.249 352.651 201.96 351.922 201.96C351.208 201.96 350.633 202.244 350.195 202.812C349.758 203.379 349.539 204.192 349.539 205.249ZM358.961 200.929L359.008 201.991C359.654 201.179 360.497 200.772 361.539 200.772C363.326 200.772 364.227 201.78 364.242 203.796V209.382H362.797V203.788C362.792 203.179 362.651 202.728 362.375 202.437C362.104 202.145 361.68 201.999 361.102 201.999C360.633 201.999 360.221 202.124 359.867 202.374C359.513 202.624 359.237 202.952 359.039 203.358V209.382H357.594V200.929H358.961ZM371.344 207.14C371.344 206.749 371.195 206.447 370.898 206.233C370.607 206.015 370.094 205.827 369.359 205.671C368.63 205.515 368.049 205.327 367.617 205.108C367.19 204.89 366.872 204.629 366.664 204.327C366.461 204.025 366.359 203.666 366.359 203.249C366.359 202.556 366.651 201.97 367.234 201.491C367.823 201.012 368.573 200.772 369.484 200.772C370.443 200.772 371.219 201.02 371.812 201.515C372.411 202.009 372.711 202.642 372.711 203.413H371.258C371.258 203.017 371.089 202.676 370.75 202.39C370.417 202.103 369.995 201.96 369.484 201.96C368.958 201.96 368.547 202.075 368.25 202.304C367.953 202.533 367.805 202.832 367.805 203.202C367.805 203.551 367.943 203.814 368.219 203.991C368.495 204.168 368.992 204.338 369.711 204.499C370.435 204.66 371.021 204.853 371.469 205.077C371.917 205.301 372.247 205.572 372.461 205.89C372.68 206.202 372.789 206.585 372.789 207.038C372.789 207.793 372.487 208.4 371.883 208.858C371.279 209.312 370.495 209.538 369.531 209.538C368.854 209.538 368.255 209.418 367.734 209.179C367.214 208.939 366.805 208.606 366.508 208.179C366.216 207.746 366.07 207.28 366.07 206.78H367.516C367.542 207.265 367.734 207.65 368.094 207.937C368.458 208.218 368.938 208.358 369.531 208.358C370.078 208.358 370.516 208.249 370.844 208.03C371.177 207.806 371.344 207.509 371.344 207.14ZM378.18 209.538C377.034 209.538 376.102 209.163 375.383 208.413C374.664 207.658 374.305 206.65 374.305 205.39V205.124C374.305 204.285 374.464 203.538 374.781 202.882C375.104 202.22 375.552 201.705 376.125 201.335C376.703 200.96 377.328 200.772 378 200.772C379.099 200.772 379.953 201.134 380.562 201.858C381.172 202.582 381.477 203.619 381.477 204.968V205.569H375.75C375.771 206.403 376.013 207.077 376.477 207.593C376.945 208.103 377.539 208.358 378.258 208.358C378.768 208.358 379.201 208.254 379.555 208.046C379.909 207.838 380.219 207.562 380.484 207.218L381.367 207.905C380.659 208.994 379.596 209.538 378.18 209.538ZM378 201.96C377.417 201.96 376.927 202.174 376.531 202.601C376.135 203.022 375.891 203.616 375.797 204.382H380.031V204.272C379.99 203.538 379.792 202.97 379.438 202.569C379.083 202.163 378.604 201.96 378 201.96ZM385.117 198.882V200.929H386.695V202.046H385.117V207.288C385.117 207.627 385.188 207.882 385.328 208.054C385.469 208.22 385.708 208.304 386.047 208.304C386.214 208.304 386.443 208.272 386.734 208.21V209.382C386.354 209.486 385.984 209.538 385.625 209.538C384.979 209.538 384.492 209.343 384.164 208.952C383.836 208.562 383.672 208.007 383.672 207.288V202.046H382.133V200.929H383.672V198.882H385.117ZM391.898 209.538C390.753 209.538 389.82 209.163 389.102 208.413C388.383 207.658 388.023 206.65 388.023 205.39V205.124C388.023 204.285 388.182 203.538 388.5 202.882C388.823 202.22 389.271 201.705 389.844 201.335C390.422 200.96 391.047 200.772 391.719 200.772C392.818 200.772 393.672 201.134 394.281 201.858C394.891 202.582 395.195 203.619 395.195 204.968V205.569H389.469C389.49 206.403 389.732 207.077 390.195 207.593C390.664 208.103 391.258 208.358 391.977 208.358C392.487 208.358 392.919 208.254 393.273 208.046C393.628 207.838 393.938 207.562 394.203 207.218L395.086 207.905C394.378 208.994 393.315 209.538 391.898 209.538ZM391.719 201.96C391.135 201.96 390.646 202.174 390.25 202.601C389.854 203.022 389.609 203.616 389.516 204.382H393.75V204.272C393.708 203.538 393.51 202.97 393.156 202.569C392.802 202.163 392.323 201.96 391.719 201.96ZM398.836 198.882V200.929H400.414V202.046H398.836V207.288C398.836 207.627 398.906 207.882 399.047 208.054C399.188 208.22 399.427 208.304 399.766 208.304C399.932 208.304 400.161 208.272 400.453 208.21V209.382C400.073 209.486 399.703 209.538 399.344 209.538C398.698 209.538 398.211 209.343 397.883 208.952C397.555 208.562 397.391 208.007 397.391 207.288V202.046H395.852V200.929H397.391V198.882H398.836ZM407.328 208.546C406.766 209.207 405.94 209.538 404.852 209.538C403.951 209.538 403.263 209.278 402.789 208.757C402.32 208.231 402.083 207.455 402.078 206.429V200.929H403.523V206.39C403.523 207.671 404.044 208.312 405.086 208.312C406.19 208.312 406.924 207.9 407.289 207.077V200.929H408.734V209.382H407.359L407.328 208.546ZM415.023 202.226C414.805 202.189 414.568 202.171 414.312 202.171C413.365 202.171 412.721 202.575 412.383 203.382V209.382H410.938V200.929H412.344L412.367 201.905C412.841 201.15 413.513 200.772 414.383 200.772C414.664 200.772 414.878 200.809 415.023 200.882V202.226ZM425.25 207.14C425.25 206.749 425.102 206.447 424.805 206.233C424.513 206.015 424 205.827 423.266 205.671C422.536 205.515 421.956 205.327 421.523 205.108C421.096 204.89 420.779 204.629 420.57 204.327C420.367 204.025 420.266 203.666 420.266 203.249C420.266 202.556 420.557 201.97 421.141 201.491C421.729 201.012 422.479 200.772 423.391 200.772C424.349 200.772 425.125 201.02 425.719 201.515C426.318 202.009 426.617 202.642 426.617 203.413H425.164C425.164 203.017 424.995 202.676 424.656 202.39C424.323 202.103 423.901 201.96 423.391 201.96C422.865 201.96 422.453 202.075 422.156 202.304C421.859 202.533 421.711 202.832 421.711 203.202C421.711 203.551 421.849 203.814 422.125 203.991C422.401 204.168 422.898 204.338 423.617 204.499C424.341 204.66 424.927 204.853 425.375 205.077C425.823 205.301 426.154 205.572 426.367 205.89C426.586 206.202 426.695 206.585 426.695 207.038C426.695 207.793 426.393 208.4 425.789 208.858C425.185 209.312 424.401 209.538 423.438 209.538C422.76 209.538 422.161 209.418 421.641 209.179C421.12 208.939 420.711 208.606 420.414 208.179C420.122 207.746 419.977 207.28 419.977 206.78H421.422C421.448 207.265 421.641 207.65 422 207.937C422.365 208.218 422.844 208.358 423.438 208.358C423.984 208.358 424.422 208.249 424.75 208.03C425.083 207.806 425.25 207.509 425.25 207.14ZM433.797 209.382C433.714 209.215 433.646 208.918 433.594 208.491C432.922 209.189 432.12 209.538 431.188 209.538C430.354 209.538 429.669 209.304 429.133 208.835C428.602 208.361 428.336 207.762 428.336 207.038C428.336 206.158 428.669 205.476 429.336 204.991C430.008 204.502 430.951 204.257 432.164 204.257H433.57V203.593C433.57 203.088 433.419 202.687 433.117 202.39C432.815 202.088 432.37 201.937 431.781 201.937C431.266 201.937 430.833 202.067 430.484 202.327C430.135 202.588 429.961 202.903 429.961 203.272H428.508C428.508 202.851 428.656 202.444 428.953 202.054C429.255 201.658 429.661 201.345 430.172 201.116C430.688 200.887 431.253 200.772 431.867 200.772C432.841 200.772 433.604 201.017 434.156 201.507C434.708 201.991 434.995 202.66 435.016 203.515V207.405C435.016 208.181 435.115 208.799 435.312 209.257V209.382H433.797ZM431.398 208.28C431.852 208.28 432.281 208.163 432.688 207.929C433.094 207.694 433.388 207.39 433.57 207.015V205.28H432.438C430.667 205.28 429.781 205.799 429.781 206.835C429.781 207.288 429.932 207.642 430.234 207.897C430.536 208.153 430.924 208.28 431.398 208.28ZM436.93 205.085C436.93 203.788 437.237 202.746 437.852 201.96C438.466 201.168 439.271 200.772 440.266 200.772C441.255 200.772 442.039 201.111 442.617 201.788V197.382H444.062V209.382H442.734L442.664 208.476C442.086 209.184 441.281 209.538 440.25 209.538C439.271 209.538 438.471 209.137 437.852 208.335C437.237 207.533 436.93 206.486 436.93 205.194V205.085ZM438.375 205.249C438.375 206.207 438.573 206.957 438.969 207.499C439.365 208.041 439.911 208.312 440.609 208.312C441.526 208.312 442.195 207.9 442.617 207.077V203.194C442.185 202.397 441.521 201.999 440.625 201.999C439.917 201.999 439.365 202.272 438.969 202.819C438.573 203.366 438.375 204.176 438.375 205.249ZM447.883 209.382H446.438V200.929H447.883V209.382ZM446.32 198.687C446.32 198.452 446.391 198.254 446.531 198.093C446.677 197.931 446.891 197.851 447.172 197.851C447.453 197.851 447.667 197.931 447.812 198.093C447.958 198.254 448.031 198.452 448.031 198.687C448.031 198.921 447.958 199.116 447.812 199.272C447.667 199.429 447.453 199.507 447.172 199.507C446.891 199.507 446.677 199.429 446.531 199.272C446.391 199.116 446.32 198.921 446.32 198.687ZM457.344 205.249C457.344 206.535 457.049 207.572 456.461 208.358C455.872 209.145 455.076 209.538 454.07 209.538C453.044 209.538 452.237 209.213 451.648 208.562V212.632H450.203V200.929H451.523L451.594 201.866C452.182 201.137 453 200.772 454.047 200.772C455.062 200.772 455.865 201.155 456.453 201.921C457.047 202.687 457.344 203.752 457.344 205.116V205.249ZM455.898 205.085C455.898 204.132 455.695 203.379 455.289 202.827C454.883 202.275 454.326 201.999 453.617 201.999C452.742 201.999 452.086 202.387 451.648 203.163V207.202C452.081 207.973 452.742 208.358 453.633 208.358C454.326 208.358 454.875 208.085 455.281 207.538C455.693 206.986 455.898 206.168 455.898 205.085ZM464.109 207.14C464.109 206.749 463.961 206.447 463.664 206.233C463.372 206.015 462.859 205.827 462.125 205.671C461.396 205.515 460.815 205.327 460.383 205.108C459.956 204.89 459.638 204.629 459.43 204.327C459.227 204.025 459.125 203.666 459.125 203.249C459.125 202.556 459.417 201.97 460 201.491C460.589 201.012 461.339 200.772 462.25 200.772C463.208 200.772 463.984 201.02 464.578 201.515C465.177 202.009 465.477 202.642 465.477 203.413H464.023C464.023 203.017 463.854 202.676 463.516 202.39C463.182 202.103 462.76 201.96 462.25 201.96C461.724 201.96 461.312 202.075 461.016 202.304C460.719 202.533 460.57 202.832 460.57 203.202C460.57 203.551 460.708 203.814 460.984 203.991C461.26 204.168 461.758 204.338 462.477 204.499C463.201 204.66 463.786 204.853 464.234 205.077C464.682 205.301 465.013 205.572 465.227 205.89C465.445 206.202 465.555 206.585 465.555 207.038C465.555 207.793 465.253 208.4 464.648 208.858C464.044 209.312 463.26 209.538 462.297 209.538C461.62 209.538 461.021 209.418 460.5 209.179C459.979 208.939 459.57 208.606 459.273 208.179C458.982 207.746 458.836 207.28 458.836 206.78H460.281C460.307 207.265 460.5 207.65 460.859 207.937C461.224 208.218 461.703 208.358 462.297 208.358C462.844 208.358 463.281 208.249 463.609 208.03C463.943 207.806 464.109 207.509 464.109 207.14ZM470.828 208.358C471.344 208.358 471.794 208.202 472.18 207.89C472.565 207.577 472.779 207.187 472.82 206.718H474.188C474.161 207.202 473.995 207.663 473.688 208.101C473.38 208.538 472.969 208.887 472.453 209.147C471.943 209.408 471.401 209.538 470.828 209.538C469.677 209.538 468.76 209.155 468.078 208.39C467.401 207.619 467.062 206.567 467.062 205.233V204.991C467.062 204.168 467.214 203.437 467.516 202.796C467.818 202.155 468.25 201.658 468.812 201.304C469.38 200.95 470.049 200.772 470.82 200.772C471.768 200.772 472.555 201.056 473.18 201.624C473.81 202.192 474.146 202.929 474.188 203.835H472.82C472.779 203.288 472.57 202.84 472.195 202.491C471.826 202.137 471.367 201.96 470.82 201.96C470.086 201.96 469.516 202.226 469.109 202.757C468.708 203.283 468.508 204.046 468.508 205.046V205.319C468.508 206.293 468.708 207.043 469.109 207.569C469.51 208.095 470.083 208.358 470.828 208.358ZM477.383 209.382H475.938V200.929H477.383V209.382ZM475.82 198.687C475.82 198.452 475.891 198.254 476.031 198.093C476.177 197.931 476.391 197.851 476.672 197.851C476.953 197.851 477.167 197.931 477.312 198.093C477.458 198.254 477.531 198.452 477.531 198.687C477.531 198.921 477.458 199.116 477.312 199.272C477.167 199.429 476.953 199.507 476.672 199.507C476.391 199.507 476.177 199.429 476.031 199.272C475.891 199.116 475.82 198.921 475.82 198.687ZM481.07 200.929L481.117 201.991C481.763 201.179 482.607 200.772 483.648 200.772C485.435 200.772 486.336 201.78 486.352 203.796V209.382H484.906V203.788C484.901 203.179 484.76 202.728 484.484 202.437C484.214 202.145 483.789 201.999 483.211 201.999C482.742 201.999 482.331 202.124 481.977 202.374C481.622 202.624 481.346 202.952 481.148 203.358V209.382H479.703V200.929H481.07ZM488.188 205.085C488.188 203.767 488.492 202.72 489.102 201.944C489.711 201.163 490.518 200.772 491.523 200.772C492.555 200.772 493.359 201.137 493.938 201.866L494.008 200.929H495.328V209.179C495.328 210.272 495.003 211.134 494.352 211.765C493.706 212.395 492.836 212.71 491.742 212.71C491.133 212.71 490.536 212.58 489.953 212.319C489.37 212.059 488.924 211.702 488.617 211.249L489.367 210.382C489.987 211.147 490.745 211.53 491.641 211.53C492.344 211.53 492.891 211.332 493.281 210.937C493.677 210.541 493.875 209.983 493.875 209.265V208.538C493.297 209.205 492.508 209.538 491.508 209.538C490.518 209.538 489.716 209.14 489.102 208.343C488.492 207.546 488.188 206.46 488.188 205.085ZM489.641 205.249C489.641 206.202 489.836 206.952 490.227 207.499C490.617 208.041 491.164 208.312 491.867 208.312C492.779 208.312 493.448 207.897 493.875 207.069V203.21C493.432 202.403 492.768 201.999 491.883 201.999C491.18 201.999 490.63 202.272 490.234 202.819C489.839 203.366 489.641 204.176 489.641 205.249ZM504.992 209.538C503.846 209.538 502.914 209.163 502.195 208.413C501.477 207.658 501.117 206.65 501.117 205.39V205.124C501.117 204.285 501.276 203.538 501.594 202.882C501.917 202.22 502.365 201.705 502.938 201.335C503.516 200.96 504.141 200.772 504.812 200.772C505.911 200.772 506.766 201.134 507.375 201.858C507.984 202.582 508.289 203.619 508.289 204.968V205.569H502.562C502.583 206.403 502.826 207.077 503.289 207.593C503.758 208.103 504.352 208.358 505.07 208.358C505.581 208.358 506.013 208.254 506.367 208.046C506.721 207.838 507.031 207.562 507.297 207.218L508.18 207.905C507.471 208.994 506.409 209.538 504.992 209.538ZM504.812 201.96C504.229 201.96 503.74 202.174 503.344 202.601C502.948 203.022 502.703 203.616 502.609 204.382H506.844V204.272C506.802 203.538 506.604 202.97 506.25 202.569C505.896 202.163 505.417 201.96 504.812 201.96ZM511.539 209.382H510.094V197.382H511.539V209.382ZM515.43 209.382H513.984V200.929H515.43V209.382ZM513.867 198.687C513.867 198.452 513.938 198.254 514.078 198.093C514.224 197.931 514.438 197.851 514.719 197.851C515 197.851 515.214 197.931 515.359 198.093C515.505 198.254 515.578 198.452 515.578 198.687C515.578 198.921 515.505 199.116 515.359 199.272C515.214 199.429 515 199.507 514.719 199.507C514.438 199.507 514.224 199.429 514.078 199.272C513.938 199.116 513.867 198.921 513.867 198.687ZM519.711 198.882V200.929H521.289V202.046H519.711V207.288C519.711 207.627 519.781 207.882 519.922 208.054C520.062 208.22 520.302 208.304 520.641 208.304C520.807 208.304 521.036 208.272 521.328 208.21V209.382C520.948 209.486 520.578 209.538 520.219 209.538C519.573 209.538 519.086 209.343 518.758 208.952C518.43 208.562 518.266 208.007 518.266 207.288V202.046H516.727V200.929H518.266V198.882H519.711ZM527.07 202.226C526.852 202.189 526.615 202.171 526.359 202.171C525.411 202.171 524.768 202.575 524.43 203.382V209.382H522.984V200.929H524.391L524.414 201.905C524.888 201.15 525.56 200.772 526.43 200.772C526.711 200.772 526.924 200.809 527.07 200.882V202.226ZM527.391 211.647L526.57 211.085C527.06 210.403 527.315 209.7 527.336 208.976V207.671H528.75V208.804C528.75 209.33 528.62 209.856 528.359 210.382C528.104 210.908 527.781 211.33 527.391 211.647ZM345.016 226.14C345.016 225.749 344.867 225.447 344.57 225.233C344.279 225.015 343.766 224.827 343.031 224.671C342.302 224.515 341.721 224.327 341.289 224.108C340.862 223.89 340.544 223.629 340.336 223.327C340.133 223.025 340.031 222.666 340.031 222.249C340.031 221.556 340.323 220.97 340.906 220.491C341.495 220.012 342.245 219.772 343.156 219.772C344.115 219.772 344.891 220.02 345.484 220.515C346.083 221.009 346.383 221.642 346.383 222.413H344.93C344.93 222.017 344.76 221.676 344.422 221.39C344.089 221.103 343.667 220.96 343.156 220.96C342.63 220.96 342.219 221.075 341.922 221.304C341.625 221.533 341.477 221.832 341.477 222.202C341.477 222.551 341.615 222.814 341.891 222.991C342.167 223.168 342.664 223.338 343.383 223.499C344.107 223.66 344.693 223.853 345.141 224.077C345.589 224.301 345.919 224.572 346.133 224.89C346.352 225.202 346.461 225.585 346.461 226.038C346.461 226.793 346.159 227.4 345.555 227.858C344.951 228.312 344.167 228.538 343.203 228.538C342.526 228.538 341.927 228.418 341.406 228.179C340.885 227.939 340.477 227.606 340.18 227.179C339.888 226.746 339.742 226.28 339.742 225.78H341.188C341.214 226.265 341.406 226.65 341.766 226.937C342.13 227.218 342.609 227.358 343.203 227.358C343.75 227.358 344.188 227.249 344.516 227.03C344.849 226.806 345.016 226.509 345.016 226.14ZM351.852 228.538C350.706 228.538 349.773 228.163 349.055 227.413C348.336 226.658 347.977 225.65 347.977 224.39V224.124C347.977 223.285 348.135 222.538 348.453 221.882C348.776 221.22 349.224 220.705 349.797 220.335C350.375 219.96 351 219.772 351.672 219.772C352.771 219.772 353.625 220.134 354.234 220.858C354.844 221.582 355.148 222.619 355.148 223.968V224.569H349.422C349.443 225.403 349.685 226.077 350.148 226.593C350.617 227.103 351.211 227.358 351.93 227.358C352.44 227.358 352.872 227.254 353.227 227.046C353.581 226.838 353.891 226.562 354.156 226.218L355.039 226.905C354.331 227.994 353.268 228.538 351.852 228.538ZM351.672 220.96C351.089 220.96 350.599 221.174 350.203 221.601C349.807 222.022 349.562 222.616 349.469 223.382H353.703V223.272C353.661 222.538 353.464 221.97 353.109 221.569C352.755 221.163 352.276 220.96 351.672 220.96ZM356.477 224.085C356.477 222.788 356.784 221.746 357.398 220.96C358.013 220.168 358.818 219.772 359.812 219.772C360.802 219.772 361.586 220.111 362.164 220.788V216.382H363.609V228.382H362.281L362.211 227.476C361.633 228.184 360.828 228.538 359.797 228.538C358.818 228.538 358.018 228.137 357.398 227.335C356.784 226.533 356.477 225.486 356.477 224.194V224.085ZM357.922 224.249C357.922 225.207 358.12 225.957 358.516 226.499C358.911 227.041 359.458 227.312 360.156 227.312C361.073 227.312 361.742 226.9 362.164 226.077V222.194C361.732 221.397 361.068 220.999 360.172 220.999C359.464 220.999 358.911 221.272 358.516 221.819C358.12 222.366 357.922 223.176 357.922 224.249ZM369.477 224.085C369.477 222.788 369.784 221.746 370.398 220.96C371.013 220.168 371.818 219.772 372.812 219.772C373.802 219.772 374.586 220.111 375.164 220.788V216.382H376.609V228.382H375.281L375.211 227.476C374.633 228.184 373.828 228.538 372.797 228.538C371.818 228.538 371.018 228.137 370.398 227.335C369.784 226.533 369.477 225.486 369.477 224.194V224.085ZM370.922 224.249C370.922 225.207 371.12 225.957 371.516 226.499C371.911 227.041 372.458 227.312 373.156 227.312C374.073 227.312 374.742 226.9 375.164 226.077V222.194C374.732 221.397 374.068 220.999 373.172 220.999C372.464 220.999 371.911 221.272 371.516 221.819C371.12 222.366 370.922 223.176 370.922 224.249ZM380.43 228.382H378.984V219.929H380.43V228.382ZM378.867 217.687C378.867 217.452 378.938 217.254 379.078 217.093C379.224 216.931 379.438 216.851 379.719 216.851C380 216.851 380.214 216.931 380.359 217.093C380.505 217.254 380.578 217.452 380.578 217.687C380.578 217.921 380.505 218.116 380.359 218.272C380.214 218.429 380 218.507 379.719 218.507C379.438 218.507 379.224 218.429 379.078 218.272C378.938 218.116 378.867 217.921 378.867 217.687ZM387.969 228.382C387.885 228.215 387.818 227.918 387.766 227.491C387.094 228.189 386.292 228.538 385.359 228.538C384.526 228.538 383.841 228.304 383.305 227.835C382.773 227.361 382.508 226.762 382.508 226.038C382.508 225.158 382.841 224.476 383.508 223.991C384.18 223.502 385.122 223.257 386.336 223.257H387.742V222.593C387.742 222.088 387.591 221.687 387.289 221.39C386.987 221.088 386.542 220.937 385.953 220.937C385.438 220.937 385.005 221.067 384.656 221.327C384.307 221.588 384.133 221.903 384.133 222.272H382.68C382.68 221.851 382.828 221.444 383.125 221.054C383.427 220.658 383.833 220.345 384.344 220.116C384.859 219.887 385.424 219.772 386.039 219.772C387.013 219.772 387.776 220.017 388.328 220.507C388.88 220.991 389.167 221.66 389.188 222.515V226.405C389.188 227.181 389.286 227.799 389.484 228.257V228.382H387.969ZM385.57 227.28C386.023 227.28 386.453 227.163 386.859 226.929C387.266 226.694 387.56 226.39 387.742 226.015V224.28H386.609C384.839 224.28 383.953 224.799 383.953 225.835C383.953 226.288 384.104 226.642 384.406 226.897C384.708 227.153 385.096 227.28 385.57 227.28ZM392.812 219.929L392.852 220.866C393.471 220.137 394.307 219.772 395.359 219.772C396.542 219.772 397.346 220.226 397.773 221.132C398.055 220.726 398.419 220.397 398.867 220.147C399.32 219.897 399.854 219.772 400.469 219.772C402.323 219.772 403.266 220.754 403.297 222.718V228.382H401.852V222.804C401.852 222.2 401.714 221.749 401.438 221.452C401.161 221.15 400.698 220.999 400.047 220.999C399.51 220.999 399.065 221.16 398.711 221.483C398.357 221.801 398.151 222.231 398.094 222.772V228.382H396.641V222.843C396.641 221.614 396.039 220.999 394.836 220.999C393.888 220.999 393.24 221.403 392.891 222.21V228.382H391.445V219.929H392.812ZM410.82 219.929L410.867 220.991C411.513 220.179 412.357 219.772 413.398 219.772C415.185 219.772 416.086 220.78 416.102 222.796V228.382H414.656V222.788C414.651 222.179 414.51 221.728 414.234 221.437C413.964 221.145 413.539 220.999 412.961 220.999C412.492 220.999 412.081 221.124 411.727 221.374C411.372 221.624 411.096 221.952 410.898 222.358V228.382H409.453V219.929H410.82ZM417.898 224.077C417.898 223.249 418.06 222.504 418.383 221.843C418.711 221.181 419.164 220.671 419.742 220.312C420.326 219.952 420.99 219.772 421.734 219.772C422.885 219.772 423.815 220.171 424.523 220.968C425.237 221.765 425.594 222.825 425.594 224.147V224.249C425.594 225.072 425.435 225.812 425.117 226.468C424.805 227.119 424.354 227.627 423.766 227.991C423.182 228.356 422.51 228.538 421.75 228.538C420.604 228.538 419.674 228.14 418.961 227.343C418.253 226.546 417.898 225.491 417.898 224.179V224.077ZM419.352 224.249C419.352 225.187 419.568 225.939 420 226.507C420.438 227.075 421.021 227.358 421.75 227.358C422.484 227.358 423.068 227.072 423.5 226.499C423.932 225.921 424.148 225.114 424.148 224.077C424.148 223.15 423.927 222.4 423.484 221.827C423.047 221.249 422.464 220.96 421.734 220.96C421.021 220.96 420.445 221.244 420.008 221.812C419.57 222.379 419.352 223.192 419.352 224.249ZM428.773 219.929L428.82 220.991C429.466 220.179 430.31 219.772 431.352 219.772C433.138 219.772 434.039 220.78 434.055 222.796V228.382H432.609V222.788C432.604 222.179 432.464 221.728 432.188 221.437C431.917 221.145 431.492 220.999 430.914 220.999C430.445 220.999 430.034 221.124 429.68 221.374C429.326 221.624 429.049 221.952 428.852 222.358V228.382H427.406V219.929H428.773ZM441.453 227.546C440.891 228.207 440.065 228.538 438.977 228.538C438.076 228.538 437.388 228.278 436.914 227.757C436.445 227.231 436.208 226.455 436.203 225.429V219.929H437.648V225.39C437.648 226.671 438.169 227.312 439.211 227.312C440.315 227.312 441.049 226.9 441.414 226.077V219.929H442.859V228.382H441.484L441.453 227.546ZM446.422 219.929L446.461 220.866C447.081 220.137 447.917 219.772 448.969 219.772C450.151 219.772 450.956 220.226 451.383 221.132C451.664 220.726 452.029 220.397 452.477 220.147C452.93 219.897 453.464 219.772 454.078 219.772C455.932 219.772 456.875 220.754 456.906 222.718V228.382H455.461V222.804C455.461 222.2 455.323 221.749 455.047 221.452C454.771 221.15 454.307 220.999 453.656 220.999C453.12 220.999 452.674 221.16 452.32 221.483C451.966 221.801 451.76 222.231 451.703 222.772V228.382H450.25V222.843C450.25 221.614 449.648 220.999 448.445 220.999C447.497 220.999 446.849 221.403 446.5 222.21V228.382H445.055V219.929H446.422ZM461.859 226.265L463.828 219.929H465.375L461.977 229.687C461.451 231.093 460.615 231.796 459.469 231.796L459.195 231.772L458.656 231.671V230.499L459.047 230.53C459.536 230.53 459.917 230.431 460.188 230.233C460.464 230.035 460.69 229.674 460.867 229.147L461.188 228.288L458.172 219.929H459.75L461.859 226.265ZM474.148 228.538C473.003 228.538 472.07 228.163 471.352 227.413C470.633 226.658 470.273 225.65 470.273 224.39V224.124C470.273 223.285 470.432 222.538 470.75 221.882C471.073 221.22 471.521 220.705 472.094 220.335C472.672 219.96 473.297 219.772 473.969 219.772C475.068 219.772 475.922 220.134 476.531 220.858C477.141 221.582 477.445 222.619 477.445 223.968V224.569H471.719C471.74 225.403 471.982 226.077 472.445 226.593C472.914 227.103 473.508 227.358 474.227 227.358C474.737 227.358 475.169 227.254 475.523 227.046C475.878 226.838 476.188 226.562 476.453 226.218L477.336 226.905C476.628 227.994 475.565 228.538 474.148 228.538ZM473.969 220.96C473.385 220.96 472.896 221.174 472.5 221.601C472.104 222.022 471.859 222.616 471.766 223.382H476V223.272C475.958 222.538 475.76 221.97 475.406 221.569C475.052 221.163 474.573 220.96 473.969 220.96ZM480.695 228.382H479.25V219.929H480.695V228.382ZM479.133 217.687C479.133 217.452 479.203 217.254 479.344 217.093C479.49 216.931 479.703 216.851 479.984 216.851C480.266 216.851 480.479 216.931 480.625 217.093C480.771 217.254 480.844 217.452 480.844 217.687C480.844 217.921 480.771 218.116 480.625 218.272C480.479 218.429 480.266 218.507 479.984 218.507C479.703 218.507 479.49 218.429 479.344 218.272C479.203 218.116 479.133 217.921 479.133 217.687ZM487.102 221.226C486.883 221.189 486.646 221.171 486.391 221.171C485.443 221.171 484.799 221.575 484.461 222.382V228.382H483.016V219.929H484.422L484.445 220.905C484.919 220.15 485.591 219.772 486.461 219.772C486.742 219.772 486.956 219.809 487.102 219.882V221.226ZM489.797 219.929L489.836 220.866C490.456 220.137 491.292 219.772 492.344 219.772C493.526 219.772 494.331 220.226 494.758 221.132C495.039 220.726 495.404 220.397 495.852 220.147C496.305 219.897 496.839 219.772 497.453 219.772C499.307 219.772 500.25 220.754 500.281 222.718V228.382H498.836V222.804C498.836 222.2 498.698 221.749 498.422 221.452C498.146 221.15 497.682 220.999 497.031 220.999C496.495 220.999 496.049 221.16 495.695 221.483C495.341 221.801 495.135 222.231 495.078 222.772V228.382H493.625V222.843C493.625 221.614 493.023 220.999 491.82 220.999C490.872 220.999 490.224 221.403 489.875 222.21V228.382H488.43V219.929H489.797ZM502.086 224.077C502.086 223.249 502.247 222.504 502.57 221.843C502.898 221.181 503.352 220.671 503.93 220.312C504.513 219.952 505.177 219.772 505.922 219.772C507.073 219.772 508.003 220.171 508.711 220.968C509.424 221.765 509.781 222.825 509.781 224.147V224.249C509.781 225.072 509.622 225.812 509.305 226.468C508.992 227.119 508.542 227.627 507.953 227.991C507.37 228.356 506.698 228.538 505.938 228.538C504.792 228.538 503.862 228.14 503.148 227.343C502.44 226.546 502.086 225.491 502.086 224.179V224.077ZM503.539 224.249C503.539 225.187 503.755 225.939 504.188 226.507C504.625 227.075 505.208 227.358 505.938 227.358C506.672 227.358 507.255 227.072 507.688 226.499C508.12 225.921 508.336 225.114 508.336 224.077C508.336 223.15 508.115 222.4 507.672 221.827C507.234 221.249 506.651 220.96 505.922 220.96C505.208 220.96 504.633 221.244 504.195 221.812C503.758 222.379 503.539 223.192 503.539 224.249ZM511.242 224.085C511.242 222.788 511.549 221.746 512.164 220.96C512.779 220.168 513.583 219.772 514.578 219.772C515.568 219.772 516.352 220.111 516.93 220.788V216.382H518.375V228.382H517.047L516.977 227.476C516.398 228.184 515.594 228.538 514.562 228.538C513.583 228.538 512.784 228.137 512.164 227.335C511.549 226.533 511.242 225.486 511.242 224.194V224.085ZM512.688 224.249C512.688 225.207 512.885 225.957 513.281 226.499C513.677 227.041 514.224 227.312 514.922 227.312C515.839 227.312 516.508 226.9 516.93 226.077V222.194C516.497 221.397 515.833 220.999 514.938 220.999C514.229 220.999 513.677 221.272 513.281 221.819C512.885 222.366 512.688 223.176 512.688 224.249ZM342.055 236.882V238.929H343.633V240.046H342.055V245.288C342.055 245.627 342.125 245.882 342.266 246.054C342.406 246.22 342.646 246.304 342.984 246.304C343.151 246.304 343.38 246.272 343.672 246.21V247.382C343.292 247.486 342.922 247.538 342.562 247.538C341.917 247.538 341.43 247.343 341.102 246.952C340.773 246.562 340.609 246.007 340.609 245.288V240.046H339.07V238.929H340.609V236.882H342.055ZM348.836 247.538C347.69 247.538 346.758 247.163 346.039 246.413C345.32 245.658 344.961 244.65 344.961 243.39V243.124C344.961 242.285 345.12 241.538 345.438 240.882C345.76 240.22 346.208 239.705 346.781 239.335C347.359 238.96 347.984 238.772 348.656 238.772C349.755 238.772 350.609 239.134 351.219 239.858C351.828 240.582 352.133 241.619 352.133 242.968V243.569H346.406C346.427 244.403 346.669 245.077 347.133 245.593C347.602 246.103 348.195 246.358 348.914 246.358C349.424 246.358 349.857 246.254 350.211 246.046C350.565 245.838 350.875 245.562 351.141 245.218L352.023 245.905C351.315 246.994 350.253 247.538 348.836 247.538ZM348.656 239.96C348.073 239.96 347.583 240.174 347.188 240.601C346.792 241.022 346.547 241.616 346.453 242.382H350.688V242.272C350.646 241.538 350.448 240.97 350.094 240.569C349.74 240.163 349.26 239.96 348.656 239.96ZM355.172 238.929L355.211 239.866C355.831 239.137 356.667 238.772 357.719 238.772C358.901 238.772 359.706 239.226 360.133 240.132C360.414 239.726 360.779 239.397 361.227 239.147C361.68 238.897 362.214 238.772 362.828 238.772C364.682 238.772 365.625 239.754 365.656 241.718V247.382H364.211V241.804C364.211 241.2 364.073 240.749 363.797 240.452C363.521 240.15 363.057 239.999 362.406 239.999C361.87 239.999 361.424 240.16 361.07 240.483C360.716 240.801 360.51 241.231 360.453 241.772V247.382H359V241.843C359 240.614 358.398 239.999 357.195 239.999C356.247 239.999 355.599 240.403 355.25 241.21V247.382H353.805V238.929H355.172ZM374.984 243.249C374.984 244.535 374.69 245.572 374.102 246.358C373.513 247.145 372.716 247.538 371.711 247.538C370.685 247.538 369.878 247.213 369.289 246.562V250.632H367.844V238.929H369.164L369.234 239.866C369.823 239.137 370.641 238.772 371.688 238.772C372.703 238.772 373.505 239.155 374.094 239.921C374.688 240.687 374.984 241.752 374.984 243.116V243.249ZM373.539 243.085C373.539 242.132 373.336 241.379 372.93 240.827C372.523 240.275 371.966 239.999 371.258 239.999C370.383 239.999 369.727 240.387 369.289 241.163V245.202C369.721 245.973 370.383 246.358 371.273 246.358C371.966 246.358 372.516 246.085 372.922 245.538C373.333 244.986 373.539 244.168 373.539 243.085ZM376.445 243.077C376.445 242.249 376.607 241.504 376.93 240.843C377.258 240.181 377.711 239.671 378.289 239.312C378.872 238.952 379.536 238.772 380.281 238.772C381.432 238.772 382.362 239.171 383.07 239.968C383.784 240.765 384.141 241.825 384.141 243.147V243.249C384.141 244.072 383.982 244.812 383.664 245.468C383.352 246.119 382.901 246.627 382.312 246.991C381.729 247.356 381.057 247.538 380.297 247.538C379.151 247.538 378.221 247.14 377.508 246.343C376.799 245.546 376.445 244.491 376.445 243.179V243.077ZM377.898 243.249C377.898 244.187 378.115 244.939 378.547 245.507C378.984 246.075 379.568 246.358 380.297 246.358C381.031 246.358 381.615 246.072 382.047 245.499C382.479 244.921 382.695 244.114 382.695 243.077C382.695 242.15 382.474 241.4 382.031 240.827C381.594 240.249 381.01 239.96 380.281 239.96C379.568 239.96 378.992 240.244 378.555 240.812C378.117 241.379 377.898 242.192 377.898 243.249ZM390.039 240.226C389.82 240.189 389.583 240.171 389.328 240.171C388.38 240.171 387.737 240.575 387.398 241.382V247.382H385.953V238.929H387.359L387.383 239.905C387.857 239.15 388.529 238.772 389.398 238.772C389.68 238.772 389.893 238.809 390.039 238.882V240.226Z" fill="#373E5F"/>
<path d="M54 288.882H338.5" stroke="black"/>
<path d="M152.803 131.42C150.081 155.435 147.586 179.474 145.319 203.537C145.146 204.355 145.268 205.208 145.662 205.945C146.121 206.472 146.728 206.849 147.405 207.027C152.627 208.944 157.988 210.459 163.442 211.558C163.984 211.733 164.571 211.708 165.098 211.49C165.353 211.292 165.566 211.044 165.725 210.763C165.884 210.481 165.985 210.17 166.022 209.849C171.733 186.76 174.763 163.089 175.053 139.306C175.163 135.37 175.008 131.43 174.589 127.515L152.803 131.42Z" fill="#3E21EF"/>
<path d="M180.927 127.353C188.154 153.612 191.919 180.704 192.127 207.939C186.614 209.735 180.866 210.706 175.07 210.823C170.559 189.607 166.584 168.923 162.07 147.709C160.931 142.35 159.796 136.741 161.256 131.46C162.716 126.179 167.67 121.428 173.097 122.174L180.927 127.353Z" fill="#3E21EF"/>
<path d="M164.971 160.966C163.591 154.899 162.33 148.809 161.188 142.695" stroke="black" stroke-miterlimit="10" stroke-linecap="round"/>
<path d="M309.262 277.772C309.107 275.91 308.712 274.076 308.085 272.316C307.835 271.29 307.187 270.406 306.285 269.857C305.216 269.365 303.985 269.807 302.819 269.991C301.79 270.155 300.619 270.16 299.903 270.916C299.379 271.626 299.142 272.507 299.24 273.384C299.252 276.335 299.668 279.271 300.476 282.11C300.624 282.817 300.949 283.476 301.419 284.024C301.996 284.535 302.727 284.838 303.496 284.883C305.914 285.151 308.624 283.731 309.148 281.354L309.262 277.772Z" fill="white" stroke="black" stroke-miterlimit="10" stroke-linecap="round"/>
<path d="M285.556 288.47C284.856 287.348 285.508 285.304 286.556 284.491C287.677 283.788 288.888 283.238 290.156 282.856C293.124 281.629 295.475 279.271 298.285 277.716C298.575 277.523 298.915 277.416 299.264 277.408C299.676 277.489 300.058 277.684 300.364 277.972C301.718 278.92 303.339 279.412 304.991 279.376C306.644 279.34 308.242 278.778 309.553 277.772C310.242 281.295 310.538 284.884 310.436 288.472L285.556 288.47Z" fill="#FD58E0"/>
<path d="M259.102 279C259.641 277.211 259.946 275.36 260.009 273.493C260.152 272.447 259.875 271.388 259.239 270.546C258.425 269.697 257.114 269.654 255.966 269.4C254.949 269.175 253.857 268.749 252.914 269.191C252.166 269.659 251.622 270.392 251.392 271.243C250.32 273.993 249.63 276.877 249.341 279.814C249.219 280.526 249.279 281.257 249.516 281.939C249.863 282.627 250.433 283.177 251.133 283.501C253.284 284.637 256.326 284.311 257.685 282.292L259.102 279Z" fill="white" stroke="black" stroke-miterlimit="10" stroke-linecap="round"/>
<path d="M235.636 288.47C234.936 287.348 235.588 285.304 236.636 284.491C237.758 283.788 238.968 283.238 240.236 282.856C243.204 281.629 245.555 279.271 248.365 277.716C248.655 277.522 248.995 277.416 249.344 277.408C249.756 277.489 250.138 277.684 250.444 277.972C251.798 278.92 253.419 279.412 255.071 279.376C256.724 279.34 258.322 278.778 259.633 277.772C260.322 281.295 260.618 284.884 260.516 288.472L235.636 288.47Z" fill="#FD58E0"/>
<path d="M259.424 159.257C247.224 193.147 246.08 229.864 245.064 265.87C244.992 268.421 244.641 272.441 245.839 273.256C246.898 273.976 250.49 274.546 251.758 274.722C255.099 275.188 258.758 276.348 260.838 275.417C262.509 274.668 266.138 243.949 268.787 228.217C269.879 221.73 270.972 215.24 272.408 208.817C275.171 196.467 279.189 184.431 284.399 172.898C286.265 168.768 288.313 164.076 286.586 159.886C285.74 158.04 284.418 156.453 282.756 155.286C277.469 151.286 268.99 150.611 264.756 155.712L259.424 159.257Z" fill="#2B8AFC"/>
<path d="M261.613 162.748C267.544 201.804 278.952 239.829 295.5 275.699C301.404 276.039 307.321 275.284 312.95 273.472C302.481 239.097 298.115 203.072 297.404 167.145C297.51 165.277 297.191 163.409 296.47 161.682C295.444 159.958 293.906 158.597 292.07 157.788C288.838 156.175 285.269 155.352 281.656 155.386C278.044 155.419 274.491 156.309 271.289 157.982L261.613 162.748Z" fill="#2B8AFC"/>
<path d="M166.685 83.2499C168.294 82.6515 169.843 81.9056 171.315 81.0219C171.995 80.6602 172.596 80.1662 173.083 79.5689C173.466 78.9277 173.702 78.2091 173.773 77.4653C173.845 76.7214 173.749 75.9711 173.494 75.2689C173.32 74.4461 172.886 73.7008 172.258 73.1419C171.769 72.8198 171.2 72.6384 170.615 72.6176C170.03 72.5967 169.45 72.7373 168.94 73.0239C167.926 73.6116 167.052 74.4128 166.379 75.3719C165.907 75.9247 165.517 76.5423 165.22 77.2059C164.794 78.4793 164.766 79.8526 165.142 81.1419L166.685 83.2499Z" fill="black" stroke="black" stroke-miterlimit="10" stroke-linecap="round"/>
<path d="M134.798 99.1489C132.484 101.911 129.961 104.491 127.25 106.865C121.589 102.909 120.827 100.393 115.267 94.9969C114.013 93.8482 112.501 93.0185 110.859 92.5779C108.823 92.0328 106.662 92.1957 104.73 93.0399C102.303 94.0499 99.192 95.8289 99.524 98.4399C99.813 100.706 101.341 102.287 103.207 103.606C104.985 104.864 108.921 108.745 110.7 110.006C116.426 114.056 116.4 116.023 122.4 119.652C123.185 120.171 124.035 120.585 124.929 120.881C126.804 121.323 128.778 121.01 130.424 120.009C132.048 119.009 133.516 117.776 134.781 116.349C138.323 112.67 141.629 108.772 144.681 104.677L134.798 99.1489Z" fill="white" stroke="black" stroke-miterlimit="10" stroke-linecap="round"/>
<path d="M240.887 65.1749C241.626 65.9032 242.213 66.7712 242.614 67.7284C243.015 68.6857 243.221 69.7131 243.222 70.7509C243.125 71.7285 243.117 72.7129 243.2 73.6919C243.351 74.3626 243.59 75.0106 243.911 75.6189C248.879 86.0982 254.303 96.3439 260.185 106.356C260.565 107.121 261.107 107.795 261.774 108.329C262.572 108.793 263.472 109.053 264.395 109.087C268.404 109.526 272.448 109.537 276.46 109.122C277.335 108.911 278.258 109.051 279.032 109.511C279.489 109.971 279.802 110.555 279.932 111.191L284.239 125.236C284.393 125.64 284.463 126.071 284.443 126.503C284.371 126.844 284.231 127.167 284.031 127.454C283.832 127.74 283.578 127.984 283.284 128.171C281.065 129.85 278.13 130.149 275.358 130.388L266.89 131.118C265.003 131.386 263.084 131.337 261.214 130.973C258.28 130.227 255.962 127.986 254.102 125.597C249.962 120.279 247.416 113.925 244.921 107.665C242.493 101.972 240.477 96.1118 238.89 90.1299C238.202 87.2589 237.69 84.2959 236.325 81.6809C234.504 78.2039 231.239 75.5039 230.091 71.7509C229.362 69.3276 229.594 66.7165 230.74 64.4599C232.612 64.6785 234.361 65.5006 235.724 66.8019C236.319 67.556 237.096 68.1462 237.982 68.5169C238.914 68.7599 240.887 65.1749 240.887 65.1749Z" fill="white" stroke="black" stroke-miterlimit="10" stroke-linecap="round"/>
<path d="M264.237 91.7917L277.728 70.2648C277.835 70.0921 277.887 69.891 277.876 69.6882C277.866 69.4855 277.795 69.2905 277.671 69.1294C277.547 68.9684 277.378 68.8488 277.184 68.7866C276.991 68.7243 276.783 68.7223 276.589 68.7809C274.835 69.3029 272.964 69.2781 271.225 68.7097C269.485 68.1413 267.961 67.0563 266.854 65.5993C265.747 64.1424 265.11 62.3827 265.028 60.5547C264.947 58.7266 265.425 56.9171 266.398 55.3674C267.37 53.8177 268.793 52.6015 270.475 51.8805C272.156 51.1596 274.018 50.9684 275.811 51.3324C277.605 51.6964 279.244 52.5981 280.512 53.9177C281.78 55.2373 282.615 56.9119 282.907 58.7183C282.942 58.9171 283.036 59.1008 283.177 59.245C283.319 59.3893 283.5 59.4871 283.698 59.5262C283.896 59.5653 284.102 59.5437 284.287 59.4639C284.472 59.3842 284.629 59.2502 284.737 59.0796L298.228 37.5527L243.99 3.56199L230.404 25.2373C230.293 25.4116 230.131 25.5475 229.94 25.626C229.749 25.7045 229.538 25.7219 229.337 25.6758C229.135 25.6297 228.953 25.5225 228.815 25.3687C228.677 25.215 228.59 25.0222 228.566 24.817C228.308 22.9894 227.494 21.2854 226.235 19.9359C224.976 18.5864 223.332 17.6566 221.527 17.2726C219.721 16.8885 217.842 17.0686 216.142 17.7886C214.443 18.5087 213.006 19.7339 212.026 21.298C211.046 22.8622 210.57 24.6896 210.664 26.533C210.757 28.3764 211.415 30.1465 212.549 31.6034C213.682 33.0603 215.236 34.1337 216.999 34.6779C218.763 35.2222 220.651 35.2112 222.409 34.6463C222.604 34.5786 222.816 34.5731 223.015 34.6307C223.213 34.6884 223.389 34.8064 223.518 34.9683C223.647 35.1301 223.723 35.3278 223.734 35.5344C223.746 35.7409 223.694 35.9461 223.584 36.1216L210 57.7971L264.237 91.7917Z" fill="#98CEF7" stroke="black" stroke-width="1.00014" stroke-miterlimit="10" stroke-linecap="round"/>
<path d="M287.241 96.3329C286.587 99.4473 285.55 102.469 284.153 105.328L281.696 110.928C285.975 110.92 290.221 110.192 294.258 108.775C294.565 108.745 294.849 108.598 295.05 108.365C295.25 108.131 295.353 107.829 295.336 107.521C295.451 104.558 295.73 101.604 296.171 98.6719C296.621 95.7216 297.92 92.9659 299.909 90.7409C298.537 90.7409 297.166 90.7956 295.796 90.9049C294.593 90.9695 293.401 91.1759 292.246 91.5199C290.926 91.9548 289.723 92.6877 288.731 93.6619L287.241 96.3329Z" fill="white" stroke="black" stroke-miterlimit="10" stroke-linecap="round"/>
<path d="M158.431 74.2999C159.713 77.7609 160.366 81.4238 160.357 85.1149C160.34 85.2982 160.371 85.4827 160.446 85.6509C160.524 85.7709 160.626 85.8731 160.746 85.9509C161.916 86.8004 163.245 87.4063 164.653 87.7326C166.062 88.059 167.521 88.0992 168.946 87.8509C169.746 87.7059 170.658 87.3459 170.846 86.5509C170.905 86.0002 170.779 85.4454 170.487 84.9749C168.894 81.5677 168.014 77.8712 167.901 74.1119C167.911 73.8496 167.869 73.5878 167.777 73.3419C167.647 73.1 167.459 72.8939 167.23 72.7419C166.098 71.9176 164.749 71.4446 163.35 71.3816C161.951 71.3187 160.565 71.6686 159.364 72.3879L158.431 74.2999Z" fill="white" stroke="black" stroke-miterlimit="10" stroke-linecap="round"/>
<path d="M171.629 59.4799C172.589 60.7183 173.309 62.1251 173.753 63.6279C174.115 64.969 174.345 66.3421 174.44 67.7279C174.705 70.6279 174.725 73.7769 173.048 76.1549C172.185 77.2957 171.084 78.2357 169.823 78.9099C168.965 79.496 167.983 79.877 166.955 80.0237C165.926 80.1704 164.878 80.0788 163.89 79.7559C162.171 79.1049 158.89 75.9889 158.738 75.8999C158.389 75.6999 158.01 76.3199 157.68 76.5509C157.048 76.9929 157.022 76.8149 156.292 77.0629C155.816 77.2616 155.305 77.3617 154.789 77.357C154.273 77.3524 153.764 77.2432 153.292 77.0359C152.798 76.7011 152.387 76.2592 152.089 75.7432C151.79 75.2272 151.612 74.6504 151.568 74.0559C151.358 72.6809 151.445 71.2767 151.822 69.938C152.2 68.5993 152.861 67.3571 153.759 66.2949C154.868 65.1503 156.05 64.0778 157.297 63.0839C158.155 62.2086 159.093 61.4142 160.097 60.7109C160.813 60.2971 161.572 59.9638 162.362 59.7169C164.106 58.9865 166.022 58.7717 167.885 59.0979L171.629 59.4799Z" fill="white" stroke="black" stroke-miterlimit="10" stroke-linecap="round"/>
<path d="M157.05 70.7179C157.987 71.2977 159.035 71.6773 160.126 71.8329C161.231 70.9667 162.08 69.8164 162.583 68.5049C163.645 65.9451 163.962 63.1371 163.497 60.4049C164.806 61.1427 166.329 61.4105 167.812 61.1639C169.283 60.9137 170.704 60.4278 172.021 59.7249C171.074 58.3414 169.849 57.1707 168.424 56.2876C166.999 55.4044 165.405 54.8283 163.745 54.5959C160.415 54.1546 157.029 54.5027 153.859 55.6119C150.533 56.4753 147.475 58.1536 144.961 60.4952C142.447 62.8369 140.556 65.7681 139.459 69.0239C138.302 72.203 137.382 75.4632 136.706 78.7779C136.636 78.9876 136.628 79.2129 136.683 79.4269C136.793 79.6505 136.973 79.8318 137.196 79.9429C141.127 82.4279 141.179 82.4109 145.658 83.6639C146.921 84.0538 148.213 84.3427 149.522 84.5279C152.951 84.6513 156.374 84.1459 159.622 83.0369C159.838 82.9369 160.483 82.8209 160.399 81.7109C160.284 80.1969 159.775 75.9479 158.263 75.8109C157.194 75.7109 156.109 76.1989 155.063 75.9779C154.042 75.7619 153.563 74.7289 153.453 73.3909C153.385 72.8774 153.441 72.3552 153.614 71.8674C153.788 71.3795 154.076 70.9399 154.453 70.5849C154.839 70.3142 155.304 70.1802 155.774 70.2043C156.245 70.2284 156.694 70.4092 157.05 70.7179V70.7179Z" fill="black" stroke="black" stroke-miterlimit="10" stroke-linecap="round"/>
<path d="M135.187 78.7629C135.689 74.2383 137.561 69.9752 140.554 66.5449C143.541 63.1406 147.081 60.2648 151.025 58.0389" stroke="black" stroke-miterlimit="10" stroke-linecap="round"/>
<path d="M192.191 90.4729C195.175 90.5789 198.159 90.5412 201.143 90.3599C201.792 90.3627 202.435 90.2309 203.03 89.9729C203.731 89.5295 204.306 88.9135 204.7 88.1839C210.953 78.6299 217.244 69.0059 221.601 58.4529C221.699 58.0874 221.938 57.7754 222.264 57.5839C222.935 57.3119 223.532 58.1239 223.726 58.8219C224.115 60.2258 224.104 61.7107 223.695 63.1089C223.387 63.8515 223.203 64.6391 223.149 65.4409C223.272 68.5309 228.592 69.6549 228.239 72.7269C228.053 74.3469 226.349 75.2419 225.04 76.2179C222.597 78.0439 221.129 80.8589 219.744 83.5769L214.78 93.3149C212.495 97.7989 209.845 102.628 205.187 104.531C203.282 105.205 201.291 105.603 199.273 105.715L190.68 106.599C190.289 106.67 189.886 106.648 189.504 106.537C189.087 106.379 187.073 106.016 186.82 105.649C185.32 103.464 186.665 100.538 187.591 98.0489L192.191 90.4729Z" fill="white" stroke="black" stroke-miterlimit="10" stroke-linecap="round"/>
<path d="M163.618 61.8979C164.223 65.1124 163.811 68.4354 162.439 71.4049" stroke="black" stroke-miterlimit="10" stroke-linecap="round"/>
<path d="M169.021 85.2939C176.734 85.7616 184.367 87.1162 191.77 89.3309C192.084 89.3638 192.388 89.4637 192.661 89.6237C192.933 89.7838 193.168 90.0003 193.35 90.2588C193.533 90.5173 193.657 90.8118 193.716 91.1224C193.775 91.4331 193.766 91.7527 193.692 92.0599C193.652 96.6593 193.155 101.243 192.211 105.745C192.167 106.163 191.988 106.557 191.702 106.865C191.365 107.097 190.964 107.218 190.556 107.213C187.625 107.468 183.193 107.725 180.261 107.981C181.477 115.594 184.594 125.781 182.273 127.518C174.593 133.268 159.496 136.153 151.702 130.559C147.464 127.518 150.351 117.523 149.57 107.959C145.787 108.813 141.67 112.359 138.165 114.027C135.445 111.27 132.724 105.669 130.003 102.912C129.747 102.701 129.564 102.414 129.48 102.093C129.469 101.739 129.581 101.392 129.796 101.111C133.196 95.5179 138.286 92.1939 144.014 89.0259C149.742 85.8579 155.135 85.5749 161.581 84.4449L169.021 85.2939Z" fill="#FD58E0"/>
<path d="M289.462 78.3249C284.85 82.0839 282.644 88.1189 281.95 94.0249C281.715 95.4444 281.762 96.8965 282.088 98.2979C282.258 98.9971 282.593 99.6454 283.065 100.188C283.537 100.732 284.133 101.153 284.801 101.419C285.453 101.609 286.136 101.671 286.811 101.601C288.484 101.484 290.115 101.029 291.607 100.265C293.099 99.5016 294.421 98.4439 295.494 97.1559C295.751 97.6399 296.123 98.0542 296.575 98.3629C297.028 98.6716 297.55 98.8655 298.094 98.9279C298.718 98.9748 299.345 98.8891 299.933 98.6765C300.522 98.4638 301.058 98.1289 301.508 97.6939C303.157 96.0779 303.271 93.4939 303.221 91.1939C303.145 87.6369 302.784 83.7299 300.257 81.2249C298.67 79.6509 296.47 78.8939 294.35 78.1849L289.462 78.3249Z" fill="white" stroke="black" stroke-miterlimit="10" stroke-linecap="round"/>
<path d="M283.776 107.795C279.476 108.847 278.276 111.186 275.489 114.624C272.702 118.062 270.745 122.587 268.974 126.641C263.695 138.723 259.862 151.376 256.042 163.995C255.903 164.336 255.865 164.709 255.931 165.071C256.083 165.446 256.357 165.759 256.707 165.961C260.007 168.296 264.127 169.129 268.149 169.513C279.849 170.632 286.592 168.434 298.149 166.246C298.632 166.201 299.091 166.016 299.47 165.714C299.741 165.4 299.924 165.021 300.002 164.614C301.697 158.469 301.092 151.92 302.25 145.652C302.86 142.352 303.95 139.152 304.486 135.846C306.041 126.184 306.659 112.096 295.341 107.522C295.336 107.522 288.026 106.751 283.776 107.795Z" fill="#3E21EF"/>
<path d="M225.655 160.296H200.255C200.052 160.297 199.854 160.36 199.688 160.476C199.521 160.592 199.394 160.756 199.323 160.947C199.252 161.137 199.241 161.344 199.291 161.541C199.341 161.738 199.449 161.915 199.602 162.049C200.976 163.258 201.948 164.856 202.39 166.632C202.832 168.407 202.722 170.275 202.075 171.987C201.428 173.698 200.276 175.172 198.77 176.211C197.264 177.251 195.478 177.807 193.648 177.805C191.818 177.804 190.033 177.244 188.529 176.202C187.025 175.16 185.875 173.684 185.231 171.971C184.588 170.258 184.482 168.39 184.927 166.616C185.372 164.841 186.347 163.244 187.723 162.038C187.873 161.903 187.978 161.725 188.025 161.529C188.072 161.333 188.059 161.128 187.987 160.939C187.915 160.751 187.788 160.589 187.622 160.474C187.456 160.359 187.26 160.297 187.058 160.296H161.658V224.296H187.239C187.446 224.297 187.647 224.362 187.815 224.482C187.983 224.603 188.11 224.772 188.178 224.967C188.246 225.162 188.252 225.373 188.195 225.572C188.138 225.771 188.02 225.947 187.859 226.076C186.448 227.265 185.437 228.859 184.962 230.642C184.487 232.426 184.572 234.312 185.205 236.045C185.838 237.778 186.989 239.275 188.501 240.333C190.013 241.391 191.814 241.958 193.659 241.958C195.504 241.958 197.305 241.391 198.817 240.333C200.33 239.275 201.48 237.778 202.113 236.045C202.746 234.312 202.831 232.426 202.356 230.642C201.881 228.859 200.87 227.265 199.459 226.076C199.298 225.946 199.181 225.77 199.124 225.571C199.068 225.372 199.074 225.16 199.143 224.965C199.211 224.77 199.339 224.601 199.508 224.481C199.677 224.361 199.878 224.297 200.085 224.297H225.661L225.655 160.296Z" fill="#FF58E0" stroke="black" stroke-miterlimit="10" stroke-linecap="round"/>
<path d="M161.655 96.2859H136.255C136.052 96.2869 135.854 96.3497 135.688 96.466C135.521 96.5823 135.394 96.7465 135.323 96.9368C135.252 97.1271 135.241 97.3345 135.291 97.5314C135.341 97.7282 135.449 97.9052 135.602 98.0389C136.976 99.2475 137.948 100.846 138.39 102.622C138.832 104.397 138.722 106.265 138.075 107.976C137.429 109.688 136.276 111.162 134.771 112.201C133.265 113.241 131.478 113.797 129.649 113.795C127.819 113.794 126.034 113.235 124.53 112.192C123.026 111.15 121.876 109.675 121.232 107.962C120.588 106.25 120.482 104.381 120.927 102.607C121.371 100.832 122.347 99.2352 123.722 98.0289C123.872 97.8938 123.978 97.7165 124.025 97.5202C124.072 97.324 124.059 97.118 123.987 96.9294C123.915 96.7408 123.788 96.5784 123.622 96.4635C123.456 96.3487 123.259 96.2868 123.057 96.2859H97.6572V160.286H123.238C123.445 160.287 123.646 160.353 123.813 160.473C123.981 160.593 124.108 160.762 124.176 160.957C124.244 161.152 124.249 161.364 124.192 161.562C124.135 161.761 124.018 161.937 123.857 162.066C122.446 163.255 121.435 164.849 120.96 166.632C120.485 168.416 120.57 170.302 121.203 172.035C121.836 173.768 122.987 175.265 124.499 176.323C126.011 177.381 127.812 177.948 129.657 177.948C131.503 177.948 133.303 177.381 134.815 176.323C136.328 175.265 137.478 173.768 138.111 172.035C138.744 170.302 138.829 168.416 138.354 166.632C137.88 164.849 136.868 163.255 135.457 162.066C135.296 161.936 135.179 161.76 135.122 161.561C135.066 161.362 135.072 161.15 135.141 160.955C135.21 160.76 135.337 160.591 135.506 160.471C135.675 160.351 135.876 160.287 136.083 160.287H161.66L161.655 96.2859Z" fill="white" stroke="black" stroke-miterlimit="10" stroke-linecap="round"/>
<path d="M136.253 160.296C136.05 160.297 135.852 160.36 135.686 160.476C135.519 160.593 135.393 160.757 135.322 160.947C135.251 161.138 135.24 161.345 135.29 161.542C135.339 161.738 135.448 161.915 135.601 162.049C136.974 163.258 137.947 164.856 138.388 166.632C138.83 168.407 138.72 170.275 138.073 171.986C137.427 173.698 136.274 175.172 134.768 176.211C133.262 177.251 131.476 177.806 129.646 177.805C127.817 177.803 126.031 177.244 124.528 176.202C123.024 175.159 121.874 173.683 121.23 171.971C120.586 170.258 120.48 168.39 120.925 166.616C121.37 164.841 122.345 163.244 123.721 162.038C123.871 161.903 123.976 161.726 124.023 161.53C124.07 161.334 124.057 161.128 123.985 160.94C123.913 160.751 123.786 160.589 123.621 160.474C123.455 160.359 123.258 160.297 123.057 160.296H97.657V185.878C97.6556 186.084 97.5902 186.285 97.47 186.453C97.3497 186.621 97.1805 186.748 96.9855 186.816C96.7904 186.883 96.5791 186.889 96.3806 186.832C96.1821 186.775 96.0062 186.658 95.877 186.497C94.6878 185.086 93.0935 184.075 91.3103 183.6C89.5271 183.125 87.6411 183.21 85.9077 183.843C84.1744 184.476 82.6775 185.627 81.6199 187.139C80.5623 188.651 79.9951 190.452 79.9951 192.297C79.9951 194.142 80.5623 195.943 81.6199 197.455C82.6775 198.967 84.1744 200.118 85.9077 200.751C87.6411 201.384 89.5271 201.469 91.3103 200.994C93.0935 200.519 94.6878 199.508 95.877 198.097C96.0068 197.936 96.1832 197.82 96.382 197.763C96.5807 197.707 96.7922 197.713 96.9871 197.782C97.182 197.851 97.3509 197.978 97.4705 198.146C97.5901 198.315 97.6544 198.516 97.6549 198.723V224.3H123.236C123.442 224.301 123.644 224.367 123.812 224.487C123.979 224.607 124.106 224.776 124.174 224.971C124.242 225.166 124.247 225.378 124.19 225.576C124.133 225.775 124.016 225.951 123.855 226.08C122.444 227.269 121.432 228.863 120.958 230.646C120.483 232.43 120.568 234.316 121.201 236.049C121.834 237.782 122.985 239.279 124.497 240.337C126.009 241.395 127.81 241.962 129.655 241.962C131.5 241.962 133.301 241.395 134.813 240.337C136.325 239.279 137.476 237.782 138.109 236.049C138.742 234.316 138.827 232.43 138.352 230.646C137.877 228.863 136.866 227.269 135.455 226.08C135.294 225.95 135.177 225.774 135.12 225.575C135.063 225.376 135.07 225.164 135.139 224.969C135.207 224.774 135.335 224.605 135.504 224.485C135.672 224.365 135.874 224.301 136.081 224.301H161.658V160.301L136.253 160.296Z" fill="#98CEF7" stroke="black" stroke-miterlimit="10" stroke-linecap="round"/>
<path d="M225.655 224.473H200.255C200.052 224.474 199.854 224.537 199.688 224.653C199.521 224.769 199.394 224.934 199.323 225.124C199.252 225.314 199.241 225.522 199.291 225.718C199.341 225.915 199.449 226.092 199.602 226.226C200.976 227.435 201.948 229.033 202.39 230.809C202.832 232.584 202.722 234.452 202.075 236.164C201.428 237.875 200.276 239.349 198.77 240.388C197.264 241.428 195.478 241.984 193.648 241.982C191.818 241.981 190.033 241.421 188.529 240.379C187.025 239.337 185.875 237.861 185.231 236.148C184.588 234.435 184.482 232.567 184.927 230.793C185.372 229.018 186.347 227.421 187.723 226.215C187.873 226.08 187.978 225.902 188.025 225.706C188.072 225.51 188.059 225.305 187.987 225.116C187.915 224.928 187.788 224.766 187.622 224.651C187.456 224.536 187.26 224.474 187.058 224.473H161.658V288.473H225.658L225.655 224.473Z" fill="#3E20EF" stroke="black" stroke-miterlimit="10" stroke-linecap="round"/>
<path d="M136.253 224.473C136.05 224.474 135.852 224.537 135.686 224.653C135.519 224.77 135.393 224.934 135.322 225.124C135.251 225.315 135.24 225.522 135.29 225.719C135.339 225.915 135.448 226.092 135.601 226.226C136.974 227.435 137.947 229.033 138.388 230.809C138.83 232.584 138.72 234.452 138.073 236.164C137.427 237.875 136.274 239.349 134.768 240.388C133.262 241.428 131.476 241.983 129.646 241.982C127.817 241.98 126.031 241.421 124.528 240.379C123.024 239.336 121.874 237.861 121.23 236.148C120.586 234.435 120.48 232.567 120.925 230.793C121.37 229.018 122.345 227.421 123.721 226.215C123.871 226.08 123.976 225.903 124.023 225.707C124.07 225.511 124.057 225.305 123.985 225.117C123.913 224.928 123.786 224.766 123.621 224.651C123.455 224.536 123.258 224.474 123.057 224.473H97.657V250.055C97.6558 250.262 97.5906 250.463 97.4705 250.631C97.3503 250.799 97.181 250.926 96.9858 250.993C96.7907 251.061 96.5794 251.067 96.3809 251.01C96.1823 250.953 96.0062 250.836 95.877 250.675C94.6878 249.264 93.0935 248.253 91.3103 247.778C89.5271 247.303 87.6411 247.388 85.9077 248.021C84.1744 248.654 82.6775 249.805 81.6199 251.317C80.5623 252.829 79.9951 254.63 79.9951 256.475C79.9951 258.32 80.5623 260.121 81.6199 261.633C82.6775 263.145 84.1744 264.296 85.9077 264.929C87.6411 265.562 89.5271 265.647 91.3103 265.172C93.0935 264.697 94.6878 263.686 95.877 262.275C96.0068 262.114 96.1832 261.998 96.382 261.941C96.5807 261.885 96.7922 261.891 96.9871 261.96C97.182 262.029 97.3509 262.156 97.4705 262.324C97.5901 262.493 97.6544 262.694 97.6549 262.901V288.473H161.655V224.473H136.253Z" fill="#2B8AFF" stroke="black" stroke-miterlimit="10" stroke-linecap="round"/>
<path d="M295.633 93.1969C297.529 90.7202 298.389 87.6044 298.033 84.5059C294.743 84.4699 291.564 83.3144 289.019 81.2299C288.043 80.547 287.356 79.5265 287.09 78.3659C287.032 77.4655 287.211 76.5658 287.609 75.7559C288.511 73.5461 289.705 71.4676 291.161 69.5759C291.553 68.9539 292.139 68.4779 292.828 68.2209C293.337 68.1214 293.864 68.1534 294.358 68.3139C298.798 69.4719 301.964 73.3229 304.512 77.1399C306 79.3699 307.437 81.8229 307.424 84.5029C307.424 85.3029 307.284 86.1029 307.28 86.9029C307.28 87.6329 307.38 88.3589 307.438 89.0859C307.639 90.9149 307.433 92.7659 306.834 94.5058C306.235 96.2457 305.258 97.8314 303.974 99.1489C301.292 101.649 298.701 104.269 295.699 102.158C294.561 101.138 294.825 98.1109 295.499 97.1579C295.823 97.438 296.202 97.6466 296.612 97.77C297.022 97.8934 297.454 97.9288 297.879 97.874C298.303 97.8191 298.712 97.6753 299.077 97.4517C299.442 97.2282 299.757 96.9301 299.999 96.5769C300.527 95.7379 300.589 93.8419 299.268 93.1959C298.468 92.8049 297.306 92.7959 297.102 93.6679L295.633 93.1969Z" fill="black" stroke="black" stroke-miterlimit="10"/>
<path d="M116.357 96.0139C112.985 95.8762 109.65 96.7654 106.793 98.5639C105.579 99.3319 104.237 100.306 102.85 99.9319C102.668 99.8937 102.502 99.8013 102.373 99.6669C102.276 99.4947 102.227 99.2992 102.233 99.1014C102.239 98.9037 102.298 98.7112 102.405 98.5449C102.727 97.8412 103.162 97.1952 103.694 96.6329C101.475 96.4509 100.06 96.5079 97.7393 96.4519C97.6599 95.6074 97.7827 94.7562 98.0977 93.9686C98.4126 93.1811 98.9106 92.4798 99.5503 91.9229C100.507 90.9889 101.759 90.4166 103.091 90.3039C107.26 89.4529 112.491 89.8609 115.056 93.2519C115.563 94.1364 115.998 95.06 116.357 96.0139Z" fill="white" stroke="black" stroke-miterlimit="10" stroke-linecap="round"/>
<path d="M166.487 65.6219C167.069 64.9448 167.885 64.5117 168.772 64.4089" stroke="black" stroke-miterlimit="10" stroke-linecap="round"/>
<path d="M171.863 63.7419C172.052 63.644 172.259 63.5864 172.47 63.5726C172.682 63.5589 172.895 63.5893 173.094 63.6619" stroke="black" stroke-miterlimit="10" stroke-linecap="round"/>
<path d="M171.128 66.5429C171.429 67.4525 171.908 68.2932 172.537 69.0159C172.758 69.2243 172.927 69.481 173.032 69.7659C173.078 69.9099 173.066 70.0664 172.998 70.2013C172.929 70.3363 172.81 70.4389 172.667 70.4869" stroke="black" stroke-miterlimit="10" stroke-linecap="round"/>
<path d="M170.327 73.1159C170.431 73.4011 170.62 73.6476 170.868 73.8221C171.117 73.9966 171.413 74.0908 171.716 74.0919C172.02 74.093 172.316 74.001 172.566 73.8282C172.816 73.6555 173.006 73.4104 173.112 73.1259" stroke="black" stroke-miterlimit="10" stroke-linecap="round"/>
<path d="M290.81 86.4459C291.332 86.4938 291.836 86.6615 292.283 86.9361C292.73 87.2107 293.108 87.5846 293.386 88.0289" stroke="black" stroke-miterlimit="10" stroke-linecap="round"/>
<path d="M285.373 84.1369C285.747 84.0603 286.135 84.0848 286.496 84.2079C286.857 84.3309 287.179 84.548 287.429 84.8369" stroke="black" stroke-miterlimit="10" stroke-linecap="round"/>
<path d="M287.062 88.2229C286.348 89.2684 285.514 90.2275 284.579 91.0809C284.259 91.3424 283.973 91.6423 283.727 91.9739C283.605 92.1408 283.521 92.3325 283.481 92.5353C283.442 92.7382 283.447 92.9473 283.497 93.1479C283.574 93.3894 283.738 93.5939 283.957 93.7219" stroke="black" stroke-miterlimit="10" stroke-linecap="round"/>
<path d="M282.653 95.1459C283.105 95.7096 283.69 96.152 284.356 96.4329C285.021 96.7138 285.746 96.8245 286.465 96.7549" stroke="black" stroke-miterlimit="10" stroke-linecap="round"/>
<path d="M270.584 51.4376C270.779 52.457 270.77 53.505 270.557 54.5207C270.343 55.5365 269.93 56.4996 269.341 57.3542C268.706 58.104 268.141 58.9103 267.653 59.7629C267.397 60.401 267.227 61.0701 267.146 61.7528C265.286 73.2 263.935 84.7145 263.093 96.2963C262.971 97.1432 263.035 98.0065 263.282 98.8258C263.676 99.6609 264.269 100.386 265.01 100.937C268.061 103.575 271.384 105.88 274.922 107.816C275.762 108.139 276.443 108.778 276.818 109.596C276.935 110.235 276.862 110.894 276.608 111.492L272.181 125.5C272.079 125.92 271.891 126.315 271.63 126.66C271.377 126.899 271.078 127.086 270.751 127.208C270.425 127.331 270.077 127.387 269.728 127.374C266.948 127.496 264.362 126.077 261.945 124.7L254.56 120.493C252.855 119.643 251.303 118.514 249.97 117.151C247.979 114.872 247.343 111.711 247.169 108.689C246.779 101.961 248.288 95.2838 249.79 88.7145C251.023 82.6497 252.69 76.6815 254.779 70.8559C255.845 68.1014 257.107 65.3738 257.464 62.4435C257.936 58.5477 256.784 54.4712 257.969 50.7303C258.725 48.3457 260.157 44.8165 262.645 45.0958C264.502 45.3058 263.741 51.0064 266.304 52.5469C267.122 53.0388 270.584 51.4376 270.584 51.4376Z" fill="white" stroke="black" stroke-miterlimit="10" stroke-linecap="round"/>
<path d="M275.73 105.09L291.625 113.479C293.933 114.697 296.306 115.968 297.953 117.992C298.946 119.238 299.625 120.705 299.931 122.268C300.237 123.832 300.161 125.446 299.71 126.974C298.409 131.234 294.241 134.149 289.887 135.084C282.21 136.733 274.469 133.213 267.406 129.786C266.736 129.461 265.991 129.043 265.837 128.316C265.788 127.941 265.828 127.56 265.952 127.204C267.968 119.648 271.06 112.421 275.133 105.745L275.73 105.09Z" fill="#3E21EF"/>
<path d="M262.167 45.2613C261.865 46.9904 262.109 48.7709 262.866 50.3545" stroke="black" stroke-miterlimit="10" stroke-linecap="round"/>
<path d="M259.746 46.7607C259.435 48.6864 259.844 50.6592 260.895 52.3022" stroke="black" stroke-miterlimit="10" stroke-linecap="round"/>
<path d="M258.17 50.1825C258.358 51.7132 258.871 53.1862 259.673 54.5032" stroke="black" stroke-miterlimit="10" stroke-linecap="round"/>
<path d="M281.102 107.936C285.348 109.44 289.449 111.325 293.355 113.568" stroke="black" stroke-miterlimit="10" stroke-linecap="round"/>
<path d="M270.226 131.092C272.746 132.806 275.655 133.862 278.688 134.166C281.72 134.469 284.781 134.011 287.591 132.832" stroke="black" stroke-miterlimit="10" stroke-linecap="round"/>
<path d="M289.617 131.944C291.273 131.259 292.685 130.092 293.668 128.593" stroke="black" stroke-miterlimit="10" stroke-linecap="round"/>
<path d="M271.816 211.657C266.833 200.057 264.212 187.581 264.106 174.957" stroke="black" stroke-miterlimit="10" stroke-linecap="round"/>
<path d="M265.506 190.427C263.734 186.491 262.334 182.398 261.324 178.202" stroke="black" stroke-miterlimit="10" stroke-linecap="round"/>
<path d="M246.643 279.035C247.785 280.248 249.122 281.262 250.598 282.035C253.091 282.988 255.844 283.006 258.35 282.085" stroke="black" stroke-miterlimit="10" stroke-linecap="round"/>
<path d="M296.883 278.811C298.435 280.622 300.614 281.779 302.983 282.053C304.029 282.087 305.075 281.986 306.095 281.753C307.008 281.574 307.916 281.372 308.819 281.146" stroke="black" stroke-miterlimit="10" stroke-linecap="round"/>
<path d="M277.517 174.899C279.497 177.068 281.955 178.746 284.698 179.799C287.43 180.844 290.251 181.642 293.125 182.184" stroke="black" stroke-miterlimit="10" stroke-linecap="round"/>
<path d="M270.491 161.332C279.353 158.794 287.279 153.719 293.291 146.732" stroke="black" stroke-miterlimit="10" stroke-linecap="round"/>
<path d="M180.136 107.994L180.289 105.839C180.467 103.311 180.635 100.696 179.775 98.3129C178.36 94.3909 174.393 91.7279 173.292 87.7069" stroke="black" stroke-miterlimit="10" stroke-linecap="round"/>
<path d="M175.857 92.2189C175.453 90.9643 175.398 89.6232 175.699 88.3399" stroke="black" stroke-miterlimit="10" stroke-linecap="round"/>
<path d="M290.502 89.8829C291.054 89.8829 291.502 89.4352 291.502 88.8829C291.502 88.3306 291.054 87.8829 290.502 87.8829C289.95 87.8829 289.502 88.3306 289.502 88.8829C289.502 89.4352 289.95 89.8829 290.502 89.8829Z" fill="black"/>
<path d="M285.502 87.3819C286.054 87.3819 286.502 86.9342 286.502 86.3819C286.502 85.8296 286.054 85.3819 285.502 85.3819C284.95 85.3819 284.502 85.8296 284.502 86.3819C284.502 86.9342 284.95 87.3819 285.502 87.3819Z" fill="black"/>
<path d="M168.5 67.8819C169.052 67.8819 169.5 67.4342 169.5 66.8819C169.5 66.3296 169.052 65.8819 168.5 65.8819C167.948 65.8819 167.5 66.3296 167.5 66.8819C167.5 67.4342 167.948 67.8819 168.5 67.8819Z" fill="black"/>
<path d="M173 66.8819C173.552 66.8819 174 66.4342 174 65.8819C174 65.3296 173.552 64.8819 173 64.8819C172.448 64.8819 172 65.3296 172 65.8819C172 66.4342 172.448 66.8819 173 66.8819Z" fill="black"/>
</svg>
