<svg width="241" height="81" viewBox="0 0 241 81" fill="none" xmlns="http://www.w3.org/2000/svg">
<path d="M221.349 0.721819H19.5844C18.849 0.721819 18.1223 0.721819 17.3887 0.725819C16.7748 0.729819 16.1657 0.741419 15.5457 0.751219C14.199 0.767016 12.8554 0.885158 11.5267 1.10462C10.1998 1.32886 8.9145 1.75162 7.71423 2.35861C6.51547 2.97077 5.42013 3.76619 4.46795 4.71601C3.51077 5.66309 2.71287 6.75778 2.10494 7.958C1.49532 9.15595 1.07262 10.4397 0.851438 11.7648C0.628136 13.0882 0.507974 14.4269 0.492033 15.7688C0.473381 16.382 0.471375 16.9972 0.461548 17.6106V63.8389C0.471375 64.4599 0.473381 65.0615 0.492033 65.6829C0.50799 67.0246 0.628151 68.3632 0.851438 69.6864C1.07203 71.0123 1.49475 72.2967 2.10494 73.495C2.71258 74.6914 3.51059 75.7818 4.46795 76.7236C5.41652 77.6776 6.51257 78.4736 7.71423 79.081C8.9145 79.6896 10.1997 80.1149 11.5267 80.3426C12.8556 80.5603 14.1991 80.6785 15.5457 80.6962C16.1655 80.7098 16.7748 80.7176 17.3889 80.7176C18.1223 80.7216 18.849 80.7216 19.5844 80.7216H221.349C222.07 80.7216 222.802 80.7216 223.523 80.7176C224.134 80.7176 224.761 80.7098 225.372 80.6962C226.716 80.6795 228.057 80.5613 229.383 80.3426C230.714 80.1133 232.004 79.6881 233.21 79.081C234.411 78.4732 235.506 77.6773 236.454 76.7236C237.409 75.7781 238.208 74.6885 238.824 73.495C239.429 72.2958 239.848 71.0115 240.065 69.6864C240.289 68.3629 240.413 67.0246 240.437 65.6827C240.445 65.0615 240.446 64.4599 240.446 63.8389C240.462 63.1123 240.462 62.3897 240.462 61.6513V19.7942C240.462 19.0616 240.462 18.3352 240.446 17.6106C240.446 16.9972 240.445 16.382 240.437 15.7686C240.413 14.4265 240.289 13.0882 240.065 11.7646C239.847 10.4404 239.429 9.15689 238.824 7.9582C237.586 5.55229 235.622 3.59388 233.21 2.35841C232.004 1.75291 230.714 1.33026 229.383 1.10442C228.057 0.884025 226.716 0.765875 225.372 0.751019C224.761 0.741219 224.134 0.729419 223.523 0.725619C222.802 0.721619 222.07 0.721619 221.349 0.721619L221.349 0.721819Z" fill="#A6A6A6"/>
<path d="M17.3986 78.9716C16.7875 78.9716 16.1912 78.9638 15.5849 78.9502C14.329 78.934 13.076 78.825 11.8362 78.6242C10.6802 78.4256 9.56033 78.0562 8.51355 77.5282C7.47633 77.0047 6.5303 76.3182 5.71171 75.495C4.8812 74.6816 4.18976 73.7381 3.66479 72.702C3.13408 71.6592 2.7668 70.5414 2.57574 69.3876C2.36948 68.1479 2.25791 66.8943 2.24201 65.6377C2.22917 65.2159 2.21252 63.8117 2.21252 63.8117V17.6104C2.21252 17.6104 2.23017 16.2276 2.24201 15.8212C2.25729 14.5666 2.36825 13.315 2.57394 12.0772C2.76537 10.9202 3.13296 9.79923 3.66398 8.753C4.18694 7.7176 4.87446 6.77341 5.69988 5.95701C6.52442 5.13286 7.47351 4.44281 8.51254 3.91201C9.55695 3.38581 10.6747 3.01912 11.8284 2.82422C13.0723 2.62146 14.3297 2.51189 15.5899 2.49642L17.3996 2.47162H223.513L225.345 2.49702C226.593 2.51181 227.839 2.62052 229.072 2.82222C230.237 3.01962 231.367 3.38893 232.423 3.91801C234.505 4.98768 236.198 6.68001 237.267 8.7578C237.789 9.79687 238.151 10.9088 238.34 12.0558C238.548 13.3037 238.665 14.5651 238.689 15.83C238.695 16.3964 238.695 17.0048 238.695 17.6104C238.711 18.3604 238.711 19.0742 238.711 19.794V61.6511C238.711 62.3777 238.711 63.0867 238.695 63.8015C238.695 64.4519 238.695 65.0477 238.687 65.6609C238.663 66.9032 238.549 68.1422 238.344 69.3679C238.157 70.53 237.791 71.6565 237.261 72.7078C236.732 73.7327 236.045 74.668 235.224 75.4792C234.405 76.3068 233.457 76.9973 232.417 77.5242C231.364 78.0562 230.236 78.4269 229.072 78.6238C227.832 78.8257 226.579 78.9348 225.323 78.95C224.723 78.964 224.123 78.9712 223.523 78.9714L221.349 78.9754L17.3986 78.9716Z" fill="black"/>
<path d="M50.1383 41.3231C50.1599 39.6538 50.6046 38.0171 51.4309 36.5652C52.2572 35.1133 53.4384 33.8935 54.8646 33.0191C53.9586 31.7288 52.7633 30.667 51.3738 29.9179C49.9843 29.1687 48.4388 28.753 46.86 28.7038C43.492 28.3512 40.227 30.7133 38.5106 30.7133C36.7613 30.7133 34.1189 28.7388 31.2736 28.7972C29.4331 28.8564 27.6393 29.3901 26.0672 30.3462C24.495 31.3023 23.198 32.6482 22.3025 34.2527C18.4236 40.9497 21.3169 50.7917 25.0327 56.2049C26.8917 58.8557 29.0642 61.8165 31.9072 61.7115C34.6889 61.5965 35.7278 59.9425 39.086 59.9425C42.4129 59.9425 43.3877 61.7115 46.2882 61.6447C49.2733 61.5965 51.154 58.9823 52.9478 56.3065C54.2835 54.4178 55.3113 52.3303 55.9931 50.1215C54.2589 49.39 52.7789 48.1657 51.7377 46.6011C50.6966 45.0365 50.1403 43.2009 50.1383 41.3231ZM44.6598 25.1436C46.2874 23.1952 47.0892 20.6908 46.8951 18.1624C44.4084 18.4228 42.1115 19.6079 40.4619 21.4816C39.6553 22.3969 39.0376 23.4618 38.644 24.6153C38.2504 25.7689 38.0887 26.9884 38.1681 28.2044C39.4118 28.2171 40.6423 27.9483 41.7668 27.4181C42.8913 26.8879 43.8804 26.1102 44.6598 25.1436V25.1436ZM85.3035 55.0011H75.8101L73.5304 61.7139H69.5091L78.5013 36.8779H82.6789L91.6709 61.7139H87.5813L85.3035 55.0011ZM76.7933 51.9033H84.3183L80.6088 41.0089H80.5049L76.7933 51.9033ZM111.09 52.6613C111.09 58.2881 108.07 61.9033 103.513 61.9033C102.358 61.9635 101.21 61.6983 100.199 61.1381C99.1889 60.5778 98.3571 59.7451 97.7992 58.7353H97.713V67.7041H93.9858V43.6065H97.5937V46.6183H97.6623C98.2458 45.6134 99.0916 44.785 100.11 44.2213C101.128 43.6576 102.28 43.3797 103.444 43.4171C108.053 43.4171 111.09 47.0499 111.09 52.6611V52.6613ZM107.259 52.6613C107.259 48.9953 105.36 46.5851 102.461 46.5851C99.6129 46.5851 97.6976 49.0459 97.6976 52.6611C97.6976 56.3097 99.6129 58.7531 102.461 58.7531C105.36 58.7531 107.259 56.3605 107.259 52.6611V52.6613ZM131.076 52.6613C131.076 58.2881 128.056 61.9033 123.498 61.9033C122.344 61.9635 121.195 61.6983 120.185 61.138C119.175 60.5777 118.343 59.745 117.785 58.7353H117.699V67.7041H113.971V43.6065H117.579V46.6183H117.648C118.231 45.6134 119.077 44.785 120.095 44.2213C121.113 43.6576 122.266 43.3797 123.43 43.4171C128.038 43.4171 131.076 47.0499 131.076 52.6611V52.6613ZM127.245 52.6613C127.245 48.9953 125.345 46.5851 122.446 46.5851C119.598 46.5851 117.683 49.0459 117.683 52.6611C117.683 56.3097 119.598 58.7531 122.446 58.7531C125.345 58.7531 127.245 56.3605 127.245 52.6611V52.6613ZM144.285 54.7941C144.561 57.2569 146.96 58.8741 150.239 58.8741C153.38 58.8741 155.641 57.2569 155.641 55.0361C155.641 53.1083 154.278 51.9541 151.05 51.1631L147.822 50.3877C143.249 49.2861 141.126 47.1533 141.126 43.6923C141.126 39.4071 144.87 36.4639 150.188 36.4639C155.451 36.4639 159.059 39.4071 159.18 43.6923H155.417C155.192 41.2139 153.138 39.7177 150.135 39.7177C147.133 39.7177 145.078 41.2315 145.078 43.4345C145.078 45.1905 146.39 46.2237 149.6 47.0145L152.344 47.6865C157.454 48.8915 159.578 50.9385 159.578 54.5711C159.578 59.2177 155.866 62.1279 149.963 62.1279C144.439 62.1279 140.71 59.2859 140.469 54.7939L144.285 54.7941ZM167.622 39.3215V43.6065H171.075V46.5499H167.622V56.5323C167.622 58.0831 168.313 58.8057 169.831 58.8057C170.241 58.7985 170.65 58.7698 171.057 58.7197V61.6457C170.374 61.7727 169.681 61.8302 168.987 61.8173C165.31 61.8173 163.877 60.4405 163.877 56.9287V46.5499H161.236V43.6065H163.877V39.3215H167.622ZM173.074 52.6613C173.074 46.9639 176.439 43.3839 181.686 43.3839C186.951 43.3839 190.3 46.9639 190.3 52.6613C190.3 58.3741 186.969 61.9385 181.686 61.9385C176.406 61.9385 173.074 58.3741 173.074 52.6613ZM186.503 52.6613C186.503 48.7531 184.706 46.4463 181.686 46.4463C178.666 46.4463 176.872 48.7705 176.872 52.6613C176.872 56.5851 178.666 58.8741 181.686 58.8741C184.706 58.8741 186.503 56.5851 186.503 52.6613ZM193.373 43.6065H196.928V46.6885H197.014C197.255 45.7259 197.82 44.8753 198.616 44.2795C199.411 43.6838 200.388 43.3792 201.382 43.4171C201.812 43.4156 202.24 43.4621 202.659 43.5557V47.0323C202.117 46.8671 201.551 46.7912 200.984 46.8077C200.443 46.7858 199.903 46.881 199.402 47.0868C198.901 47.2925 198.45 47.604 198.081 47.9998C197.713 48.3956 197.434 48.8663 197.264 49.3796C197.095 49.893 197.039 50.4368 197.101 50.9737V61.7139H193.373V43.6065ZM219.844 56.3955C219.342 59.6827 216.132 61.9385 212.025 61.9385C206.743 61.9385 203.464 58.4093 203.464 52.7471C203.464 47.0675 206.76 43.3839 211.868 43.3839C216.892 43.3839 220.051 46.8253 220.051 52.3155V53.5889H207.226V53.8135C207.167 54.4799 207.251 55.1512 207.472 55.7829C207.693 56.4146 208.046 56.9922 208.508 57.4773C208.97 57.9624 209.53 58.3439 210.151 58.5965C210.773 58.8491 211.441 58.9671 212.111 58.9425C212.992 59.0248 213.876 58.8214 214.631 58.3625C215.387 57.9036 215.974 57.2137 216.305 56.3955H219.844ZM207.244 50.9913H216.322C216.356 50.3921 216.264 49.7925 216.055 49.23C215.845 48.6676 215.52 48.1545 215.102 47.723C214.684 47.2914 214.181 46.9508 213.624 46.7223C213.068 46.4939 212.47 46.3826 211.868 46.3955C211.261 46.3919 210.66 46.5082 210.098 46.7377C209.536 46.9672 209.026 47.3054 208.596 47.7326C208.166 48.1599 207.825 48.6678 207.593 49.2271C207.361 49.7864 207.243 50.386 207.244 50.9913V50.9913ZM76.3262 18.1838C77.1076 18.1278 77.8917 18.2456 78.622 18.5284C79.3523 18.8113 80.0105 19.2523 80.5492 19.8195C81.0879 20.3868 81.4936 21.0662 81.737 21.8088C81.9805 22.5513 82.0557 23.3385 81.9571 24.1136C81.9571 27.926 79.8907 30.1175 76.3262 30.1175H72.0035V18.1836L76.3262 18.1838ZM73.8623 28.4298H76.1186C76.677 28.463 77.2357 28.3717 77.7542 28.1625C78.2727 27.9532 78.7379 27.6313 79.116 27.2202C79.494 26.8091 79.7753 26.3191 79.9395 25.7858C80.1037 25.2526 80.1466 24.6896 80.065 24.1378C80.1407 23.5881 80.0934 23.0286 79.9267 22.4993C79.7601 21.9699 79.478 21.4839 79.1009 21.0761C78.7237 20.6682 78.2607 20.3486 77.7451 20.1401C77.2296 19.9316 76.6741 19.8395 76.1186 19.8702H73.8623V28.4298ZM84.0568 25.6106C84 25.0187 84.0679 24.4216 84.2561 23.8574C84.4443 23.2933 84.7486 22.7746 85.1496 22.3346C85.5506 21.8947 86.0394 21.5431 86.5847 21.3026C87.1299 21.062 87.7195 20.9378 88.3157 20.9378C88.9119 20.9378 89.5015 21.062 90.0468 21.3026C90.592 21.5431 91.0808 21.8947 91.4818 22.3346C91.8828 22.7746 92.1872 23.2933 92.3753 23.8574C92.5635 24.4216 92.6314 25.0187 92.5746 25.6106C92.6326 26.2031 92.5657 26.8012 92.3781 27.3663C92.1904 27.9315 91.8863 28.4513 91.4852 28.8923C91.0841 29.3332 90.5948 29.6856 90.049 29.9267C89.5031 30.1679 88.9127 30.2925 88.3157 30.2925C87.7187 30.2925 87.1283 30.1679 86.5824 29.9267C86.0366 29.6856 85.5474 29.3332 85.1463 28.8923C84.7451 28.4513 84.441 27.9315 84.2534 27.3663C84.0657 26.8012 83.9988 26.2031 84.0568 25.6106ZM90.7415 25.6106C90.7415 23.6584 89.862 22.5168 88.3187 22.5168C86.7694 22.5168 85.898 23.6584 85.898 25.6106C85.898 27.5784 86.7696 28.7112 88.3187 28.7112C89.862 28.7112 90.7415 27.5706 90.7415 25.6106V25.6106ZM103.897 30.1173H102.048L100.182 23.4846H100.041L98.1823 30.1173H96.351L93.8616 21.1114H95.6693L97.2872 27.9834H97.4204L99.2772 21.1114H100.987L102.844 27.9834H102.985L104.595 21.1114H106.377L103.897 30.1173ZM108.471 21.1116H110.186V22.5422H110.32C110.546 22.0283 110.927 21.5975 111.41 21.3099C111.893 21.0223 112.454 20.8921 113.015 20.9376C113.454 20.9046 113.895 20.9707 114.306 21.1309C114.716 21.2911 115.085 21.5413 115.385 21.863C115.685 22.1847 115.909 22.5696 116.04 22.9892C116.171 23.4089 116.205 23.8525 116.141 24.2872V30.1171H114.358V24.7336C114.358 23.2864 113.728 22.5666 112.41 22.5666C112.111 22.5527 111.813 22.6034 111.536 22.715C111.26 22.8267 111.01 22.9968 110.805 23.2135C110.601 23.4303 110.445 23.6886 110.35 23.9709C110.255 24.2531 110.221 24.5526 110.253 24.8488V30.1173H108.471V21.1116ZM118.981 17.5958H120.763V30.1173H118.981V17.5958ZM123.241 25.6106C123.184 25.0186 123.252 24.4214 123.44 23.8572C123.628 23.293 123.933 22.7742 124.334 22.3342C124.735 21.8942 125.224 21.5426 125.769 21.302C126.314 21.0614 126.904 20.9371 127.5 20.9371C128.096 20.9371 128.686 21.0614 129.231 21.302C129.777 21.5426 130.266 21.8942 130.667 22.3342C131.068 22.7742 131.372 23.293 131.56 23.8572C131.749 24.4214 131.816 25.0186 131.76 25.6106C131.817 26.203 131.75 26.8009 131.562 27.3659C131.375 27.9309 131.07 28.4505 130.669 28.8913C130.268 29.332 129.779 29.6843 129.233 29.9253C128.687 30.1663 128.097 30.2908 127.5 30.2908C126.903 30.2908 126.313 30.1663 125.767 29.9253C125.221 29.6843 124.732 29.332 124.331 28.8913C123.93 28.4505 123.626 27.9309 123.438 27.3659C123.25 26.8009 123.183 26.203 123.241 25.6106V25.6106ZM129.925 25.6106C129.925 23.6584 129.046 22.5168 127.503 22.5168C125.953 22.5168 125.082 23.6584 125.082 25.6106C125.082 27.5784 125.953 28.7112 127.503 28.7112C129.046 28.7112 129.925 27.5706 129.925 25.6106ZM133.636 27.5706C133.636 25.9494 134.846 25.0148 136.995 24.882L139.441 24.7414V23.964C139.441 23.0128 138.811 22.4758 137.592 22.4758C136.597 22.4758 135.908 22.84 135.71 23.4768H133.984C134.167 21.9298 135.626 20.9378 137.675 20.9378C139.939 20.9378 141.216 22.0618 141.216 23.964V30.1173H139.5V28.8518H139.359C139.073 29.3057 138.671 29.6758 138.194 29.9242C137.718 30.1727 137.183 30.2905 136.646 30.2657C136.267 30.3051 135.884 30.2647 135.521 30.1473C135.159 30.0299 134.825 29.8381 134.541 29.5842C134.258 29.3302 134.031 29.0199 133.875 28.673C133.719 28.3262 133.637 27.9507 133.636 27.5706V27.5706ZM139.441 26.801V26.048L137.236 26.1886C135.992 26.2716 135.428 26.6936 135.428 27.4874C135.428 28.298 136.133 28.7698 137.103 28.7698C137.387 28.7984 137.674 28.7698 137.946 28.6857C138.219 28.6015 138.472 28.4634 138.69 28.2797C138.909 28.0961 139.087 27.8705 139.216 27.6164C139.345 27.3624 139.422 27.0851 139.441 26.801V26.801ZM143.558 25.6106C143.558 22.7648 145.025 20.9622 147.307 20.9622C147.871 20.9362 148.431 21.071 148.922 21.3508C149.412 21.6306 149.813 22.0438 150.076 22.5422H150.21V17.5956H151.992V30.1171H150.284V28.6942H150.143C149.859 29.1891 149.445 29.5972 148.945 29.8742C148.445 30.1512 147.879 30.2865 147.307 30.2655C145.009 30.2655 143.558 28.4628 143.558 25.6104V25.6106ZM145.399 25.6106C145.399 27.5206 146.302 28.6702 147.812 28.6702C149.314 28.6702 150.243 27.5042 150.243 25.6182C150.243 23.7414 149.305 22.5588 147.812 22.5588C146.312 22.5588 145.399 23.716 145.399 25.6106ZM159.366 25.6106C159.309 25.0187 159.377 24.4216 159.565 23.8574C159.753 23.2933 160.058 22.7746 160.459 22.3346C160.86 21.8947 161.349 21.5431 161.894 21.3026C162.439 21.062 163.029 20.9378 163.625 20.9378C164.221 20.9378 164.811 21.062 165.356 21.3026C165.901 21.5431 166.39 21.8947 166.791 22.3346C167.192 22.7746 167.496 23.2933 167.685 23.8574C167.873 24.4216 167.941 25.0187 167.884 25.6106C167.942 26.2031 167.875 26.8012 167.687 27.3663C167.5 27.9315 167.195 28.4513 166.794 28.8923C166.393 29.3332 165.904 29.6856 165.358 29.9267C164.812 30.1679 164.222 30.2925 163.625 30.2925C163.028 30.2925 162.437 30.1679 161.892 29.9267C161.346 29.6856 160.857 29.3332 160.455 28.8923C160.054 28.4513 159.75 27.9315 159.563 27.3663C159.375 26.8012 159.308 26.2031 159.366 25.6106V25.6106ZM166.051 25.6106C166.051 23.6584 165.171 22.5168 163.628 22.5168C162.079 22.5168 161.207 23.6584 161.207 25.6106C161.207 27.5784 162.079 28.7112 163.628 28.7112C165.171 28.7112 166.051 27.5706 166.051 25.6106ZM170.275 21.1116H171.991V22.5422H172.124C172.35 22.0283 172.731 21.5975 173.214 21.3099C173.698 21.0223 174.259 20.8921 174.819 20.9376C175.259 20.9046 175.7 20.9707 176.11 21.1309C176.521 21.2911 176.89 21.5413 177.19 21.863C177.49 22.1847 177.714 22.5696 177.845 22.9892C177.975 23.4089 178.01 23.8525 177.945 24.2872V30.1171H176.163V24.7336C176.163 23.2864 175.532 22.5666 174.214 22.5666C173.916 22.5527 173.618 22.6034 173.341 22.715C173.064 22.8267 172.815 22.9968 172.61 23.2135C172.405 23.4303 172.25 23.6886 172.154 23.9709C172.059 24.2531 172.026 24.5526 172.058 24.8488V30.1173H170.276L170.275 21.1116ZM188.017 18.8694V21.1526H189.973V22.6496H188.017V27.2804C188.017 28.2238 188.406 28.637 189.294 28.637C189.521 28.6362 189.747 28.6224 189.973 28.5958V30.0763C189.653 30.1334 189.329 30.1638 189.004 30.1671C187.022 30.1671 186.232 29.4718 186.232 27.7356V22.6496H184.799V21.1524H186.232V18.8696L188.017 18.8694ZM192.408 17.5958H194.174V22.5588H194.315C194.552 22.0401 194.944 21.6069 195.437 21.3182C195.929 21.0295 196.499 20.8993 197.069 20.9454C197.506 20.9216 197.943 20.9944 198.349 21.1585C198.755 21.3226 199.119 21.574 199.416 21.8947C199.713 22.2154 199.936 22.5975 200.068 23.0138C200.2 23.4301 200.238 23.8703 200.179 24.303V30.1173H198.395V24.7414C198.395 23.3028 197.723 22.5744 196.464 22.5744C196.158 22.5493 195.85 22.5913 195.561 22.6975C195.273 22.8036 195.011 22.9712 194.795 23.1887C194.578 23.4062 194.412 23.6682 194.307 23.9565C194.203 24.2447 194.163 24.5523 194.19 24.8576V30.1173H192.408V17.5958ZM210.572 27.6856C210.33 28.5087 209.805 29.2207 209.09 29.697C208.374 30.1733 207.514 30.3836 206.658 30.2911C206.063 30.3068 205.472 30.1932 204.926 29.9581C204.379 29.7231 203.89 29.3722 203.493 28.93C203.097 28.4877 202.801 27.9646 202.627 27.3969C202.453 26.8293 202.405 26.2307 202.487 25.6428C202.407 25.053 202.456 24.4531 202.63 23.8837C202.803 23.3143 203.097 22.7888 203.492 22.3426C203.887 21.8965 204.373 21.5401 204.918 21.2977C205.463 21.0553 206.054 20.9325 206.651 20.9376C209.163 20.9376 210.68 22.6496 210.68 25.4776V26.0978H204.302V26.1974C204.274 26.5278 204.316 26.8605 204.425 27.174C204.533 27.4875 204.706 27.7749 204.933 28.0178C205.159 28.2607 205.434 28.4538 205.74 28.5846C206.045 28.7154 206.375 28.781 206.707 28.7774C207.134 28.8284 207.566 28.7519 207.948 28.5574C208.331 28.363 208.647 28.0595 208.856 27.6856H210.572ZM204.302 24.7834H208.864C208.886 24.4811 208.845 24.1775 208.743 23.8921C208.641 23.6067 208.48 23.3457 208.27 23.126C208.061 22.9063 207.808 22.7327 207.527 22.6163C207.247 22.5 206.945 22.4434 206.641 22.4504C206.333 22.4465 206.027 22.5042 205.741 22.6201C205.456 22.736 205.196 22.9077 204.978 23.1251C204.76 23.3426 204.588 23.6013 204.472 23.8861C204.356 24.1709 204.298 24.476 204.302 24.7834V24.7834Z" fill="white"/>
</svg>
