<svg width="350" height="200" viewBox="0 0 350 200" fill="none" xmlns="http://www.w3.org/2000/svg">
<path d="M232.98 38.3949H116.98C99.3074 38.3949 84.9805 52.7218 84.9805 70.3949V126.395C84.9805 144.068 99.3074 158.395 116.98 158.395H232.98C250.654 158.395 264.98 144.068 264.98 126.395V70.3949C264.98 52.7218 250.654 38.3949 232.98 38.3949Z" fill="white"/>
<path d="M232.98 38.8949H116.98C99.5835 38.8949 85.4805 52.9979 85.4805 70.3949V126.395C85.4805 143.792 99.5835 157.895 116.98 157.895H232.98C250.377 157.895 264.48 143.792 264.48 126.395V70.3949C264.48 52.9979 250.377 38.8949 232.98 38.8949Z" stroke="black"/>
<path d="M171.594 112.352L180.468 156.952C180.712 158.276 180.895 159.827 179.968 160.802C179.567 161.172 179.098 161.462 178.586 161.653C168.738 166.059 156.386 162.303 145.706 163.864C139.915 164.711 133.899 165.108 128.306 163.402L127.179 124.982L171.594 112.352Z" fill="#3E20EF"/>
<path d="M130.527 105.808C128.389 108.348 125.962 110.631 123.294 112.608C122.328 113.395 121.227 113.999 120.044 114.392C116.813 115.301 113.475 113.308 111.075 110.961C106.299 106.291 103.416 100.069 99.5755 94.5999C96.2505 89.8609 92.1755 85.6499 89.1865 80.6939C88.0565 78.8229 87.0585 76.6939 87.3645 74.5329C87.6705 72.3719 89.8115 70.3589 91.9125 70.9599C92.6809 71.2386 93.3826 71.675 93.9725 72.2409C101.193 78.2885 108.093 84.7071 114.647 91.4709C115.929 92.7949 117.289 94.1869 119.067 94.6709C120.545 95.0709 122.137 94.7909 123.626 95.1499C125.981 95.7179 127.687 97.7919 128.737 99.9759L130.527 105.808Z" fill="white" stroke="black" stroke-miterlimit="10" stroke-linecap="round"/>
<path d="M115.871 93.0299C114.779 92.0139 113.587 91.1094 112.314 90.3299C111.674 89.9442 110.956 89.706 110.212 89.6326C109.469 89.5593 108.718 89.6527 108.015 89.9059C106.171 90.7149 105.373 92.8489 104.76 94.7669L101.221 105.847C98.7034 98.3416 95.7617 90.9851 92.4105 83.8129C91.7472 82.0475 90.6514 80.4768 89.2235 79.2449C88.1065 78.4299 86.3755 78.1189 85.4425 79.1449C85.0292 79.6887 84.7757 80.337 84.7105 81.0169C82.4915 93.1549 84.4755 104.056 89.2275 115.444C90.7141 119.338 92.8635 122.945 95.5805 126.106C97.0085 127.666 98.9805 129.126 101.054 128.699C102.77 128.345 106.596 126.567 110.114 122.17C113.133 118.396 116.555 113.034 119.325 103.86L115.871 93.0299Z" fill="white" stroke="black" stroke-miterlimit="10" stroke-linecap="round"/>
<path d="M132.436 67.4389C129.083 66.923 125.655 67.1828 122.417 68.1983C119.18 69.2138 116.218 70.958 113.759 73.2969C108.948 77.9489 106.546 84.4969 104.459 90.8579C104.222 91.3135 104.169 91.8429 104.312 92.3364C104.454 92.83 104.781 93.2498 105.224 93.5089C109.832 97.7379 114.659 101.787 118.572 106.666C120.929 104.362 122.868 101.666 124.3 98.6979C123.877 102.232 123.802 105.798 124.074 109.347L124.774 125.247C124.756 126.1 124.908 126.948 125.221 127.741C125.53 128.302 125.959 128.787 126.478 129.162C126.996 129.537 127.592 129.791 128.221 129.908C129.474 130.197 130.773 130.229 132.038 130.002C139.057 128.717 159.417 121.931 159.417 121.931C162.22 120.694 165.109 119.662 168.06 118.843C169.75 118.374 171.56 117.917 172.755 116.631C174.085 115.199 174.323 113.092 174.402 111.14C174.793 101.54 172.958 91.9999 171.133 82.5649L154.854 66.7139L147.817 64.9689L132.436 67.4389Z" fill="#FF58E0"/>
<path d="M132.521 55.0759C133.308 58.9959 133.151 63.0469 132.061 66.8939C133.026 67.4529 134.045 65.5199 135.099 65.8859C135.41 66.0181 135.749 66.0739 136.085 66.0489C136.572 65.91 137.008 65.632 137.339 65.2489C138.782 63.9489 140.686 65.5199 141.763 63.9029C142.709 62.1795 143.023 60.1804 142.653 58.2499C142.458 56.5142 142.097 54.801 141.576 53.1339C141.167 51.5709 140.4 50.1246 139.334 48.9099C138.795 48.3096 138.11 47.8583 137.346 47.5994C136.582 47.3406 135.764 47.2829 134.97 47.4319C134.188 47.621 133.51 48.1086 133.082 48.7906C132.654 49.4725 132.509 50.2948 132.679 51.0819L132.521 55.0759Z" fill="white" stroke="black" stroke-miterlimit="10" stroke-linecap="round"/>
<path d="M140.493 60.3859C138.481 61.8414 136.093 62.6893 133.612 62.8289C133.208 62.7836 132.798 62.8233 132.409 62.9456C132.02 63.0678 131.662 63.2699 131.355 63.5389C131.081 63.974 130.942 64.4807 130.955 64.9949L130.773 67.6359C130.751 67.706 130.749 67.7808 130.767 67.8522C130.785 67.9235 130.822 67.9886 130.874 68.0403C130.926 68.0919 130.992 68.1282 131.063 68.1451C131.135 68.1619 131.21 68.1587 131.279 68.1359C134.706 68.228 138.088 67.3522 141.039 65.6089C142.623 64.8131 143.861 63.4664 144.52 61.8219C144.69 61.3553 144.71 60.8475 144.578 60.3689C144.508 60.132 144.368 59.9214 144.178 59.7635C143.988 59.6057 143.755 59.5077 143.509 59.4819L140.493 60.3859Z" fill="#FD58E0"/>
<path d="M118.187 37.7899C117.631 43.0523 118.381 48.3707 120.371 53.2739C121.034 55.0987 122.066 56.7669 123.403 58.1739C124.077 58.8712 124.894 59.4142 125.797 59.7657C126.701 60.1172 127.67 60.2687 128.637 60.2099C129.941 59.9843 131.19 59.5144 132.319 58.8249C132.835 58.5758 133.324 58.2742 133.777 57.9249C134.255 57.5115 134.661 57.0215 134.977 56.4749C135.677 55.3026 136.107 53.9891 136.236 52.6298C136.365 51.2706 136.189 49.8997 135.721 48.6169C136.683 49.1606 137.76 49.468 138.864 49.5137C139.967 49.5595 141.066 49.3423 142.069 48.8801C143.073 48.4178 143.952 47.7238 144.634 46.8551C145.317 45.9865 145.783 44.9681 145.994 43.8839C146.723 40.1529 144.288 36.4579 141.26 34.1589C137.948 31.6669 133.942 30.2698 129.798 30.1619C126.233 30.0699 122.485 31.0299 119.954 33.5429L118.187 37.7899Z" fill="white" stroke="black" stroke-miterlimit="10" stroke-linecap="round"/>
<path d="M125.391 43.4069C124.889 43.0706 124.307 42.8716 123.703 42.8297C123.1 42.7878 122.496 42.9044 121.951 43.1679" stroke="black" stroke-miterlimit="10" stroke-linecap="round"/>
<path d="M120.298 46.6229C120.659 48.3592 120.679 50.149 120.357 51.8929C120.328 51.9803 120.318 52.0732 120.328 52.1649C120.355 52.2622 120.41 52.3496 120.485 52.4159C120.805 52.7357 121.234 52.9219 121.685 52.9369" stroke="black" stroke-miterlimit="10" stroke-linecap="round"/>
<path d="M127.393 52.8549C127.135 53.4298 126.802 53.9679 126.401 54.4549C125.998 54.9429 125.458 55.2997 124.851 55.4799C124.254 55.6354 123.62 55.5641 123.071 55.2799" stroke="black" stroke-miterlimit="10" stroke-linecap="round"/>
<path d="M89.8254 87.4059L96.9685 86.0529C100.223 85.4365 102.361 82.299 101.744 79.0449L98.0431 59.5031C97.4267 56.249 94.2891 54.1107 91.0351 54.7271L83.892 56.0801C80.6379 56.6964 78.4997 59.834 79.116 63.0881L82.8174 82.6299C83.4338 85.8839 86.5713 88.0222 89.8254 87.4059Z" fill="#98CEF7" stroke="black" stroke-width="0.99946" stroke-miterlimit="10"/>
<path d="M90.4495 57.3979L84.8766 58.4534C84.6187 58.5023 84.3537 58.4999 84.0967 58.4463C83.8397 58.3927 83.5958 58.2891 83.3789 58.1412C83.162 57.9934 82.9763 57.8043 82.8325 57.5847C82.6886 57.3651 82.5895 57.1193 82.5406 56.8614L82.4476 56.3704L91.9485 54.5709L92.0415 55.0619C92.1401 55.5828 92.0278 56.1215 91.7293 56.5596C91.4307 56.9977 90.9704 57.2992 90.4495 57.3979V57.3979Z" fill="black" stroke="black" stroke-width="0.99946" stroke-miterlimit="10" stroke-linecap="round"/>
<path d="M83.8515 87.7129C82.8967 85.8731 82.3458 83.8507 82.2355 81.7809C82.1115 80.4453 82.3401 79.1005 82.8985 77.8809C83.5528 76.7559 84.4449 75.7874 85.5125 75.0429C85.8961 74.7025 86.3503 74.4511 86.8425 74.3069C87.09 74.2396 87.3521 74.2484 87.5945 74.3322C87.8369 74.4161 88.0485 74.571 88.2015 74.7769C88.3751 75.1314 88.418 75.5359 88.3225 75.9189C88.1577 76.9507 87.7637 77.9325 87.1694 78.7919C86.9823 79.0126 86.8458 79.2717 86.7695 79.5509C86.7489 79.8872 86.8208 80.2227 86.9775 80.5209C88.0515 83.1899 88.8565 84.8449 88.3615 87.6799" fill="white"/>
<path d="M83.8515 87.7129C82.8967 85.8731 82.3458 83.8507 82.2355 81.7809C82.1115 80.4453 82.3401 79.1005 82.8985 77.8809C83.5528 76.7559 84.4449 75.7874 85.5125 75.0429C85.8961 74.7025 86.3503 74.4511 86.8425 74.3069C87.09 74.2396 87.3521 74.2484 87.5945 74.3322C87.8369 74.4161 88.0485 74.571 88.2015 74.7769C88.3751 75.1314 88.418 75.5359 88.3225 75.9189C88.1577 76.9507 87.7637 77.9325 87.1694 78.7919C86.9823 79.0126 86.8458 79.2717 86.7695 79.5509C86.7489 79.8872 86.8208 80.2227 86.9775 80.5209C88.0515 83.1899 88.8565 84.8449 88.3615 87.6799" stroke="black" stroke-miterlimit="10" stroke-linecap="round"/>
<path d="M124.279 98.5519C124.885 96.9932 125.376 95.3927 125.749 93.7629C127.113 88.2199 127.935 82.0789 125.264 77.0329" stroke="black" stroke-miterlimit="10" stroke-linecap="round"/>
<path d="M122.218 71.9169C123.155 72.7515 123.849 73.8221 124.23 75.0169" stroke="black" stroke-miterlimit="10" stroke-linecap="round"/>
<path d="M140.965 67.5439C137.69 68.0545 134.346 67.9275 131.118 67.1699" stroke="black" stroke-miterlimit="10" stroke-linecap="round"/>
<path d="M133.222 43.9229C132.269 42.4909 130.357 40.3729 129.404 38.9409C126.658 39.8495 123.72 40.0114 120.891 39.4099C119.717 39.2106 118.609 38.7303 117.662 38.0099C116.918 37.3269 116.367 36.4602 116.064 35.4969C115.761 34.5336 115.717 33.5076 115.936 32.5219C116.408 30.5469 117.523 28.785 119.106 27.5139C121.105 25.8134 123.567 24.7517 126.175 24.4659C128.031 24.2659 129.906 24.4659 131.775 24.3789C134.293 24.2579 136.775 23.6079 139.293 23.6209C145.666 23.6529 151.393 27.9969 154.813 33.3719C156.699 36.3329 158.061 39.6599 160.404 42.2719C161.797 43.8259 163.518 45.1049 164.632 46.8719C167.132 50.8379 165.944 56.0719 167.269 60.5669C167.885 62.3528 168.66 64.08 169.584 65.7279C173.484 73.5113 175.606 82.0635 175.798 90.7669C176.023 94.5496 175.439 98.3368 174.084 101.876C172.595 105.346 169.77 108.393 166.134 109.411C161.842 110.611 157.322 108.878 153.27 107.023C150.011 105.531 146.61 103.767 144.842 100.65C141.81 95.3049 144.774 88.3669 142.874 82.5229C142.105 80.1599 140.585 78.1229 139.501 75.8879C137.983 72.7428 137.347 69.245 137.66 65.7669C137.86 63.6279 138.411 61.5319 138.568 59.3899C138.848 55.4118 137.763 51.4571 135.49 48.1799C137.88 48.4369 139.584 45.6089 139.369 43.2149C139.352 42.525 139.159 41.8509 138.81 41.256C138.46 40.6612 137.964 40.1652 137.369 39.8149C136.127 39.2239 134.031 39.9209 133.733 41.2639C133.577 41.9449 133.222 43.9229 133.222 43.9229Z" fill="black"/>
<path d="M157.488 162.292C161.491 157.684 164.28 152.15 165.602 146.192" stroke="black" stroke-miterlimit="10" stroke-linecap="round"/>
<path d="M139.548 51.4539C140.524 60.3079 134.563 69.2859 137.174 77.8019C138.443 81.9409 141.6 85.3019 142.863 89.4399C144.487 94.7689 142.779 100.727 144.622 105.983" stroke="black" stroke-miterlimit="10" stroke-linecap="round"/>
<path d="M171.016 70.9779C175.118 78.6524 177.151 87.2623 176.916 95.9609" stroke="#2B8AFC" stroke-miterlimit="10" stroke-linecap="round"/>
<path d="M123.615 47.2119C124.278 47.2119 124.815 46.6746 124.815 46.0119C124.815 45.3491 124.278 44.8119 123.615 44.8119C122.953 44.8119 122.415 45.3491 122.415 46.0119C122.415 46.6746 122.953 47.2119 123.615 47.2119Z" fill="black"/>
<path d="M247.757 100.846L250.557 113.567C252.293 100.133 255.715 86.9723 260.743 74.3949C261.409 72.3707 262.494 70.5097 263.928 68.9339C265.001 67.9811 266.212 67.1968 267.519 66.6079C270.487 65.1269 271.482 63.3819 274.637 62.3569C276.673 61.6959 278.523 60.8439 280.037 62.3569C281.237 63.5569 281.837 66.5569 281.837 70.1569C281.837 73.5389 281.23 76.1049 278.087 77.3569C277.128 77.6236 276.261 78.1503 275.583 78.8789C275.159 79.5639 274.911 80.343 274.86 81.1469C273.213 92.7179 272.526 104.437 270.16 115.883C269.435 120.181 268.004 124.33 265.925 128.162C264.997 129.862 263.69 131.326 262.105 132.442C260.683 133.29 259.124 133.885 257.498 134.201C254.514 134.897 251.463 135.266 248.398 135.301C246.513 135.4 244.625 135.136 242.839 134.522C239.018 133.022 236.739 129.148 234.987 125.435C231.287 117.582 230.44 109.235 228.941 100.68C228.854 100.496 228.818 100.293 228.836 100.091C228.854 99.8885 228.925 99.6946 229.043 99.5293C229.161 99.3639 229.321 99.233 229.506 99.1501C229.691 99.0672 229.896 99.0354 230.097 99.0579C233.797 98.4979 235.691 97.9379 239.388 97.3789L247.757 100.846Z" fill="white" stroke="black" stroke-miterlimit="10" stroke-linecap="round"/>
<path d="M226.956 121.944C229.108 134.091 232.745 145.928 237.785 157.187C238.52 158.487 238.89 159.963 238.853 161.456C238.531 164.056 235.869 165.64 233.436 166.62C225.055 169.827 216.069 171.14 207.12 170.466C198.197 169.784 189.391 168.014 180.897 165.195C179.399 164.846 178.008 164.14 176.841 163.137C175.501 161.788 175.07 159.803 174.782 157.924C172.87 145.409 174.182 132.335 179.601 120.892C179.758 120.467 180.033 120.095 180.392 119.82C180.738 119.641 181.121 119.549 181.509 119.549C190.663 118.849 200.438 118.415 209.618 118.26C214.548 118.176 219.591 118.189 224.248 119.806L226.956 121.944Z" fill="#2B8AFF"/>
<path d="M275.8 56.1829C275.8 54.3604 274.323 52.8829 272.5 52.8829C270.678 52.8829 269.2 54.3604 269.2 56.1829V80.0589C269.2 81.8814 270.678 83.3589 272.5 83.3589C274.323 83.3589 275.8 81.8814 275.8 80.0589V56.1829Z" fill="#98CEF7" stroke="black" stroke-miterlimit="10" stroke-linecap="round"/>
<path d="M262.644 70.4879C263.202 68.7514 264.205 67.1914 265.554 65.9633C266.902 64.7351 268.549 63.8817 270.329 63.4879C270.64 63.3844 270.97 63.3541 271.294 63.3996C271.618 63.445 271.927 63.5649 272.196 63.7499C272.861 64.3559 272.613 65.4429 272.263 66.2709C271.151 68.8952 269.528 71.2718 267.487 73.2619" fill="white"/>
<path d="M262.644 70.4879C263.202 68.7514 264.205 67.1914 265.554 65.9633C266.902 64.7351 268.549 63.8817 270.329 63.4879C270.64 63.3844 270.97 63.3541 271.294 63.3996C271.618 63.445 271.927 63.5649 272.196 63.7499C272.861 64.3559 272.613 65.4429 272.263 66.2709C271.151 68.8952 269.528 71.2718 267.487 73.2619" stroke="black" stroke-miterlimit="10" stroke-linecap="round"/>
<path d="M217.637 61.1589C223.529 61.9039 229.768 62.8699 235.216 65.2359C240.664 67.6019 245.61 71.7419 247.616 77.3299C248.35 79.6296 248.828 82.0028 249.043 84.4069L250.664 97.2379C250.775 97.8256 250.777 98.4286 250.669 99.0169C250.531 99.4876 250.313 99.9313 250.025 100.329C247.772 103.635 244.6 106.209 240.9 107.733C237.201 109.256 233.136 109.663 229.207 108.902L228.768 107.175C227.679 112.572 227.679 118.133 228.768 123.531C212.236 124.759 194.959 127.696 178.962 122.961C178.541 122.885 178.161 122.661 177.889 122.33C177.646 121.946 177.843 121.455 177.803 121.003C176.836 110.36 176.236 103.159 178.036 92.9589H155.836C155.836 88.5169 157.236 86.0589 158.156 82.0659C159.344 76.3349 162.023 71.0189 165.923 66.6549C168.277 63.8904 171.141 61.6054 174.359 59.9249C176.979 58.6947 179.783 57.9057 182.659 57.5899C190.989 56.4309 199.472 57.0956 207.52 59.5379L217.637 61.1589Z" fill="#3E20EF"/>
<path d="M206.009 44.6149C205.353 49.464 203.953 54.1828 201.857 58.6049C201.678 58.9166 201.572 59.2651 201.547 59.6239C201.583 60.002 201.716 60.3644 201.933 60.6759C203.628 63.8027 206.44 66.1751 209.807 67.3189C213.188 68.2919 217.256 67.2569 219.207 64.3299C219.524 63.8666 219.767 63.3569 219.927 62.8189C220.161 61.5761 220.206 60.305 220.058 59.0489C219.977 55.9489 220.827 52.9099 221.319 49.8489C221.811 46.7879 221.91 43.4899 220.451 40.7489C219.798 39.5582 218.914 38.51 217.85 37.6659C216.194 36.2234 214.044 35.477 211.85 35.5829C210.764 35.6612 209.728 36.0684 208.879 36.7505C208.03 37.4326 207.41 38.3571 207.099 39.4009L206.009 44.6149Z" fill="white" stroke="black" stroke-miterlimit="10" stroke-linecap="round"/>
<path d="M229.563 27.4089C230.708 33.5089 231.01 40.0839 228.253 45.6399C227.177 47.8057 225.675 49.7321 223.837 51.3039C222.428 52.6401 220.622 53.4797 218.693 53.6949C217.314 53.7214 215.951 53.4099 214.72 52.7875C213.49 52.1652 212.432 51.251 211.636 50.1249C210.236 47.9367 209.377 45.4463 209.131 42.8599C208.968 41.1329 208.975 39.7599 208.68 39.5499C206.521 38.0249 205.272 37.4499 204.579 34.9039C204.201 33.6333 204.188 32.2818 204.542 31.0042C204.896 29.7265 205.602 28.5741 206.579 27.6789C207.322 27.0709 208.206 26.6569 208.969 26.0789C209.694 25.5259 210.297 24.8319 210.977 24.2239C212.731 22.7203 214.912 21.8055 217.213 21.6087C219.514 21.4118 221.819 21.9429 223.802 23.1269L229.563 27.4089Z" fill="white" stroke="black" stroke-miterlimit="10" stroke-linecap="round"/>
<path d="M216.699 26.0529C218.744 27.261 220.986 28.0986 223.322 28.5269C225.225 29.0899 227.238 29.1659 229.177 28.7479C230.541 28.3186 231.73 27.4635 232.572 26.3082C233.413 25.1529 233.862 23.7581 233.852 22.3289C233.849 20.9377 233.416 19.5815 232.612 18.4459C232.211 18 231.701 17.6657 231.132 17.4755C230.563 17.2854 229.954 17.2459 229.365 17.3609C229.073 17.4804 228.75 17.5059 228.442 17.4339C228.242 17.3234 228.072 17.1642 227.949 16.9709C227.106 15.9687 225.935 15.2982 224.644 15.0784C223.353 14.8587 222.026 15.1041 220.898 15.7709C220.624 15.9773 220.321 16.1427 219.998 16.2619C219.638 16.3321 219.268 16.3368 218.905 16.2759C217.248 16.143 215.583 16.4155 214.054 17.0701C212.525 17.7247 211.178 18.7415 210.13 20.0329C209.925 20.3358 209.668 20.6002 209.37 20.8139C208.945 21.0138 208.48 21.1163 208.01 21.1139C205.232 21.3789 202.61 23.5499 201.06 25.8719C200.293 27.0418 199.791 28.3658 199.591 29.7506C199.39 31.1354 199.496 32.5474 199.9 33.8869C200.591 36.1179 202.073 37.9979 203.324 39.9699C204.575 41.9419 205.647 44.2079 205.356 46.5239C207.238 44.9851 208.446 42.7731 208.723 40.3579C208.773 40.0883 208.758 39.8107 208.68 39.5479C208.566 39.1859 208.315 38.8829 207.98 38.7039C207.355 38.482 206.831 38.0405 206.506 37.4615C206.182 36.8825 206.078 36.2054 206.215 35.5559C206.243 34.9899 206.454 34.4481 206.815 34.0119C207.145 33.6624 207.573 33.4211 208.042 33.3199C208.667 33.1891 209.314 33.2171 209.924 33.4013C210.535 33.5855 211.09 33.9201 211.538 34.3742C211.985 34.8284 212.312 35.3877 212.488 36.0009C212.663 36.6141 212.682 37.2615 212.542 37.8839C212.924 38.4429 213.875 37.8969 213.974 37.2279C213.949 36.554 213.858 35.8843 213.703 35.2279C213.591 32.9709 216.72 31.4999 216.509 29.2509L216.699 26.0529Z" fill="black" stroke="black" stroke-linecap="round"/>
<path d="M207.71 39.2795L220.275 40.9082C221.918 41.1212 223.423 39.9619 223.636 38.3188C223.849 36.6757 222.69 35.171 221.047 34.958L208.482 33.3293C206.839 33.1163 205.334 34.2756 205.121 35.9187C204.908 37.5618 206.067 39.0665 207.71 39.2795Z" fill="#98CEF7" stroke="black" stroke-miterlimit="10" stroke-linecap="round"/>
<path d="M276.123 61.8189C275.715 61.9626 275.339 62.1872 275.019 62.4793C274.699 62.7714 274.442 63.125 274.261 63.5189C273.905 64.3074 273.68 65.1488 273.595 66.0099C273.267 67.8836 273.318 69.8041 273.744 71.6579C273.964 72.5829 274.372 73.4525 274.944 74.2123C275.515 74.972 276.238 75.6055 277.065 76.0729" fill="white"/>
<path d="M276.123 61.8189C275.715 61.9626 275.339 62.1872 275.019 62.4793C274.699 62.7714 274.442 63.125 274.261 63.5189C273.905 64.3074 273.68 65.1488 273.595 66.0099C273.267 67.8836 273.318 69.8041 273.744 71.6579C273.964 72.5829 274.372 73.4525 274.944 74.2123C275.515 74.972 276.238 75.6055 277.065 76.0729" stroke="black" stroke-miterlimit="10" stroke-linecap="round"/>
<path d="M274.174 64.6499C276.231 65.0233 278.257 65.5429 280.239 66.2049" stroke="black" stroke-miterlimit="10" stroke-linecap="round"/>
<path d="M273.496 67.7649L280.52 70.0539" stroke="black" stroke-miterlimit="10" stroke-linecap="round"/>
<path d="M273.697 70.8849C275.816 71.7202 277.958 72.4916 280.124 73.1989" stroke="black" stroke-miterlimit="10" stroke-linecap="round"/>
<path d="M229.387 108.627C226.577 97.9868 226.365 86.8271 228.769 76.0879" stroke="black" stroke-miterlimit="10" stroke-linecap="round"/>
<path d="M224.8 74.7829C224.8 72.9604 223.323 71.4829 221.5 71.4829C219.678 71.4829 218.2 72.9604 218.2 74.7829V98.6589C218.2 100.481 219.678 101.959 221.5 101.959C223.323 101.959 224.8 100.481 224.8 98.6589V74.7829Z" fill="#98CEF7" stroke="black" stroke-miterlimit="10" stroke-linecap="round"/>
<path d="M157.818 92.8509C155.073 99.9377 154.395 107.658 155.864 115.115C156.119 117.175 156.993 119.109 158.372 120.661C160.522 122.727 163.846 122.843 166.821 122.634C181.885 121.576 196.234 115.387 208.821 107.042C211.384 105.342 213.885 103.552 216.385 101.763L227.145 94.0629C228.207 93.4602 229.046 92.5289 229.534 91.4089C230.217 89.1819 228.027 86.8469 228.635 84.5989C228.999 83.8484 229.265 83.0542 229.427 82.2359C229.433 80.3549 226.765 79.7479 225 80.3989C223.235 81.0499 221.555 82.3509 219.701 82.0629C219.118 81.9729 218.564 81.7259 217.976 81.6809C216.528 81.5689 215.299 82.6639 214.265 83.6809L208.393 89.4669C207.117 90.9577 205.559 92.1818 203.809 93.0688C202.059 93.9559 200.15 94.4884 198.193 94.6359C191.158 95.9669 185.079 97.0239 178.045 98.3549V92.9549L157.818 92.8509Z" fill="white" stroke="black" stroke-miterlimit="10" stroke-linecap="round"/>
<path d="M223.848 68.3589H227.156C228.61 68.3592 230.004 68.9367 231.031 69.9646C232.059 70.9924 232.636 72.3864 232.636 73.8399C232.636 75.2935 232.059 76.6877 231.031 77.7155C230.003 78.7434 228.609 79.3209 227.155 79.3209H217.193C216.936 79.3209 216.681 79.2701 216.443 79.1714C216.206 79.0728 215.99 78.9282 215.808 78.7459C215.626 78.5637 215.482 78.3473 215.384 78.1093C215.286 77.8713 215.236 77.6163 215.236 77.3589V76.9709C215.236 74.6868 216.144 72.4963 217.759 70.8813C219.374 69.2662 221.564 68.3589 223.848 68.3589V68.3589Z" fill="#98CEF7" stroke="black" stroke-miterlimit="10" stroke-linecap="round"/>
<path d="M250.548 113.048C250.074 116.164 250.185 119.341 250.874 122.417" stroke="black" stroke-miterlimit="10" stroke-linecap="round"/>
<path d="M178.214 98.2809C173.912 99.4304 169.953 101.607 166.678 104.624" stroke="black" stroke-miterlimit="10" stroke-linecap="round"/>
<path d="M177.182 92.9819C178.097 93.0348 178.998 92.7501 179.716 92.1819C180.131 91.5643 180.391 90.8566 180.476 90.1179C181.607 84.2839 182.435 78.2179 181.045 72.4389" stroke="black" stroke-miterlimit="10" stroke-linecap="round"/>
<path d="M159.801 92.8589C158.726 92.8829 157.145 92.8459 156.071 92.8419" stroke="black" stroke-miterlimit="10" stroke-linecap="round"/>
<path d="M183.576 70.6289C184.123 73.4974 183.509 76.4656 181.869 78.8819" stroke="black" stroke-miterlimit="10" stroke-linecap="round"/>
<path d="M178.873 63.5959C179.649 64.6368 180.177 65.8405 180.417 67.1159" stroke="black" stroke-miterlimit="10" stroke-linecap="round"/>
<path d="M205.595 136.113C205.633 149.457 207.343 159.189 214.267 170.596" stroke="black" stroke-miterlimit="10" stroke-linecap="round"/>
<path d="M205.762 144.795C208.426 140.779 209.804 136.046 209.712 131.228" stroke="black" stroke-miterlimit="10" stroke-linecap="round"/>
<path d="M222.038 49.0389C220.966 49.266 219.848 49.0885 218.899 48.5406C217.95 47.9926 217.238 47.1129 216.898 46.0709" stroke="black" stroke-miterlimit="10" stroke-linecap="round"/>
<path d="M219.756 44.8759L226.37 45.7333C230.314 46.2445 233.925 43.4621 234.436 39.5186C234.947 35.5752 232.165 31.964 228.221 31.4528L221.607 30.5954C217.663 30.0842 214.052 32.8666 213.541 36.81C213.03 40.7535 215.812 44.3647 219.756 44.8759Z" fill="#98CEF7" stroke="black" stroke-miterlimit="10" stroke-linecap="round"/>
<path d="M274.792 49.5949H278.1C279.554 49.5952 280.948 50.1727 281.975 51.2006C283.003 52.2285 283.58 53.6224 283.58 55.0759C283.58 56.5295 283.003 57.9237 281.975 58.9515C280.947 59.9794 279.553 60.5569 278.099 60.5569H268.137C267.88 60.5569 267.625 60.5061 267.387 60.4074C267.15 60.3088 266.934 60.1642 266.752 59.9819C266.57 59.7997 266.426 59.5834 266.328 59.3453C266.23 59.1073 266.18 58.8523 266.18 58.5949V58.2069C266.18 55.9229 267.088 53.7324 268.703 52.1173C270.318 50.5022 272.508 49.5949 274.792 49.5949V49.5949Z" fill="#98CEF7" stroke="black" stroke-miterlimit="10" stroke-linecap="round"/>
</svg>
