<svg width="427" height="572" viewBox="0 0 427 572" fill="none" xmlns="http://www.w3.org/2000/svg">
<path d="M4 8C6.20914 8 8 6.20914 8 4C8 1.79086 6.20914 0 4 0C1.79086 0 0 1.79086 0 4C0 6.20914 1.79086 8 4 8Z" fill="#2B8AFF"/>
<path d="M32 8C34.2091 8 36 6.20914 36 4C36 1.79086 34.2091 0 32 0C29.7909 0 28 1.79086 28 4C28 6.20914 29.7909 8 32 8Z" fill="#2B8AFF"/>
<path d="M60 8C62.2091 8 64 6.20914 64 4C64 1.79086 62.2091 0 60 0C57.7909 0 56 1.79086 56 4C56 6.20914 57.7909 8 60 8Z" fill="#2B8AFF"/>
<path d="M88 8C90.2091 8 92 6.20914 92 4C92 1.79086 90.2091 0 88 0C85.7909 0 84 1.79086 84 4C84 6.20914 85.7909 8 88 8Z" fill="#2B8AFF"/>
<path d="M116 8C118.209 8 120 6.20914 120 4C120 1.79086 118.209 0 116 0C113.791 0 112 1.79086 112 4C112 6.20914 113.791 8 116 8Z" fill="#2B8AFF"/>
<path d="M144 8C146.209 8 148 6.20914 148 4C148 1.79086 146.209 0 144 0C141.791 0 140 1.79086 140 4C140 6.20914 141.791 8 144 8Z" fill="#2B8AFF"/>
<path d="M4 36C6.20914 36 8 34.2091 8 32C8 29.7909 6.20914 28 4 28C1.79086 28 0 29.7909 0 32C0 34.2091 1.79086 36 4 36Z" fill="#2B8AFF"/>
<path d="M32 36C34.2091 36 36 34.2091 36 32C36 29.7909 34.2091 28 32 28C29.7909 28 28 29.7909 28 32C28 34.2091 29.7909 36 32 36Z" fill="#2B8AFF"/>
<path d="M60 36C62.2091 36 64 34.2091 64 32C64 29.7909 62.2091 28 60 28C57.7909 28 56 29.7909 56 32C56 34.2091 57.7909 36 60 36Z" fill="#2B8AFF"/>
<path d="M88 36C90.2091 36 92 34.2091 92 32C92 29.7909 90.2091 28 88 28C85.7909 28 84 29.7909 84 32C84 34.2091 85.7909 36 88 36Z" fill="#2B8AFF"/>
<path d="M116 36C118.209 36 120 34.2091 120 32C120 29.7909 118.209 28 116 28C113.791 28 112 29.7909 112 32C112 34.2091 113.791 36 116 36Z" fill="#2B8AFF"/>
<path d="M4 64C6.20914 64 8 62.2091 8 60C8 57.7909 6.20914 56 4 56C1.79086 56 0 57.7909 0 60C0 62.2091 1.79086 64 4 64Z" fill="#2B8AFF"/>
<path d="M32 64C34.2091 64 36 62.2091 36 60C36 57.7909 34.2091 56 32 56C29.7909 56 28 57.7909 28 60C28 62.2091 29.7909 64 32 64Z" fill="#2B8AFF"/>
<path d="M60 64C62.2091 64 64 62.2091 64 60C64 57.7909 62.2091 56 60 56C57.7909 56 56 57.7909 56 60C56 62.2091 57.7909 64 60 64Z" fill="#2B8AFF"/>
<path d="M88 64C90.2091 64 92 62.2091 92 60C92 57.7909 90.2091 56 88 56C85.7909 56 84 57.7909 84 60C84 62.2091 85.7909 64 88 64Z" fill="#2B8AFF"/>
<path d="M4 92C6.20914 92 8 90.2091 8 88C8 85.7909 6.20914 84 4 84C1.79086 84 0 85.7909 0 88C0 90.2091 1.79086 92 4 92Z" fill="#2B8AFF"/>
<path d="M32 92C34.2091 92 36 90.2091 36 88C36 85.7909 34.2091 84 32 84C29.7909 84 28 85.7909 28 88C28 90.2091 29.7909 92 32 92Z" fill="#2B8AFF"/>
<path d="M60 92C62.2091 92 64 90.2091 64 88C64 85.7909 62.2091 84 60 84C57.7909 84 56 85.7909 56 88C56 90.2091 57.7909 92 60 92Z" fill="#2B8AFF"/>
<path d="M4 120C6.20914 120 8 118.209 8 116C8 113.791 6.20914 112 4 112C1.79086 112 0 113.791 0 116C0 118.209 1.79086 120 4 120Z" fill="#2B8AFF"/>
<path d="M32 120C34.2091 120 36 118.209 36 116C36 113.791 34.2091 112 32 112C29.7909 112 28 113.791 28 116C28 118.209 29.7909 120 32 120Z" fill="#2B8AFF"/>
<path d="M4 148C6.20914 148 8 146.209 8 144C8 141.791 6.20914 140 4 140C1.79086 140 0 141.791 0 144C0 146.209 1.79086 148 4 148Z" fill="#2B8AFF"/>
<path d="M287 508H279V516H287V508Z" fill="#FF58E0"/>
<path d="M315 508H307V516H315V508Z" fill="#FF58E0"/>
<path d="M343 508H335V516H343V508Z" fill="#FF58E0"/>
<path d="M371 508H363V516H371V508Z" fill="#FF58E0"/>
<path d="M399 508H391V516H399V508Z" fill="#FF58E0"/>
<path d="M427 508H419V516H427V508Z" fill="#FF58E0"/>
<path d="M287 536H279V544H287V536Z" fill="#FF58E0"/>
<path d="M315 536H307V544H315V536Z" fill="#FF58E0"/>
<path d="M343 536H335V544H343V536Z" fill="#FF58E0"/>
<path d="M371 536H363V544H371V536Z" fill="#FF58E0"/>
<path d="M399 536H391V544H399V536Z" fill="#FF58E0"/>
<path d="M427 536H419V544H427V536Z" fill="#FF58E0"/>
<path d="M287 564H279V572H287V564Z" fill="#FF58E0"/>
<path d="M315 564H307V572H315V564Z" fill="#FF58E0"/>
<path d="M343 564H335V572H343V564Z" fill="#FF58E0"/>
<path d="M371 564H363V572H371V564Z" fill="#FF58E0"/>
<path d="M399 564H391V572H399V564Z" fill="#FF58E0"/>
<path d="M427 564H419V572H427V564Z" fill="#FF58E0"/>
<path d="M61.629 300.558H53.629V456.801H61.629V300.558Z" fill="#2B8AFF" stroke="black" stroke-miterlimit="10" stroke-linecap="round"/>
<path d="M221.257 214.09C232.667 216.918 244.63 215.032 256.379 214.677C259.746 214.577 263.257 214.632 266.27 216.138C269.283 217.644 271.624 221.011 270.884 224.296C270.553 225.457 269.948 226.521 269.122 227.401C268.295 228.28 267.27 228.949 266.132 229.352C263.848 230.134 261.425 230.43 259.02 230.221C253.836 230.004 248.72 228.995 243.588 228.257C239.854 227.686 236.087 227.359 232.311 227.277C228.611 227.229 224.903 227.512 221.211 227.212C219.43 227.067 217.447 226.657 216.458 225.168C214.922 222.855 216.784 219.853 218.569 217.726L221.257 214.09Z" fill="white" stroke="black" stroke-miterlimit="10" stroke-linecap="round"/>
<path d="M309.511 226.491H47C42.5817 226.491 39 230.073 39 234.491V292.558C39 296.976 42.5817 300.558 47 300.558H309.511C313.929 300.558 317.511 296.976 317.511 292.558V234.491C317.511 230.073 313.929 226.491 309.511 226.491Z" fill="#98CEF7" stroke="black" stroke-miterlimit="10" stroke-linecap="round"/>
<path d="M309.511 318.853H47C42.5817 318.853 39 322.435 39 326.853V347.886C39 352.304 42.5817 355.886 47 355.886H309.511C313.929 355.886 317.511 352.304 317.511 347.886V326.853C317.511 322.435 313.929 318.853 309.511 318.853Z" fill="#98CEF7" stroke="black" stroke-miterlimit="10" stroke-linecap="round"/>
<path d="M388.72 371.594C384.276 365.724 378.157 355.917 371.037 357.794C368.137 358.555 365.324 360.025 362.337 359.803C358.402 359.51 355.272 356.339 353.25 352.951C351.228 349.563 349.895 345.751 347.435 342.661C331.248 345.925 315.68 351.73 301.308 359.861C306.908 371.519 310.508 390.177 316.108 401.835L388.72 371.594Z" fill="#FD58E0"/>
<path d="M322.299 456.8C323.1 453.429 322.838 449.893 321.547 446.677C320.257 443.462 318.002 440.725 315.093 438.843C308.593 434.824 299.774 435.614 293.76 430.901C288.228 426.566 286.749 418.968 283.477 412.748C283.245 412.184 282.84 411.707 282.321 411.386C281.64 411.153 280.898 411.17 280.227 411.432L248.503 419.816C247.469 419.966 246.521 420.476 245.826 421.257C245.397 422.045 245.22 422.946 245.319 423.838C245.446 434.854 246.145 445.856 247.412 456.8H322.299Z" fill="#FD58E0"/>
<path d="M101.877 281.653C102.723 292.195 104.728 302.613 107.855 312.716C110.862 322.43 115.567 332.571 124.618 337.207C131.093 340.524 138.712 340.446 145.986 340.293L228.329 338.561C227.678 367.976 227.189 398.334 238.153 425.638C238.833 427.332 239.781 429.212 241.553 429.664C242.655 429.834 243.783 429.695 244.812 429.264L289.556 415.164C290.882 414.909 292.073 414.189 292.914 413.133C293.7 411.833 293.323 410.184 292.941 408.719C284.7 377.082 285.558 343.905 285.535 311.213C285.535 306.72 285.418 301.913 282.856 298.226C279.656 293.614 273.635 292.097 268.141 290.939C241.808 285.391 215.378 280.324 188.851 275.739C184.651 275.014 180.351 274.3 176.151 275.03C172.874 275.752 169.707 276.909 166.737 278.471L136.879 292.514L101.877 281.653Z" fill="#2B8AFC"/>
<path d="M197.62 277.283C211.871 269.898 222.648 264.105 237.876 259.029C249.509 255.15 261.669 254.491 273.896 255.429C307.488 257.996 326.478 289.845 332.948 299.15C338.278 306.815 342.439 315.219 346.58 323.587L356.974 344.592C357.459 345.382 357.714 346.292 357.71 347.219C357.563 348.661 356.239 349.652 355.026 350.445C339.092 360.858 321.951 369.295 303.981 375.573C303.067 375.96 302.084 376.157 301.092 376.153C299.269 376.023 297.831 374.607 296.605 373.253C274.01 348.266 265.394 320.614 255.672 288.36L197.62 277.283Z" fill="#2B8AFC"/>
<path d="M259.414 241.536C260.656 242.436 262.614 243.07 263.553 241.856C263.838 241.421 264.016 240.924 264.074 240.407L265.961 230.53C269.016 231.83 270.704 235.187 271.317 238.452C271.671 240.342 271.822 242.435 273.153 243.823C274.522 245.251 276.704 245.463 278.683 245.481C284.649 245.535 290.586 244.643 296.273 242.837C296.865 242.691 297.418 242.418 297.894 242.037C298.391 241.509 298.727 240.85 298.861 240.137C299.903 236.114 299.104 231.837 297.775 227.895C296.266 223.422 293.938 221.016 290.09 218.281C288.321 217.091 286.396 216.149 284.371 215.481C278.377 213.337 274.071 213.181 265.624 213.833C259.277 214.322 252.977 216.505 252.124 224.059C251.587 228.767 255.135 238.421 259.414 241.536Z" fill="white" stroke="black" stroke-miterlimit="10" stroke-linecap="round"/>
<path d="M146.051 181.604C139.22 183.239 130.335 184.892 123.97 187.863C108.591 195.044 97.4231 209.628 92.0281 225.721C86.6331 241.814 88.268 271.104 90.888 273.287C91.765 274.018 120.73 254.43 139.458 251.959C142.574 263.259 144.85 274.774 146.268 286.409C168.08 283.03 181.591 278.715 202.468 271.549C203.214 271.377 203.885 270.968 204.378 270.382C204.686 269.809 204.828 269.161 204.787 268.511C205.153 254.63 199.387 228.328 199.387 228.328H219.787C219.787 228.328 228.347 219.628 230.987 214.228C221.999 203.928 213.673 194.975 201.068 189.677C189.841 184.958 182.168 181.604 164.208 182.765L146.051 181.604Z" fill="#3E20EF"/>
<path d="M141.12 153.473C144.339 162.457 145.601 172.025 144.82 181.536C144.593 182.689 144.736 183.883 145.228 184.95C145.678 185.583 146.275 186.098 146.968 186.45C150.176 188.303 153.768 189.39 157.465 189.629C161.161 189.868 164.863 189.251 168.283 187.826C168.993 187.584 169.623 187.152 170.105 186.578C170.878 185.498 170.558 184.017 170.253 182.724C168.607 175.743 168.333 168.509 169.445 161.424C170.445 155.086 172.515 148.404 170.092 142.462C167.955 137.22 162.506 133.762 156.884 133.109C151.262 132.456 145.562 134.29 140.748 137.266C139.766 137.797 138.912 138.537 138.248 139.435C137.923 139.888 137.731 140.423 137.692 140.979C137.653 141.535 137.77 142.091 138.028 142.585L141.12 153.473Z" fill="white" stroke="black" stroke-miterlimit="10" stroke-linecap="round"/>
<path d="M156.445 117.313C155.55 116.315 154.462 115.508 153.246 114.94C152.031 114.373 150.713 114.058 149.373 114.013" stroke="black" stroke-miterlimit="10" stroke-linecap="round"/>
<path d="M186.299 130.895C189.102 138.642 189.459 147.063 187.323 155.02C185.127 162.989 180.041 169.855 173.057 174.277C169.126 176.683 164.486 178.187 159.911 177.626C157.731 177.345 155.633 176.613 153.75 175.476C151.868 174.34 150.243 172.825 148.979 171.026C147.745 169.4 146.893 167.518 146.485 165.518C146.078 163.518 146.126 161.452 146.626 159.473C145.459 158.721 144.252 158.035 143.009 157.416C141.225 156.516 140.896 154.123 141.043 152.131C141.665 143.706 146.843 135.938 153.943 131.367C161.043 126.796 169.873 125.273 178.258 126.296L186.299 130.895Z" fill="white" stroke="black" stroke-miterlimit="10" stroke-linecap="round"/>
<path d="M153.773 148.803C153.218 143.896 154.844 138.053 159.273 135.86C165.432 139.04 172.231 140.784 179.161 140.961C186.09 141.139 192.969 139.745 199.283 136.884C198.101 131.936 196.08 127.226 193.307 122.961C192.057 120.991 190.586 119.17 188.924 117.532C184.854 113.618 179.506 111.309 173.866 111.028C168.227 110.748 162.676 112.517 158.238 116.008C157.752 116.453 157.189 116.805 156.577 117.048C155.766 117.214 154.929 117.206 154.121 117.023C148.188 116.284 142.182 119.335 138.414 123.977C134.646 128.619 132.905 134.642 132.469 140.605C132.136 144.489 132.471 148.401 133.459 152.172C134.412 155.613 136.019 158.839 138.192 161.672C139.685 163.617 141.692 165.482 144.146 165.563C143.664 163.87 143.861 162.055 144.697 160.506C145.043 160.042 145.241 159.484 145.267 158.906C145.162 158.438 144.935 158.006 144.609 157.655C143.738 156.471 143.151 155.102 142.896 153.655C142.545 151.996 142.841 150.265 143.723 148.816C144.177 148.108 144.834 147.553 145.609 147.224C146.383 146.895 147.239 146.807 148.064 146.972C148.811 147.099 149.505 147.441 150.062 147.954C150.619 148.468 151.015 149.132 151.202 149.866L153.773 148.803Z" fill="black" stroke="black" stroke-miterlimit="10" stroke-linecap="round"/>
<path d="M232.001 140V204L245.755 190.282H328.001V140.002L232.001 140Z" fill="white" stroke="black" stroke-miterlimit="10" stroke-linecap="round"/>
<path d="M302 148H242C240.895 148 240 148.895 240 150C240 151.105 240.895 152 242 152H302C303.105 152 304 151.105 304 150C304 148.895 303.105 148 302 148Z" fill="#C2C4CE"/>
<path d="M302 156H242C240.895 156 240 156.895 240 158C240 159.105 240.895 160 242 160H302C303.105 160 304 159.105 304 158C304 156.895 303.105 156 302 156Z" fill="#C2C4CE"/>
<path d="M271.65 168H244.35C241.948 168 240 169.948 240 172.35C240 174.752 241.948 176.7 244.35 176.7H271.65C274.052 176.7 276 174.752 276 172.35C276 169.948 274.052 168 271.65 168Z" fill="#97CDF6"/>
<path d="M197.7 277.367C206.376 282.86 216.75 284.843 226.846 286.72L252.202 291.433C253.293 291.435 254.348 291.819 255.185 292.518C256.023 293.217 256.589 294.187 256.785 295.26C265.038 318.151 272.585 341.804 286.985 361.414" stroke="black" stroke-miterlimit="10" stroke-linecap="round"/>
<path d="M215.343 233.261L217.443 221.682C217.533 220.907 217.773 220.157 218.15 219.474C218.569 218.887 219.114 218.401 219.745 218.052C222.545 216.34 225.911 215.852 229.178 215.505C233.894 215.008 238.627 214.741 243.378 214.705C244.062 214.655 244.75 214.747 245.397 214.975C247.465 215.863 247.43 218.766 247.051 220.985C245.368 230.837 243.686 240.689 242.003 250.54C241.827 252.266 241.3 253.938 240.453 255.452C238.66 258.192 235.121 259.11 231.888 259.629C225.572 260.641 219.164 260.962 212.779 260.584L215.343 233.261Z" fill="#98CEF7" stroke="black" stroke-miterlimit="10" stroke-linecap="round"/>
<path d="M139.384 251.911C139.73 254.198 140.397 256.425 141.366 258.525C160.608 255.446 179.597 250.949 198.176 245.071C199.679 244.741 201.058 243.993 202.155 242.915C202.902 241.777 203.479 240.536 203.868 239.231C204.892 237.14 206.558 235.432 208.623 234.358C210.688 233.283 213.043 232.899 215.343 233.261C215.293 235.477 215.12 237.688 214.824 239.885C227.206 240.031 237.429 238.55 245.313 233.447C248.803 240.956 245.095 247.028 243.032 255.047C242.328 257.787 241.031 260.339 239.232 262.522C236.051 266.222 228.761 266.336 223.881 266.457C222.171 266.421 220.464 266.617 218.807 267.04C217.387 267.538 216.033 268.207 214.776 269.033C200.889 277.386 187.186 286.16 172.406 292.808C157.626 299.456 141.558 303.948 125.37 303.187C120.465 303.107 115.62 302.088 111.098 300.187C100.77 295.451 94.6781 284.319 92.4451 273.179C92.4451 273.179 94.1451 268.906 106.961 260.738C118.598 253.328 139.384 251.911 139.384 251.911Z" fill="white" stroke="black" stroke-miterlimit="10" stroke-linecap="round"/>
<path d="M228.202 338.33C231.654 328.845 238.217 320.808 246.821 315.53" stroke="black" stroke-miterlimit="10" stroke-linecap="round"/>
<path d="M228.576 337.049C228.636 331.199 229.52 325.387 231.202 319.784" stroke="black" stroke-miterlimit="10" stroke-linecap="round"/>
<path d="M255.22 292.719C256.18 289.323 257.764 286.135 259.891 283.319" stroke="black" stroke-miterlimit="10" stroke-linecap="round"/>
<path d="M254.431 286.217C254.57 282.838 255.674 279.569 257.612 276.798" stroke="black" stroke-miterlimit="10" stroke-linecap="round"/>
<path d="M314.269 395.361C336.335 386.384 362.069 376.598 383.421 366.029" stroke="black" stroke-miterlimit="10" stroke-linecap="round"/>
<path d="M247.167 449.961C273.442 450.391 295.717 450.821 321.992 451.251" stroke="black" stroke-miterlimit="10" stroke-linecap="round"/>
<path d="M246.548 239.912C245.139 242.452 242.824 244.366 240.065 245.272C237.329 246.158 234.492 246.696 231.621 246.872" stroke="black" stroke-miterlimit="10" stroke-linecap="round"/>
<path d="M244.64 250.361C241.395 253.106 237.384 254.785 233.151 255.171" stroke="black" stroke-miterlimit="10" stroke-linecap="round"/>
<path d="M241.604 258.402C239.177 260.097 236.324 261.08 233.367 261.239" stroke="black" stroke-miterlimit="10" stroke-linecap="round"/>
<path d="M279.058 245.398C279.457 238.459 278.148 231.528 275.248 225.212" stroke="black" stroke-miterlimit="10" stroke-linecap="round"/>
<path d="M287.063 244.309C287.392 236.284 286.763 230.816 282.563 223.97" stroke="black" stroke-miterlimit="10" stroke-linecap="round"/>
<path d="M293.776 242.788C294.008 236.406 292.63 230.069 289.77 224.36" stroke="black" stroke-miterlimit="10" stroke-linecap="round"/>
<path d="M128.847 206.234C137.643 219.207 142.624 234.386 143.225 250.048C143.273 250.398 143.21 250.754 143.045 251.066C142.787 251.366 142.429 251.564 142.038 251.623C140.824 251.874 139.584 251.979 138.345 251.936" stroke="black" stroke-miterlimit="10" stroke-linecap="round"/>
<path d="M134.876 215.229C135.396 210.378 134.676 205.489 133.965 200.663" stroke="black" stroke-miterlimit="10" stroke-linecap="round"/>
<path d="M199.52 227.797C198.54 219.629 195.626 211.813 191.02 204.997" stroke="black" stroke-miterlimit="10" stroke-linecap="round"/>
<path d="M195.476 212.39C195.146 209.266 195.338 206.109 196.042 203.048" stroke="black" stroke-miterlimit="10" stroke-linecap="round"/>
<path d="M165.047 148.069C166.321 147.327 167.747 146.884 169.218 146.772C170.688 146.661 172.164 146.884 173.536 147.425" stroke="black" stroke-miterlimit="10" stroke-linecap="round"/>
<path d="M181.036 148.792C181.994 148.566 182.998 148.627 183.922 148.966C184.846 149.305 185.651 149.907 186.236 150.699" stroke="black" stroke-miterlimit="10" stroke-linecap="round"/>
<path d="M176.256 156.786C175.463 158.998 174.924 161.292 174.649 163.626C174.636 164.826 174.305 166.002 173.69 167.033C172.966 167.985 171.344 168.349 170.61 167.406" stroke="black" stroke-miterlimit="10" stroke-linecap="round"/>
<path d="M162.871 166.634C163.318 168.016 164.251 169.189 165.497 169.936C166.743 170.682 168.218 170.951 169.647 170.693" stroke="black" stroke-miterlimit="10" stroke-linecap="round"/>
<path d="M170 156C171.105 156 172 155.105 172 154C172 152.895 171.105 152 170 152C168.895 152 168 152.895 168 154C168 155.105 168.895 156 170 156Z" fill="black"/>
<path d="M181 157C182.105 157 183 156.105 183 155C183 153.895 182.105 153 181 153C179.895 153 179 153.895 179 155C179 156.105 179.895 157 181 157Z" fill="black"/>
</svg>
