<svg width="350" height="200" viewBox="0 0 350 200" fill="none" xmlns="http://www.w3.org/2000/svg">
<path d="M233 40.1769H117C99.3269 40.1769 85 54.5038 85 72.1769V128.177C85 145.85 99.3269 160.177 117 160.177H233C250.673 160.177 265 145.85 265 128.177V72.1769C265 54.5038 250.673 40.1769 233 40.1769Z" fill="white"/>
<path d="M233 40.6769H117C99.603 40.6769 85.5 54.7799 85.5 72.1769V128.177C85.5 145.574 99.603 159.677 117 159.677H233C250.397 159.677 264.5 145.574 264.5 128.177V72.1769C264.5 54.7799 250.397 40.6769 233 40.6769Z" stroke="black"/>
<path d="M181.393 132.248C177.472 141.734 173.769 151.307 170.286 160.966C177.502 165.14 185.557 167.657 193.866 168.333C195.502 168.486 197.148 168.502 198.786 168.381C199.514 168.362 200.226 168.167 200.862 167.813C201.628 167.202 202.199 166.382 202.505 165.452C203.486 163.203 204.433 160.94 205.348 158.663L208.431 165.207C208.583 165.619 208.842 165.982 209.182 166.26C209.589 166.48 210.051 166.579 210.512 166.546C218.918 166.714 227.321 166.068 235.603 164.619C236.378 164.579 237.107 164.239 237.635 163.671C238.199 162.871 237.854 161.771 237.492 160.859L225.484 130.646L181.393 132.248Z" fill="#3E20EF"/>
<path d="M250.129 91.9839C252.223 95.2555 254.765 98.2176 257.681 100.784C261.373 97.5018 264.773 93.9057 267.843 90.0359C270.626 86.5689 272.526 83.6309 273.662 82.5229C275.876 80.3619 275.905 81.8599 278.31 81.9709C280.715 82.0819 284.988 80.0399 285.345 82.4209C285.678 84.6469 282.41 90.4809 281.079 92.2959L262.04 118.253C261.556 118.962 261.001 119.621 260.384 120.218C257.823 122.533 253.727 122.355 250.684 120.731C247.641 119.107 245.398 116.331 243.247 113.631L236.366 104.998L250.129 91.9839Z" fill="white" stroke="black" stroke-miterlimit="10"/>
<path d="M205.826 65.9829C196.88 62.0969 187.964 60.5339 177.587 67.9229C169.641 73.5799 165.633 79.7228 160.067 87.7308L167.231 87.6418C169.486 87.6138 171.856 87.6129 173.831 88.6959C176.966 90.4129 178.159 94.2648 178.82 97.7778C180.622 107.38 180.576 117.237 178.684 126.822C178.176 129.39 177.637 132.383 179.36 134.356C180.451 135.415 181.853 136.097 183.36 136.302C186.308 136.841 189.297 137.125 192.294 137.151L203.149 137.551C210.702 138.281 218.319 137.162 225.343 134.291C226.26 134.174 227.101 133.72 227.702 133.018C228.303 132.316 228.622 131.415 228.597 130.491C229.95 121 231.038 111.475 231.861 101.918C234.468 105.683 235.627 106.039 237.242 108.809C243.034 102.093 246.489 98.9488 252.102 92.0828C249.007 88.5128 246.82 84.2649 244.202 80.3309C241.584 76.3969 238.923 70.9418 234.585 69.0718C230.42 67.2768 225.711 67.4239 221.18 67.6019L214.453 67.8658L205.826 65.9829Z" fill="#FF58E0"/>
<path d="M209.1 51.8019C208.547 56.3216 206.877 60.6327 204.243 64.3469C203.99 64.6446 203.812 64.9989 203.725 65.3799C203.703 65.7582 203.783 66.1355 203.957 66.4719C204.754 68.2434 206.022 69.7622 207.623 70.8627C209.224 71.9632 211.096 72.6032 213.036 72.7129C215.593 72.8209 218.401 71.7469 219.494 69.4319C220.019 67.9714 220.245 66.4204 220.158 64.8709C220.277 61.7326 220.915 58.6357 222.046 55.7059C222.628 54.1999 223.352 52.6609 223.203 51.0529C222.981 49.5856 222.272 48.2358 221.189 47.2209C218.951 45.0444 216.003 43.7494 212.886 43.5743C209.77 43.3992 206.694 44.3557 204.227 46.2679L209.1 51.8019Z" fill="white" stroke="black" stroke-miterlimit="10"/>
<path d="M231.872 101.72C231.085 97.5713 230.587 93.3733 230.38 89.1559" stroke="black" stroke-miterlimit="10"/>
<path d="M228.492 32.6649C228.504 32.7429 229.192 35.8169 229.216 36.0059C229.964 41.0139 230.416 46.3229 228.492 51.1219C227.618 53.6753 226.004 55.9113 223.856 57.5459C221.633 59.0459 217.337 59.3749 215.201 57.7539C213.703 56.4128 212.727 54.5863 212.443 52.5959C212.11 51.0575 211.929 49.4898 211.905 47.9159C210.667 47.4409 209.254 48.2469 207.967 47.9279C207.477 47.7639 207.031 47.4909 206.661 47.1294C206.292 46.7679 206.01 46.3273 205.835 45.8409C205.405 44.6851 205.255 43.4442 205.396 42.2191C205.536 40.9941 205.965 39.8197 206.646 38.7918C208.03 36.7468 209.881 35.0612 212.046 33.8748C213.645 32.9163 215.327 32.1031 217.071 31.4449C217.929 31.07 218.854 30.8701 219.79 30.8568C221.287 31.0632 222.694 31.6905 223.848 32.6659L228.492 32.6649Z" fill="white" stroke="black" stroke-miterlimit="10"/>
<path d="M317.271 70.8069H209.783V70.7409H186.901C184.514 70.7409 182.225 71.6891 180.537 73.3769C178.849 75.0648 177.901 77.3539 177.901 79.7409V94.0939H209.783V104.114C209.783 104.711 210.02 105.283 210.442 105.705C210.864 106.127 211.436 106.364 212.033 106.364H217.796C218.393 106.364 218.965 106.127 219.387 105.705C219.809 105.283 220.046 104.711 220.046 104.114V95.7868H228.533C229.727 95.7868 230.871 95.3128 231.715 94.4689C232.559 93.6249 233.033 92.4803 233.033 91.2868V82.7989H290.168C291.362 82.7989 292.506 82.3248 293.35 81.4809C294.194 80.637 294.668 79.4923 294.668 78.2989V76.8299H317.268C317.622 76.8299 317.961 76.6893 318.211 76.4391C318.462 76.189 318.602 75.8497 318.602 75.4959V72.1399C318.602 71.7868 318.462 71.4482 318.212 71.1983C317.963 70.9484 317.624 70.8077 317.271 70.8069V70.8069Z" fill="#98CEF7" stroke="black" stroke-miterlimit="10"/>
<path d="M231.127 86.3169C230.827 84.8529 229.275 84.8969 226.563 85.2579C222.663 85.7779 219.507 85.9498 214.578 86.6258C213.478 86.7768 211.071 87.2189 209.104 87.4999C205.688 87.9879 196.782 88.0998 177.904 90.0628V88.4179C174.832 87.8171 171.71 87.5074 168.579 87.4928C164.364 87.5998 160.296 87.8388 160.296 87.8388C158.696 89.8008 158.186 92.4389 158.041 94.9679C157.818 97.0342 158.128 99.1233 158.941 101.036C160.483 104.176 164.041 105.853 167.492 106.396C172.466 107.178 177.47 105.822 182.442 105.034C193.981 103.206 201.208 100.799 209.203 99.4809C211.868 99.0419 214.852 100.239 217.803 99.5989C218.586 99.4777 219.34 99.214 220.028 98.8208C221.947 97.5598 221.976 94.8399 222.474 92.5989C222.543 92.1444 222.732 91.7167 223.022 91.3598C223.363 91.0516 223.772 90.8289 224.216 90.7099L226.895 89.7608C228.389 89.2328 231.442 87.8829 231.127 86.3169Z" fill="white" stroke="black" stroke-miterlimit="10"/>
<path d="M257.928 100.568C255.673 102.963 253.601 105.523 251.728 108.228" stroke="black" stroke-miterlimit="10"/>
<path d="M177.901 90.0679C173.971 90.5914 170.113 91.5582 166.401 92.9499" stroke="black" stroke-miterlimit="10"/>
<path d="M205.024 159.129L208.914 144.529" stroke="black" stroke-miterlimit="10"/>
<path d="M207.358 151.46C209.895 149.254 212.073 146.668 213.816 143.794" stroke="black" stroke-miterlimit="10"/>
<path d="M222.116 93.2729C220.645 93.6313 219.142 93.847 217.629 93.9169" stroke="black" stroke-miterlimit="10"/>
<path d="M221.564 96.3779C220.393 96.6518 219.198 96.8149 217.996 96.8649" stroke="black" stroke-miterlimit="10"/>
<path d="M227.1 40.4279C227.451 40.3703 227.81 40.3925 228.151 40.4929C228.492 40.5933 228.806 40.7693 229.069 41.0079" stroke="black" stroke-miterlimit="10"/>
<path d="M222.208 40.4378C220.963 40.268 219.698 40.552 218.645 41.2378" stroke="black" stroke-miterlimit="10"/>
<path d="M225.072 44.1939C225.143 45.571 225.532 46.913 226.21 48.1138C226.243 48.1567 226.264 48.2068 226.273 48.2598C226.283 48.3128 226.279 48.3672 226.263 48.4185C226.247 48.4698 226.219 48.5164 226.181 48.5546C226.143 48.5928 226.096 48.6213 226.045 48.6379L224.492 49.5798" stroke="black" stroke-miterlimit="10"/>
<path d="M220.762 51.6359C221.414 52.222 222.197 52.643 223.046 52.8637C223.894 53.0843 224.783 53.0981 225.638 52.9038" stroke="black" stroke-miterlimit="10"/>
<path d="M271.469 85.2559C272.297 84.4522 272.9 83.4454 273.218 82.3359C273.27 81.1779 272.818 80.8539 272.875 79.1659C272.914 78.8132 273.033 78.4739 273.221 78.1732C273.409 77.8725 273.663 77.6181 273.963 77.4289C274.933 76.8121 276.036 76.435 277.181 76.3288C280.484 75.8409 283.853 76.05 287.07 76.9429C287.899 77.1051 288.662 77.5082 289.263 78.1019C289.764 78.7618 290.007 79.5825 289.944 80.4089C289.864 81.6162 289.474 82.7824 288.811 83.7947C288.149 84.8069 287.236 85.631 286.161 86.1869C283.981 87.273 281.484 87.5423 279.122 86.9459" fill="white"/>
<path d="M271.469 85.2559C272.297 84.4522 272.9 83.4454 273.218 82.3359C273.27 81.1779 272.818 80.8539 272.875 79.1659C272.914 78.8132 273.033 78.4739 273.221 78.1732C273.409 77.8725 273.663 77.6181 273.963 77.4289C274.933 76.8121 276.036 76.435 277.181 76.3288C280.484 75.8409 283.853 76.05 287.07 76.9429C287.899 77.1051 288.662 77.5082 289.263 78.1019C289.764 78.7618 290.007 79.5825 289.944 80.4089C289.864 81.6162 289.474 82.7824 288.811 83.7947C288.149 84.8069 287.236 85.631 286.161 86.1869C283.981 87.273 281.484 87.5423 279.122 86.9459" stroke="black" stroke-miterlimit="10"/>
<path d="M286.58 76.8829C286.76 77.3938 286.798 77.9442 286.689 78.4749C286.404 80.4699 285.537 82.3365 284.196 83.8409" stroke="black" stroke-miterlimit="10"/>
<path d="M282.327 76.1949C282.482 76.5089 282.528 76.8657 282.458 77.2088C282.206 79.4797 281.299 81.6283 279.848 83.3929" stroke="black" stroke-miterlimit="10"/>
<path d="M277.745 76.4258C278.057 78.7353 277.447 81.0748 276.045 82.9369" stroke="black" stroke-miterlimit="10"/>
<path d="M294.669 76.8299V72.7189" stroke="black" stroke-miterlimit="10"/>
<path d="M233.035 82.7999H210.346" stroke="black" stroke-miterlimit="10"/>
<path d="M211.314 43.4599C212.165 42.6565 212.78 41.6351 213.091 40.5067C213.403 39.3782 213.398 38.1861 213.079 37.0599C214.453 37.3473 215.878 37.2758 217.216 36.8523C218.555 36.4288 219.761 35.6675 220.72 34.6418C221.904 35.7137 223.366 36.4308 224.938 36.7109C225.724 36.8375 226.531 36.7399 227.264 36.4291C227.997 36.1183 228.628 35.607 229.084 34.9539C229.202 35.7359 230.465 36.4949 231.255 36.5079C231.963 36.4798 232.651 36.2641 233.249 35.8828C233.846 35.5015 234.331 34.9684 234.655 34.3379C235.985 32.0319 235.99 30.5859 235.374 29.1639C234.662 27.7547 233.595 26.555 232.279 25.6829C232.491 24.3894 232.368 23.0631 231.921 21.8309C231.242 19.6989 229.764 17.9122 227.797 16.8448C224.997 15.1258 218.886 15.0749 215.717 18.5579C213.468 16.8989 210.082 17.4249 208.017 19.3049C207.03 20.2993 206.262 21.4891 205.761 22.7979C205.261 24.1066 205.039 25.5055 205.111 26.9048C204.733 26.7865 204.334 26.7527 203.942 26.8057C203.55 26.8586 203.174 26.9972 202.842 27.2115C202.509 27.4258 202.228 27.7105 202.017 28.0457C201.807 28.3808 201.673 28.7581 201.624 29.1509C199.141 29.4509 197.524 32.0199 197.083 34.4809C196.757 36.3869 196.897 38.3434 197.49 40.1838C198.084 42.0241 199.114 43.6936 200.492 45.0499C200.626 47.2327 201.613 49.2751 203.242 50.735C204.87 52.1948 207.008 52.9546 209.192 52.8499C209.642 51.2731 209.671 49.6063 209.276 48.0149C207.27 47.7409 205.776 46.5669 205.917 44.5469C206.058 42.5269 207.409 41.2709 209.323 41.9299C210.047 42.3555 210.716 42.8695 211.314 43.4599V43.4599Z" fill="black"/>
<path d="M221.627 44.5779C222.248 44.5779 222.752 44.0742 222.752 43.4529C222.752 42.8315 222.248 42.3279 221.627 42.3279C221.006 42.3279 220.502 42.8315 220.502 43.4529C220.502 44.0742 221.006 44.5779 221.627 44.5779Z" fill="black"/>
<path d="M228.037 44.6729C228.658 44.6729 229.162 44.1692 229.162 43.5479C229.162 42.9265 228.658 42.4229 228.037 42.4229C227.416 42.4229 226.912 42.9265 226.912 43.5479C226.912 44.1692 227.416 44.6729 228.037 44.6729Z" fill="black"/>
<path d="M130.014 140L125.886 159.088C125.378 161.437 124.886 163.956 125.793 166.18C127.005 169.139 130.285 170.618 133.34 171.562C141.23 173.948 149.529 174.667 157.712 173.673C165.894 172.68 173.781 169.995 180.87 165.79C182.326 165.089 183.512 163.93 184.245 162.49C184.58 161.379 184.665 160.207 184.492 159.06L182.728 136.095C182.771 135.817 182.746 135.533 182.657 135.266C182.567 134.999 182.415 134.758 182.213 134.562C182.012 134.366 181.766 134.222 181.496 134.14C181.227 134.059 180.942 134.044 180.666 134.095C165.11 133.112 149.492 134.304 134.266 137.638L130.014 140Z" fill="#2B8AFF"/>
<path d="M102.955 106.611C109.994 114.099 118.939 119.529 128.83 122.32C131.512 123.072 134.757 123.493 136.759 121.557C138.14 120.22 138.472 118.157 138.707 116.257C139.048 113.492 139.33 110.597 138.332 107.996C137.045 104.646 133.839 102.39 130.51 101.046C126.389 99.4353 121.926 98.899 117.541 99.4875C113.156 100.076 108.993 101.77 105.443 104.41L102.955 106.611Z" fill="white" stroke="black" stroke-miterlimit="10" stroke-linecap="round"/>
<path d="M163.567 60.3119C170.454 60.4119 177.726 61.6279 182.967 66.0969C186.725 69.2969 189.054 73.8589 190.867 78.4519C193.368 84.7829 195.071 91.4004 195.939 98.1519C196.02 98.3682 196.051 98.6 196.03 98.8302C196.01 99.0603 195.937 99.2827 195.818 99.481C195.7 99.6792 195.538 99.8481 195.345 99.9752C195.152 100.102 194.933 100.184 194.704 100.215C190.133 101.864 185.442 103.161 180.673 104.095C180.318 104.125 179.983 104.27 179.72 104.509C179.584 104.742 179.507 105.004 179.496 105.274C179.486 105.543 179.542 105.811 179.659 106.054C182.653 116.046 184.247 126.405 184.398 136.835C184.454 137.07 184.459 137.314 184.412 137.551C184.366 137.788 184.269 138.013 184.128 138.209C183.987 138.405 183.806 138.569 183.596 138.689C183.386 138.809 183.153 138.883 182.913 138.905C163.103 144.95 130.251 147.287 127.264 141.205C125.664 137.939 128.479 132.411 128.653 128.777C129.235 116.64 127.966 110.153 126.979 98.0419C126.537 92.6099 123.772 87.7769 123.966 83.5909C124.179 79.0199 126.532 75.2199 128.992 72.2519C133.369 66.9689 141.875 62.2849 148.7 61.5929L163.567 60.3119Z" fill="#3E20EF"/>
<path d="M147.935 50.0509C150.183 54.8219 145.889 61.0599 148.69 65.5289C149.424 66.6157 150.419 67.5013 151.583 68.1049C152.846 68.8506 154.253 69.319 155.711 69.4788C157.169 69.6387 158.644 69.4863 160.039 69.0319C161.423 68.5432 162.63 67.6532 163.507 66.4753C164.383 65.2974 164.888 63.8852 164.958 62.4189C164.958 60.7629 163.412 55.5009 163.484 53.8469C163.612 50.8989 165.3 47.2569 166.207 45.0209C167.28 42.3769 167.75 45.2839 167.307 42.4659C167.053 41.3512 166.501 40.3264 165.711 39.5006C164.92 38.6748 163.92 38.079 162.818 37.7769C160.602 37.2033 158.279 37.1789 156.051 37.7059C152.197 38.4155 148.474 39.7111 145.012 41.5479L147.935 50.0509Z" fill="white" stroke="black" stroke-miterlimit="10" stroke-linecap="round"/>
<path d="M143.128 30.5959C140.701 34.1859 140.469 38.4669 140.628 44.8149C140.759 50.0149 142.844 55.6638 148.948 57.6458C150.409 58.0834 151.96 58.1307 153.446 57.7829C154.931 57.4352 156.299 56.7046 157.415 55.6639C159.43 53.6489 160.137 51.0009 160.703 49.6639C160.797 49.3659 160.965 49.0969 161.192 48.8819C161.584 48.5819 161.66 48.4819 162.154 48.5329C163.955 48.6898 165.748 48.1417 167.154 47.0039C168.559 45.8662 169.469 44.2276 169.691 42.4328C170.052 39.3858 168.46 36.4849 166.909 33.8329C165.845 31.7574 164.428 29.8828 162.722 28.2929C160.29 26.428 157.292 25.4553 154.229 25.5379C151.19 25.6308 148.177 26.1333 145.273 27.0318L143.128 30.5959Z" fill="white" stroke="black" stroke-miterlimit="10" stroke-linecap="round"/>
<path d="M161.157 43.5249C160.22 42.6416 159.544 41.5181 159.202 40.2769C158.859 39.0358 158.864 37.7245 159.216 36.4859C157.705 36.8017 156.139 36.723 154.668 36.2575C153.196 35.7919 151.87 34.9552 150.816 33.8279C149.514 35.0074 147.906 35.7965 146.177 36.1049C145.312 36.244 144.426 36.1366 143.619 35.7948C142.813 35.4531 142.119 34.891 141.618 34.1729C141.489 35.0329 140.099 35.8679 139.23 35.8819C138.451 35.8515 137.694 35.6145 137.036 35.1953C136.379 34.776 135.844 34.1896 135.488 33.4959C134.025 30.9609 134.019 29.3699 134.697 27.8059C135.479 26.2565 136.651 24.9373 138.097 23.9779C137.864 22.5555 137.999 21.0969 138.491 19.7419C139.238 17.3973 140.863 15.4326 143.026 14.2589C146.106 12.3689 152.826 12.3129 156.31 16.1419C158.783 14.3179 162.51 14.8959 164.78 16.9629C165.866 18.0559 166.711 19.3636 167.263 20.8024C167.814 22.2412 168.058 23.7792 167.98 25.3179C168.395 25.1871 168.834 25.1494 169.266 25.2074C169.697 25.2654 170.11 25.4176 170.476 25.6534C170.842 25.8892 171.152 26.2027 171.383 26.5716C171.614 26.9405 171.761 27.3558 171.814 27.7879C174.544 28.1219 176.314 30.9429 176.807 33.6489C177.166 35.7447 177.012 37.8963 176.359 39.9199C175.707 41.9436 174.574 43.7794 173.059 45.2709C172.912 47.6721 171.825 49.9187 170.033 51.5239C168.241 53.1291 165.889 53.9637 163.486 53.8469C162.992 52.113 162.96 50.2799 163.394 48.5299C165.6 48.2299 167.245 46.9379 167.087 44.7169C166.929 42.4959 165.446 41.1169 163.341 41.8399C162.546 42.3091 161.812 42.8751 161.157 43.5249V43.5249Z" fill="black"/>
<path d="M139.953 111.612H107.236C105.877 111.536 104.585 111.001 103.57 110.093C102.556 109.186 101.88 107.961 101.654 106.619L98.4189 87.3079C97.9569 84.5499 99.7059 82.3139 102.327 82.3139H135.044C136.403 82.3898 137.696 82.9254 138.71 83.8329C139.724 84.7404 140.4 85.9658 140.626 87.3079L143.861 106.619C144.326 109.377 142.574 111.612 139.953 111.612Z" fill="#98CEF7" stroke="black" stroke-miterlimit="10" stroke-linecap="round"/>
<path d="M98.9519 90.8089C97.1209 92.4889 96.5849 95.3719 96.5869 97.8579C96.5869 100.29 96.7869 102.835 98.0629 104.907C98.8416 106.131 99.9494 107.111 101.26 107.734C102.57 108.357 104.029 108.599 105.47 108.431C106.109 108.347 106.735 108.181 107.376 108.108C107.9 108.098 108.419 108 108.91 107.818C110.03 107.274 110.217 105.786 110.254 104.542C110.394 102.631 110.287 100.71 109.937 98.8259C109.574 96.9248 108.491 95.2373 106.914 94.1149C104.727 92.7149 101.985 92.9869 99.4089 93.3229L98.9519 90.8089Z" fill="white" stroke="black" stroke-miterlimit="10" stroke-linecap="round"/>
<path d="M194.706 100.217C194.965 108.074 194.819 116.117 191.453 123.217C191.074 124.457 190.305 125.542 189.26 126.309C188.215 127.076 186.949 127.485 185.653 127.474C182.7 127.75 179.722 127.528 176.842 126.82C173.344 125.829 169.958 124.481 166.736 122.798C162.502 120.916 158.441 118.667 154.599 116.078C150.833 113.378 147.065 109.839 142.431 109.94C140.931 109.973 139.252 110.363 138.031 109.477C136.953 108.692 136.696 107.215 136.58 105.886C136.439 104.264 136.382 102.636 136.409 101.009C136.33 99.2546 136.678 97.5075 137.422 95.9169C137.809 95.13 138.424 94.4779 139.186 94.0454C139.949 93.6129 140.824 93.42 141.698 93.4919C140.791 92.9239 141.398 91.3409 142.43 91.0669C143.503 90.9359 144.585 91.2223 145.452 91.8669C147.393 92.8236 149.15 94.1166 150.64 95.6859C151.996 97.5501 153.029 99.6291 153.696 101.836C153.812 102.234 154.025 102.597 154.316 102.892C154.72 103.159 155.185 103.318 155.668 103.354C162.53 104.544 169.273 106.338 175.819 108.717C175.781 107.587 175.557 106.603 175.519 105.472C175.507 105.108 176.381 104.822 176.638 104.759C179.776 103.993 182.407 104.011 186.494 102.925C190.221 101.937 194.706 100.217 194.706 100.217Z" fill="white" stroke="black" stroke-miterlimit="10" stroke-linecap="round"/>
<path d="M136.922 107.326C139.445 106.052 142.208 105.321 145.032 105.182" stroke="black" stroke-miterlimit="10" stroke-linecap="round"/>
<path d="M136.541 103.481C138.93 102.034 141.592 101.094 144.36 100.721" stroke="black" stroke-miterlimit="10" stroke-linecap="round"/>
<path d="M136.555 99.2069C138.928 97.7194 141.692 96.9775 144.491 97.0769" stroke="black" stroke-miterlimit="10" stroke-linecap="round"/>
<path d="M109.459 97.6099C105.645 97.7258 101.828 97.5325 98.0459 97.0319" stroke="black" stroke-miterlimit="10" stroke-linecap="round"/>
<path d="M109.985 101.178C106.524 101.866 102.963 101.878 99.4969 101.214" stroke="black" stroke-miterlimit="10" stroke-linecap="round"/>
<path d="M109.867 104.896C107.29 105.338 104.664 105.414 102.067 105.121" stroke="black" stroke-miterlimit="10" stroke-linecap="round"/>
<path d="M141.529 93.5189C143.993 93.2537 146.478 93.7418 148.659 94.9189" stroke="black" stroke-miterlimit="10" stroke-linecap="round"/>
<path d="M175.385 108.509C178.568 109.512 181.462 111.269 183.821 113.63" stroke="black" stroke-miterlimit="10" stroke-linecap="round"/>
<path d="M176.885 104.726L171.668 105.22C170.554 102.108 170.712 98.7089 170.677 95.4029C170.468 91.8849 170.537 88.3559 170.884 84.8489C171.401 81.3639 172.817 77.8579 175.553 75.6379" stroke="black" stroke-miterlimit="10" stroke-linecap="round"/>
<path d="M131.91 80.9579C132.162 78.8507 132.978 76.8503 134.27 75.1669" stroke="black" stroke-miterlimit="10" stroke-linecap="round"/>
<path d="M136.831 70.7419C137.196 69.7987 137.801 68.9671 138.586 68.3299" stroke="black" stroke-miterlimit="10" stroke-linecap="round"/>
<path d="M171.337 82.7059C170.843 81.0913 170.71 79.3878 170.948 77.7162C171.187 76.0446 171.79 74.4459 172.716 73.0339" stroke="black" stroke-miterlimit="10" stroke-linecap="round"/>
<path d="M141.097 39.8519C142.353 39.4961 143.657 39.3418 144.961 39.3949" stroke="black" stroke-miterlimit="10" stroke-linecap="round"/>
<path d="M150.809 39.5989C151.637 39.4876 152.479 39.5509 153.281 39.7848C154.083 40.0187 154.827 40.418 155.466 40.9569" stroke="black" stroke-miterlimit="10" stroke-linecap="round"/>
<path d="M146.578 43.7449C146.916 45.2928 146.82 46.9038 146.302 48.4009C146.055 48.9189 145.932 49.4872 145.943 50.0609C146.018 50.6279 146.59 51.1729 147.125 50.9699" stroke="black" stroke-miterlimit="10" stroke-linecap="round"/>
<path d="M145.52 52.9279C146.01 53.3265 146.576 53.6214 147.184 53.7945C147.791 53.9677 148.428 54.0155 149.054 53.935C149.681 53.8546 150.285 53.6476 150.829 53.3266C151.373 53.0057 151.846 52.5774 152.22 52.0679" stroke="black" stroke-miterlimit="10" stroke-linecap="round"/>
<path d="M149.16 149.87C150.133 156.072 151.426 162.22 153.036 168.288C153.454 170.459 154.363 172.506 155.693 174.273" stroke="black" stroke-miterlimit="10" stroke-linecap="round"/>
<path d="M144.443 151.981C146.081 155.716 148.492 159.062 151.517 161.797" stroke="black" stroke-miterlimit="10" stroke-linecap="round"/>
<path d="M143.301 44.3419C143.984 44.3419 144.538 43.7881 144.538 43.1049C144.538 42.4217 143.984 41.8679 143.301 41.8679C142.618 41.8679 142.064 42.4217 142.064 43.1049C142.064 43.7881 142.618 44.3419 143.301 44.3419Z" fill="black"/>
<path d="M151.586 44.4459C152.269 44.4459 152.823 43.8921 152.823 43.2089C152.823 42.5257 152.269 41.9719 151.586 41.9719C150.903 41.9719 150.349 42.5257 150.349 43.2089C150.349 43.8921 150.903 44.4459 151.586 44.4459Z" fill="black"/>
</svg>
