<svg width="1366" height="620" viewBox="0 0 1366 620" fill="none" xmlns="http://www.w3.org/2000/svg">
<path d="M1366 0H0V620H1366V0Z" fill="#FEFEFF"/>
<path d="M636.409 331V296.875H647.565C651.268 296.875 654.05 297.641 655.909 299.172C657.784 300.703 658.721 302.969 658.721 305.969C658.721 307.562 658.268 308.977 657.362 310.211C656.456 311.43 655.221 312.375 653.659 313.047C655.503 313.562 656.956 314.547 658.018 316C659.096 317.438 659.635 319.156 659.635 321.156C659.635 324.219 658.643 326.625 656.659 328.375C654.675 330.125 651.87 331 648.245 331H636.409ZM640.909 315.039V327.32H648.339C650.432 327.32 652.081 326.781 653.284 325.703C654.503 324.609 655.112 323.109 655.112 321.203C655.112 317.094 652.878 315.039 648.409 315.039H640.909ZM640.909 311.43H647.706C649.675 311.43 651.245 310.938 652.417 309.953C653.604 308.969 654.198 307.633 654.198 305.945C654.198 304.07 653.651 302.711 652.557 301.867C651.464 301.008 649.8 300.578 647.565 300.578H640.909V311.43ZM670.346 331H666.01V295H670.346V331ZM676.159 318.086C676.159 315.602 676.643 313.367 677.612 311.383C678.596 309.398 679.956 307.867 681.69 306.789C683.44 305.711 685.432 305.172 687.667 305.172C691.12 305.172 693.909 306.367 696.034 308.758C698.175 311.148 699.245 314.328 699.245 318.297V318.602C699.245 321.07 698.768 323.289 697.815 325.258C696.878 327.211 695.526 328.734 693.76 329.828C692.01 330.922 689.995 331.469 687.714 331.469C684.276 331.469 681.487 330.273 679.346 327.883C677.221 325.492 676.159 322.328 676.159 318.391V318.086ZM680.518 318.602C680.518 321.414 681.167 323.672 682.464 325.375C683.776 327.078 685.526 327.93 687.714 327.93C689.917 327.93 691.667 327.07 692.964 325.352C694.26 323.617 694.909 321.195 694.909 318.086C694.909 315.305 694.245 313.055 692.917 311.336C691.604 309.602 689.854 308.734 687.667 308.734C685.526 308.734 683.8 309.586 682.487 311.289C681.175 312.992 680.518 315.43 680.518 318.602ZM703.651 318.109C703.651 314.156 704.565 311.016 706.393 308.688C708.221 306.344 710.643 305.172 713.659 305.172C716.753 305.172 719.167 306.266 720.901 308.453L721.112 305.641H725.073V330.391C725.073 333.672 724.096 336.258 722.143 338.148C720.206 340.039 717.596 340.984 714.315 340.984C712.487 340.984 710.698 340.594 708.948 339.812C707.198 339.031 705.862 337.961 704.94 336.602L707.19 334C709.05 336.297 711.323 337.445 714.01 337.445C716.12 337.445 717.76 336.852 718.932 335.664C720.12 334.477 720.714 332.805 720.714 330.648V328.469C718.979 330.469 716.612 331.469 713.612 331.469C710.643 331.469 708.237 330.273 706.393 327.883C704.565 325.492 703.651 322.234 703.651 318.109ZM708.01 318.602C708.01 321.461 708.596 323.711 709.768 325.352C710.94 326.977 712.581 327.789 714.69 327.789C717.425 327.789 719.432 326.547 720.714 324.062V312.484C719.385 310.062 717.393 308.852 714.737 308.852C712.628 308.852 710.979 309.672 709.792 311.312C708.604 312.953 708.01 315.383 708.01 318.602Z" fill="#373E5F"/>
<path d="M427.778 549.526C424.726 548.594 420.953 541.168 421.052 537.979C421.151 534.79 422.736 531.835 424.568 529.221C426.4 526.607 428.526 524.176 429.961 521.321C431.189 518.841 431.866 516.124 431.945 513.358C432.023 510.591 431.501 507.841 430.415 505.295C428.689 501.324 425.515 497.235 426.982 493.159C427.671 491.238 429.282 489.821 430.832 488.493L461.096 462.54C469.831 471.152 480.567 483.765 489.302 492.377L427.778 549.526Z" fill="#FF58E0"/>
<path d="M443.699 493.865C445.083 498.808 445.698 503.935 445.525 509.065C445.506 510.673 445.301 512.274 444.913 513.835C444.036 517.052 441.967 519.814 439.125 521.559C436.284 523.304 432.885 523.901 429.619 523.229" stroke="black" stroke-miterlimit="10" stroke-linecap="round"/>
<path d="M352.412 514.569C352.029 526.115 351.129 537.628 349.712 549.109L271.349 549.526C270.62 545.45 273.177 541.471 276.249 538.694C278.504 536.657 281.078 535.007 283.87 533.808C287.662 532.181 291.816 531.408 295.421 529.398C302.649 525.37 306.381 517.237 309.648 509.635L352.412 514.569Z" fill="#FF58E0"/>
<path d="M285.434 534.092C285.766 535.127 286.305 536.084 287.018 536.905C287.731 537.725 288.603 538.393 289.581 538.867C291.547 539.803 293.704 540.271 295.881 540.236C299.617 540.218 303.299 539.348 306.648 537.692C309.997 536.037 312.924 533.639 315.207 530.682C317.448 527.696 319.061 524.287 319.949 520.66C320.836 517.034 320.981 513.266 320.373 509.582" stroke="black" stroke-miterlimit="10" stroke-linecap="round"/>
<path d="M320.126 324.992C310.247 385.843 304.887 447.343 304.092 508.986C304.068 510.833 304.162 512.94 305.579 514.123C306.604 514.816 307.811 515.191 309.048 515.201C325.085 516.868 341.163 518.034 357.284 518.701C358.684 518.759 360.261 518.742 361.224 517.73C361.884 516.85 362.235 515.778 362.224 514.678C368.199 453.133 374.128 391.584 380.013 330.03C380.166 328.435 380.289 326.707 379.439 325.349C378.589 323.991 376.957 323.337 375.424 322.839C362.957 318.83 349.541 318.871 337.098 322.954L320.126 324.992Z" fill="#3E20EF"/>
<path d="M353.396 323.735C359.823 366.999 371.115 409.399 387.058 450.129C394.931 470.236 404.233 490.358 419.402 505.729C420.976 507.323 422.719 508.922 424.902 509.429C427.283 509.981 429.746 509.135 432.017 508.229C444.467 503.28 456.015 496.311 466.195 487.601C471.588 482.985 477.014 476.442 475.209 469.576C474.309 466.17 471.773 463.485 469.409 460.871C459.208 449.574 450.752 436.816 444.322 423.02C438.498 410.515 434.401 397.289 430.322 384.112C422.859 359.998 415.374 335.795 411.211 310.898C410.995 309.603 410.711 308.173 409.655 307.39C408.566 306.777 407.289 306.589 406.07 306.864C391.514 308.453 377.457 313.091 364.813 320.475L353.396 323.735Z" fill="#3E20EF"/>
<path d="M253.41 516.201L253.409 516.201C251.47 515.481 249.314 516.469 248.594 518.408L238.765 544.866C238.045 546.805 239.033 548.96 240.972 549.681L240.973 549.681C242.911 550.401 245.067 549.413 245.787 547.475L255.616 521.016C256.336 519.077 255.348 516.922 253.41 516.201Z" fill="black" stroke="black" stroke-miterlimit="10" stroke-linecap="round"/>
<path d="M320.783 220.626C300.539 226.37 285.462 242.874 271.523 258.639C282.143 265.455 291.787 273.682 300.191 283.096C304.23 279.375 307.724 275.104 310.569 270.407C313.702 288.528 316.848 306.89 315.283 325.213C315.176 325.708 315.267 326.225 315.536 326.654C315.822 326.925 316.186 327.1 316.576 327.154C333.134 331.189 350.602 329.617 367.233 325.897C383.864 322.177 399.947 316.364 416.377 311.834C414.361 283.859 410.393 258.667 399.733 232.724C398.285 229.201 396.65 225.631 393.892 223.005C389.892 219.198 384.149 217.93 378.67 217.262C363.748 215.442 348.431 213.942 334.145 218.622L320.783 220.626Z" fill="#2B8AFF"/>
<path d="M316.784 220.803C315.643 216.783 313.984 212.814 310.691 210.344C309.53 206.878 310.855 203.097 312.407 199.786C313.091 198.173 314.003 196.667 315.115 195.314C316.235 194.132 317.512 193.109 318.91 192.275C320.426 191.137 322.211 190.414 324.091 190.175C326.949 190.014 329.544 191.931 331.286 194.192C332.876 196.255 339.023 214.08 341.345 215.739C341.595 215.861 341.801 216.057 341.936 216.3C342.071 216.542 342.129 216.821 342.101 217.097C342.182 219.044 341.994 220.993 341.54 222.888C341.257 224.278 340.704 225.6 339.913 226.777C339.167 227.777 338.239 228.627 337.178 229.284C334.925 230.701 332.341 231.504 329.681 231.615C327.022 231.725 324.38 231.138 322.017 229.913C320.949 229.384 320.003 228.638 319.24 227.723C318.288 226.277 317.645 224.65 317.352 222.943C317.174 222.24 316.988 221.518 316.784 220.803Z" fill="white" stroke="black" stroke-miterlimit="10" stroke-linecap="round"/>
<path d="M289.717 186.777C289.717 199.424 294.736 210.368 300.689 216.896C302.499 219.109 304.882 220.782 307.577 221.735C308.758 222.062 309.983 222.204 311.208 222.156C314.447 221.999 317.559 220.841 320.112 218.842C322.666 216.842 324.536 214.1 325.466 210.993C326.051 208.664 326.249 206.254 326.052 203.861C325.864 200.684 325.283 197.542 324.32 194.508C324.141 194.085 324.076 193.622 324.13 193.166C324.255 192.745 324.503 192.371 324.841 192.091C326.301 190.701 325.241 189.904 326.722 188.54C327.777 187.567 328.566 186.341 329.013 184.977C329.464 183.344 329.506 181.624 329.136 179.971C328.766 178.317 327.995 176.78 326.891 175.495C324.755 172.877 324.656 171.195 321.439 170.162C319.639 169.569 317.77 169.208 315.878 169.09C312.284 169.017 308.71 169.646 305.357 170.943C302.154 171.943 299.184 173.576 296.623 175.743C295.35 176.834 294.316 178.175 293.584 179.683C292.852 181.191 292.439 182.834 292.37 184.509L289.717 186.777Z" fill="white" stroke="black" stroke-miterlimit="10" stroke-linecap="round"/>
<path d="M398.457 151.855C400.205 147.148 397.807 141.915 393.1 140.166C388.393 138.418 383.16 140.816 381.411 145.523L370.12 175.917C368.371 180.625 370.77 185.858 375.477 187.607C380.184 189.355 385.417 186.957 387.166 182.25L398.457 151.855Z" fill="black" stroke="black" stroke-miterlimit="10" stroke-linecap="round"/>
<path d="M373.534 233.068C375.09 229.471 376.964 226.02 379.134 222.757C379.662 221.865 380.347 221.077 381.157 220.431C383.64 218.658 387.095 219.757 389.818 221.131C401.213 226.939 410.276 236.473 415.501 248.147L379.288 266.122C379.002 266.31 378.654 266.382 378.316 266.322C377.928 266.199 377.743 265.766 377.616 265.379C376.921 263.227 376.569 260.979 376.573 258.717" fill="#2B8AFC"/>
<path d="M245.279 538.088C232.917 533.495 236.016 494.456 240.608 482.094L357.476 167.494C358.568 164.554 360.228 161.859 362.362 159.561C364.496 157.263 367.061 155.407 369.912 154.101C372.763 152.795 375.843 152.063 378.977 151.947C382.111 151.831 385.236 152.334 388.176 153.426V153.426C391.116 154.518 393.811 156.178 396.109 158.312C398.407 160.446 400.263 163.011 401.569 165.862C402.875 168.713 403.607 171.793 403.723 174.927C403.839 178.061 403.336 181.187 402.244 184.126L285.376 498.726C280.781 511.085 257.64 542.68 245.279 538.088Z" fill="#98CEF7" stroke="black" stroke-miterlimit="10" stroke-linecap="round"/>
<path d="M397.555 196.741L352.79 180.112L241.926 478.552L286.691 495.182L397.555 196.741Z" fill="#98CEF7" stroke="black" stroke-miterlimit="10" stroke-linecap="round"/>
<path d="M380.119 264.046C380.409 271.546 380.698 275.046 380.988 282.546C381.083 283.162 380.958 283.792 380.634 284.325C380.073 285.033 379.002 284.979 378.107 284.859C364.784 283.069 351.46 285.279 338.137 283.489C337.126 283.421 336.138 283.151 335.232 282.696C334.269 282.001 333.453 281.122 332.832 280.11C331.607 278.234 329.814 276.799 327.715 276.015C325.586 275.376 322.931 276.084 321.929 278.069C321.563 278.794 321.393 279.687 320.729 280.151C319.951 280.693 318.902 280.389 317.962 280.263C316.593 280.16 315.218 280.379 313.948 280.902C312.679 281.426 311.549 282.239 310.65 283.277C308.872 285.368 307.496 287.771 306.593 290.364C305.078 294.127 303.793 298.395 305.32 302.152C307.22 306.829 312.62 308.841 317.442 310.342C322.016 311.768 326.593 313.193 331.242 314.371C353.097 319.885 375.986 319.828 397.813 314.207C401.43 313.27 405.1 312.136 408.048 309.841C411.881 306.857 414.069 302.241 415.602 297.63C419.342 286.325 419.935 274.216 417.319 262.6C416.331 258.246 413.814 249.854 410.788 246.57C407.709 243.229 404.152 245.302 399.609 245.421C397.332 245.495 395.096 246.048 393.047 247.044C390.998 248.04 389.182 249.456 387.717 251.201L380.119 264.046Z" fill="white" stroke="black" stroke-miterlimit="10" stroke-linecap="round"/>
<path d="M378.134 284.896C384.493 285.33 390.809 286.25 397.028 287.647" stroke="black" stroke-miterlimit="10" stroke-linecap="round"/>
<path d="M414.502 248.483C401.748 254.199 389.209 260.366 376.885 266.983C376.844 264.812 377.275 262.657 378.149 260.669C381.092 252.411 384.616 243.448 392.301 239.229C396.938 236.683 403.421 236.602 406.925 240.565" fill="#2B8AFC"/>
<path d="M293.422 300.7C293.412 300.431 293.405 300.163 293.401 299.893C293.275 290.212 296.579 280.799 302.726 273.319L281.382 253.619C274.482 256.41 269.992 265.032 266.314 271.501C263.002 277.568 260.965 284.249 260.33 291.132C259.777 296.945 261.102 302.757 262.5 308.432C266.617 325.13 271.441 341.633 276.97 357.94C278.079 360.703 279.646 363.259 281.606 365.499C283.08 367.299 289.043 370.641 291.058 371.812C297.802 375.73 304.846 376.064 312.458 374.352C320.07 372.64 322.863 366.106 323.148 358.312C323.237 355.882 322.565 353.205 320.569 351.817C319.604 351.221 318.534 350.813 317.416 350.617C318.094 350.304 318.652 349.779 319.005 349.121C319.359 348.463 319.489 347.708 319.377 346.97C318.839 344.882 316.146 344.41 313.996 344.244C309.853 343.917 305.749 343.207 301.737 342.125C301.706 342.07 301.669 342.025 301.637 341.965C300.654 339.945 299.986 337.787 299.656 335.565L295.423 314.488C293.614 305.481 293.287 296.418 291.097 287.475" fill="white"/>
<path d="M293.422 300.7C293.412 300.431 293.405 300.163 293.401 299.893C293.275 290.212 296.579 280.799 302.726 273.319L281.382 253.619C274.482 256.41 269.992 265.032 266.314 271.501C263.002 277.568 260.965 284.249 260.33 291.132C259.777 296.945 261.102 302.757 262.5 308.432C266.617 325.13 271.441 341.633 276.97 357.94C278.079 360.703 279.646 363.259 281.606 365.499C283.08 367.299 289.043 370.641 291.058 371.812C297.802 375.73 304.846 376.064 312.458 374.352C320.07 372.64 322.863 366.106 323.148 358.312C323.237 355.882 322.565 353.205 320.569 351.817C319.604 351.221 318.534 350.813 317.416 350.617C318.094 350.304 318.652 349.779 319.005 349.121C319.359 348.463 319.489 347.708 319.377 346.97C318.839 344.882 316.146 344.41 313.996 344.244C309.853 343.917 305.749 343.207 301.737 342.125C301.706 342.07 301.669 342.025 301.637 341.965C300.654 339.945 299.986 337.787 299.656 335.565L295.423 314.488C293.614 305.481 293.287 296.418 291.097 287.475" stroke="black" stroke-miterlimit="10" stroke-linecap="round"/>
<path d="M298.482 242.03C293.116 244.177 287.682 246.405 283.143 249.98C279.5 252.848 276.478 256.548 272.427 258.802C281.369 267.202 290.357 275.641 300.497 282.549C304.031 277.191 307.041 271.505 309.487 265.571C310.585 263.211 311.262 260.678 311.487 258.085C311.59 256.787 311.406 255.483 310.947 254.265C310.488 253.046 309.766 251.944 308.833 251.037C307.373 249.913 305.673 249.141 303.866 248.78C301.507 248.162 299.11 247.699 296.69 247.396" fill="#2B8AFC"/>
<path d="M317.556 350.566C312.823 349.039 308.034 347.706 303.189 346.566" stroke="black" stroke-miterlimit="10" stroke-linecap="round"/>
<path d="M309.766 285.558C314.885 287.599 320.171 289.191 325.566 290.315" stroke="black" stroke-miterlimit="10" stroke-linecap="round"/>
<path d="M306.495 292.548C312.063 295.071 317.987 296.717 324.058 297.427" stroke="black" stroke-miterlimit="10" stroke-linecap="round"/>
<path d="M305.354 299.162C309.446 301.92 314.159 303.621 319.069 304.111" stroke="black" stroke-miterlimit="10" stroke-linecap="round"/>
<path d="M319.034 280.386C323.224 281.368 327.44 282.235 331.681 282.986" stroke="black" stroke-miterlimit="10" stroke-linecap="round"/>
<path d="M304.793 354.829C308.753 356.888 313.203 357.767 317.584 358.629L323.2 359.729" stroke="black" stroke-miterlimit="10" stroke-linecap="round"/>
<path d="M304.734 362.112C307.655 363.474 310.726 364.486 313.884 365.129L320.77 366.813" stroke="black" stroke-miterlimit="10" stroke-linecap="round"/>
<path d="M302.358 369.235C306.254 370.784 310.241 372.091 314.298 373.149" stroke="black" stroke-miterlimit="10" stroke-linecap="round"/>
<path d="M315.05 246.92C314.577 255.025 314.033 263.403 310.31 270.62" stroke="black" stroke-miterlimit="10" stroke-linecap="round"/>
<path d="M312.996 236.179C314.04 238.004 314.499 240.104 314.313 242.198" stroke="black" stroke-miterlimit="10" stroke-linecap="round"/>
<path d="M380.16 265.058C378.818 265.709 377.238 266.828 375.835 267.334C375.171 264.219 374.887 261.035 374.99 257.852" stroke="black" stroke-miterlimit="10" stroke-linecap="round"/>
<path d="M372.463 408.189C362.557 389.066 356.15 367.128 355.753 345.596" stroke="black" stroke-miterlimit="10" stroke-linecap="round"/>
<path d="M295.296 530.091C296.947 531.668 297.964 533.795 298.154 536.071" stroke="black" stroke-miterlimit="10" stroke-linecap="round"/>
<path d="M302.134 524.412C304.006 524.575 305.558 525.923 306.757 527.369C307.509 528.147 307.998 529.14 308.157 530.21C308.176 530.199 308.192 530.181 308.201 530.161C308.21 530.14 308.212 530.117 308.208 530.095C308.203 530.073 308.192 530.053 308.176 530.038C308.159 530.023 308.138 530.013 308.116 530.01" stroke="black" stroke-miterlimit="10" stroke-linecap="round"/>
<path d="M306 518.401C307.76 518.597 309.469 519.115 311.042 519.929C312.622 520.753 313.882 522.08 314.622 523.701" stroke="black" stroke-miterlimit="10" stroke-linecap="round"/>
<path d="M431.834 517.8C432.928 517.009 434.173 516.45 435.492 516.159C436.81 515.868 438.174 515.85 439.5 516.107" stroke="black" stroke-miterlimit="10" stroke-linecap="round"/>
<path d="M432.279 509.946C435.557 507.766 439.557 506.952 443.426 507.677" stroke="black" stroke-miterlimit="10" stroke-linecap="round"/>
<path d="M305.634 193.212C306.706 192.092 308.145 191.393 309.688 191.244C311.232 191.095 312.777 191.505 314.044 192.399" stroke="black" stroke-miterlimit="10" stroke-linecap="round"/>
<path d="M293.256 197.77C295.001 196.441 297.151 195.757 299.343 195.834" stroke="black" stroke-miterlimit="10" stroke-linecap="round"/>
<path d="M303.286 202.881L304.193 209.344C304.216 210.075 304.481 210.779 304.945 211.344C305.468 211.844 306.521 211.821 306.763 211.138" stroke="black" stroke-miterlimit="10" stroke-linecap="round"/>
<path d="M305.823 215.779C306.603 216.138 307.449 216.332 308.308 216.348C309.167 216.365 310.02 216.203 310.813 215.874C311.606 215.545 312.323 215.055 312.918 214.435C313.512 213.815 313.973 213.079 314.269 212.273" stroke="black" stroke-miterlimit="10" stroke-linecap="round"/>
<path d="M349.05 354.169C351.64 360.369 354.921 366.257 358.831 371.721" stroke="black" stroke-miterlimit="10" stroke-linecap="round"/>
<path d="M389.215 333.245C392.211 336.655 396.011 339.262 400.27 340.83C404.53 342.398 409.114 342.876 413.605 342.221" stroke="black" stroke-miterlimit="10" stroke-linecap="round"/>
<path d="M469.81 461.873C461.695 471.936 451.585 480.21 440.115 486.173" stroke="black" stroke-miterlimit="10" stroke-linecap="round"/>
<path d="M414.272 499.05C418.157 497.892 421.822 496.096 425.118 493.736" stroke="black" stroke-miterlimit="10" stroke-linecap="round"/>
<path d="M304.479 502.9C309.462 504.007 314.566 504.47 319.666 504.28" stroke="black" stroke-miterlimit="10" stroke-linecap="round"/>
<path d="M332.121 504.158C342.187 504.758 352.712 505.268 362.787 505.689" stroke="black" stroke-miterlimit="10" stroke-linecap="round"/>
<path d="M223.942 549.526L197.8 511.613" stroke="black" stroke-miterlimit="10" stroke-linecap="round"/>
<path d="M212.433 549.526L194.094 537.56" stroke="black" stroke-miterlimit="10" stroke-linecap="round"/>
<path d="M316.134 187.212C315.768 185.042 314.784 182.67 312.706 181.947C311.848 181.717 310.961 181.616 310.074 181.647C307.902 181.568 305.574 181.047 304.147 179.409C302.516 183.525 298.447 186.092 294.48 188.065C292.361 189.204 290.096 190.048 287.749 190.576C285.384 191.101 282.913 190.842 280.708 189.838C277.333 188.159 275.398 184.344 275.126 180.583C274.966 179.019 275.198 177.44 275.802 175.989C276.109 175.267 276.567 174.62 277.146 174.091C277.725 173.562 278.411 173.164 279.157 172.923C278.901 172.116 278.819 171.264 278.918 170.423C279.017 169.582 279.293 168.772 279.729 168.046C280.612 166.6 281.782 165.35 283.167 164.374C287.817 160.834 293.913 158.83 299.603 160.161C299.915 160.253 300.239 160.3 300.565 160.301C301.134 160.205 301.673 159.98 302.142 159.643C303.469 158.916 304.965 158.551 306.478 158.585C307.991 158.618 309.468 159.049 310.762 159.834C311.099 160.097 311.494 160.275 311.914 160.354C312.217 160.356 312.518 160.303 312.802 160.197C314.779 159.565 316.871 159.374 318.93 159.637C320.989 159.9 322.965 160.611 324.72 161.72C327.341 163.626 329.253 166.35 330.156 169.462C331.043 172.558 331.372 175.788 331.128 178.999C331.096 179.239 331.122 179.483 331.202 179.712C331.342 179.955 331.542 180.158 331.784 180.301C333.204 181.34 334.368 182.689 335.188 184.246C336.007 185.803 336.461 187.526 336.514 189.285C336.568 191.043 336.219 192.791 335.495 194.394C334.771 195.998 333.69 197.415 332.336 198.538C331.633 199.2 330.789 199.693 329.866 199.978C328.944 200.263 327.969 200.334 327.015 200.184C326.693 200.124 326.393 199.975 326.151 199.754C325.888 199.42 325.719 199.022 325.661 198.601C325.038 196.013 323.816 193.608 322.093 191.579C323.195 191.357 324.228 190.873 325.104 190.169C325.981 189.464 326.674 188.558 327.127 187.529C327.553 186.488 327.664 185.344 327.447 184.24C327.229 183.136 326.692 182.121 325.903 181.319C325.079 180.554 324.017 180.096 322.895 180.023C321.773 179.951 320.66 180.267 319.744 180.919C318.878 181.632 318.328 182.658 318.214 183.774C318.101 184.891 318.433 186.006 319.138 186.879L316.134 187.212Z" fill="black" stroke="black" stroke-miterlimit="10"/>
<path d="M297.658 203.269C298.763 203.269 299.658 202.374 299.658 201.269C299.658 200.164 298.763 199.269 297.658 199.269C296.554 199.269 295.658 200.164 295.658 201.269C295.658 202.374 296.554 203.269 297.658 203.269Z" fill="black"/>
<path d="M309.658 199.269C310.763 199.269 311.658 198.374 311.658 197.269C311.658 196.164 310.763 195.269 309.658 195.269C308.554 195.269 307.658 196.164 307.658 197.269C307.658 198.374 308.554 199.269 309.658 199.269Z" fill="black"/>
<path d="M249.5 258.5H121.5V386.5H249.5V258.5Z" fill="white" stroke="black" stroke-miterlimit="10" stroke-linecap="round"/>
<path d="M189 334H145C140.582 334 137 337.582 137 342C137 346.418 140.582 350 145 350H189C193.418 350 197 346.418 197 342C197 337.582 193.418 334 189 334Z" fill="#98CEF7"/>
<path opacity="0.3" d="M229.5 275H141.5C139.015 275 137 277.015 137 279.5C137 281.985 139.015 284 141.5 284H229.5C231.985 284 234 281.985 234 279.5C234 277.015 231.985 275 229.5 275Z" fill="#373E5F"/>
<path opacity="0.3" d="M229.5 292H141.5C139.015 292 137 294.015 137 296.5C137 298.985 139.015 301 141.5 301H229.5C231.985 301 234 298.985 234 296.5C234 294.015 231.985 292 229.5 292Z" fill="#373E5F"/>
<path opacity="0.3" d="M180.5 309H141.5C139.015 309 137 311.015 137 313.5C137 315.985 139.015 318 141.5 318H180.5C182.985 318 185 315.985 185 313.5C185 311.015 182.985 309 180.5 309Z" fill="#373E5F"/>
<path d="M487.5 94.5H423.5V158.5H487.5V94.5Z" fill="#98CEF7" stroke="black" stroke-miterlimit="10" stroke-linecap="round"/>
<path d="M457.25 132.25H435.25C433.041 132.25 431.25 134.041 431.25 136.25C431.25 138.459 433.041 140.25 435.25 140.25H457.25C459.459 140.25 461.25 138.459 461.25 136.25C461.25 134.041 459.459 132.25 457.25 132.25Z" fill="white"/>
<path opacity="0.5" d="M477.5 102.75H433.5C432.257 102.75 431.25 103.757 431.25 105C431.25 106.243 432.257 107.25 433.5 107.25H477.5C478.743 107.25 479.75 106.243 479.75 105C479.75 103.757 478.743 102.75 477.5 102.75Z" fill="white"/>
<path opacity="0.5" d="M477.5 111.25H433.5C432.257 111.25 431.25 112.257 431.25 113.5C431.25 114.743 432.257 115.75 433.5 115.75H477.5C478.743 115.75 479.75 114.743 479.75 113.5C479.75 112.257 478.743 111.25 477.5 111.25Z" fill="white"/>
<path opacity="0.5" d="M453 119.75H433.5C432.257 119.75 431.25 120.757 431.25 122C431.25 123.243 432.257 124.25 433.5 124.25H453C454.243 124.25 455.25 123.243 455.25 122C455.25 120.757 454.243 119.75 453 119.75Z" fill="white"/>
<path d="M1249.5 97.5H1185.5V161.5H1249.5V97.5Z" fill="white" stroke="black" stroke-miterlimit="10" stroke-linecap="round"/>
<path d="M1219.25 135.25H1197.25C1195.04 135.25 1193.25 137.041 1193.25 139.25C1193.25 141.459 1195.04 143.25 1197.25 143.25H1219.25C1221.46 143.25 1223.25 141.459 1223.25 139.25C1223.25 137.041 1221.46 135.25 1219.25 135.25Z" fill="#98CEF7"/>
<path opacity="0.3" d="M1239.5 105.75H1195.5C1194.26 105.75 1193.25 106.757 1193.25 108C1193.25 109.243 1194.26 110.25 1195.5 110.25H1239.5C1240.74 110.25 1241.75 109.243 1241.75 108C1241.75 106.757 1240.74 105.75 1239.5 105.75Z" fill="#373E5F"/>
<path opacity="0.3" d="M1239.5 114.25H1195.5C1194.26 114.25 1193.25 115.257 1193.25 116.5C1193.25 117.743 1194.26 118.75 1195.5 118.75H1239.5C1240.74 118.75 1241.75 117.743 1241.75 116.5C1241.75 115.257 1240.74 114.25 1239.5 114.25Z" fill="#373E5F"/>
<path opacity="0.3" d="M1215 122.75H1195.5C1194.26 122.75 1193.25 123.757 1193.25 125C1193.25 126.243 1194.26 127.25 1195.5 127.25H1215C1216.24 127.25 1217.25 126.243 1217.25 125C1217.25 123.757 1216.24 122.75 1215 122.75Z" fill="#373E5F"/>
<path d="M1030.09 90H895.425V274.199H1030.09V90Z" fill="white" stroke="black" stroke-miterlimit="10" stroke-linecap="round"/>
<path d="M1030.09 90H895.425V97.347H1030.09V90Z" fill="#98CEF7" stroke="black" stroke-miterlimit="10" stroke-linecap="round"/>
<path d="M1020.53 105.173H968.837V139.799H1020.53V105.173Z" fill="#98CEF7"/>
<path d="M1151.22 550.835C1149.62 541.942 1154.42 531.582 1162.49 527.508C1166.62 525.418 1171.69 523.108 1172.28 518.508C1172.67 515.432 1170.76 512.308 1171.53 509.308C1172.4 505.939 1176.13 504.308 1179.41 503.149C1190.93 499.073 1202.51 494.984 1214.47 492.498C1218.3 504.66 1224.87 519.149 1228.7 531.311L1151.22 550.835Z" fill="#2B8AFF"/>
<path d="M1225.54 522.217L1151.14 544.246" stroke="black" stroke-miterlimit="10" stroke-linecap="round"/>
<path d="M1163.94 527.543C1167.64 530.143 1172.89 529.867 1176.79 527.57C1180.68 525.273 1183.34 521.258 1184.83 516.987C1186.12 513.223 1186.62 509.23 1186.28 505.265C1185.94 501.3 1184.78 497.449 1182.87 493.958" stroke="black" stroke-miterlimit="10" stroke-linecap="round"/>
<path d="M1019.46 550.835C1019.03 548.543 1019.23 546.177 1020.05 543.992C1020.87 541.808 1022.27 539.888 1024.09 538.442C1030.05 533.868 1038.91 535.342 1045.27 531.348C1052.08 527.068 1053.88 518.056 1054.5 510.036C1068.26 505.72 1082.79 504.464 1097.07 506.356C1098.71 506.425 1100.29 506.989 1101.6 507.975C1103.03 509.281 1103.37 511.362 1103.61 513.281C1105.12 525.335 1105.8 537.478 1105.64 549.625L1019.46 550.835Z" fill="#2B8AFF"/>
<path d="M1020.13 544.246H1105.67" stroke="black" stroke-miterlimit="10" stroke-linecap="round"/>
<path d="M1036.42 534.953C1038.03 536.9 1040.33 538.135 1042.84 538.392C1049.83 539.404 1056.83 535.051 1060.48 529.011C1064.13 522.971 1064.9 515.582 1064.37 508.544" stroke="black" stroke-miterlimit="10" stroke-linecap="round"/>
<path d="M1114.47 301.082C1118.58 373.542 1134.81 444.801 1162.49 511.895C1163.01 513.176 1163.69 514.589 1164.99 515.052C1166.24 515.498 1167.61 514.886 1168.8 514.284C1184.25 506.484 1203.37 502.997 1218.08 493.873C1218.7 493.635 1219.26 493.274 1219.74 492.811C1220.21 492.349 1220.59 491.795 1220.85 491.183C1221.1 490.571 1221.23 489.914 1221.22 489.251C1221.22 488.587 1221.08 487.932 1220.81 487.325C1208.14 423.869 1188.83 355.938 1170.96 293.746L1114.47 301.082Z" fill="#3E20EF"/>
<path d="M1073.45 320.143C1076.36 330.561 1079.29 341.47 1077.07 352.055C1075.95 357.377 1073.58 362.338 1071.28 367.268C1064.28 382.316 1057.83 397.603 1051.92 413.129C1049.59 418.842 1047.76 424.746 1046.44 430.774C1045.17 437.337 1045.04 444.061 1044.97 450.745C1044.77 471.898 1045.21 493.044 1046.3 514.184C1046.21 515.527 1046.61 516.857 1047.42 517.93C1048.49 519.019 1050.2 519.052 1051.72 519.013L1109.99 517.513C1108.18 491.472 1107.39 465.387 1107.61 439.259C1107.66 433.411 1107.77 427.512 1109.07 421.811C1110.73 414.526 1114.28 407.837 1117.59 401.14C1127.51 381.086 1135.62 360.187 1141.82 338.691C1144.23 330.335 1146.37 321.651 1145.3 313.019C1144.23 304.387 1139.31 295.731 1131.21 292.547C1126.85 290.831 1122.01 290.828 1117.35 291.325C1102.01 293.008 1087.68 299.743 1076.59 310.471L1073.45 320.143Z" fill="#3E20EF"/>
<path d="M951.5 159.5H887.5V223.5H951.5V159.5Z" fill="#98CEF7" stroke="black" stroke-miterlimit="10" stroke-linecap="round"/>
<path d="M921.25 197.25H899.25C897.041 197.25 895.25 199.041 895.25 201.25C895.25 203.459 897.041 205.25 899.25 205.25H921.25C923.459 205.25 925.25 203.459 925.25 201.25C925.25 199.041 923.459 197.25 921.25 197.25Z" fill="white"/>
<path opacity="0.5" d="M941.5 167.75H897.5C896.257 167.75 895.25 168.757 895.25 170C895.25 171.243 896.257 172.25 897.5 172.25H941.5C942.743 172.25 943.75 171.243 943.75 170C943.75 168.757 942.743 167.75 941.5 167.75Z" fill="white"/>
<path opacity="0.5" d="M941.5 176.25H897.5C896.257 176.25 895.25 177.257 895.25 178.5C895.25 179.743 896.257 180.75 897.5 180.75H941.5C942.743 180.75 943.75 179.743 943.75 178.5C943.75 177.257 942.743 176.25 941.5 176.25Z" fill="white"/>
<path opacity="0.5" d="M917 184.75H897.5C896.257 184.75 895.25 185.757 895.25 187C895.25 188.243 896.257 189.25 897.5 189.25H917C918.243 189.25 919.25 188.243 919.25 187C919.25 185.757 918.243 184.75 917 184.75Z" fill="white"/>
<path d="M1018.13 244.732L994.876 252.608C994.29 252.869 993.641 252.959 993.006 252.867C992.498 252.699 992.04 252.406 991.675 252.015C986.912 247.621 983.762 241.792 980.775 236.04C977.055 228.872 973.454 221.64 969.852 214.414C967.126 208.941 964.338 203.22 964.315 197.106C964.3 193.183 965.433 189.214 964.589 185.382C964.278 183.971 963.389 182.392 961.944 182.37C961.237 182.418 960.565 182.694 960.028 183.157C957.956 184.697 956.448 186.876 955.736 189.357C951.915 187.338 947.792 185.954 943.528 185.257C939.25 184.718 934.673 185.434 931.204 187.994C927.461 190.756 925.442 195.273 924.16 199.744C923.513 202 923.052 204.578 924.292 206.57C926.192 209.628 930.592 209.387 934.192 209.434C935.336 209.363 936.476 209.623 937.476 210.182C938.207 210.746 938.806 211.463 939.232 212.282C953.544 235.824 956.203 265.834 974.041 286.832C975.52 288.763 977.385 290.363 979.517 291.532C983.461 293.432 988.132 292.589 992.371 291.496C1008.1 287.438 1022.93 280.53 1037.65 273.659L1018.13 244.732Z" fill="white" stroke="black" stroke-miterlimit="10" stroke-linecap="round"/>
<path d="M1167.93 233.106C1169.91 218.651 1175.36 204.934 1180.75 191.376C1182.62 186.682 1184.52 181.63 1183.41 176.701C1182.36 172.02 1178.67 167.919 1179.02 163.134C1179 162.634 1179.12 162.139 1179.35 161.698C1179.59 161.257 1179.94 160.886 1180.36 160.623C1180.84 160.451 1181.35 160.402 1181.84 160.482C1184.17 160.705 1186.39 161.541 1188.29 162.904C1189.75 159.296 1192.5 156.384 1195.19 153.562C1198.25 150.345 1201.8 146.899 1206.24 146.801C1208.41 146.895 1210.54 147.404 1212.52 148.301C1216.49 149.807 1220.94 151.801 1222.2 155.863C1223.14 158.934 1221.88 162.286 1220.02 164.911C1218.16 167.536 1215.73 169.711 1213.89 172.346C1211.16 176.246 1209.86 180.946 1208.85 185.586C1203.65 209.431 1204.81 234.325 1199.49 258.146C1198.97 260.489 1198.32 262.932 1196.67 264.676C1194.28 267.203 1190.47 267.608 1187 267.858C1180.83 268.302 1174.26 268.658 1168.87 265.651L1167.93 233.106Z" fill="white" stroke="black" stroke-miterlimit="10" stroke-linecap="round"/>
<path d="M1076.08 212.527C1054.67 216.529 1034.42 225.248 1016.81 238.049C1015.09 239.302 1013.23 240.901 1013.21 243.03C1013.37 244.537 1014.01 245.95 1015.05 247.051C1021.55 255.505 1026.5 265.832 1027.75 276.422C1027.89 277.639 1027.99 278.981 1028.85 279.848C1030.1 281.103 1032.19 280.69 1033.89 280.183C1040.45 278.225 1049.98 274.183 1056.49 272.067C1059.7 286.59 1060.55 301.536 1059.02 316.331C1058.59 320.078 1058.46 324.592 1061.52 326.794C1063.77 328.415 1066.84 328.039 1069.58 327.594C1100.34 322.573 1129.12 314.55 1159.7 308.507C1167.23 307.018 1174.81 305.451 1181.9 302.502C1182.76 302.249 1183.5 301.7 1184 300.95C1184.27 300.254 1184.32 299.488 1184.12 298.766C1183.43 294.992 1181.38 291.616 1179.27 288.412C1173.84 280.177 1167.71 272.429 1160.94 265.256L1173.39 269.178C1172.16 255.699 1170.92 245.219 1169.68 231.74C1169.77 230.474 1169.41 229.216 1168.66 228.19C1167.91 227.165 1166.83 226.438 1165.59 226.14L1146.14 217.315C1139.43 214.27 1132.64 211.199 1125.4 209.857C1114.65 207.865 1103.6 209.791 1092.85 211.749L1076.08 212.527Z" fill="#FF58E0"/>
<path d="M1070.56 198.459L1064.52 216.359C1063.45 219.547 1062.36 222.959 1063.19 226.219C1063.39 227.114 1063.82 227.939 1064.45 228.605C1065.83 229.953 1068.04 229.933 1069.92 229.505C1073.14 228.694 1076.15 227.233 1078.78 225.212C1085.74 220.107 1090.83 212.862 1093.28 204.586C1094.65 199.914 1094.89 194.241 1091.42 190.823C1089.96 189.475 1088.17 188.54 1086.23 188.115C1082.36 187.157 1078.28 187.554 1074.67 189.241C1073.32 189.873 1071.92 190.9 1071.82 192.38L1070.56 198.459Z" fill="white" stroke="black" stroke-miterlimit="10" stroke-linecap="round"/>
<path d="M1077.99 157.413C1072.69 158.013 1067.88 161.085 1064.37 165.1C1060.98 169.237 1058.38 173.954 1056.67 179.023C1055 183.531 1053.67 188.354 1054.41 193.106C1055.14 197.858 1058.43 202.493 1063.14 203.462C1064.76 203.728 1066.41 203.643 1067.99 203.212C1069.57 202.78 1071.04 202.013 1072.3 200.962C1074.8 198.837 1076.73 196.127 1077.93 193.072C1078.37 192.049 1078.89 190.872 1079.96 190.572C1080.55 190.457 1081.16 190.494 1081.74 190.682C1084.98 191.458 1088.55 192.337 1091.51 190.796C1093.33 189.72 1094.75 188.075 1095.54 186.115C1097.07 182.593 1097.42 178.672 1096.55 174.933C1095.68 171.195 1093.62 167.837 1090.69 165.357L1077.99 157.413Z" fill="white" stroke="black" stroke-miterlimit="10" stroke-linecap="round"/>
<path d="M1078.99 155.022C1071.49 161.822 1070.1 174.366 1075.94 182.642C1076.1 181.984 1076.4 181.365 1076.81 180.822C1077.21 180.279 1077.73 179.822 1078.31 179.477C1078.9 179.132 1079.54 178.906 1080.22 178.812C1080.89 178.719 1081.57 178.759 1082.23 178.931C1083.53 179.378 1084.62 180.279 1085.31 181.468C1086 182.657 1086.24 184.055 1085.98 185.405C1085.65 186.74 1084.9 187.933 1083.84 188.81C1082.78 189.687 1081.47 190.201 1080.09 190.276C1079.94 194.887 1077.52 199.142 1074.56 202.682C1071.6 206.222 1068.07 209.237 1065.05 212.729C1060.53 218.064 1057.28 224.366 1055.57 231.151C1053.85 237.936 1053.71 245.024 1055.16 251.87C1063.45 242.954 1076.96 242.086 1089.07 240.84C1105.57 239.14 1123.3 234.809 1133.57 221.778C1131.55 218.423 1130.46 214.593 1130.41 210.678C1131.34 214.361 1133.37 217.674 1136.22 220.178C1142.22 216.966 1148.49 214.303 1154.96 212.222C1153.41 205.481 1147.72 200.38 1141.52 197.322C1135.31 194.264 1128.46 192.822 1121.93 190.54C1117.49 188.992 1112.57 186.252 1112.06 181.581C1111.86 179.766 1112.39 177.955 1112.48 176.132C1112.78 170.056 1108.19 164.814 1103.18 161.361C1097.21 157.248 1093.63 155.641 1087.58 154.916C1084.72 154.622 1081.84 154.657 1078.99 155.022V155.022Z" fill="black"/>
<path d="M1122.54 180.726C1130.98 180.726 1137.82 173.887 1137.82 165.45C1137.82 157.013 1130.98 150.174 1122.54 150.174C1114.1 150.174 1107.27 157.013 1107.27 165.45C1107.27 173.887 1114.1 180.726 1122.54 180.726Z" fill="black"/>
<path d="M1116.77 190.838C1121.36 193.206 1126.53 194.138 1131.63 194.93C1136.73 195.722 1141.91 196.43 1146.67 198.419C1151.44 200.408 1155.83 203.867 1157.72 208.672" stroke="black" stroke-miterlimit="10" stroke-linecap="round"/>
<path d="M1075.18 204.911C1071.58 209.221 1066.85 212.393 1062.49 215.929C1058.13 219.465 1053.97 223.629 1052.2 228.956C1050.68 233.522 1051.09 238.473 1051.51 243.264" stroke="black" stroke-miterlimit="10" stroke-linecap="round"/>
<path d="M1064.92 167.262C1065.99 167.394 1067.01 167.752 1067.92 168.311C1068.83 168.87 1069.61 169.617 1070.21 170.503" stroke="black" stroke-miterlimit="10" stroke-linecap="round"/>
<path d="M1061.76 174.901L1057.22 183.746C1057.17 183.817 1057.13 183.899 1057.11 183.986C1057.1 184.073 1057.1 184.163 1057.12 184.249C1057.14 184.336 1057.18 184.416 1057.24 184.485C1057.29 184.553 1057.37 184.609 1057.45 184.646L1059.22 186.146" stroke="black" stroke-miterlimit="10" stroke-linecap="round"/>
<path d="M1056.39 190.702C1056.4 191.183 1056.54 191.653 1056.78 192.067C1057.03 192.481 1057.37 192.827 1057.79 193.071C1058.63 193.55 1059.58 193.787 1060.54 193.754C1061.66 193.819 1062.75 193.479 1063.63 192.797" stroke="black" stroke-miterlimit="10" stroke-linecap="round"/>
<path d="M1056.93 271.881C1060.93 264.621 1063.84 256.815 1065.58 248.71" stroke="black" stroke-miterlimit="10" stroke-linecap="round"/>
<path d="M1063.5 258.966C1067.08 256.107 1070.5 253.06 1073.76 249.839" stroke="black" stroke-miterlimit="10" stroke-linecap="round"/>
<path d="M1141.55 223.254C1145.13 236.009 1150.34 248.247 1157.06 259.663C1158.13 261.746 1159.6 263.598 1161.38 265.117" stroke="black" stroke-miterlimit="10" stroke-linecap="round"/>
<path d="M1145.58 235.159C1145.21 231.901 1145.68 228.602 1146.96 225.582" stroke="black" stroke-miterlimit="10" stroke-linecap="round"/>
<path d="M1142.54 336.304C1137.92 353.393 1131.99 370.103 1124.82 386.29" stroke="black" stroke-miterlimit="10" stroke-linecap="round"/>
<path d="M1135.6 358.594C1141.06 355.937 1146.31 352.842 1151.27 349.338" stroke="black" stroke-miterlimit="10" stroke-linecap="round"/>
<path d="M1087.51 312.809C1098.95 311.193 1109.92 307.182 1119.71 301.038C1129.5 294.894 1137.88 286.755 1144.31 277.152" stroke="black" stroke-miterlimit="10" stroke-linecap="round"/>
<path d="M1125.44 297.05C1116.52 298.533 1107.42 298.51 1098.51 296.984" stroke="black" stroke-miterlimit="10" stroke-linecap="round"/>
<path d="M1109.2 418.449C1104.7 426.89 1098.77 434.488 1091.68 440.906" stroke="black" stroke-miterlimit="10" stroke-linecap="round"/>
<path d="M1220.34 153.052C1215.6 156.575 1211.6 160.995 1208.57 166.061" stroke="black" stroke-miterlimit="10" stroke-linecap="round"/>
<path d="M1214.31 149.576C1213.18 149.887 1212.12 150.439 1211.22 151.194C1207.06 154.35 1203.91 158.633 1200.82 162.852" stroke="black" stroke-miterlimit="10" stroke-linecap="round"/>
<path d="M1206.84 147.212C1202.12 149.943 1198.1 153.726 1195.09 158.266" stroke="black" stroke-miterlimit="10" stroke-linecap="round"/>
<path d="M994.671 252.659C989.763 254.231 984.93 256.016 980.171 258.015" stroke="black" stroke-miterlimit="10" stroke-linecap="round"/>
<path d="M1169.53 228.353C1172.9 228.786 1176.15 229.902 1179.08 231.633" stroke="black" stroke-miterlimit="10" stroke-linecap="round"/>
<path d="M923.686 203.121C928.449 201.89 933.499 202.473 937.856 204.757" stroke="black" stroke-miterlimit="10" stroke-linecap="round"/>
<path d="M925.32 196.662C927.594 195.662 930.068 195.197 932.55 195.304C935.032 195.412 937.457 196.088 939.636 197.281" stroke="black" stroke-miterlimit="10" stroke-linecap="round"/>
<path d="M929.081 190.334C931.974 189.407 935.025 189.076 938.05 189.36C941.075 189.644 944.011 190.537 946.681 191.987" stroke="black" stroke-miterlimit="10" stroke-linecap="round"/>
<path d="M1065 175C1066.1 175 1067 174.105 1067 173C1067 171.895 1066.1 171 1065 171C1063.9 171 1063 171.895 1063 173C1063 174.105 1063.9 175 1065 175Z" fill="black"/>
<path opacity="0.3" d="M958 105H904C902.895 105 902 105.895 902 107C902 108.105 902.895 109 904 109H958C959.105 109 960 108.105 960 107C960 105.895 959.105 105 958 105Z" fill="#373E5F"/>
<path opacity="0.3" d="M958 113H904C902.895 113 902 113.895 902 115C902 116.105 902.895 117 904 117H958C959.105 117 960 116.105 960 115C960 113.895 959.105 113 958 113Z" fill="#373E5F"/>
<path opacity="0.3" d="M930 121H904C902.895 121 902 121.895 902 123C902 124.105 902.895 125 904 125H930C931.105 125 932 124.105 932 123C932 121.895 931.105 121 930 121Z" fill="#373E5F"/>
<path opacity="0.3" d="M1019 159H965C963.895 159 963 159.895 963 161C963 162.105 963.895 163 965 163H1019C1020.1 163 1021 162.105 1021 161C1021 159.895 1020.1 159 1019 159Z" fill="#373E5F"/>
<path opacity="0.3" d="M1019 167H965C963.895 167 963 167.895 963 169C963 170.105 963.895 171 965 171H1019C1020.1 171 1021 170.105 1021 169C1021 167.895 1020.1 167 1019 167Z" fill="#373E5F"/>
<path opacity="0.3" d="M991 175H965C963.895 175 963 175.895 963 177C963 178.105 963.895 179 965 179H991C992.105 179 993 178.105 993 177C993 175.895 992.105 175 991 175Z" fill="#373E5F"/>
<path d="M68 92C70.2091 92 72 90.2091 72 88C72 85.7909 70.2091 84 68 84C65.7909 84 64 85.7909 64 88C64 90.2091 65.7909 92 68 92Z" fill="#2B8AFF"/>
<path d="M96 92C98.2091 92 100 90.2091 100 88C100 85.7909 98.2091 84 96 84C93.7909 84 92 85.7909 92 88C92 90.2091 93.7909 92 96 92Z" fill="#2B8AFF"/>
<path d="M124 92C126.209 92 128 90.2091 128 88C128 85.7909 126.209 84 124 84C121.791 84 120 85.7909 120 88C120 90.2091 121.791 92 124 92Z" fill="#2B8AFF"/>
<path d="M152 92C154.209 92 156 90.2091 156 88C156 85.7909 154.209 84 152 84C149.791 84 148 85.7909 148 88C148 90.2091 149.791 92 152 92Z" fill="#2B8AFF"/>
<path d="M180 92C182.209 92 184 90.2091 184 88C184 85.7909 182.209 84 180 84C177.791 84 176 85.7909 176 88C176 90.2091 177.791 92 180 92Z" fill="#2B8AFF"/>
<path d="M208 92C210.209 92 212 90.2091 212 88C212 85.7909 210.209 84 208 84C205.791 84 204 85.7909 204 88C204 90.2091 205.791 92 208 92Z" fill="#2B8AFF"/>
<path d="M68 120C70.2091 120 72 118.209 72 116C72 113.791 70.2091 112 68 112C65.7909 112 64 113.791 64 116C64 118.209 65.7909 120 68 120Z" fill="#2B8AFF"/>
<path d="M96 120C98.2091 120 100 118.209 100 116C100 113.791 98.2091 112 96 112C93.7909 112 92 113.791 92 116C92 118.209 93.7909 120 96 120Z" fill="#2B8AFF"/>
<path d="M124 120C126.209 120 128 118.209 128 116C128 113.791 126.209 112 124 112C121.791 112 120 113.791 120 116C120 118.209 121.791 120 124 120Z" fill="#2B8AFF"/>
<path d="M152 120C154.209 120 156 118.209 156 116C156 113.791 154.209 112 152 112C149.791 112 148 113.791 148 116C148 118.209 149.791 120 152 120Z" fill="#2B8AFF"/>
<path d="M180 120C182.209 120 184 118.209 184 116C184 113.791 182.209 112 180 112C177.791 112 176 113.791 176 116C176 118.209 177.791 120 180 120Z" fill="#2B8AFF"/>
<path d="M68 148C70.2091 148 72 146.209 72 144C72 141.791 70.2091 140 68 140C65.7909 140 64 141.791 64 144C64 146.209 65.7909 148 68 148Z" fill="#2B8AFF"/>
<path d="M96 148C98.2091 148 100 146.209 100 144C100 141.791 98.2091 140 96 140C93.7909 140 92 141.791 92 144C92 146.209 93.7909 148 96 148Z" fill="#2B8AFF"/>
<path d="M124 148C126.209 148 128 146.209 128 144C128 141.791 126.209 140 124 140C121.791 140 120 141.791 120 144C120 146.209 121.791 148 124 148Z" fill="#2B8AFF"/>
<path d="M152 148C154.209 148 156 146.209 156 144C156 141.791 154.209 140 152 140C149.791 140 148 141.791 148 144C148 146.209 149.791 148 152 148Z" fill="#2B8AFF"/>
<path d="M68 176C70.2091 176 72 174.209 72 172C72 169.791 70.2091 168 68 168C65.7909 168 64 169.791 64 172C64 174.209 65.7909 176 68 176Z" fill="#2B8AFF"/>
<path d="M96 176C98.2091 176 100 174.209 100 172C100 169.791 98.2091 168 96 168C93.7909 168 92 169.791 92 172C92 174.209 93.7909 176 96 176Z" fill="#2B8AFF"/>
<path d="M124 176C126.209 176 128 174.209 128 172C128 169.791 126.209 168 124 168C121.791 168 120 169.791 120 172C120 174.209 121.791 176 124 176Z" fill="#2B8AFF"/>
<path d="M68 204C70.2091 204 72 202.209 72 200C72 197.791 70.2091 196 68 196C65.7909 196 64 197.791 64 200C64 202.209 65.7909 204 68 204Z" fill="#2B8AFF"/>
<path d="M96 204C98.2091 204 100 202.209 100 200C100 197.791 98.2091 196 96 196C93.7909 196 92 197.791 92 200C92 202.209 93.7909 204 96 204Z" fill="#2B8AFF"/>
<path d="M68 232C70.2091 232 72 230.209 72 228C72 225.791 70.2091 224 68 224C65.7909 224 64 225.791 64 228C64 230.209 65.7909 232 68 232Z" fill="#2B8AFF"/>
<path d="M820 477H812V485H820V477Z" fill="#FF58E0"/>
<path d="M848 477H840V485H848V477Z" fill="#FF58E0"/>
<path d="M876 477H868V485H876V477Z" fill="#FF58E0"/>
<path d="M904 477H896V485H904V477Z" fill="#FF58E0"/>
<path d="M932 477H924V485H932V477Z" fill="#FF58E0"/>
<path d="M960 477H952V485H960V477Z" fill="#FF58E0"/>
<path d="M820 505H812V513H820V505Z" fill="#FF58E0"/>
<path d="M848 505H840V513H848V505Z" fill="#FF58E0"/>
<path d="M876 505H868V513H876V505Z" fill="#FF58E0"/>
<path d="M904 505H896V513H904V505Z" fill="#FF58E0"/>
<path d="M932 505H924V513H932V505Z" fill="#FF58E0"/>
<path d="M960 505H952V513H960V505Z" fill="#FF58E0"/>
<path d="M820 533H812V541H820V533Z" fill="#FF58E0"/>
<path d="M848 533H840V541H848V533Z" fill="#FF58E0"/>
<path d="M876 533H868V541H876V533Z" fill="#FF58E0"/>
<path d="M904 533H896V541H904V533Z" fill="#FF58E0"/>
<path d="M932 533H924V541H932V533Z" fill="#FF58E0"/>
<path d="M960 533H952V541H960V533Z" fill="#FF58E0"/>
</svg>
