<svg width="350" height="200" viewBox="0 0 350 200" fill="none" xmlns="http://www.w3.org/2000/svg">
<g clip-path="url(#clip0_1:347)">
<path d="M233 40H117C99.3269 40 85 54.3269 85 72V128C85 145.673 99.3269 160 117 160H233C250.673 160 265 145.673 265 128V72C265 54.3269 250.673 40 233 40Z" fill="white"/>
<path d="M233 40.5H117C99.603 40.5 85.5 54.603 85.5 72V128C85.5 145.397 99.603 159.5 117 159.5H233C250.397 159.5 264.5 145.397 264.5 128V72C264.5 54.603 250.397 40.5 233 40.5Z" stroke="black"/>
<path d="M192.51 112.369C186.392 125.314 183.435 139.527 183.884 153.838C183.998 157.369 184.727 161.52 187.911 163.051C188.823 163.436 189.786 163.688 190.77 163.798C207.695 166.524 225.138 169.236 241.831 165.336C244.26 162.229 243.286 157.761 242.197 153.971C238.284 140.356 236.059 126.742 232.146 113.127C220.603 114.506 207.646 107.98 196.039 108.675L192.51 112.369Z" fill="#3E20EF"/>
<path d="M276.12 83.511L278.828 78.662C279.992 76.7699 281.399 75.0382 283.012 73.511C284.278 72.0544 285.685 70.726 287.212 69.545C288.834 68.261 288.858 67.418 289.836 66.263C290.568 65.2176 291.625 64.444 292.843 64.063C294.158 63.682 297.171 64.563 298.299 67.682C299.427 70.801 299.059 71.731 298.299 74.369C297.803 76.3201 296.963 78.1671 295.818 79.823C294.141 82.1659 292.125 84.2463 289.836 85.996C289.112 86.549 288.362 87.069 287.665 87.655C286.052 88.9874 284.795 90.6988 284.005 92.636C283.841 93.1405 283.621 93.6248 283.348 94.08C283.01 94.5409 282.57 94.9175 282.063 95.18C281.317 95.6055 280.478 95.8413 279.62 95.8668C278.761 95.8922 277.91 95.7065 277.14 95.326C276.382 94.9223 275.766 94.2947 275.377 93.5287C274.989 92.7627 274.845 91.8954 274.967 91.045L276.12 83.511Z" fill="white" stroke="black" stroke-miterlimit="10" stroke-linecap="round"/>
<path d="M180.196 47.424C180.619 45.3303 180.876 43.2063 180.963 41.072C181.126 38.9721 180.888 36.8603 180.263 34.849C179.945 33.8456 179.424 32.9179 178.734 32.1229C178.044 31.3279 177.199 30.6824 176.25 30.226C175.898 30.1034 175.562 29.9378 175.25 29.733C174.923 29.4509 174.662 29.1011 174.484 28.708C173.55 26.9204 172.984 24.9633 172.821 22.953C172.839 22.1502 172.67 21.3542 172.327 20.628C172.048 20.2226 171.664 19.8999 171.217 19.6939C170.77 19.4878 170.276 19.406 169.786 19.457C168.805 19.5747 167.882 19.988 167.141 20.642C166.076 21.5314 165.251 22.6748 164.745 23.9667C164.238 25.2586 164.065 26.6574 164.241 28.034C164.809 32.124 168.393 35.334 168.881 39.434C169.174 41.896 168.303 44.361 168.381 46.839C168.428 48.9213 169.226 50.9166 170.627 52.458C171.33 53.2156 172.191 53.8098 173.149 54.1989C174.107 54.588 175.139 54.7624 176.171 54.71C176.632 54.677 177.203 54.476 177.227 54.01L180.196 47.424Z" fill="white" stroke="black" stroke-miterlimit="10" stroke-linecap="round"/>
<path d="M166.859 48.858C164.471 57.3725 162.864 66.0868 162.059 74.893C161.519 79.0026 161.65 83.1726 162.448 87.24C163.409 91.263 165.666 95.134 169.233 97.228C174.533 100.337 181.592 98.805 186.454 95.049C191.316 91.293 194.409 85.735 197.106 80.216L190.8 109.631C190.494 110.594 190.479 111.626 190.757 112.598C191.27 113.877 192.683 114.511 193.98 114.975C205.54 119.108 219.503 122.956 231.336 119.687C232.104 119.522 232.833 119.208 233.48 118.763C233.991 118.394 234.417 117.919 234.727 117.371C235.038 116.822 235.226 116.213 235.28 115.585C235.427 106.957 236.641 104.685 237.88 100.929C237.714 103.191 238.049 105.462 238.862 107.58C239.674 109.697 240.943 111.61 242.579 113.181C244.214 114.752 246.177 115.943 248.325 116.669C250.474 117.395 252.756 117.639 255.01 117.382C260.263 116.782 264.802 113.576 269.063 110.445C274.502 106.445 280.18 102.057 282.524 95.728C282.767 95.1938 282.86 94.6031 282.792 94.02C282.68 93.594 282.489 93.1928 282.229 92.837L276.301 83.573C269.592 89.327 262.476 94.5901 255.01 99.321C254.072 91.6515 252.488 84.0749 250.275 76.672C249.175 72.98 247.815 69.18 245.02 66.527C241.068 62.776 235.184 62.133 229.753 61.686L227.245 61.48C226.406 62.742 224.645 62.903 223.127 62.865C220.705 62.8699 218.297 62.4964 215.99 61.758C214.72 61.313 213.515 60.702 212.266 60.2C210.556 59.5329 208.789 59.0232 206.986 58.677C200.745 57.419 193.677 57.742 188.806 61.84C185.372 64.729 183.538 69.04 181.823 73.192C180.943 64.586 180.469 55.951 180.401 47.287C178.367 47.8084 176.241 47.8689 174.181 47.4642C172.12 47.0596 170.175 46.1999 168.489 44.948L166.859 48.858Z" fill="#FF58E0"/>
<path d="M286.184 78.259C286.332 77.4247 286.181 76.5649 285.757 75.831C286.604 75.3591 287.396 74.7958 288.12 74.151C288.848 73.4991 289.34 72.6252 289.52 71.665C289.661 70.707 288.306 68.995 288.306 68.995" stroke="black" stroke-miterlimit="10" stroke-linecap="round"/>
<path d="M175.038 29.934C175.232 31.4605 175.937 32.8764 177.038 33.951" stroke="black" stroke-miterlimit="10" stroke-linecap="round"/>
<path d="M171.606 19.922C171.265 22.1405 171.467 24.4085 172.194 26.532" stroke="black" stroke-miterlimit="10" stroke-linecap="round"/>
<path d="M169.488 19.676C168.751 22.1425 168.739 24.7688 169.453 27.242" stroke="black" stroke-miterlimit="10" stroke-linecap="round"/>
<path d="M166.687 21.14C166.133 23.3887 166.381 25.7602 167.387 27.846" stroke="black" stroke-miterlimit="10" stroke-linecap="round"/>
<path d="M217.019 167.368C215.186 159.515 214.077 151.511 213.708 143.455C213.48 141.396 213.553 139.315 213.924 137.277C214.116 136.258 214.517 135.29 215.101 134.434C215.685 133.578 216.44 132.851 217.319 132.301" stroke="black" stroke-miterlimit="10" stroke-linecap="round"/>
<path d="M214.403 149.537C214.527 146.538 215.291 143.6 216.645 140.921" stroke="black" stroke-miterlimit="10" stroke-linecap="round"/>
<path d="M197.108 67.306C197.976 69.1974 198.509 71.2252 198.684 73.299" stroke="black" stroke-miterlimit="10" stroke-linecap="round"/>
<path d="M237.755 100.545C237.023 91.8862 238.219 83.1729 241.255 75.031" stroke="black" stroke-miterlimit="10" stroke-linecap="round"/>
<path d="M244.025 69.648C243.437 70.3536 242.932 71.1235 242.518 71.943" stroke="black" stroke-miterlimit="10" stroke-linecap="round"/>
<path d="M240.016 79.079C241.154 77.8374 242.455 76.7555 243.883 75.863" stroke="black" stroke-miterlimit="10" stroke-linecap="round"/>
<path d="M254.843 99.44C252.248 100.776 250.033 102.746 248.405 105.168" stroke="black" stroke-miterlimit="10" stroke-linecap="round"/>
<path d="M254.477 99.531C252.433 99.5885 250.421 100.044 248.551 100.871" stroke="black" stroke-miterlimit="10" stroke-linecap="round"/>
<path d="M181.991 73.4981C182.631 79.0856 182.259 84.7428 180.891 90.198" stroke="black" stroke-miterlimit="10" stroke-linecap="round"/>
<path d="M182.529 75.6851C183.716 76.7854 184.517 78.24 184.81 79.832" stroke="black" stroke-miterlimit="10" stroke-linecap="round"/>
<path d="M197.236 80.027C198.781 76.5502 199.902 72.9003 200.576 69.156" stroke="black" stroke-miterlimit="10" stroke-linecap="round"/>
<path d="M236.843 50.88C236.974 52.5544 237.402 54.1923 238.106 55.717C234.225 57.192 230.061 57.7698 225.925 57.407L226.5 50.364C229.1 50.304 231.691 50.1144 234.274 49.795L236.843 50.88Z" fill="black"/>
<path d="M227.545 57.85C227.32 55.51 227.376 53.091 228.597 51.123C228.497 49.07 227.028 47.36 225.537 45.942C224.849 45.2388 224.064 44.6376 223.205 44.157C222.377 43.7667 221.498 43.4921 220.595 43.341C219.568 43.0557 218.485 43.0423 217.451 43.302C216.711 43.621 216.057 44.1119 215.545 44.734C215.032 45.3561 214.675 46.0914 214.504 46.879C214.262 47.57 214.159 48.3024 214.203 49.0334C214.246 49.7644 214.435 50.4795 214.757 51.137L214.763 53.218C214.977 54.0249 215.072 54.8587 215.044 55.693C215.003 57.3043 214.518 58.873 213.644 60.227C213.539 60.3422 213.471 60.4869 213.45 60.6416C213.429 60.7963 213.455 60.9538 213.526 61.093C213.882 62.1296 214.38 63.1119 215.005 64.012C215.438 64.6809 215.998 65.2584 216.653 65.712C217.249 66.0832 217.909 66.339 218.599 66.466C220.069 66.7475 221.588 66.6397 223.004 66.1533C224.42 65.6669 225.684 64.8187 226.671 63.693C227.122 63.1973 227.465 62.6129 227.678 61.977C227.881 61.0244 227.885 60.0401 227.689 59.086C227.635 58.682 227.584 58.266 227.545 57.85Z" fill="white" stroke="black" stroke-miterlimit="10" stroke-linecap="round"/>
<path d="M234.932 32.881C237.874 36.9405 239.364 41.8717 239.164 46.881C239.181 48.4892 238.757 50.0712 237.937 51.455C237.545 52.0222 237.068 52.5252 236.522 52.946C235.067 54.0468 233.307 54.6692 231.483 54.7274C229.66 54.7857 227.863 54.2768 226.341 53.271C225.248 52.4771 224.294 51.5084 223.516 50.404C222.451 48.9651 221.569 47.3994 220.89 45.743C220.815 45.496 220.677 45.2727 220.49 45.095C220.284 44.9582 220.042 44.8857 219.795 44.887C218.664 44.813 217.539 45.169 216.407 45.115C215.601 45.076 214.818 44.8312 214.134 44.404C213.351 43.8613 212.713 43.1343 212.277 42.2871C211.841 41.44 211.62 40.4986 211.634 39.546C211.683 37.6341 212.281 35.7767 213.358 34.196C213.921 33.2908 214.597 32.4613 215.371 31.728C216.895 30.398 218.665 29.3789 220.58 28.728C222.323 28.0038 224.193 27.6362 226.08 27.647C227.023 27.6583 227.954 27.8639 228.814 28.2508C229.674 28.6378 230.446 29.1978 231.08 29.896L234.932 32.881Z" fill="white" stroke="black" stroke-miterlimit="10" stroke-linecap="round"/>
<path d="M225.984 31.031C226.047 32.5437 225.54 34.0248 224.564 35.182C223.916 35.945 223.079 36.54 222.496 37.354C222.172 37.7373 221.973 38.2101 221.925 38.7094C221.877 39.2087 221.982 39.7109 222.226 40.149L220.635 41.129C219.548 40.586 219.435 38.82 218.274 38.461C217.999 38.3956 217.711 38.4018 217.439 38.4792C217.167 38.5566 216.919 38.7026 216.719 38.9031C216.32 39.3123 216.056 39.8345 215.964 40.3988C215.872 40.963 215.956 41.542 216.204 42.057C216.465 42.5649 216.833 43.0106 217.281 43.3639C217.73 43.7173 218.249 43.97 218.804 44.105C219.075 44.1456 219.329 44.2586 219.541 44.432C219.73 44.6902 219.822 45.0068 219.8 45.326C219.966 48.5577 220.625 51.7452 221.753 54.7781C217.709 55.0501 213.453 55.278 209.807 53.501C208.77 52.9608 207.776 52.3434 206.832 51.654L201.942 48.268C204.51 46.5239 206.5 44.0542 207.659 41.174C208.717 38.527 209.031 35.628 210.088 32.981C211.145 30.334 213.276 27.795 216.115 27.538C216.465 27.5396 216.811 27.4765 217.138 27.352C217.405 27.1917 217.64 26.9828 217.83 26.736C218.784 25.6755 219.939 24.8154 221.229 24.2059C222.518 23.5964 223.917 23.2497 225.341 23.1859C226.766 23.1222 228.19 23.3427 229.529 23.8346C230.868 24.3265 232.095 25.0799 233.14 26.051C234.17 27.008 235.006 28.162 236.06 29.092C236.558 29.5907 237.156 29.9777 237.815 30.2273C238.473 30.477 239.178 30.5836 239.881 30.54C238.641 32.0888 236.893 33.1493 234.947 33.534C233.016 33.9083 231.048 34.0533 229.083 33.966C228.78 33.9842 228.476 33.942 228.189 33.842C227.241 33.442 227.207 32.021 226.377 31.411L225.984 31.031Z" fill="black"/>
<path d="M235.815 37.317C235.93 38.862 237.06 40.117 238.179 41.193C238.275 41.2696 238.348 41.37 238.393 41.484C238.416 41.5971 238.408 41.7144 238.369 41.823C238.2 42.3914 237.875 42.9012 237.432 43.2948C236.988 43.6883 236.443 43.95 235.859 44.05" stroke="black" stroke-miterlimit="10" stroke-linecap="round"/>
<path d="M231.573 45.571C231.999 46.2797 232.671 46.8075 233.46 47.0546C234.249 47.3018 235.102 47.251 235.856 46.912" stroke="black" stroke-miterlimit="10" stroke-linecap="round"/>
<path d="M216.98 27.528C215.33 27.5331 213.716 28.0055 212.324 28.8904C210.932 29.7753 209.819 31.0366 209.114 32.528C208.723 33.4434 208.431 34.3978 208.242 35.375C207.981 36.575 207.777 37.7884 207.629 39.015C207.56 39.9461 207.396 40.8676 207.139 41.765C206.678 42.9175 205.935 43.9361 204.979 44.7279C204.023 45.5197 202.884 46.0594 201.666 46.298" stroke="black" stroke-miterlimit="10" stroke-linecap="round"/>
<path d="M230.115 36.282C230.955 35.5347 231.951 34.9846 233.031 34.672" stroke="black" stroke-miterlimit="10" stroke-linecap="round"/>
<path d="M232.807 38.766C233.428 38.766 233.932 38.2623 233.932 37.641C233.932 37.0197 233.428 36.516 232.807 36.516C232.186 36.516 231.682 37.0197 231.682 37.641C231.682 38.2623 232.186 38.766 232.807 38.766Z" fill="black"/>
<path d="M294.5 64.5L289.5 73.5" stroke="black"/>
<path d="M297.5 65.5L292.5 74.5" stroke="black"/>
<path d="M298.5 69.5L293.5 78.5" stroke="black"/>
<path d="M328 16H296C287.163 16 280 23.1634 280 32V64C280 72.8366 287.163 80 296 80H328C336.837 80 344 72.8366 344 64V32C344 23.1634 336.837 16 328 16Z" fill="white"/>
<path d="M328 16.5H296C287.44 16.5 280.5 23.4396 280.5 32V64C280.5 72.5604 287.44 79.5 296 79.5H328C336.56 79.5 343.5 72.5604 343.5 64V32C343.5 23.4396 336.56 16.5 328 16.5Z" stroke="black"/>
<path d="M317.4 39.9V30H306.6V39.9L312 45.3L317.4 39.9ZM303.9 42.6H294V53.4H303.9L309.3 48L303.9 42.6ZM306.6 56.1V66H317.4V56.1L312 50.7L306.6 56.1ZM320.1 42.6L314.7 48L320.1 53.4H330V42.6H320.1Z" fill="#3E21EF"/>
<path d="M129.808 132.674C125.486 142.964 119.918 152.686 113.23 161.622C115.672 163.443 118.706 164.256 121.685 164.892C140.115 168.831 159.233 167.465 177.985 165.541C179.39 165.397 180.974 165.148 181.777 163.987C181.247 163.892 180.751 163.66 180.34 163.312C179.928 162.965 179.615 162.516 179.433 162.009C179.081 160.993 178.913 159.921 178.938 158.846L178.595 149.209C178.423 144.382 178.226 139.436 176.382 134.973C176.197 134.452 175.912 133.972 175.542 133.56C174.946 133.053 174.229 132.708 173.461 132.56C163.355 129.789 152.735 129.694 142.261 129.619C138.596 129.593 134.825 129.585 131.414 130.927L129.808 132.674Z" fill="#2B8AFF"/>
<path d="M96.67 84.589C96.9247 81.8367 96.5166 79.0634 95.48 76.501C94.4292 73.9332 92.5741 71.7753 90.193 70.351C89.2468 69.8369 88.2649 69.3911 87.255 69.017C86.861 68.8064 86.4059 68.7396 85.968 68.828C85.548 68.969 85.286 69.578 85.621 69.869C84.8348 68.8754 83.8076 68.0991 82.637 67.614C81.0514 66.7356 79.5831 65.6605 78.267 64.414C77.8664 63.9806 77.402 63.6106 76.89 63.317C76.4103 63.1091 75.8861 63.0246 75.3654 63.0715C74.8447 63.1183 74.344 63.2948 73.909 63.585C73.0433 64.1785 72.3782 65.0211 72.002 66.001C70.646 69.222 71.658 73.089 73.849 75.812C76.1787 78.4419 79.1601 80.4116 82.493 81.523C83.515 81.914 84.693 82.406 84.993 83.459C85.185 84.138 84.944 84.889 85.162 85.559C85.3432 86.0131 85.6426 86.4105 86.029 86.71C87.2044 87.7214 88.6122 88.4257 90.1264 88.7599C91.6407 89.0941 93.2141 89.0478 94.706 88.625L96.67 84.589Z" fill="white" stroke="black" stroke-miterlimit="10" stroke-linecap="round"/>
<path d="M146.73 67.104C151.855 65.299 157.049 63.479 162.464 63.025C167.879 62.571 173.63 63.625 177.849 67.052C181.549 70.052 183.702 74.507 185.741 78.812C190.204 88.238 194.687 97.712 197.6 107.727C198.818 111.914 199.637 116.821 197.024 120.313C195.802 121.803 194.228 122.965 192.445 123.694C187.001 126.16 180.833 126.51 175.145 124.674L176.979 132.692C177.155 133.208 177.161 133.767 176.995 134.287C176.655 134.838 176.112 135.233 175.483 135.387C168.106 138.151 160.009 138.541 152.183 137.668C144.357 136.795 136.719 134.707 129.121 132.625C129.684 125.776 128.757 118.887 126.405 112.43C126.591 116.901 126.651 121.464 125.363 125.75C124.075 130.036 121.222 134.067 117.063 135.726C112.881 137.396 108.114 136.449 103.89 134.888C100.153 133.676 96.7698 131.566 94.037 128.743C91.9831 126.228 90.4093 123.357 89.394 120.273C85.241 109.145 83.6625 97.2205 84.777 85.395C88.7805 85.9804 92.8622 85.7201 96.759 84.631C102.617 93.382 106.655 103.222 108.632 113.566C107.74 104.991 106.862 96.206 108.968 87.846C111.074 79.486 116.806 71.498 125.108 69.174C129.665 67.899 134.499 68.416 139.229 68.313L146.73 67.104Z" fill="#3E20EF"/>
<path d="M149.155 96.419C147.621 96.0285 146.189 95.3139 144.955 94.3234C143.721 93.333 142.713 92.0896 142 90.677C141.648 89.9745 141.236 89.3034 140.77 88.6711C139.899 87.7479 138.813 87.0541 137.609 86.651C136.695 86.2281 135.701 86.0061 134.694 86C134.227 86.058 133.758 86.0914 133.288 86.1C132.524 85.9832 131.787 85.7309 131.112 85.355C129.65 84.7125 128.068 84.3854 126.471 84.3951C125.622 84.3754 124.779 84.5296 123.992 84.848C121.622 85.898 120.718 88.813 120.635 91.404C120.481 92.7616 120.824 94.1292 121.601 95.2531C123.135 97.0921 126.045 96.753 128.194 97.812C130.223 98.812 131.454 101.012 133.48 102.021C134.873 102.715 136.493 102.769 137.974 103.246C140.69 104.12 142.732 106.323 144.644 108.44C147.413 105.678 149.028 101.965 149.161 98.056L149.155 96.419Z" fill="white" stroke="black" stroke-miterlimit="10" stroke-linecap="round"/>
<path d="M149.686 96.425C161.829 98.3902 173.52 102.523 184.201 108.625" stroke="black" stroke-miterlimit="10" stroke-linecap="round"/>
<path d="M177.267 105.074C181.354 105.017 185.438 105.307 189.476 105.939" stroke="black" stroke-miterlimit="10" stroke-linecap="round"/>
<path d="M176.939 105.316C172.805 97.3536 169.74 88.8804 167.823 80.116" stroke="black" stroke-miterlimit="10" stroke-linecap="round"/>
<path d="M167.847 76.073C167.813 74.5737 168.078 73.0827 168.627 71.687" stroke="black" stroke-miterlimit="10" stroke-linecap="round"/>
<path d="M174.646 124.371C163.726 120.84 153.499 115.447 144.416 108.432" stroke="black" stroke-miterlimit="10" stroke-linecap="round"/>
<path d="M122.541 85.938C124.59 86.3403 126.567 87.045 128.408 88.029" stroke="black" stroke-miterlimit="10" stroke-linecap="round"/>
<path d="M121.546 87.952C123.736 88.8133 125.898 89.7397 128.033 90.731" stroke="black" stroke-miterlimit="10" stroke-linecap="round"/>
<path d="M121.073 90.847C123.446 91.6962 125.769 92.6804 128.03 93.795" stroke="black" stroke-miterlimit="10" stroke-linecap="round"/>
<path d="M74.346 63.624C75.725 66.386 78.588 68.032 81.293 69.524" stroke="black" stroke-miterlimit="10" stroke-linecap="round"/>
<path d="M72.689 64.955C73.7847 68.0305 75.9982 70.5807 78.889 72.098" stroke="black" stroke-miterlimit="10" stroke-linecap="round"/>
<path d="M71.521 67.871C71.8813 69.3397 72.5696 70.7077 73.5343 71.8723C74.499 73.0369 75.715 73.9677 77.091 74.595" stroke="black" stroke-miterlimit="10" stroke-linecap="round"/>
<path d="M148.674 52.803C148.822 57.1775 149.893 61.4714 151.817 65.403C151.944 65.632 152.039 65.8778 152.098 66.133C152.134 66.4096 152.122 66.6904 152.063 66.963C151.781 68.6114 151.158 70.1827 150.233 71.576C149.207 73.2387 147.624 74.4838 145.767 75.09C144.61 75.3904 143.399 75.4198 142.228 75.176C140.143 74.7754 138.232 73.7426 136.754 72.218C135.967 71.4857 135.44 70.5167 135.254 69.458C135.263 68.3766 135.428 67.3021 135.745 66.268C135.882 65.375 135.927 64.4702 135.878 63.568C135.901 61.7413 135.589 59.9258 134.959 58.211C134.818 57.93 134.722 57.6287 134.673 57.318C134.665 56.9595 134.738 56.6037 134.886 56.277C135.372 55.0637 135.954 53.8908 136.625 52.769C138.087 50.226 139.877 47.626 142.607 46.549C143.77 46.0359 145.088 46 146.278 46.449C146.861 46.688 147.353 47.1068 147.682 47.6445C148.011 48.1823 148.159 48.811 148.106 49.439L148.674 52.803Z" fill="white" stroke="black" stroke-miterlimit="10" stroke-linecap="round"/>
<path d="M126.989 34.748C125.875 40.611 125.862 46.6303 126.951 52.498C127.369 54.743 128.017 57.081 129.661 58.666C131.178 60.002 133.122 60.7532 135.144 60.785C137.451 60.908 139.992 60.264 141.337 58.385C141.972 57.3927 142.382 56.273 142.537 55.105C142.944 52.8886 143.063 50.6289 142.89 48.382C143.616 48.287 144.35 48.2722 145.079 48.338C145.752 48.2268 146.39 47.9626 146.945 47.5657C147.5 47.1689 147.956 46.65 148.279 46.049C149.072 44.7459 149.548 43.2741 149.666 41.7529C149.784 40.2318 149.542 38.7042 148.96 37.294C148.216 35.5558 147.058 34.026 145.587 32.838C143.213 30.8801 140.239 29.7959 137.162 29.7666C134.085 29.7373 131.092 30.7646 128.681 32.677L126.989 34.748Z" fill="white" stroke="black" stroke-miterlimit="10" stroke-linecap="round"/>
<path d="M142.07 45.531C142.171 44.4514 142.439 43.3939 142.863 42.396C143.008 42.008 143.228 41.6522 143.51 41.349C143.748 41.159 144.021 41.0182 144.313 40.9347C144.606 40.8513 144.912 40.8269 145.214 40.8631C145.516 40.8992 145.808 40.9951 146.072 41.1451C146.337 41.2951 146.569 41.4964 146.755 41.737C147.104 42.2443 147.316 42.8327 147.371 43.4458C147.426 44.0588 147.322 44.6757 147.07 45.237C146.55 46.3544 145.801 47.3494 144.87 48.157C145.996 49.9513 147.283 51.6387 148.717 53.198C149.982 49.432 152.899 46.437 154.444 42.777C154.788 42.0316 154.997 41.2313 155.062 40.413C155.047 39.3429 154.841 38.2841 154.455 37.286C154.042 35.5609 153.239 33.9531 152.109 32.586C151.132 31.585 149.828 30.9683 148.434 30.848C148.2 30.8541 147.97 30.7967 147.766 30.682C147.645 30.581 147.545 30.4573 147.472 30.318C146.56 28.8747 145.343 27.6484 143.907 26.7249C142.47 25.8014 140.85 25.2031 139.158 24.972C137.371 24.7936 135.568 24.8775 133.806 25.221C131.24 25.5468 128.767 26.3858 126.532 27.688C125.339 28.3766 124.383 29.4122 123.793 30.657C123.51 31.282 123.409 31.9744 123.503 32.6542C123.596 33.334 123.88 33.9735 124.321 34.499C125.052 35.1551 125.953 35.5915 126.921 35.758C130.756 36.707 135.172 36.635 138.228 34.131C138.082 35.4789 138.214 36.8426 138.618 38.137C138.828 38.7814 139.206 39.3584 139.713 39.8089C140.219 40.2594 140.836 40.5673 141.501 40.701C140.924 41.847 140.552 43.0849 140.401 44.359L142.07 45.531Z" fill="black"/>
<path d="M135.268 40.438C134.458 40.0962 133.584 39.9345 132.706 39.964" stroke="black" stroke-miterlimit="10" stroke-linecap="round"/>
<path d="M129.22 40.081C128.65 39.9348 128.055 39.9167 127.477 40.028" stroke="black" stroke-miterlimit="10" stroke-linecap="round"/>
<path d="M130.447 43.365C130.364 44.6352 129.877 45.8456 129.058 46.82C128.912 46.9718 128.788 47.1427 128.688 47.328C128.611 47.5321 128.586 47.7521 128.616 47.9682C128.645 48.1843 128.728 48.3897 128.856 48.566C129.116 48.9164 129.433 49.2206 129.794 49.466" stroke="black" stroke-miterlimit="10" stroke-linecap="round"/>
<path d="M133.817 52.358C133.048 53.0106 132.066 53.3562 131.057 53.3287C130.049 53.3012 129.087 52.9025 128.355 52.209" stroke="black" stroke-miterlimit="10" stroke-linecap="round"/>
<path d="M108.703 113.454C110.681 116.593 111.811 120.192 111.981 123.899" stroke="black" stroke-miterlimit="10" stroke-linecap="round"/>
<path d="M108.674 113.335C110.802 114.22 112.745 115.497 114.402 117.099" stroke="black" stroke-miterlimit="10" stroke-linecap="round"/>
<path d="M126.228 112.11C126.395 106.971 125.845 101.834 124.592 96.847" stroke="black" stroke-miterlimit="10" stroke-linecap="round"/>
<path d="M146.038 167.167C148.515 159.721 149.695 151.905 149.527 144.059" stroke="black" stroke-miterlimit="10" stroke-linecap="round"/>
<path d="M148.493 157.06C148.102 153.194 147.234 149.392 145.909 145.74" stroke="black" stroke-miterlimit="10" stroke-linecap="round"/>
<path d="M178.604 150.377C175.372 149.231 172.373 147.509 169.754 145.295" stroke="black" stroke-miterlimit="10" stroke-linecap="round"/>
<path d="M124.981 143.398C127.014 142.997 128.816 141.834 130.018 140.147" stroke="black" stroke-miterlimit="10" stroke-linecap="round"/>
<path d="M147.517 30.804C148.065 30.4914 148.714 30.406 149.324 30.566C150.774 30.663 152.158 31.2117 153.28 32.135" stroke="black" stroke-miterlimit="10" stroke-linecap="round"/>
<path d="M147.817 30.81C147.884 30.2002 147.815 29.5831 147.615 29.0031C147.415 28.4232 147.089 27.8948 146.66 27.456" stroke="black" stroke-miterlimit="10" stroke-linecap="round"/>
<path d="M133.531 45.082C134.152 45.082 134.656 44.5783 134.656 43.957C134.656 43.3357 134.152 42.832 133.531 42.832C132.91 42.832 132.406 43.3357 132.406 43.957C132.406 44.5783 132.91 45.082 133.531 45.082Z" fill="black"/>
<path d="M128.033 43.982C128.654 43.982 129.158 43.4783 129.158 42.857C129.158 42.2357 128.654 41.732 128.033 41.732C127.412 41.732 126.908 42.2357 126.908 42.857C126.908 43.4783 127.412 43.982 128.033 43.982Z" fill="black"/>
<path d="M80 16H48C39.1634 16 32 23.1634 32 32V64C32 72.8366 39.1634 80 48 80H80C88.8366 80 96 72.8366 96 64V32C96 23.1634 88.8366 16 80 16Z" fill="white"/>
<path d="M80 16.5H48C39.4396 16.5 32.5 23.4396 32.5 32V64C32.5 72.5604 39.4396 79.5 48 79.5H80C88.5604 79.5 95.5 72.5604 95.5 64V32C95.5 23.4396 88.5604 16.5 80 16.5Z" stroke="black"/>
<path d="M78.4 30H49.6C48.6483 30.0048 47.7373 30.3861 47.066 31.0608C46.3948 31.7354 46.018 32.6483 46.018 33.6L46 66L53.2 58.8H78.4C79.3539 58.7971 80.2679 58.4169 80.9424 57.7424C81.6169 57.0679 81.9971 56.1539 82 55.2V33.6C81.9971 32.6461 81.6169 31.7321 80.9424 31.0576C80.2679 30.3831 79.3539 30.0029 78.4 30V30ZM65.8 51.6H62.2V48H65.8V51.6ZM65.8 44.4H62.2V37.2H65.8V44.4Z" fill="#FF58E0"/>
</g>
<defs>
<clipPath id="clip0_1:347">
<rect width="312" height="144" fill="white" transform="translate(32 16)"/>
</clipPath>
</defs>
</svg>
