<svg width="240" height="80" viewBox="0 0 240 80" fill="none" xmlns="http://www.w3.org/2000/svg">
<path d="M231.111 80H8.8889C4.00006 80 0 75.5 0 70V10C0 4.49999 3.99998 0 8.8889 0H231.111C236 0 240 4.49999 240 10V70C240 75.5 236 80 231.111 80" fill="black"/>
<path d="M231.111 0H8.8889C4.00006 0 0 4.49999 0 10V70C0 75.5 3.99998 80 8.8889 80H231.111C236 80 240 75.5 240 70V10C240 4.49999 236 0 231.111 0H231.111ZM231.111 1.59995C235.228 1.59995 238.578 5.36882 238.578 10V70C238.578 74.6321 235.228 78.4009 231.111 78.4009H8.8889C4.77232 78.4009 1.42224 74.632 1.42224 70V10C1.42224 5.36882 4.77224 1.60004 8.8889 1.60004H231.111" fill="#A6A6A6"/>
<path d="M84.2995 20.4868C84.2995 22.1625 83.8584 23.4968 82.975 24.4922C81.9716 25.6758 80.6638 26.268 79.0562 26.268C77.5166 26.268 76.2076 25.6681 75.1312 24.4664C74.0528 23.2656 73.5146 21.7766 73.5146 20C73.5146 18.2226 74.0528 16.7345 75.1312 15.5327C76.2076 14.3321 77.5166 13.7312 79.0562 13.7312C79.8201 13.7312 80.5515 13.8993 81.2459 14.2344C81.9403 14.5704 82.4973 15.0164 82.914 15.575L81.9764 16.6304C81.2702 15.6812 80.298 15.207 79.0562 15.207C77.9334 15.207 76.9625 15.6508 76.1431 16.5391C75.3236 17.4282 74.9139 18.5813 74.9139 20C74.9139 21.4188 75.3236 22.5718 76.1431 23.461C76.9625 24.3493 77.9333 24.793 79.0562 24.793C80.2473 24.793 81.2404 24.3468 82.0354 23.4532C82.5515 22.871 82.8499 22.0618 82.9298 21.0226H79.0561V19.5812H84.225C84.275 19.8947 84.2993 20.1954 84.2993 20.4868" fill="white"/>
<path d="M84.2994 20.4868H84.1216C84.1201 22.1242 83.695 23.396 82.8491 24.3508L82.8473 24.3524L82.8465 24.354C81.875 25.4968 80.6262 26.0656 79.056 26.068C77.5576 26.0656 76.3033 25.4906 75.256 24.325C74.211 23.157 73.6943 21.7312 73.6923 20C73.6943 18.268 74.211 16.843 75.256 15.6758C76.3033 14.5094 77.5576 13.9336 79.056 13.9311C79.7971 13.9311 80.5027 14.0938 81.1755 14.418C81.8491 14.7446 82.3812 15.1726 82.7777 15.704L82.9138 15.575L82.7882 15.4336L81.8506 16.4897L81.9762 16.6304L82.1131 16.5024C81.3741 15.5062 80.3368 15.004 79.0561 15.007C77.8916 15.0054 76.8673 15.4735 76.02 16.3954C75.1645 17.3203 74.7347 18.5383 74.7361 20C74.7347 21.4618 75.1645 22.6796 76.02 23.6046C76.8673 24.5266 77.8916 24.9946 79.056 24.993C80.2866 24.9954 81.3354 24.5258 82.161 23.5946C82.7124 22.9726 83.025 22.111 83.1069 21.0398L83.1235 20.8226H79.2339V19.7812H84.225V19.5812L84.0499 19.6164C84.0985 19.9196 84.1215 20.2078 84.1215 20.4868H84.4771C84.4771 20.1828 84.452 19.8704 84.3999 19.5454L84.3736 19.3812H78.8784V21.2226H82.9297V21.0226L82.7527 21.0054C82.6743 22.0118 82.3895 22.7696 81.9096 23.3119C81.1458 24.168 80.2083 24.5906 79.0561 24.593C77.9749 24.5914 77.0576 24.1726 76.2666 23.3172C75.4833 22.4648 75.0937 21.3766 75.0917 20C75.0937 18.6234 75.4833 17.5352 76.2666 16.6828C77.0576 15.8274 77.9749 15.4086 79.0561 15.407C80.2583 15.4102 81.166 15.857 81.8403 16.7594L81.9653 16.9266L83.0396 15.7164L83.1548 15.5868L83.0499 15.4468C82.6131 14.861 82.0312 14.396 81.3159 14.0509C80.5993 13.7046 79.843 13.5312 79.0561 13.5312C77.4757 13.5296 76.1118 14.1546 75.0055 15.3914C73.8951 16.6258 73.3354 18.1774 73.3369 20C73.3354 21.8218 73.8951 23.3743 75.0062 24.6094C76.1118 25.8454 77.4757 26.4696 79.0561 26.468C80.702 26.4696 82.0674 25.8546 83.1035 24.6304L82.9749 24.4922L83.1006 24.6336C84.0215 23.5984 84.4783 22.2 84.4771 20.4868H84.2993H84.2994ZM92.4937 15.4742H87.636V19.279H92.0167V20.721H87.636V24.5258H92.4937V26H86.2666V14H92.4937V15.4742" fill="white"/>
<path d="M92.4939 15.4742V15.2742H87.4585V19.479H91.8391V20.5204L87.4585 20.521V24.7258H92.3161V25.8H86.4447V14.2H92.3161V15.4742H92.4939V15.2742V15.4742H92.6716V13.8H86.0891V26.2H92.6716V24.3258H87.814V20.921H92.1947V19.079H87.814V15.6742H92.6716V15.4742H92.4939V15.4742ZM98.2738 26.0001H96.9023V15.4741H93.923V13.9999H101.253V15.4741H98.2738V25.9999" fill="white"/>
<path d="M98.2736 26.0001V25.8H97.0798V15.2742H94.1007V14.2001H101.075V15.2742H98.0959V26H98.2736V25.8V26H98.4514V15.6742H101.431V13.8H93.7451V15.6741H96.7243V26.1999H98.4514V25.9999H98.2736V26.0001ZM106.556 26.0001V13.9999H107.926V25.9999H106.556" fill="white"/>
<path d="M106.556 26.0001H106.734V14.2H107.748V25.8H106.556V26H106.734H106.556V26.2H108.104V13.8H106.378V26.2H106.556V26V26.0001ZM114.006 26.0001H112.635V15.4741H109.656V13.9999H116.985V15.4741H114.006V25.9999" fill="white"/>
<path d="M114.006 26.0001V25.8H112.812V15.2742H109.833V14.2001H116.808V15.2742H113.828V26H114.006V25.8V26H114.184V15.6742H117.163V13.8H109.478V15.6741H112.457V26.1999H114.184V25.9999H114.006V26.0001ZM124.052 23.4447C124.841 24.3438 125.808 24.7929 126.95 24.7929C128.092 24.7929 129.059 24.3438 129.847 23.4447C130.637 22.5455 131.033 21.396 131.033 20C131.033 18.6041 130.637 17.4546 129.847 16.5554C129.059 15.6562 128.092 15.207 126.95 15.207C125.808 15.207 124.841 15.6562 124.052 16.5554C123.264 17.4546 122.868 18.604 122.868 20C122.868 21.396 123.264 22.5455 124.052 23.4447ZM130.861 24.4492C129.812 25.6624 128.508 26.268 126.95 26.268C125.39 26.268 124.087 25.6624 123.04 24.4492C121.991 23.2374 121.469 21.754 121.469 20C121.469 18.246 121.991 16.7624 123.04 15.5508C124.087 14.3374 125.39 13.7312 126.95 13.7312C128.5 13.7312 129.801 14.3406 130.854 15.5586C131.906 16.7766 132.433 18.257 132.433 20C132.433 21.754 131.907 23.2374 130.861 24.4492Z" fill="white"/>
<path d="M124.052 23.4446L123.926 23.5852C124.744 24.5204 125.766 24.9954 126.95 24.993C128.133 24.9954 129.156 24.5204 129.974 23.5852C130.798 22.6492 131.212 21.4382 131.211 20C131.212 18.5618 130.798 17.3508 129.974 16.4148C129.156 15.4796 128.133 15.0046 126.95 15.007C125.766 15.0046 124.744 15.4796 123.926 16.4148C123.103 17.3508 122.688 18.5618 122.69 20C122.688 21.4382 123.103 22.6492 123.926 23.5852L124.052 23.4446L124.179 23.304C123.424 22.4406 123.047 21.3546 123.046 20C123.047 18.6454 123.424 17.5594 124.178 16.696C124.94 15.8328 125.849 15.4094 126.95 15.4071C128.051 15.4094 128.962 15.8328 129.721 16.696C130.476 17.5594 130.854 18.6454 130.855 20C130.854 21.3546 130.476 22.4406 129.721 23.304C128.962 24.1672 128.051 24.5906 126.95 24.5929C125.849 24.5906 124.94 24.1672 124.178 23.304L124.052 23.4446ZM130.861 24.4492L130.734 24.3102C129.715 25.4852 128.468 26.0657 126.95 26.068C125.431 26.0656 124.185 25.4852 123.167 24.3102L123.162 24.3039L123.167 24.3102C122.15 23.1312 121.648 21.7094 121.647 20C121.648 18.2906 122.15 16.8688 123.167 15.6898C124.185 14.5148 125.431 13.9336 126.95 13.9312C128.458 13.9336 129.702 14.5172 130.727 15.6984C131.748 16.8828 132.253 18.3023 132.255 20C132.253 21.7094 131.749 23.1312 130.734 24.3102L130.861 24.4492L130.989 24.5882C132.067 23.343 132.612 21.7984 132.61 20C132.612 18.2118 132.065 16.6704 130.982 15.4196C129.899 14.164 128.542 13.529 126.95 13.5312C125.35 13.529 123.989 14.161 122.913 15.4118V15.4109C121.833 16.657 121.29 18.2016 121.291 20C121.29 21.7984 121.833 23.343 122.913 24.589L122.917 24.5946L122.913 24.5882C123.989 25.839 125.35 26.4696 126.95 26.468C128.549 26.4696 129.91 25.839 130.989 24.5882L130.861 24.4492V24.4492ZM134.356 26.0001V13.9999H136.024L141.208 23.3351H141.267L141.208 21.0225V13.9999H142.58V25.9999H141.149L135.726 16.2123H135.667L135.726 18.5257V25.9999H134.356" fill="white"/>
<path d="M134.356 26.0001H134.534V14.2H135.926L141.11 23.5352H141.45L141.386 21.0197V14.2001H142.402V25.8H141.248L135.824 16.0124H135.484L135.548 18.529V25.8H134.356V26H134.534H134.356V26.2H135.903V18.5227L135.844 16.207L135.667 16.2124V16.4124H135.726V16.2124L135.575 16.3188L141.051 26.2H142.758V13.8H141.031V21.025L141.09 23.3406L141.267 23.3352V23.1352H141.208V23.3352L141.359 23.229L136.123 13.8H134.179V26.2H134.356V26L134.356 26.0001ZM190.109 60H193.426V34.9976H190.108L190.109 60ZM219.988 44.0041L216.185 54.8439H216.071L212.124 44.004H208.551L214.469 59.1546L211.095 67.5821H214.556L223.677 44.004L219.988 44.0041ZM201.175 57.1603C200.087 57.1603 198.572 56.5492 198.572 55.0368C198.572 53.107 200.46 52.3673 202.089 52.3673C203.549 52.3673 204.233 52.721 205.12 53.2041C204.862 55.5196 203.09 57.1603 201.175 57.1603V57.1603ZM201.575 43.4571C199.173 43.4571 196.686 44.6476 195.657 47.2853L198.601 48.668C199.23 47.2853 200.402 46.8344 201.632 46.8344C203.348 46.8344 205.092 47.993 205.12 50.0516V50.3087C204.519 49.9227 203.234 49.3438 201.66 49.3438C198.487 49.3438 195.255 51.3054 195.255 54.9727C195.255 58.3181 197.858 60.4734 200.773 60.4734C203.005 60.4734 204.233 59.3476 205.006 58.029H205.12V59.9587H208.322V50.3726C208.322 45.9345 205.378 43.4571 201.575 43.4571V43.4571ZM181.074 47.0476H176.356V38.4774H181.074C183.554 38.4774 184.962 40.7875 184.962 42.7624C184.962 44.7 183.554 47.0476 181.074 47.0476ZM180.988 34.9976H173.04V60H176.356V50.5274H180.988C184.665 50.5274 188.279 47.5328 188.279 42.7624C188.279 37.9922 184.665 34.9976 180.988 34.9976V34.9976ZM137.644 57.1649C135.353 57.1649 133.434 55.0063 133.434 52.0414C133.434 49.0455 135.353 46.854 137.644 46.854C139.907 46.854 141.683 49.0454 141.683 52.0414C141.683 55.0063 139.907 57.1649 137.645 57.1649H137.644ZM141.453 45.4041H141.339C140.594 44.4054 139.162 43.5033 137.358 43.5033C133.577 43.5033 130.112 47.2407 130.112 52.0414C130.112 56.8103 133.577 60.5157 137.358 60.5157C139.162 60.5157 140.594 59.6132 141.339 58.5828H141.453V59.807C141.453 63.0618 139.907 64.8017 137.415 64.8017C135.382 64.8017 134.122 63.1578 133.605 61.7726L130.713 63.1258C131.544 65.3812 133.749 68.1525 137.415 68.1525C141.31 68.1525 144.604 65.5742 144.604 59.2914V44.0188H141.453V45.4041ZM146.895 60H150.217V34.9967H146.895V60ZM155.115 51.7516C155.029 48.4648 157.378 46.7898 159.067 46.7898C160.386 46.7898 161.502 47.5305 161.874 48.5947L155.115 51.7516ZM165.426 48.9164C164.796 47.0148 162.876 43.5033 158.953 43.5033C155.058 43.5033 151.822 46.9508 151.822 52.0094C151.822 56.7783 155.029 60.5157 159.325 60.5157C162.791 60.5157 164.796 58.1312 165.627 56.746L163.049 54.8124C162.19 56.2304 161.015 57.1649 159.325 57.1649C157.635 57.1649 156.433 56.2946 155.659 54.5874L165.769 49.8828L165.426 48.9164ZM84.8779 46.1133V49.7219H92.5534C92.3243 51.7516 91.7228 53.2337 90.8062 54.2648C89.6895 55.5219 87.9424 56.9071 84.8778 56.9071C80.1519 56.9071 76.4576 52.6218 76.4576 47.3054C76.4576 41.9891 80.1519 37.7033 84.8779 37.7033C87.427 37.7033 89.2881 38.8312 90.6631 40.2812L92.9257 37.736C91.0069 35.6734 88.4576 34.0947 84.8779 34.0947C78.4048 34.0947 72.9631 40.0235 72.9631 47.3054C72.9631 54.5874 78.4048 60.5157 84.8779 60.5157C88.3722 60.5157 91.0069 59.2274 93.0688 56.8103C95.1883 54.4258 95.8473 51.0751 95.8473 48.3688C95.8473 47.5305 95.7902 46.7578 95.675 46.1133H84.8779ZM104.574 57.1649C102.282 57.1649 100.306 55.0382 100.306 52.0094C100.306 48.9484 102.282 46.854 104.574 46.854C106.865 46.854 108.841 48.9484 108.841 52.0094C108.841 55.0383 106.865 57.1649 104.574 57.1649ZM104.574 43.5033C100.392 43.5033 96.9833 47.0796 96.9833 52.0094C96.9833 56.9071 100.392 60.5157 104.574 60.5157C108.755 60.5157 112.163 56.9071 112.163 52.0094C112.163 47.0796 108.755 43.5033 104.574 43.5033ZM121.13 57.1649C118.84 57.1649 116.863 55.0382 116.863 52.0094C116.863 48.9484 118.84 46.854 121.13 46.854C123.422 46.854 125.398 48.9484 125.398 52.0094C125.398 55.0383 123.422 57.1649 121.13 57.1649H121.13ZM121.13 43.5033C116.949 43.5033 113.541 47.0796 113.541 52.0094C113.541 56.9071 116.949 60.5157 121.13 60.5157C125.312 60.5157 128.72 56.9071 128.72 52.0094C128.72 47.0796 125.312 43.5033 121.13 43.5033H121.13Z" fill="white"/>
<path d="M18.682 15.2226C18.0854 15.8282 17.7292 16.8382 17.7292 18.1789V17.8759V62.1181V61.8266C17.7292 63.0648 18.0347 64.021 18.552 64.6368L18.684 64.779V64.7796C19.1027 65.2047 19.6396 65.4304 20.255 65.4297C20.8562 65.4297 21.5327 65.214 22.2466 64.7587L48.0514 48.2641L56.9152 42.5977C58.0409 41.8782 58.6729 40.9501 58.7785 40.0047V40.0008C58.6729 39.0533 58.0409 38.1258 56.9153 37.4063L48.0507 31.7406L22.2467 15.246C21.5312 14.7898 20.8543 14.5734 20.2515 14.5734C19.6368 14.5734 19.1007 14.7984 18.6821 15.2226H18.682Z" fill="#00C1FF"/>
<path d="M18.6841 64.779L18.552 64.6368C18.0347 64.0211 17.7292 63.0648 17.7292 61.8266V62.118V17.8868V18.1789C17.7292 16.8382 18.0854 15.8281 18.682 15.2226L40.7083 40.0016L18.6841 64.779Z" fill="url(#paint0_linear_33:32)"/>
<path d="M48.0514 48.264L40.7083 40.0016L48.0507 31.7405L56.9152 37.4062C58.0409 38.1258 58.6728 39.0531 58.7785 40.0008V40.0046C58.6728 40.95 58.0409 41.8782 56.9152 42.5975L48.0514 48.2639" fill="url(#paint1_linear_33:32)"/>
<path d="M20.2551 65.4297C19.6398 65.4303 19.1029 65.2045 18.6843 64.7795L40.7085 40.0015L48.0516 48.2639L22.2467 64.7586C21.5328 65.214 20.8563 65.4297 20.2551 65.4297Z" fill="url(#paint2_linear_33:32)"/>
<path d="M40.7083 40.0017L18.6819 15.2227C19.1006 14.7985 19.6368 14.5735 20.2513 14.5735C20.8541 14.5735 21.5312 14.7898 22.2465 15.2461L48.0507 31.7407L40.7082 40.0017" fill="url(#paint3_linear_33:32)"/>
<path d="M20.2558 65.7226C19.6405 65.7226 19.1029 65.4968 18.6842 65.0718L18.6835 65.0725C18.6818 65.0706 18.6799 65.0688 18.678 65.0672L18.5634 64.9413C18.5598 64.9374 18.5565 64.9328 18.5522 64.9282L18.6843 64.7796C19.103 65.2046 19.6398 65.4304 20.2552 65.4296C20.8564 65.4296 21.5328 65.214 22.2468 64.7586L48.0516 48.264L48.2169 48.4501L48.0495 48.557L22.2467 65.0507C21.5961 65.4656 20.9772 65.682 20.4182 65.718C20.3641 65.721 20.31 65.7225 20.2558 65.7225" fill="url(#paint4_linear_33:32)"/>
<path d="M18.552 64.9282C18.0347 64.3125 17.7292 63.357 17.7292 62.1181V61.8267C17.7292 63.0648 18.0347 64.021 18.552 64.6368L18.684 64.779L18.552 64.9282" fill="url(#paint5_linear_33:32)"/>
<path d="M48.2168 48.45L48.0515 48.2639L56.9153 42.5976C58.041 41.8782 58.673 40.95 58.7786 40.0046C58.7786 40.3515 58.7098 40.6984 58.5731 41.036C58.2973 41.7164 57.7447 42.3594 56.9154 42.8898L48.2168 48.45" fill="url(#paint6_linear_33:32)"/>
<path d="M58.7786 40.0009C58.673 39.0532 58.041 38.1259 56.9154 37.4063L48.0508 31.7407L48.2161 31.5546H48.2168L56.9154 37.1149C58.1564 37.9086 58.7779 38.9546 58.7786 40.0009" fill="url(#paint7_linear_33:32)"/>
<path d="M17.7292 18.1789V17.8733C17.7292 17.7631 17.7319 17.6553 17.7369 17.5507V17.546C17.7369 17.5445 17.7369 17.543 17.7374 17.5414V17.5296C17.7909 16.4631 18.0854 15.6312 18.552 15.0757L18.682 15.2225C18.0854 15.8282 17.7292 16.8382 17.7292 18.1789Z" fill="url(#paint8_linear_33:32)"/>
<path d="M48.0506 31.7407L22.2465 15.2459C21.5312 14.7897 20.8542 14.5734 20.2514 14.5734C19.6368 14.5734 19.1006 14.7984 18.682 15.2226L18.552 15.0757C18.5926 15.0274 18.6348 14.9808 18.6784 14.936C18.6798 14.9344 18.682 14.9327 18.6833 14.9312C19.0987 14.5102 19.6292 14.2852 20.2382 14.2812H20.2514C20.8542 14.2812 21.5312 14.4976 22.2465 14.954L48.2167 31.554L48.216 31.5546L48.0506 31.7407" fill="url(#paint9_linear_33:32)"/>
<defs>
<linearGradient id="paint0_linear_33:32" x1="31.8054" y1="17.4193" x2="10.6245" y2="36.3075" gradientUnits="userSpaceOnUse">
<stop stop-color="#00A0FF"/>
<stop offset="0.00657" stop-color="#00A1FF"/>
<stop offset="0.2601" stop-color="#00BEFF"/>
<stop offset="0.5122" stop-color="#00D2FF"/>
<stop offset="0.7604" stop-color="#00DFFF"/>
<stop offset="1" stop-color="#00E3FF"/>
</linearGradient>
<linearGradient id="paint1_linear_33:32" x1="60.15" y1="39.8588" x2="17.1331" y2="39.8588" gradientUnits="userSpaceOnUse">
<stop stop-color="#FFE000"/>
<stop offset="0.4087" stop-color="#FFBD00"/>
<stop offset="0.7754" stop-color="#FFA500"/>
<stop offset="1" stop-color="#FF9C00"/>
</linearGradient>
<linearGradient id="paint2_linear_33:32" x1="44.1531" y1="47.8571" x2="8.29085" y2="79.604" gradientUnits="userSpaceOnUse">
<stop stop-color="#FF3A44"/>
<stop offset="1" stop-color="#C31162"/>
</linearGradient>
<linearGradient id="paint3_linear_33:32" x1="13.0051" y1="11.5491" x2="28.9909" y2="25.7223" gradientUnits="userSpaceOnUse">
<stop stop-color="#32A071"/>
<stop offset="0.0685" stop-color="#2DA771"/>
<stop offset="0.4762" stop-color="#15CF74"/>
<stop offset="0.8009" stop-color="#06E775"/>
<stop offset="1" stop-color="#00F076"/>
</linearGradient>
<linearGradient id="paint4_linear_33:32" x1="44.137" y1="53.5884" x2="15.3924" y2="79.2219" gradientUnits="userSpaceOnUse">
<stop stop-color="#CC2E36"/>
<stop offset="1" stop-color="#9C0E4E"/>
</linearGradient>
<linearGradient id="paint5_linear_33:32" x1="20.6635" y1="17.4193" x2="2.00338" y2="34.0599" gradientUnits="userSpaceOnUse">
<stop stop-color="#008DE0"/>
<stop offset="0.00657" stop-color="#008DE0"/>
<stop offset="0.2601" stop-color="#00A7E0"/>
<stop offset="0.5122" stop-color="#00B8E0"/>
<stop offset="0.7604" stop-color="#00C4E0"/>
<stop offset="1" stop-color="#00C7E0"/>
</linearGradient>
<linearGradient id="paint6_linear_33:32" x1="60.1502" y1="40.0027" x2="17.1332" y2="40.0027" gradientUnits="userSpaceOnUse">
<stop stop-color="#E0C500"/>
<stop offset="0.4087" stop-color="#E0A600"/>
<stop offset="0.7754" stop-color="#E09100"/>
<stop offset="1" stop-color="#E08900"/>
</linearGradient>
<linearGradient id="paint7_linear_33:32" x1="60.1502" y1="40.0029" x2="17.1334" y2="40.0029" gradientUnits="userSpaceOnUse">
<stop stop-color="#FFE840"/>
<stop offset="0.4087" stop-color="#FFCE40"/>
<stop offset="0.7754" stop-color="#FFBC40"/>
<stop offset="1" stop-color="#FFB540"/>
</linearGradient>
<linearGradient id="paint8_linear_33:32" x1="20.6453" y1="17.4533" x2="2.76393" y2="32.7085" gradientUnits="userSpaceOnUse">
<stop stop-color="#40B8FF"/>
<stop offset="0.00657" stop-color="#40B9FF"/>
<stop offset="0.2601" stop-color="#40CEFF"/>
<stop offset="0.5122" stop-color="#40DDFF"/>
<stop offset="0.7604" stop-color="#40E7FF"/>
<stop offset="1" stop-color="#40EAFF"/>
</linearGradient>
<linearGradient id="paint9_linear_33:32" x1="12.973" y1="16.7893" x2="25.8087" y2="28.2359" gradientUnits="userSpaceOnUse">
<stop stop-color="#65B895"/>
<stop offset="0.0685" stop-color="#62BD95"/>
<stop offset="0.4762" stop-color="#50DB97"/>
<stop offset="0.8009" stop-color="#44ED98"/>
<stop offset="1" stop-color="#40F498"/>
</linearGradient>
</defs>
</svg>
